<?xml version="1.0" encoding="UTF-8" standalone="no"?>
<!-- Generator: Adobe Illustrator 18.1.1, SVG Export Plug-In . SVG Version: 6.00 Build 0)  -->

<svg
   xmlns:i="&amp;ns_ai;"
   xmlns:ns="&amp;ns_sfw;"
   xmlns:dc="http://purl.org/dc/elements/1.1/"
   xmlns:cc="http://creativecommons.org/ns#"
   xmlns:rdf="http://www.w3.org/1999/02/22-rdf-syntax-ns#"
   xmlns:svg="http://www.w3.org/2000/svg"
   xmlns="http://www.w3.org/2000/svg"
   xmlns:xlink="http://www.w3.org/1999/xlink"
   xmlns:sodipodi="http://sodipodi.sourceforge.net/DTD/sodipodi-0.dtd"
   xmlns:inkscape="http://www.inkscape.org/namespaces/inkscape"
   version="1.1"
   id="레이어_1"
   x="0px"
   y="0px"
   viewBox="0 0 500 650"
   style="enable-background:new 0 0 500 650;"
   xml:space="preserve"
   inkscape:version="0.91 r13725"
   sodipodi:docname="korea.svg"><defs
     id="defs43" /><sodipodi:namedview
     pagecolor="#ffffff"
     bordercolor="#666666"
     borderopacity="1"
     objecttolerance="10"
     gridtolerance="10"
     guidetolerance="10"
     inkscape:pageopacity="0"
     inkscape:pageshadow="2"
     inkscape:window-width="1538"
     inkscape:window-height="878"
     id="namedview41"
     showgrid="false"
     inkscape:zoom="1.0381731"
     inkscape:cx="241.20534"
     inkscape:cy="325"
     inkscape:window-x="1016"
     inkscape:window-y="-8"
     inkscape:window-maximized="1"
     inkscape:current-layer="g7" /><g
       i:extraneous="self"
       id="g7"><path
         style="fill:#cccccc;stroke:#ffffff;stroke-width:0.5"
         d="m 56.700001,631.59998 0.200001,-0.79999 c 0,-0.1 0,-0.29999 -0.1,-0.40003 -0.1,-0.10003 -0.200001,-0.20001 -0.400001,-0.20001 l -0.599999,0 -2,-2.70001 c -0.1,-0.1 -0.1,-0.1 -0.200001,-0.20001 L 50.7,625.99994 l -1.799999,-1.5 -1.700001,-2.79999 0.5,-3.09997 c 0,-0.1 0,-0.20002 0,-0.20002 l -0.5,-1.59997 0.200001,-0.5 1.2,-0.59998 c 0.200001,-0.1 0.3,-0.29999 0.3,-0.40002 l 0,-1.09998 2.5,-1.59997 c 0.1,0 0.1,-0.1 0.1,-0.1 l 1,-1.5 0.900002,0.1 0.1,0 c 0.1,0 0.299999,-0.1 0.400002,-0.20002 l 2.2,-2.5 c 0.1,-0.1 0.1,-0.20001 0.1,-0.20001 l 0.400001,-2.5 3.900002,-1.59997 c 0.200001,-0.1 0.299999,-0.20002 0.299999,-0.40003 l 0.1,-1.5 0.1,0 1.799999,0 0.1,0 1.899997,-0.5 c 0.1,0 0.300003,-0.1 0.300003,-0.29999 l 0.1,-0.20001 1,0 c 0.1,0 0.199997,0 0.300003,-0.1 l 1.5,-1.20002 0.1,0 0.5,0.59998 c 0.1,0.1 0.199996,0.20001 0.400001,0.20001 0.1,0 0.199997,0 0.300003,-0.1 L 70.400002,599.80005 74.5,598.70007 c 0.1,0 0.1,0 0.199997,-0.1 l 1.099998,-0.90003 1.199997,-0.1 c 0.199997,0 0.400002,-0.1 0.400002,-0.29999 l 0.300003,-0.70001 0.400001,-0.20001 1.800004,0.5 0.1,0 0.1,0 1.300004,-0.20002 c 0.1,0 0.1,0 0.199996,-0.1 L 82.5,596.00012 l 0.699997,0.29999 c 0.1,0 0.1,0 0.199997,0 0.1,0 0.199997,0 0.199997,-0.1 l 1.099998,-0.59997 c 0,0 1.900002,0.20001 2,0.20001 0.199997,0 0.300003,-0.1 0.400002,-0.20001 l 0.699997,-1 3.5,-0.20001 c 0.199997,0 0.400001,-0.20002 0.5,-0.40003 l 0.1,-0.70001 0.599999,-0.70001 1.5,1.20001 c 0.1,0.1 0.199997,0.1 0.300003,0.1 0.1,0 0.1,0 0.199997,0 l 0.800003,-0.40003 c 0.199997,-0.1 0.300003,-0.20001 0.300003,-0.29999 l 0.1,-0.29998 0.400002,0.1 c 0.1,0 0.1,0 0.199997,0 0.1,0 0.1,0 0.199997,0 l 3.699991,-1.20001 3.1,0.40002 c 0.2,0 0.4,-0.20001 0.5,-0.40002 l 0.1,-0.5 2.3,0.5 0.2,0.29999 c 0.1,0.20001 0.3,0.20001 0.4,0.20001 0.1,0 0.1,0 0.2,0 l 1.69999,-0.59998 0.40001,0 0.1,1 c 0,0.1 0,0.20002 0.1,0.29999 l 1.2,1.59998 c 0.1,0.1 0.2,0.20001 0.4,0.20001 l 0.9,0.1 0.5,0.70002 c 0.1,0.1 0.2,0.20001 0.4,0.20001 0.1,0 0.2,0 0.30001,-0.1 l 0.8,-0.5 1.9,0.20002 0.7,0.5 -0.3,1 c 0,0.20001 0,0.29998 0.1,0.40002 0.1,0.1 0.2,0.20001 0.40001,0.20001 l 0.69999,0 0.2,0.5 -0.1,0.79999 -0.39997,0 c -0.2,0 -0.4,0.20001 -0.4,0.40002 l -0.2,0.79999 c 0,0.20001 0,0.40003 0.2,0.5 l 1.8,1.40003 c 0.1,0.1 0.2,0.1 0.3,0.1 0.1,0 0.1,0 0.2,0 l 0.8,-0.29999 0,0.29999 0,0.1 -0.1,0 c -0.2,0 -0.30001,0.1 -0.40001,0.20001 l -0.8,1.20001 c 0,0.1 -0.1,0.1 -0.1,0.20001 l -0.1,1 c 0,0.1 0,0.20002 0,0.20002 l 0,0 c -0.1,0 -0.19999,0 -0.19999,0.1 -0.1,0.1 -0.2,0.20001 -0.2,0.29999 l -0.9,4.5 -1.2,0.40002 c -0.1,0 -0.1,0.1 -0.19999,0.1 l -1.7,1.79999 c -0.1,0.1 -0.1,0.1 -0.1,0.20001 l -0.4,1.90002 -2.4,2.40003 c -0.1,0.1 -0.2,0.29999 -0.1,0.40002 l 0.1,1.20002 -1.1,1.20001 -1.9,0.40002 -2.80001,-0.5 -0.10001,0 c -0.1,0 -0.3,0.1 -0.4,0.20001 l -3,3.09998 -2.199994,0.1 -0.1,0 -3.599998,1 -0.599999,-0.29999 c -0.1,0 -0.199997,-0.1 -0.199997,-0.1 l -0.1,0 -2,0.29999 c -0.1,0 -0.199997,0 -0.199997,0.1 l -2.699997,2.20001 c -0.1,0.1 -0.199997,0.20001 -0.199997,0.29999 l 0,0.5 -1.300003,0.5 -0.5,-0.20002 -0.1,-0.29998 c -0.1,-0.20002 -0.199997,-0.40003 -0.5,-0.40003 l -1.699997,-0.1 c -0.199996,0 -0.400001,0.1 -0.5,0.29998 l -0.300003,0.70002 -1,-0.59998 c -0.1,0 -0.199997,-0.1 -0.300003,-0.1 l -2.199997,0.20002 c -0.1,0 -0.1,0 -0.199997,0.1 l -1.5,0.79999 -3.300003,0.79999 -0.900001,-1.40003 c -0.1,-0.1 -0.199997,-0.20001 -0.300003,-0.20001 l -0.699997,-0.20001 -0.1,0 -0.1,0 -2.099999,0.59997 -1.099998,-0.90002 c -0.1,-0.1 -0.199997,-0.1 -0.300003,-0.1 l -0.599999,0.1 c -0.1,0 -0.1,0 -0.199997,0 l -3.099998,1.40002 -4.099999,-1.09997 -0.1,0 c -0.1,0 -0.200001,0 -0.299999,0.1 l -3.099999,2 c -0.1,0.1 -0.200001,0.29999 -0.200001,0.40003 l 0,2.09997 c -0.1,-0.1 -0.2,-0.1 -0.299999,-0.1 l -0.5,0 c -0.1,0 -0.200001,0 -0.299999,0.1 l -0.700001,0.40003 -0.50003,-1.8e-4 z M 121.1,598.40002 l -0.3,-1 0.59999,-1.59997 0.2,-0.1 0.2,0.20002 -0.2,0.29998 c -0.1,0.20002 -0.1,0.40003 0,0.59998 0.1,0.1 0.2,0.20001 0.4,0.20001 0.1,0 0.1,0 0.2,0 l 0.2,-0.1 c 0,0.1 0,0.20001 0,0.20001 l 0.3,1 -0.3,0.70001 -1.29999,-0.40009 z"
         id="제주"
         inkscape:connector-curvature="0"
         x="82"
         y="608" /><path
         style="fill:#cccccc;stroke:#ffffff;stroke-width:0.5"
         d="m 339.89999,175.10001 -1,-2.2 -1.1,-1.89999 -0.29999,-2.10001 0.29999,-3.3 -0.4,-0.80001 L 339,164 l -1.20001,-1.39999 -1.4,-1.4 0,-1.5 -0.20001,-1.3 -2.39999,-1.2 0,-1.8 -3.29999,-2.2 -2.10001,-2.39999 -3.79998,-1.9 0,-2.8 -3,-3.5 0.6,-1.3 -0.1,-0.5 0.79998,-3.10001 -4.5,-4.1 -0.89999,0.3 0.70001,-1.7 -1.79999,-2.69999 -1,-6.60001 -1.70001,-1.8 -2.29999,-2.30001 -1.89999,-2.19999 1,-1.40001 0.10001,-3.5 -4.29999,-3.69999 -1.4,-2.9 -3.89999,-3.90001 -0.39999,-1.299998 -6.9,-6.599999 0,-1.199997 -4.39999,-5.099998 -0.29999,-3 -4.1,-3.699997 -1.10001,-2.199997 -4,-3.099999 -4.39999,-2.699996 0,-1.699997 -1,-3.099999 0.6,-2.5 -1.39999,-1.199997 -1.5,-2.199997 -1.20001,-0.199997 c 0,0 0,-1 -0.20002,-1.199996 -0.20001,-0.199997 -1.20001,-3.599999 -1.20001,-3.599999 l -1.29999,-1.099998 c 0,0 -0.29998,-1.599999 -0.20001,-1.8 0,-0.1 1,-2 1,-2 0,0 -1.70001,-2.7 -1.5,-2.7 0.20001,0 -0.70001,-2.900002 -0.70001,-2.900002 l -1.70001,-2.200001 -1.5,-1.799999 -0.9,-4.700001 -3.89999,-7.5 0.29999,-1 -3.80001,-6.200001 -0.69999,-3.5 L 253,16.5 l -1.2,1.700001 -0.8,-1.5 L 250.5,15.1 245.2,8.2999993 245.2,6.5 247,4.8999996 c 0,0 -2.60001,-3.6000004 -2.60001,-3.6999998 C 244.39999,1.1000004 244.7,0 244.7,0 l -0.80001,0.3000002 c -0.39999,0.1000004 -4.3,2.3000002 -4.3,2.3000002 l -2.10001,7.3000011 -3.3,3.2000005 0,2.9 1.10001,3.6 -6.2,8.8 L 216,36 l -8,-1 -8,-1.599998 -1.60001,2 -3.69999,1 -4.4,-3.099999 -3.39999,3.200001 -15.39999,0 -6.60001,2.299999 -11.8,-5.200001 L 145.3,35.700001 139.40001,33.799999 132.8,36.399998 130.40001,35.499996 124.21875,40 l 4.375,4.59375 -2.28125,0.78125 0,2.03125 6.07812,-0.203125 1.90938,5.696869 1.9,1 -0.60001,1.900001 0.2,1.300003 1.1,-0.599998 0.5,4.300003 1.5,1.699997 2.7,0 3.7,-5.099998 1.69999,0.400001 -1.10936,0.949997 -0.79687,4.8125 4.71875,3.75 3.8125,-1.921875 1.375,-0.296875 2.42187,1.71875 1.65625,-1 1.53125,1.90625 0.375,7.609375 1.3125,2.671875 3.53125,1.703125 2.98438,-0.40625 1,0.59375 -0.10938,2.703125 4.1875,1.390625 1.625,1.734375 0.98438,3.90625 -1.20313,4.078125 -3.21875,1.09375 -1.89062,2.21875 -2.15625,0.5625 -0.64063,1.515625 0.90625,2.90625 -0.89062,2.10938 1.1875,3.48437 -2.70313,3.21875 c 0,0 -0.34686,2.1 -0.0469,2 0.29999,-0.1 3.57812,-0.90625 3.57812,-0.90625 l -0.14062,4.40625 -1.98438,3.57813 2.70313,2.71875 3.57812,-1.20313 4.26563,2.42188 2.17187,0.17187 4.8781,3.69997 9.50626,1.39999 1.6,2.89999 -0.99998,2.2188 -1.90001,0.58121 -3.2,4 1,2.39999 1.80001,0.5 -0.2,4.3 -3.5,8.10001 0.2,7.60001 -1.62188,1.23753 0.8125,3.78125 -1,6.6875 0.60938,3.48437 4.19998,3.50936 2.5,-1.10001 1.3,-1.69999 5.9,0.69999 0.6,-1.1 1.80001,-0.7 0.5,-1.8 -0.9,-5 4.4,-3.5 4.19999,0.6 1.9,3.30001 0.1,3.69999 4.7,-0.6 4.3,-3.2 3.2,0.89999 2.2,-2.39999 2.3,-0.39999 2.10001,1.5 1.8,0.39999 1.7,1.60001 1.69999,0.39999 1,-0.2 1.4,-0.8 1.39999,0.39999 0.10001,1.5 L 240,175.5 l -3.39999,1.89999 0.8,1.9 1.91249,1.49688 0.89062,-0.71875 1.6875,-0.48437 1.14063,-1.3125 3.1875,0.21875 1.64062,-0.39063 0.95313,0.90625 -0.10938,2.5625 1.59375,1.20313 0.90625,1.53125 6.28125,-1.42188 2.03125,0.29688 c 0,0 3.51563,2.73437 3.51563,2.71875 0.20001,0.10001 4.06876,1.49374 4.06876,1.49374 l 4.1,-0.3 1.40936,2.02501 c 0,0 4.69065,2.67499 4.89063,2.67499 0.20001,0 1.89999,-0.2 1.89999,-0.2 L 282.01562,193 283.1875,191.70312 283.39062,187 c 0,0 1.80936,-0.50626 2.10938,-0.40625 0.29999,0.10001 6.40625,4.59375 6.40625,4.59375 l 3.875,-0.0781 4.125,-5.5 1.5625,0.375 0.625,1.40625 3.10937,-0.90625 7.5,2.51563 2.60938,-2.21875 3.08755,0.41875 3.10001,1.19999 2.70001,2.2 5.4,-0.10001 -2.70002,-2.6 0,-1.39998 2.9,-2.39999 3.39999,-2.4 2.60001,-0.8 2,-2.39999 2.89999,-0.30001 -0.80005,-3.1 z"
         id="강원"
         inkscape:connector-curvature="0"
         x="248"
         y="113" /><path
         style="fill:#cccccc;stroke:#ffffff;stroke-width:0.5"
         d="m 486.29999,133.7 -1,0.39999 -0.79999,1 -0.5,-0.2 -1.20001,0.7 L 482,137.5 l -0.60001,-0.60001 -1.79998,-0.6 -0.9,0.19999 -1.5,-1.1 -1.6,-0.4 -0.60001,-1 0.20001,-2.39999 -1,-1.2 0,-1.1 0.79999,0.5 4.10001,-2.10001 1.39999,0.10001 1.39999,-0.9 1.60001,0.2 0.79999,-0.89999 0.70001,0 0.20001,0.8 0.9,0.3 -0.70002,0.4 -0.29998,1.1 1,1.80001 -0.70002,2.6 0.9,0.49999 z M 359,299.89999 c 0,-0.20001 -0.60001,-1.1 -0.60001,-1.1 l -1.5,-0.4 -0.29998,0.70002 0.1,1 -4.20001,4 -0.20001,1.89999 -4.60001,2.70001 0.10001,1 -5.79999,-3.1 2.29999,-1 -1.29999,-1.70002 -2.29999,1.5 0.20001,-2.29998 0.10001,-1.29999 0.39999,-1 2,0 1,-0.5 0.29999,-2.20001 2.10001,-2.5 -2.29999,-1.29999 -1.89999,-1.5 -0.79999,-1.70001 0.20001,-3.5 -1.70001,-2 0.20001,-1.4 0.79999,-1.70001 c 0,0 -1,-3.20001 -1,-3.29999 0,-0.1 0.70001,-1.89999 0.70001,-1.89999 l -0.29999,-1.79999 c 0,0 -0.6,-1.20001 -0.6,-1.39999 0,-0.19999 0.29998,-1.9 0.29998,-1.9 l 0.5,-3.89999 -0.1,-3.20001 c 0,0 0.39999,-3.79999 0.39999,-3.9 0,-0.1 0,-8.20001 0,-8.20001 l 0,-2.70001 0,-6.3 0,-4.10001 1.5,-0.8 0.79999,-5.10001 1.60001,-2.39999 2.20001,-2.4 2.5,-2.39999 -0.20001,-5.4 -0.9,-1.19999 c 0,0 1.4,-1.80001 1.4,-1.9 -0.10001,-0.1 -0.9,-1.5 -0.9,-1.5 0,0 -0.89999,-1.1 -1,-1.5 0,-0.39999 0.10001,-2.19999 0.10001,-2.19999 l -3.5,-4.4 c 0,0 -0.70001,-4.39999 -0.70001,-4.6 0,-0.20002 0.39999,-1.60001 0.39999,-1.60001 l 0.20001,-5.89999 -1.20001,-2.7 0.39999,-1 0.10001,-2.7 c 0,0 0,-2.39999 0,-2.6 0,-0.2 0.29999,-1.60001 0.29999,-1.80001 0,-0.19999 1,-1.89999 1,-1.89999 l -2.4,-1.89999 c 0,0 -1.6,-1.5 -1.70001,-1.60001 -0.1,-0.10001 -0.51251,-2.19692 -0.51251,-2.19692 l -0.57813,0.0625 -2.32812,0.25 -1.95313,2.375 -2.64062,0.79688 -3.40625,2.42187 -2.90625,2.39063 0.0469,1.42187 2.67188,2.5625 -5.39063,0.10938 -2.65625,-2.17188 -3.10937,-1.21875 -3.13742,-0.40309 -2.60001,2.2 -7.5,-2.5 -3.1,0.89999 -0.60001,-1.39999 -1.60001,-0.39999 -4.1,5.5 -3.9,0.1 c 0,0 -6.1,-4.5 -6.39999,-4.6 -0.29999,-0.10001 -2.10001,0.39999 -2.10001,0.39999 l -0.20001,4.7 -1.20001,1.3 -2.6094,-1.40628 c 0,0 -1.8125,0.17187 -1.84375,0.1875 -0.23725,0.11862 -4.95313,-2.67188 -4.94684,-2.68121 l -2,2.1 -2.20002,-0.1 -2.29998,2.5 -1.10001,0.69999 -3,2.9 -2.79999,0.89999 -0.6,1.2 -3.7,2.7 -4.17813,7.4875 -0.10001,1.39999 1.39372,0.61249 0.89063,2.90625 -2.71875,4.1875 -4.09375,1.20312 -0.69374,1.60315 -2.89999,0 -1.9,-0.69999 -2.5,-5.5 -3.2,-2.10001 -1.38439,-1.99065 -1.3156,3.29065 -1.2,0.2 -0.59378,2.96248 -0.375,0.9375 -5.63121,-1.89998 -0.39999,-0.8 -1.10001,-0.2 -3.2,4 -1.39999,0.10001 -1.03442,-1.85628 -1.06557,0.35628 -2.88756,6.70622 3.59375,5.39062 -4.89063,-1.09375 -0.89062,-0.82812 -1.39063,0.73437 -3.23437,-1.71875 -3,3.78125 -4.09991,1.42814 -1.60322,2.19686 0.32813,2.39063 -4.92491,5.0125 -1.4,0.3 -1.00322,1.6875 0.70324,0.91249 5.19999,1.39999 1.19052,1.21877 -0.17187,0.98437 1.03125,1.85938 2.04687,1.45312 -0.59375,1.78125 -1.8125,1 -0.70312,7.375 0.51562,2.32813 -1.20312,1.90625 1.20312,3.48437 0.59375,0.40625 -0.79687,2.40625 -2.79688,2.39063 0.0781,4.46875 1.9375,1.64062 3.375,-2.6875 0.48437,1.76563 2.625,1.53125 1.89699,1.38739 1.2,0.39999 4,-1.89999 2.10001,0.79999 0.69999,1.20001 0.10001,3.20001 1.39999,1.70001 -0.6,1.4 -3.10001,-1.5 -2.39999,1.29999 -1.27094,1.97094 1.37094,2.82904 -0.6,3.79999 -1.80001,1.4 -1.22093,4.65847 -1.5625,2.25 -2.16667,0.875 -1.875,0.10416 4.82509,9.11237 -1.3,5.1 0.3,1.79999 1,1.29999 2.3,0.5 0.60001,0.5 0.39999,2.5 0.8,0.39999 3.9,0.60001 1.7,1.70001 7.1,0.60001 c 0,0 1.3,0.70001 1.4,0.79998 0.1,0.1 1.89999,1.5 1.89999,1.5 l 0.8,2.9 1.10001,0.79999 1.8,0.70001 0.4,1.89999 2.19999,1.20001 1.2,2 -2.10001,6.29999 -0.19999,1.4 1.12492,1.63766 c 0,0 3.59688,1.46875 3.79687,1.46875 0.10001,0 3.2782,-0.60641 3.2782,-0.60641 l 2.9,-1.20002 4.6,1.4 2.2218,2.31268 1.34375,0.21875 -0.51562,-2.09375 -4.22917,-4.75 c 0,0 0.35834,-2.16666 0.45834,-2.16666 0.10001,0 3.4209,2.77896 3.4209,2.77896 l 2.39999,0 0.38744,-3.4873 -3.09375,-4.15625 2.50632,-6.15646 5.1968,-1.09354 -0.1875,-1.79688 -2.9093,-2.40957 -4.5907,-0.23105 1.67188,-5.95313 c 0,0 2.02499,-3.125 2.125,-3.125 0.10001,0 4,-1.8125 4,-1.8125 l 0.59375,5.75 2.40005,-0.22833 3.60001,-8.20001 5.89999,-1.20001 3,-3.10001 3.10001,-0.79999 3.10001,0.4 3.79998,3.1 0.60001,7.5 1.89999,4.10001 -1.1,2.29999 -4.59693,1.2846 -2.82812,3.4375 0.0251,2.7779 -1.1,0.5 1.12182,2.05023 1.29688,1.5625 -0.125,3.98437 -3.42188,1.40625 -1.48437,1.70313 -2.68744,-0.40646 -0.70001,-3 -3.20001,0.1 -2.10001,1.29999 -1.60001,2.60001 0.5,1.79998 1.20002,-0.6 0.70001,1.29999 -0.5,3.1 1.79999,3.70001 4.32183,3.32523 6.25,-1.4375 9.42188,3.39062 5.51562,-3.89062 0.98438,0.28125 4.50626,-3.96902 2.1,0.1 3,1 3.5,1.4 0.9,-0.29999 1.1,-0.9 3.79999,-3 1.5,-0.20001 1.29999,-0.70001 c 0,0 -1.70001,-3.60001 -1.60001,-3.60001 0.10001,0 8,-4.1 8,-4.1 l 4.70001,0.1 2.4,1.60001 2.29999,0.60001 0.79998,1.1 -0.5,2.79999 1,1.10001 2.10001,0.70001 5.39999,-2.4 8.72504,2.40338 c 0,0 1.48126,0.10312 2.28125,0.20313 l -2.50632,-2.70648 0.20002,-1.4 c 0,0 1.20001,-1.6 1.29998,-1.79998 0.10001,-0.20002 1.70002,-2.10001 1.70002,-2.10001 l 0.29998,-2.60001 -0.1,-1.39999 0.89999,-1.5 0,-2 0.89999,-1 -0.20001,-3.89999 2,-2.5 c 0,0 0.29999,-3.4 0.4,-3.60001 0,-0.20001 1.6,-3.70001 1.6,-3.70001 l -0.89999,-2.70001 0.5,-0.4 0.29999,-0.6 -1.60001,-2.70002 2.60001,-2.89999 0.70001,-3.70001 1.39999,-2.10001 1.60001,-2.1 -0.79999,-4.10001 C 359.60001,302.29999 359,300.10001 359,299.89999 Z"
         id="경북"
         inkscape:connector-curvature="0"
         x="287"
         y="262" /><path
         style="fill:#cccccc;stroke:#ffffff;stroke-width:0.5"
         d="m 251.7,357.79999 -2.43438,-1.26874 -0.51562,-2.09375 -4.25,-4.73752 c 0,0 0.39999,-2.18436 0.5,-2.18436 0.10001,0 3.40625,2.78125 3.40625,2.78125 l 2.39062,0 0.40313,-3.49691 -3.12188,-4.12809 2.51563,-6.1875 5.20625,-1.08441 -0.19999,-1.79998 -2.88126,-2.39686 L 248.10937,331 249.8,324.99997 c 0,0 2,-3.10001 2.10001,-3.10001 0.10001,0 4,-1.79998 4,-1.79998 l 0.58436,5.72815 2.42188,-0.23438 3.59375,-8.1875 5.90625,-1.20312 2.98437,-3.10938 3.10938,-0.79688 3.125,0.40625 3.76562,3.09375 0.60938,7.54688 1.89062,4.0625 -1.07812,2.28125 -4.61252,1.31247 -2.84061,3.43753 0.0469,2.78125 -1.10938,0.48437 1.10312,1.99683 1.29999,1.60001 -0.1,4 -3.4,1.39999 -1.5,1.70001 -2.70001,-0.39999 -0.70001,-3 -3.20001,0.10001 -2.10001,1.29998 -1.60001,2.60001 0.50632,1.7969 c -0.5,0.29999 -0.90631,0.50312 -0.90631,0.50312 l -0.39999,3.5 -1.1937,0.79376 -2.29688,-1.10938 -1.40625,0.40625 -4.00312,2.90937 z"
         id="대구"
         inkscape:connector-curvature="0"
         x="265"
         y="334" /><path
         style="fill:#cccccc;stroke:#ffffff;stroke-width:0.5"
         d="m 348.10001,357.39999 0.29998,3.20002 -1.20001,4.70001 -0.79999,0.1 c 0,0 -0.6,0.5 -0.6,0.70002 0,0.1 0.5,1.20001 0.5,1.20001 l -0.20001,1.79999 -0.60001,-0.70002 -1.79999,2 -0.29999,-3 -0.70001,-1.20001 -1.1,-2.39999 c 0,0 -1.10001,-1.60001 -1.29999,-1.60001 -0.20001,0 -2.10001,-1.5 -2.29999,-1.5 -0.19998,0 -0.70001,0.4 -0.70001,0.4 L 339,361.89999 341.10001,364 l 0.39999,2.29999 -1.5,0.1 2.10001,1.79999 -2.60001,2.9 c 0,0 -1.89999,-1.60001 -2.10001,-1.70002 -0.1,-0.1 0.70002,2 0.70002,2 l 0.39999,1.79999 c 0,0 1.39999,0.29999 1.5,0.5 0.10001,0.20001 -0.29999,3.79999 -0.29999,3.79999 l -1.79999,1.70001 c 0,0 0.10001,2.10001 0.10001,2.20001 0,0.10001 1.39999,1.5 1.39999,1.5 0,0 -2.39999,0.4 -2.6,0.5 -0.20001,0.10001 -2.79999,4.10001 -2.79999,4.10001 l -0.79999,0.20001 -1,-0.79999 0.10001,-0.89999 -1,-1.29999 -1,-0.20001 -1.80005,-1.59375 -2.82813,-2 -1.09375,-1.40625 -3.25,1.01562 -8.9281,-7.91564 -5,0 -2.5,-2.29999 -0.6,-5.79999 3.5,-2.5 0.39999,-1.89999 -2.59064,-1.91251 1.45313,-1.1875 3.45312,-2.70313 1.5,-0.20312 1.28125,-0.71875 c 0,0 -1.69375,-3.60938 -1.59375,-3.60938 0.10001,0 8,-4.07812 8,-4.07812 l 4.70313,0.0937 2.4375,1.625 2.21875,0.57812 0.84375,1.125 -0.5,2.8125 1,1.07813 2.10937,0.6875 5.39063,-2.39063 8.6937,2.40314 c 0,0 1.5,0.10001 2.29998,0.20001 l 0.60001,0.79999 -1.39993,2.69998 z"
         id="울산"
         inkscape:connector-curvature="0"
         x="326"
         y="363" /><path
         style="fill:#cccccc;stroke:#ffffff;stroke-width:0.5"
         d="m 332.20834,386.89584 1,0.8125 -1.375,0.8125 -0.68325,-1.12082 -0.70002,0.70002 -0.5,5.20001 -0.79998,-0.10001 -1.20002,0.4 0.29999,0.70001 1.39999,0.29999 c 0,0 0.20002,0.89999 0.20002,1 0,0.1 -0.29999,1.29998 -0.4,1.5 -0.1,0.20001 -1.20001,1.6 -1.20001,1.70001 0,0.1 -0.70001,1.6 -0.79999,1.70001 0,0.10001 -0.39999,2.39999 -0.39999,2.39999 l -2.10001,0.29999 -0.20001,1.10001 -0.79999,1.6 -4.70001,0.4 -1.10001,-0.60001 -1.89999,2.4 -0.10001,0.70001 0.9,1 0.70001,1.29999 -0.20001,1.6 -0.9,0.9 -1.5,0.5 -0.29998,-0.79999 -0.79999,-0.9 -1.29999,-0.29998 -0.79999,-0.4 0.5,-1.6 -1.70001,0 -0.79999,1 -0.5,1 -0.5,0.89999 0.60001,0.39999 1.89999,-0.5 c 0,0 1.70002,1.29999 1.9,1.4 0.1,0.1 -0.29999,1.70001 -0.29999,1.70001 l 1.5,0.89999 0,0.9 -1.10001,1 -4.79998,-3.70001 0.1,-1.5 -0.6,0.1 -0.4,3.79999 -0.70001,0.89999 c 0,0 -0.70001,-0.20001 -0.89999,-0.20001 -0.10001,0 0,-3.29999 0,-3.29999 l -1.20002,-0.20001 0.70002,3.4 0.1,0.89999 -1.1,-1.20001 -2.20002,2.6 -1,-1.6 c 0,0 -0.29998,-3.60001 -0.5,-3.60001 -0.20001,0 0.60001,-3.29999 0.60001,-3.29999 0,0 0.39999,-2.70001 0.39999,-2.79998 0,-0.10001 0.70002,-1.70002 0.70002,-1.70002 l 0.29998,-1.20001 -0.89999,0.60001 -0.5,1.20001 -0.29999,1.39999 -0.79999,0.10001 -0.20001,1 0.5,0.60001 -0.5,2.29998 -0.39999,1.70002 -1.20001,0.89999 -0.10001,-1.39999 -1.5,1.39999 c 0,0 -1.20001,-0.10001 -1.29999,-0.10001 -0.1,0 0,-2.1 0,-2.29998 0,-0.20002 0.79999,-1.70002 0.79999,-1.70002 0,0 1,-0.20001 1.20001,-0.20001 0.10001,0 0.4,-1.1 0.4,-1.1 l 0.1,-1.20002 1,-0.70001 0.29999,-1.5 -1.70001,2.10001 -1.10001,0 -0.1,-3.10001 -0.29999,-0.29999 -0.10001,2.10001 -1.1,-0.79999 -0.10001,0.79999 1.20001,0.79999 0.10001,1.20001 -1.4,5.29999 -0.5,0.29999 -4.39999,-0.10001 -0.20001,1.60001 1.6,0.6 0.10001,3.4 -1,1.6 -0.60001,1.60001 0.79999,2.29999 -1,2.39999 -0.5,0 c 0,0 -3,-2.70001 -3.20001,-2.79999 -0.10001,-0.1 -2.20001,-2.20001 -2.20001,-2.20001 l 0,-1.10001 1.5,0.10001 2.29999,-1 -0.10001,-1.79999 -1.70001,-1.20001 -1.29999,-1.20001 -0.60001,-1.10001 0,-0.79999 0,-0.29998 0.79999,0.20001 1.10001,-0.29999 -0.10001,-2.70001 0.5,-0.70001 6.79999,-3.29999 0.70001,-3.9 2.39999,0 3.29999,-2 4.29999,0 4.20001,-6.29998 4.29999,-3.79999 2,0.70001 3.39999,-6.5 4.47501,-1.01563 0.6875,-1.98437 2.875,-3.09375 0.96875,0.6875 1.82812,1.29687 1.82813,1.625 0.98437,0.1875 0.99479,1.31772 -0.0833,0.875 z"
         id="부산"
         inkscape:connector-curvature="0"
         x="319"
         y="399" /><path
         style="fill:#cccccc;stroke:#ffffff;stroke-width:0.5"
         d="m 203.90009,306.70001 1.6,-2.29999 1.16658,-4.58752 1.83333,-1.39584 0.60417,-3.79166 -1.39584,-2.85416 1.29167,-1.97918 2.39583,-1.3125 L 214.5,290 l 0.60417,-1.39584 -1.39584,-1.70832 -0.099,-3.16147 -0.70313,-1.25 -2.08136,-0.78738 -4.02801,1.91238 -1.21875,-0.40625 -1.87803,-1.40307 -2.6,-1.5 -0.5,-1.79999 -3.4,2.70001 -1.89999,-1.6 -0.10001,-4.5 2.80001,-2.4 0.8,-2.39999 -0.60001,-0.39999 -1.19999,-3.5 1.19999,-1.9 -0.5,-2.29999 0.7,-7.39999 1.8,-1 0.60001,-1.79999 -2,-1.39999 -1.10001,-1.9 0.2,-1 -1.16572,-1.21576 -5.22501,-1.35922 -0.70928,-0.925 0.99678,-1.70015 1.35938,-0.29688 4.96249,-5.01547 -0.31866,-2.38749 1.60617,-2.20641 4.08437,-1.41547 3.00946,-3.77812 3.23429,1.69359 1.38132,-0.70921 0.88437,0.81562 4.89999,1.10001 -3.6,-5.39999 2.89989,-6.72505 1.06568,-0.33138 1.01563,1.875 1.4375,-0.10937 3.17187,-4.01563 1.125,0.20313 0.39063,0.79687 5.59378,1.90642 0.39999,-0.9 0.60935,-3.00627 1.2,-0.19999 1.29065,-3.29374 1.43122,2.03435 3.17813,2.05298 2.5,5.53125 1.9375,0.70313 2.85938,-0.0156 0.69376,-1.60609 4.1,-1.2 2.7,-4.2 L 252,211.5 l -1.375,-0.60938 0.0781,-1.39062 4.21875,-7.51563 3.6875,-2.6875 0.5625,-1.21875 2.82813,-0.875 3.01562,-2.90625 1.0625,-0.67187 2.32813,-2.54688 2.20312,0.10938 1.98438,-2.07813 -0.48438,-0.6875 -0.90625,-1.32812 -4.04687,0.3125 c 0,0 -4.04688,-1.45313 -4.0625,-1.46875 L 259.5,183.2 l -2,-0.30001 -6.3,1.4 -0.9,-1.5 -1.6,-1.2 0.1,-2.60001 -0.89999,-0.89999 -1.7,0.39999 -3.19999,-0.19999 -1.10001,1.3 -1.7,0.5 -0.89999,0.7 -1.9094,-1.48749 -0.79687,-1.92188 3.39062,-1.85937 2.42188,-2.60938 -0.10938,-1.51562 -1.375,-0.4375 -1.39062,0.82812 -0.98438,0.1875 -1.75,-0.375 -1.70312,-1.625 -1.76563,-0.39062 -2.10937,-1.5 -2.29688,0.375 -2.20312,2.4375 L 223.5,170 l -4.26563,3.1875 -4.75,0.60937 -0.0781,-3.6875 -1.90625,-3.3125 -4.1875,-0.60937 -4.42188,3.53125 0.89063,4.98437 -0.48438,1.78125 -1.8125,0.71875 -0.57812,1.10938 -5.92188,-0.71875 -1.26562,1.67187 -2.5,1.15625 -4.21873,-3.52186 -0.60001,-3.5 -2.39999,1.89999 -3.30001,8 -1.8,0 -1,-3.19999 -1.7,-0.9 -0.69999,7.4 -2.5,0.39999 -4.5,3.89999 -3.68752,-0.99374 -1.79688,3.07812 0.40625,-2.10937 -1.53125,0.32812 -0.59375,-1.20312 -2.10937,2.51562 c 0,0 -0.59375,2.07502 -0.59375,2.375 0,0.30001 -5.79688,3.125 -5.79688,3.125 l 0.8125,1.1875 -0.5,2.3125 -1.90625,1.70313 -2.09375,-0.53125 -1.21875,1.51562 -4.59062,1.69686 -2.31563,-0.009 c 0.5,1.2 1.01563,2.59375 1.01563,2.59375 l 2.59375,1.71875 0.20312,2.78125 1.34375,0.64063 0.75,0.6875 -0.1875,1.65625 1,0.84375 2.69689,-0.1125 3.5,2.1 1.2,3.80001 -1.7,1.89999 -3.7,-0.3 -5,7.89999 1.4,2 -0.4,2.8 -1.68438,0.67813 2.89062,3.4375 -0.1875,2.59375 0.5625,1.48438 3.31877,0.30624 -1.2,3.29999 1.2,1.20001 -1.39999,5.29999 1.3,-0.1 0.54685,0.91564 3.55316,-0.71563 1.19683,5.20001 1.51563,-2.32813 0.79687,-0.59375 1.28125,0.10938 -0.375,2.01562 3.07813,-2.40625 2.60937,2.625 0.39695,2.67814 2.1,1.29998 -0.3,1.29999 2,2.20001 -2.80632,2.22501 -2.09367,11.375 1.1,4 3.7,1.70001 2.74679,-0.075 1.92188,3.04687 0.33133,3.12815 -1.39999,2.70001 0.38116,2.70309 2.4532,1.85004 2.3,6.10001 0.76563,-0.35312 0.8,2.29999 4.05617,0.11871 1.71875,2.39062 0.17188,2.54688 2.29687,-0.0312 0.71875,-2.67188 5.53758,-1.95312 2.5,1.89999 2.81659,-2.71249 1.85416,-0.10416 2.12926,-0.88333 z"
         id="충북"
         inkscape:connector-curvature="0"
         x="183"
         y="227" /><polygon
         style="fill:#cccccc;stroke:#ffffff;stroke-width:0.5"
         points="142.7,279.5 144.7,281.79999 145.10001,284.89999 146.60001,287.5 149,287.70001 150.2,290.70001 151.60001,290.79999 152.2,288.39999 152.5,280.29999 154.10001,280.20001 154.5,284.5 156.5,288 160.7,290.10001 162.8,287.10001 166.07812,285 164.97804,281.01562 167.10001,269.60001 169.90625,267.40625 167.89062,265.1875 168.20312,263.89062 166.08743,262.57187 165.7,259.89999 163.10001,257.29999 160,259.70001 160.39999,257.70001 159.10001,257.60001 158.3,258.20001 156.8,260.5 155.57812,255.29688 152.03125,256.01562 151.9375,256.53125 150.99997,261.61874 143.7,264.5 144.60001,273.29999 141.7,275.60001 "
         id="대전"
         x="156"
         y="273" /><path
         style="fill:#cccccc;stroke:#ffffff;stroke-width:0.5"
         d="m 181.3,437.89999 1.7,1.5 3.3,0.10001 1.10001,-1.70001 c 0,0 -3.89999,-1.5 -3.60001,-1.70001 l -2.5,1.80001 z m -123.399998,6.70002 0,0 0,0 0,0 0,0 z m -0.600003,-1.5 0,1.6 L 55.700001,444 52.5,443.60001 52.5,445 52.6,444.60001 54.300001,444 l 0.900002,-0.60001 -0.700001,-0.6 -0.900002,-1.5 -4.299999,-0.20001 -1.099998,1.70001 -3.900002,-1.20001 0.400002,-1.70002 2.700001,1 1.400001,-0.5 0.599999,-2.6 1.400001,0.1 -1.900001,-2.20001 2.7,0 0.5,4 2.400002,0 0.5,3 -1.200001,0 -0.599998,-1.70001 -0.200001,-1 1.200001,0.10001 c 0,0 2.2,0.39999 2.400001,0.6 0.200001,0.20001 1.200001,1.20001 1.400002,1.20001 0.2,0 -0.700009,1.20005 -0.700009,1.20005 z m 134.599991,21.19998 -0.39999,4.89999 1.60001,1.9 -0.5,0.70001 -2.2,-0.29999 c 0,0 -2.39999,-0.39999 -2.7,-0.39999 -0.3,0 -0.6,-1.9 -0.6,-1.9 l -1.4,-0.5 L 184,467.5 l 1,-0.89999 -0.10001,-2.4 1.30001,-0.6 2.6,-3.5 c 0,0 -1.69999,-4.29999 -1.89999,-4.29999 -0.3,0 -0.39999,-1.70001 -0.39999,-1.70001 L 185.90001,455 185.3,456.39999 183,456 l -3.5,-3.29999 -2.7,4.79999 -1.69999,0.60001 1,1.20001 -0.9,1.6 2.2,3.5 -0.5,1.20002 -1.2,1.29998 -1,-1.70001 -1.69999,-0.6 -1.4,0.70001 -1.2,-0.20001 L 169,463.5 l 1,-1.20001 -0.39999,-0.5 -0.9,-0.60001 1.80001,-2.39999 -1.10001,-1.4 2.10001,-2.5 0.8,-3.39999 -0.7,0.39999 -0.6,0.20002 -0.2,-2.70002 -1.4,-2.6 -2.5,0 -0.5,-1 1.80001,-2.9 -1.9,0 -0.3,-2.79998 c 0,0 -2.39999,1.1 -2.5,1.29998 -0.10001,0.19999 -0.60001,6.5 -0.60001,6.5 l -2.90002,0 -3.5,-0.79998 -2,-2.70002 -1.10001,-0.89999 -1.5,0.10001 0.30001,1.1 1.19999,0.60001 -0.48332,0.74164 1.66666,0.20834 0.70834,0.45834 -0.29169,0.29169 -0.39999,0.79999 -1.39999,2.20001 1.89999,1 -3,2.39999 0.60001,0.9 0.39999,1.6 3.7,4.29999 0.6,1.5 3.9,1.70001 1.3,1.10001 -1.3,1.39999 2.3,0.9 0.7,6 -1.7,3.70001 -3.59999,0 -0.89999,-1 -3.5,0 -0.9,-3.39999 -0.1,-0.5 -3.7,0.20001 0.60001,2.39999 2.3,0.4 -0.60001,1.20001 2.2,-0.9 c 0,0 3.60001,1.4 3.7,1.60001 0.1,0.20001 -2.7,3.20001 -2.7,3.20001 l -0.5,2.10001 -2.10001,1.60001 0.60001,5.1 -5.2,0 -1.19999,-1.6 1.8,0.79998 -3.2,-0.20001 0.10001,-1.5 -2.5,-2.5 0.3,-1 -2.39999,-3.20001 -5.80001,-3.10001 1.7,1.9 -0.7,0.89999 -2.8,-2.29999 0.10001,1.29999 -1.4,0.89999 -2,-0.20001 -1.69999,-0.39999 -0.7,-1.9 0.1,-2.20001 2.4,-1.89999 0.39999,-1.9 2.4,-0.1 c 0,0 -0.10001,-2.29999 -0.10001,-2.5 -0.10001,-0.20001 0.39999,-1.4 0.39999,-1.4 l 2.30001,-2.1 0.5,0.29999 -0.4,5.39999 -0.89999,0.10001 -0.10001,1 1.4,-0.70002 0.6,-3.20001 1.7,-0.1 -0.60001,-0.9 0.9,-1.1 -0.3,-1.20002 0.3,-3 1.2,-0.39999 0.69999,-2.79999 c 0,0 2.4,-0.6 2.60001,-0.39999 0.2,0.20001 -0.10001,3.39999 -0.10001,3.39999 l 0.60001,1 0.89999,0.60001 1.7,-0.70001 0.2,-1.4 0.69999,-3.39999 -3.6,-1.29999 0,-3 0.69999,-0.29999 -0.89999,0.21665 -0.40001,1.18335 c 0,0 -1.2,1.39999 -1.39999,1.29998 -0.2,-0.1 -1.9,-2.89999 -1.9,-2.89999 l 0.60001,-0.79999 -0.39999,-1.29999 -1.80001,0.10001 -0.6,-1 -1,0.89999 1.39999,1.20002 -0.60001,1.1 -0.1,1.29999 0.39999,1.39999 -3.2,4.29999 -4.19999,-0.1 -0.7,-1.4 -1.39999,2.4 -2.2,2.20001 -2.2,-0.10001 -2.19999,3.4 -1.2,1.1 -4.7,-0.20001 1.5,1.79999 -0.4,3.5 -2,1.1 1.4,0.9 -0.9,5.29999 -1.1,2.20001 0.80001,2.79999 -1.5,0.79998 -1.40001,-1.70001 0.5,1.70001 -1.19999,2.79999 -0.9,-0.89999 -4.90001,-0.60001 1.2,2.70001 -3.9,-2.20001 -4.000001,-0.20001 0.1,-1.20001 -1.900002,-0.29999 0.900002,-1.70001 -0.699997,-3 0.599998,-7.60001 -1.400001,-5.10001 L 95,479.39999 l 0.599998,2.29999 -2.900001,1.60001 0.800003,1.5 -0.800003,0.29999 -1.900002,0.1 0,1.20001 0.900002,0.5 L 90,487.69998 l -3.800003,0.60001 -9.400002,4.20001 0,5.10001 0.900002,2.5 2.199997,5.30001 -4.099999,0 -2,3 -0.900001,0 -1,-3.29998 0.900001,-3.9 -0.199997,-3.70001 -1.800003,-0.60001 L 70,497.5 68.699997,497.60001 68.5,494.89999 69.699997,494.5 l 0.400001,-0.29999 -0.900001,-2.29999 2.300003,0.20002 0.199997,-1.20002 -0.800003,-2.6 -2.5,1.89999 L 65.199997,487 l 0.900001,-1.5 -2.299999,-1.60001 0,-0.6 2.100003,-1.9 1.400001,-0.79998 -2.400001,-2.29999 1.599998,-0.9 -2.5,-2.29998 -1.099998,-0.10001 -2.400002,2.20001 -0.799999,0.10001 -0.1,-2.70001 -2.400001,0.1 -1.799999,-1.29999 -3.200001,-0.39999 0.299999,-1.70001 -2.400002,-1.9 -0.400001,-0.89999 0.599998,-0.89999 0.400002,-1.4 -0.900002,0.4 -2.400001,-4.20002 0.400001,-4 1.599999,-1 -0.200001,-1.39999 0.1,-1.70001 1.099998,-2.70001 4.700001,2.39999 0.1,1.89999 1.900002,3.10001 2.700001,-2.79999 4,0.70001 2.700001,1.60001 -0.800004,3.10001 1.099999,0.1 1.300003,1.5 0.400002,1.60001 0.800003,0.29999 1.699997,0.89999 0.400001,-1.39999 -2,-0.4 1.199997,-0.79998 2.699997,0.1 4.5,2.5 -3.5,-3.20001 1.099998,-0.89999 -2.699997,0.29998 -1.300003,-1.70001 1.199997,-0.79999 -1.5,-1.5 -3,-1.29998 0.1,-1.5 -0.699997,1.20001 -3.599999,-0.60001 c 0,0 -3,-0.70001 -3.2,-0.70001 -0.200001,0 -2.700001,-1.39999 -2.700001,-1.39999 l 1.200001,-1.20002 0.299999,-1.79998 6.800003,-1.60001 3,1.70001 0.400001,1.9 0.599999,-1.29999 1.900001,-0.10001 0.599999,-1.29999 0.199997,-2.1 1.199997,-0.9 -0.5,-0.89999 -1.599999,1.20001 -0.599998,2.10001 -2.199997,0.39999 -3.599999,-2.39999 -4.5,-0.29999 0,0.60001 -4.700001,1.79998 -0.299999,-1.39999 1.400002,-0.29999 -0.200001,-0.1 1.299999,-0.20002 1.900002,0 1.900001,-3.79998 -1.700001,-4.29999 -0.599998,-2.9 1.200001,-2.20001 -0.599999,-1.20001 -0.1,-5 1.900001,-1.29999 -1.200001,-1.20001 -1.099998,1.20001 -0.1,1.60001 -1,-1.20001 -0.599998,-2.29999 -0.5,0.20001 -0.400002,2.89999 1.400002,1.20002 -1.700001,4.20001 L 55,433.8002 l -0.400002,-1.20001 -1.7,-0.5 0.799999,-1.29999 -2.700001,-1.79999 -0.299999,-2 1.5,-1.1 1.400001,2.20001 2,-1 1.099999,-2.20001 -1.200001,-0.10001 -0.599998,-0.6 4.5,-3 -0.599999,-2.60001 -2.599998,1.10001 -0.1,-1.70002 -1.599998,-3.1 -1.099999,-0.70002 -2.200001,2.60001 1,1 -1.2,1.20001 -0.8,-1.6 -3.099998,0.1 1.5,2.5 -1.400002,2.4 -1.400001,-0.9 -1.5,0.60001 -0.5,-4.39999 -5,-1.5 -1.099999,-2.4 0.700001,-1.39999 1.799999,-1.20001 1.400002,0.29998 4.299999,1.29999 0.299999,-2.70001 1.400002,-2.9 1.099998,1.29999 1.200001,-0.29999 1.900002,-0.20001 1.2,0.79999 2.599999,-2.5 -1.200001,7.29999 3,1.39999 0.400002,2.10001 2,-2.79999 1.5,3.5 -1.099999,3.20001 0.599999,4.29999 2.299999,0 -0.900002,-3.5 3.199997,-6.10001 -1.300003,-1.5 2.099999,-1.1 -0.599999,-1.4 -3.299999,0.20002 -0.400002,-1.9 -5,-5.5 -0.7,-1.39999 1.900001,-2.79999 -3.299999,1.10001 0.400001,-1.79999 -1.400001,0.89999 -0.700001,-1.6 -1.599998,1 -0.599999,-1.70002 2,-4.5 1.400002,-0.70001 -0.599999,-1.39999 3.799999,-1.9 3,-8.20001 3.600003,1.20001 0.300003,2.29999 0.599998,-1 -0.1,-1.39999 -3.400002,-2.9 -0.200001,-3.89999 1.400002,-1.29999 2.299999,0.5 -0.599998,-0.5 2.400001,0 1.900002,0.60001 2.199996,1.79999 1.099999,6 1.5,1.89999 1.199997,3.79999 1.900001,0.1 -0.199997,2.4 4.5,0 1.599999,-2.29999 2.199997,0.10001 c 1.400001,0.39999 3.300003,-0.4 3.300003,-0.4 l 0.699997,-1.29998 0.800003,-0.60001 3,-0.79999 2.300003,-1.20001 0.900002,-3.10001 -0.300004,-0.79998 1.599999,-1.70002 0.400001,-3.79998 0.800004,-1.9 2.100001,-1 2.7,0.70001 1.5,-1.89999 2.78124,0.63415 4.31876,2.96586 3.5,5.6 1.80001,0.60001 1.3,-0.70001 0.6,-3.10001 1,-0.70001 1.2781,-1.66584 1.89063,0.10938 1.21875,0.90625 1.01251,4.4502 L 124,382.5 l 2.1,0.70001 1.1,2.79999 -0.45,3.75 2.15625,1.6875 c 0.10001,0.10001 2.35937,0.70312 2.35937,0.70312 l 3.23438,-1.04061 0.84375,-1.17814 1.65625,-0.62185 2.8,1.5 2.10001,-1.20001 1.5,1.29998 1.10001,0.60001 6.3,0 2.2,-0.79999 3.19999,0.4 1.9,-0.5 2.93124,-3.81876 1.56876,-0.98123 2.19999,-0.20001 4.5,2.29998 6.2,4.29999 -0.70313,2.37814 2.21875,3.07813 -0.625,9.35937 5.30939,6.58436 0,2.89999 7.9,5.79999 1.8,0.1 1.39999,4.10001 c 0,0 0.80001,3 1.30001,4.70001 L 192.8,431.29999 191,431 189.7,428.10001 188.8,427 l -1.3,1.29999 -1.7,0.1 0.10001,1.5 0.10001,1.70002 1,0.1 -0.2,-2.39999 2.7,-0.20001 -0.10001,2.89999 1.3,1.10001 0.4,2 -0.5,0.29998 L 190.5,434.5 l -1.10001,-0.60001 0.10001,1.70002 1.60001,0.29998 -0.5,1.4 -1.7,-0.9 -0.2,-1.70001 -2.69999,0.4 -2.2,-0.9 -0.2,-1.79999 -0.8,1 -2.3,2 -3.30001,1.9 -3,-4 -0.39999,-3.20001 -0.10001,2.70001 -0.89999,0.39999 2.2,3.10001 -1.9,1.39999 0.4,1.4 0.69999,1.79998 2.9,3.10001 2.19999,-2.20001 0.9,0.79999 2.69999,-2.4 3.9,0.79999 2.19999,-1.10001 1.60001,1.5 -0.8,3.29999 0.1,6.70001 -1.89999,0 -0.3,-0.89999 -0.80001,-1.29999 0.80001,4.20001 -0.9,1.10001 1.10001,0.60001 2.3,0.5 1.5,2.20001 -0.39999,0.39999 -1.10001,-0.89999 -0.89999,0.29999 -0.4,1.1 1.4,0.29999 0.1,2.10001 2.7,1.6 -1.20003,1.60001 z M 119,406 l -1.70312,-2.61249 -1.8125,0.40936 -1.38438,0.90314 -0.9,-0.79999 -0.1,-1.20001 0.9,-0.79999 -1.2,-0.70001 c 0,0 -0.1,-1.39999 -0.1,-1.70001 0,-0.20001 -2.19999,-1.29999 -2.19999,-1.29999 l 0.19999,-1.39999 -2.69999,-1.20001 -2.4,1.39999 -1.5,-0.10001 -3.2,2.20002 -1.400002,0.1 -1.5,0.9 -2.400002,-1.20002 -1.699997,-0.6 -0.1,-0.79999 0.800003,-1.79999 -1.699997,0 -1.300003,1.20001 -0.5,1.60001 -1,0.5 -0.300003,2.10001 -1.199997,0.5 -0.599999,-0.60001 -0.900001,0.60001 -0.199997,1.39999 -2.599999,0.10001 c 0,0 0.1,0.6 0.1,0.89999 0,0.20001 1.099998,1.70001 1.099998,1.70001 l -0.5,0.9 -1,0.70001 0,0.89999 -1.199997,0.20001 -0.400001,1.20002 -0.900002,0.6 0,1.20002 1.5,0.89999 2.5,0.29999 c 0,0 -0.1,1.20001 0.1,1.20001 0.199997,0 1.699997,-0.39999 1.699997,-0.39999 l 1.900001,-0.60001 2.400002,0.39999 0.900001,0.4 0.599999,1.1 1.199997,0.60001 0.400001,1.39999 -0.1,0.9 -1,0.70001 0.699997,0.89999 2.199997,0.29999 1,-1.10001 c 0,0 0.599998,1 0.800003,1.10001 0.199997,0.10001 1.400001,0 1.400001,0 l 2.2,-1.29999 1.4,-1.6 1.7,0.39999 1.9,-0.39999 1.9,-1.29999 0.8,0.10001 0.2,1.70001 1.2,2.1 1.4,0 1,-2.70001 2.1,-1.70001 0.4,-1.79999 1.6,-1.29999 0.4,-5.20001 L 119,406 Z m -59.900002,81.5 -1.900001,0 0.5,-0.5 -1,-0.60001 0.299999,2.4 -1.700001,2.39999 -1,2.29999 -1.099998,0.10001 0.5,-1.9 -2.700001,2.29999 -1.200001,3.5 -2.2,0 0.2,-0.70001 -3.299999,-0.5 -1.900001,1.5 -3.700001,0.70001 -1.599999,-0.89999 -2.099998,0.29998 -3.799999,0.4 0,-1.5 2.799999,-1.10001 1.599998,-0.5 -2.299999,0.20001 -1.899999,-3.70001 0.1,-2.29999 1.599998,-1.29998 1,0.20001 -0.299999,-2.20001 4.599999,-2.20002 2.2,-3.20001 1.3,1.60001 c 0,0 0.1,-2 -0.3,-2.10001 -0.400001,-0.1 4,-4.6 4,-4.6 0,0 -0.1,-1.70002 -0.599998,-1.79999 -0.400002,-0.10001 1.599998,-1.29999 1.799999,-1.60001 0.200001,0.10001 1.299999,0.5 1.299999,0.5 l 3.8,3.70001 0.599998,3.10001 1.599999,0 4.2,3.39999 -0.5,1.10001 1.100006,3.50003 z m -12,-15.5 c -0.1,0 -0.1,0 0,0 l 0,0 z m -21.799999,-32.39999 -1.7,1.39999 -2.4,-0.29999 2.799999,-4.29999 0.5,-1.20001 3.299999,-0.20001 0.9,-1.89999 1.6,-0.4 0.700001,3.5 1,0.4 -0.5,2.89999 -0.200001,1.5 1.600001,0.20001 0.400001,-0.6 c 0,0 -2,-1.9 -1.700001,-1.9 0.200001,0 0.8,0.10001 0.8,0.10001 l 0,1.5 1,0.89999 2.900001,1.70001 -2.700001,2.10001 0.200001,2.5 -2.299999,0.20001 -0.200001,-1.20001 -1.5,0.29999 0.299999,1.5 -2.299999,-2.20001 2.700001,-0.70002 -1.5,-2.20001 -1.299999,-0.20001 -2.400002,-3.39996 z m 10.400002,12.5 2.5,-0.4 0.299999,-4 c 0,0 -1.700001,-0.70001 -1.900002,-0.79999 0,0 -1,1.20002 -1.2,1.20002 -0.200001,0.1 -4,1.20001 -3.700001,1.20001 0.299999,0 3,0.89999 3,0.89999 l 1.000004,1.89997 z m -5.900002,2.19998 0.4,3.39999 1.899999,-0.89999 L 34,457.5 l 1,-1.39999 1.700001,1.29998 -0.900002,2.60001 1.599999,-0.89999 1.900001,-0.5 0.400002,-3.20002 -0.900002,-2 -2.299999,-0.1 -2.200001,-2.20001 -3,-0.10001 -1.5,3.30002 z m 11.900002,12.5 -1.299999,-0.9 0.1,-1.6 -3.5,-1.70001 -2.400002,2.1 0.400002,1.9 -0.299999,2.29998 7,-2.09997 z M 41,460.20001 40.400002,459 C 40.200001,459.20001 39,461.20001 39,461.20001 l 2,-1 z m -18.5,-13.1 c 0,0 -5.6,3.5 -5.799999,3.39999 -0.200001,-0.10001 -3.2,-0.29999 -3.2,-0.29999 0,0 -1.4,4.60001 -1.2,4.60001 0.2,0 2.600001,2.6 2.600001,2.6 l 2.299999,-0.89999 0.299999,-1.79999 -1.1,-2 2.5,-0.89999 c 0,0 0,1.70001 0.2,1.6 0.200001,-0.1 3.9,-0.89999 3.9,-0.89999 l -1.4,-1.70001 0.9,-3.70004 z m -5,8.5 2,3 0,2.70001 -0.6,2.20001 -0.100001,0.39999 0.100001,-1.1 -1.8,-0.10001 L 15.400001,461 l -0.4,-3.20001 2.099999,0.1 c -0.1,0.20002 0,-2.1 0.4,-2.29998 z m 11,18.1 -0.1,-3 -2.100001,-1.29999 0.100001,-2.29998 -2.700001,0.1 L 24.4,474.80005 26.299999,474.00006 28.5,473.70001 Z m 0.200001,3.9 c 0.1,-0.20002 3.5,-1.9 3.5,-1.9 l 0.1,-5.5 -3.2,-2.70001 -1.3,0.39999 2.4,4.5 -3,5.20002 -1.5,-0.60001 0.1,1.20001 2.4,0.29999 c 2e-6,0.10001 0.300001,-0.70001 0.500002,-0.89999 z M 27.5,482.5 c 0,0.20001 -1.700001,4 -1.5,4 0.200001,0 1.4,0.10001 1.4,0.10001 l 2.299999,-2.70002 -1.200001,-1.5 L 27.5,482.5 Z m 23.299999,16 1.400002,0.39999 L 50,499.60001 49.599998,498.5 l 1.200001,0 z M 102.8,499.79999 c 0,-0.29999 -1.4,-1.60001 -1.4,-1.60001 l -2.4,2.5 -2.300003,-1.29999 L 96.399994,497 l 1.300003,-1.20001 2.800003,-0.20001 3.2,-1 -0.6,-2.10001 -3,-1.29999 1.3,-1.20001 -4.4,-0.20001 -2.599998,2.70001 0.199996,1.20001 -1,2.20001 -2.199996,-0.1 -2.699997,-2.5 -3.099999,0.79999 -3.099998,1.5 1.199997,6.1 2.199996,0.79999 1.5,3.39999 L 90,505.5 l 1.599998,1.09998 0.1,-2.40003 1.400001,1.59998 1.199997,-1.70002 -1.599998,-3 3.5,0.60001 1.199997,0.70001 3.300005,-0.1 1.19999,2.79998 c 0,0 3.6,-3.20001 3.6,-3.5 0,-0.29998 -0.8,-2.5 -0.8,-2.5 0,0 -1.89999,1.0001 -1.89999,0.70008 z m 2.2,-6.5 C 105,493.69998 104.8,497 104.8,497 l 3.2,1.5 1.7,-1.20001 2.1,0.20001 0.3,-5.5 -1.5,2.10001 -5.6,-0.80002 z m 9.2,7 c 0,0 -1.80001,2.89999 -1.4,2.89999 0.4,0 2,1.10001 2,1.10001 l 3.5,-1.60001 -0.90001,-2.20001 -3.19999,-0.19998 z m 8.4,-2.19998 -1.4,1.20001 -0.1,-1.70001 -1.2,-1 c -0.1,0.29998 -2.5,2.79998 -2.2,2.70001 0.30001,-0.10001 2.1,0.29999 2.1,0.29999 0,0 -0.5,2 -0.1,1.79998 0.40001,-0.20001 3.40001,-0.89999 3.40001,-0.89999 l 0.3,-1 2.8,0.79999 -1.5,-2 L 122.6,498.10001 Z M 119.1,488 l -2.6,-0.70001 0,-0.4 4.7,0.29999 2.6,2.4 -0.30001,3.1 -1.5,-1 -1.3,-0.6 L 119.1,488 Z m 16.6,-4 -1.4,-1.20001 -3.89999,2.39999 -2.2,-1.79999 -1.6,5.20002 4.1,3.20001 0.60001,-1.70001 2.5,-0.29999 2.7,1 1.3,-0.9 1.89999,-4.89999 -2.19999,-2.20001 L 135.7,484 Z m 4.5,7.89999 0.19999,3.5 2.2,0.20002 -1.60001,-3.4 -0.79998,-0.30002 z m -107.2,-72 0.400002,-3.5 1.7,-1.29998 -1.400001,-2 0.900001,-3.9 L 34,408.5 c -0.700001,0.39999 -4.700001,4.60001 -4.700001,4.60001 L 27.9,413.80002 27.5,416.10001 30.799999,419 33,419.89999 Z m 2.200001,-0.6 2.900001,1.70001 -0.900001,1.70001 -2.599999,-0.1 -1.2,2.6 1.900001,0.29999 0.599999,4.5 1.900001,-1.89999 2.299999,-0.29999 0.3,-3.29999 -1.900002,-1.60001 1.200001,-1 1.299999,1 1.400002,-3.6 -3.900002,-1.20001 -3.299999,1.19998 z m 10.799999,6.1 -0.1,3.20002 2.400001,-1 L 47.700005,424 46,425.39999 Z M 43.5,426.5 c -0.400002,0.39999 -2.599998,2.29999 -2.599998,2.29999 l 1.2,1.39999 -1.299999,2.70001 2.299999,-1.20001 L 43.5,426.5 Z m 6.5,2.60001 -1.299999,-0.9 c -0.1,0.4 -1,2 -1,2 L 48.900002,431.5 50,429.10001 Z M 43.799999,434 l 1.599999,1 1.599998,-2.29999 L 45.799995,432 43.799999,434 Z M 188.5,476 l -2.2,-0.10001 -0.89999,0.60001 -1.2,0.89999 -1.6,-0.1 0.19999,0.79999 1.80001,1.1 0.89999,-0.1 0.60001,3 2.8,0.1 2.3,0.79999 0.2,-1.5 -2.7,-3.5 L 188.5,476 Z m -6.7,-2.5 -2,0.10001 -0.3,-0.9 -2.5,0.70001 2.2,2.4 1.69999,-1 2,-0.10001 L 181.8,473.5 Z m -23.1,9.20001 1.39999,-0.79999 L 159.7,480.60004 158,480.5 l 0.10001,0.20001 1.69999,-1.1 1.7,0 -0.10001,1.1 c 0,0 -0.5,-0.5 -0.5,-0.29999 0,0.20002 0.30001,0.79999 0.30001,0.79999 l 1.89999,0 1.39999,1.60001 -0.19999,0.39999 -2.9,0.10001 -1.8,1.29999 -0.89999,-1.9 z m 5.69999,3.09998 1.2,1.89999 -3.10001,0.79999 0,2.39999 1,1.79999 0.9,1.70001 -4.9,0 0,-5.89996 -1.39999,-1.60001 c 0,0 1.8,-1.29998 1.89999,-1.70001 l 3.4,1.29999 1.00001,-0.69998 z M 166.60001,469 C 167,469.10001 167.8,469.79999 167.8,469.79999 l -0.1,1.1 2.39999,-0.79998 -1.2,-1.5 L 166.60001,469 Z m 10.59999,-0.70001 -0.60001,1.1 1.5,0.29999 L 177.2,468.29999 Z M 158,460.5 l 1.10001,0.39999 0.6,-1.39999 -2.5,-0.60001 C 157.2,459.10001 158,460.5 158,460.5 Z"
         id="전남"
         inkscape:connector-curvature="0"
         x="137"
         y="425" /><path
         style="fill:#cccccc;stroke:#ffffff;stroke-width:0.5"
         d="m 194.40625,129.10937 -9.50626,-1.40936 -4.89999,-3.73126 -2.20001,-0.16873 -4.2,-2.4 -3.60001,1.2 -2.69999,-2.7 2,-3.59999 0.1,-4.40001 c 0,0 -3.39999,0.90001 -3.6,0.90001 -0.20001,0 0.1,-2 0.1,-2 l 2.7,-3.2 -1.2,-3.5 0.9,-2.1 -0.9,-2.900001 0.60001,-1.5 2.2,-0.599998 1.89999,-2.199997 3.2,-1.099999 1.19999,-4.099998 -1,-3.900002 -1.6,-1.699997 -4.2,-1.400001 0.10001,-2.699997 -1,-0.599999 -3,0.400002 -3.5,-1.699997 -1.30001,-2.699997 -0.39999,-7.599998 -1.5,-1.900002 -1.7,1 L 155,65.100052 l -1.39999,0.300003 -3.78751,1.89682 -4.71249,-3.696816 0.79061,-4.865684 L 147,57.78125 145.29687,57.390625 141.60937,62.5 l -2.70312,0 -1.51563,-1.71875 -0.5,-4.28125 -1.07812,0.59375 -0.21875,-1.296875 0.625,-1.90625 -1.90625,-1 -1.91251,-5.690567 -6.09999,0.200001 0,-2 2.29999,-0.799999 -4.4,-4.599999 -1.5,1.599999 -2.9,0.400001 -2.7,4.700001 -2,0.700001 -2.6,7.099998 -0.3,1.699997 -7,4.599999 -1.7,6.300003 -0.4,1.199997 -3.900001,4.300003 -8.300003,5.400001 -4.699997,0.400002 0.1,3 1.300003,2.300003 -0.699997,2.400001 0.699997,5.5 -2.300003,2.300003 -1.199997,5.900002 -3.900002,0.899998 -4.300003,0.1 -2.699997,-0.4 -1.199996,0.7 0.599998,1.4 0,0.6 0,0 0,0.1 -0.1,1.59999 -0.699997,1.40001 0.5,1.69999 0.599998,0.9 -0.400001,3.2 1.199997,1.2 -0.300004,0.6 -0.400001,1.4 1.599998,3 0.900002,1.69999 0.900001,1.9 1.800004,0.7 -0.199997,1 c 0,0 0,0 0.1,0.1 1,-0.39999 1.900002,-0.7 1.900002,-0.7 l 2,-0.1 0.400001,-1.9 0.699997,-1.19999 1.400002,0.1 0.1,-1.3 3.400009,1.17182 1.399986,2.42817 1.100014,1.19683 1.96875,-0.10938 1.421875,1.53125 1.209366,3.3813 0.900001,-0.69999 1.5,-1.9 0.400002,-2.5 1.699997,-0.8 3.321876,3.20619 2.1875,-0.3125 0.90625,-1.21875 1.46875,-0.0781 0.73438,-3.625 0.39062,-2.78125 1.5625,-0.29688 1.84375,-1.40625 0.98436,1.51255 1.14065,1.29995 1.5625,0.20313 0.5,-1.23438 -0.51563,-1.48437 0.8125,-1.1875 -0.0937,-2.10938 0.89063,-0.0937 0.29687,-1.125 1,-1.17187 1.70624,0.50318 2.1,1.40001 1.10001,-1.13757 2.19998,1.43756 0.12815,4.70307 1.37185,0.29693 0.8,1.2 -1.29685,1.19056 1.89686,0.70945 -0.2,3.5 -2,1.8 0.1,1.8 1.4,-0.1 1.2,-1 2.2,-1.10001 2.38751,-1.00006 0.98437,4.40625 -2.17189,0.8938 -1.5,2.39999 -0.3,1.60001 1.60001,-0.2 0.6,0.8 -1.3,3.2 -7.3,3.8 -0.2,1.4 -1.4,0.8 -1.4,-0.8 -0.6,-3.60001 -1.1,0.7 -1.4,0.2 -0.8,-1.4 -1.6,0.7 -0.6,1.5 -3.2,1.3 -1.1,-1.69999 -1.16562,1.2812 -1.93437,0.7188 -0.5,-1.7 -0.90001,-1.3 -0.59999,-1.10001 -0.89375,-3.21254 -2.20625,2.11255 -2.66875,0.27807 0.0625,-1.67187 -0.578122,-1.125 0.784372,-0.8812 0.4,-3 -1,-1.19999 -2.099999,0.5 -0.699996,-0.9 -1.800004,-0.5 -1.131248,3.12181 0.109375,1.98438 c 0,0 0.40313,2.6875 0.703125,2.6875 0.300003,0 0.921875,1.125 0.921875,1.125 l 0.1875,1.60937 -0.328125,1.625 c 0,0 -1.078125,1.40313 -1.078125,1.70313 0,0.3 -1.234375,2.04687 -1.234375,2.04687 l -0.453125,0.26563 -0.09688,0.13133 -3.5,3.7 -1.300003,2.5 -0.800003,0.60001 -4.599999,1.39999 -3.300003,1.8 -2.199997,1.9 -0.800003,1.39999 -1.900001,-0.10001 1.400001,2.5 0.400002,0.9 -0.199997,1.69999 -2.099999,0.5 -2.099998,-3.3 -1.5,0.4 0.599998,0.6 1.199997,1.4 0.400002,1.3 1.199997,1 1.5,0.3 -0.400002,2.2 0.900002,1.2 0.5,-0.80001 L 77,165.5 l 1.199997,0.89999 1.699997,-0.6 -1.199997,-1.5 2.900001,0.39999 0.5,1.4 1.5,0.69999 0.199997,2.7 1.599999,-0.3 -0.5,1.5 -4.099999,0.3 0.300003,2.5 1.199997,-1.8 2.199997,0.19999 -0.300003,1.7 2.300003,-0.3 1.099999,-0.5 1,1.19999 -2.5,1.60001 1.400001,2.89999 4.599999,-2.89999 1,-0.2 -1.900002,2.2 0.5,4 -3.300003,-2.89999 -0.599998,0.39999 5.699997,5.89999 0.300003,0.5 -0.800003,1 0.300003,2.10001 4.199997,-0.39999 0.300003,2.1 -0.300003,1.60001 1.900001,0.5 3.500004,5.39999 1.09999,-0.1 0.1,1.39999 0.7,0.7 2.1,-0.5 0.7,1.8 1.3,0.8 2.2,-1.8 1.5,0.2 2.19999,1.3 -0.1,-1.10001 0.80001,0 0.3,1 -0.2,1.10001 -2.8,-0.10001 -1.8,0.5 -1.2,1 -1.4,0.80001 -0.2,0 c 0.6,0.1 1.1,0.3 1.1,0.3 l 3.7,-2.3 6.1,1.89999 5.59999,-1.89999 3.1,-2.30001 2.5,0.10001 3.30001,1.2 3.3,3.5 5.11564,0.59066 2.34375,0 4.54062,-1.69067 1.2,-1.5 2.10001,0.5 1.89999,-1.7 0.5,-2.3 -0.8,-1.2 c 0,0 5.8,-2.8 5.8,-3.1 0,-0.30001 0.60001,-2.4 0.60001,-2.4 l 2.1,-2.5 0.60001,1.2 1.5,-0.3 -0.39999,2.1 1.8,-3.1 3.73123,0.99067 4.46875,-3.90625 2.51562,-0.39062 0.67188,-7.40625 1.71875,0.89062 0.98437,3.21875 1.79688,0 3.34375,-8.03125 2.35937,-1.85937 1.00939,-6.7063 -0.82189,-3.80933 1.60938,-1.1875 L 189,154.125 l 3.48437,-8.10938 0.21875,-4.32812 -1.82812,-0.48438 -0.98438,-2.40625 3.21875,-4 1.89065,-0.59693 0.96873,-2.18432 -1.5625,-2.90625 z"
         id="경기"
         inkscape:connector-curvature="0"
         x="125"
         y="129" /><polygon
         style="fill:#cccccc;stroke:#ffffff;stroke-width:0.5"
         points="99.5,134.79688 100.1,135.89999 100,137.60001 102.7,137.3 104.9,135.2 105.8,138.39999 106.45312,139.5625 107.3,140.8 107.79688,142.5 109.7,141.8 110.92188,140.5 111.96875,142.20312 115.20312,140.89062 115.79688,139.40625 117.3875,138.67812 118.1875,140.07812 119.57812,139.89062 120.6875,139.21875 121.29688,142.79688 122.69688,143.59688 124.09375,142.78125 124.29375,141.38126 131.59375,137.60938 132.90625,134.42188 132.32812,133.59375 130.70312,133.79688 130.96875,132.23438 132.5,129.8125 134.6875,128.92188 133.7,124.5 131.29688,125.48438 129.125,126.5625 127.92188,127.59375 126.46875,127.71875 126.39062,125.89062 128.375,124.10938 128.57814,120.5968 126.7,119.89999 127.98438,118.71875 127.20312,117.51562 125.8,117.2 125.71875,112.53125 123.5,111.1 122.44064,112.20618 120.34064,110.80618 118.6,110.3 117.6,111.5 117.3,112.6 116.4,112.7 116.5,114.8 115.7,116 116.2,117.5 115.7,118.7 114.1,118.5 112.9,117.11562 112.01562,115.6875 110.2,117.1 108.6,117.4 108.2,120.3 107.5,123.8 106,123.89999 105.1,125.10001 102.9,125.39999 99.599998,122.2 97.890625,123 97.484375,125.51562 95.96875,127.42188 95.09375,128.09375 95.078125,128.8125 95.640625,128.9375 96.890625,129.29688 97.609375,130.1875 99.71875,129.6875 100.6875,130.92188 100.28125,133.89062 "
         id="서울"
         x="117"
         y="129" /><path
         style="fill:#cccccc;stroke:#ffffff;stroke-width:0.5"
         d="m 179.29687,305.8125 0.3125,0.89062 0.48438,1.40625 4.05212,0.11667 1.74475,2.41458 0.17193,2.52292 2.29167,-0.0208 0.70833,-2.6875 5.57807,-1.95523 c 0.0458,0.0125 2.46875,1.90625 2.46875,1.90625 l 2.78125,-2.70313 0.34375,0.71875 4.4375,8.35938 c 0,0.10001 -0.1875,0.83749 -0.1875,0.9375 l -1.07812,4.20312 0.0937,0.46875 c 0,0.10001 -0.43124,0.1969 -0.53125,0.29688 l -1.65625,0.79687 -2.09375,4.73438 -2.96875,1.6875 -1.73438,-0.125 -1.60937,1.32812 -1.92188,-0.9375 -0.90625,1.03125 -1.57812,4 -5.3125,4.59375 -0.6875,5.59375 0.59375,1.3125 -1.40625,0.90625 -4.90625,14.09375 0.125,1.96875 3.4375,1.1875 -0.4375,3.32813 1.20312,2.34375 -0.4375,3.28125 c 0.0312,0.84375 0.17501,1.65939 0.375,1.85937 0.10503,0.0263 1.9287,-0.15557 1.95313,0.40625 0.0156,0.35938 -0.6875,4.54688 -0.67188,4.59375 l -3.51562,2.92188 -1.60938,3.29687 0.89063,2.90625 c 0,0.10001 -2.59375,2.39063 -2.59375,2.39063 l -6.20313,-4.29688 -4.54687,-2.3125 -2.17188,0.21875 -1.53125,0.95313 -2.96875,3.85937 -1.875,0.48438 L 153,390.6875 l -2.1875,0.8125 -6.32813,0 -1.125,-0.60938 -1.45312,-1.29687 -2.10938,1.20312 -2.79687,-1.5 -1.65625,0.625 -0.82813,1.17188 -3.21563,1.05316 c 0,0 -2.30002,-0.6 -2.40001,-0.70001 -0.10001,-0.10001 -2.05623,-1.65003 -2.14998,-1.6969 l 0.45313,-3.78125 -1.09375,-2.78125 L 124,382.51562 c -0.0156,-0.0625 1.20313,-2.32812 1.20313,-2.32812 l -1.00315,-4.44067 -1.2,-0.9 -1.9,-0.1 -1.31873,1.65942 -1,0.70312 c 0,0 -0.57812,2.99375 -0.57812,3.09375 l -1.32813,0.70313 -1.79687,-0.625 c -0.10938,-0.125 -3.46875,-5.59375 -3.46875,-5.59375 l -4.30938,-2.94064 -2.8,-0.66874 c 0,0 -1.45312,1.92188 -1.51562,1.9375 l -2.67188,-0.71875 -2.125,1 L 97.375,375.25 97,378.98437 c 0,0.10001 -1.59375,1.73438 -1.59375,1.73438 0,0 0.28125,0.71249 0.28125,0.8125 0,0 -0.875,2.94687 -0.875,3.04687 L 92.484375,385.79687 89.5,386.59375 88.6875,387.20312 88,388.5 c 0,0 -1.1875,0.45312 -2.125,0.5 -0.400002,0 -0.887505,0.006 -1.1875,-0.0937 L 82.5,388.79687 c 0,0 -1.578133,2.30625 -1.609375,2.29688 0,0 -4.465637,-0.003 -4.484375,0 l 0.171875,-2.42188 c 0,0 -1.34375,-0.0469 -1.875,-0.0781 L 73.5,384.78125 l -1.484375,-1.85938 -1.109375,-6 -2.1875,-1.8125 -1.921875,-0.59375 -2.375,-0.0156 -0.821861,-2.45319 c 0,-0.1 0,-0.20001 0,-0.20001 l 3,-3.6 0.800003,-3 c 0,-0.10001 0.1,-0.10001 0.1,-0.20002 l 4.699997,-2.6 4.699997,-1.4 2.199997,-0.1 1.400002,-2.79999 c 0,-0.10001 0.1,-0.10001 0.199996,-0.10001 l 3.5,0.10001 c 0.1,0 0.1,0 0.199997,0.10001 l 0.800003,0.89999 0.5,-1.39999 -1.300003,-1.9 -1.099998,-0.6 -2.400002,1 -0.1,0 -0.1,0 -1.5,-0.60001 -4,1.10001 -2.5,0.5 c -0.900001,0 -1.800003,0.1 -1.900001,0.1 l -0.1,0 c -0.300003,0 -1.099998,-0.29999 -1.300003,-0.39999 l -3.5,-3.60001 c -0.1,-0.1 -0.1,-0.20001 0,-0.29999 l 0.699997,-1 -0.1,-2.29998 c 0,-0.10001 0.1,-0.20002 0.199997,-0.29999 0.800003,-0.20001 2,-0.4 2.099998,-0.5 0.1,-0.10001 0.900002,-0.79999 1.5,-1.4 l 2.800003,-3.6 0.1,-0.10001 1.599998,-0.39999 0.1,-0.4 -1.300003,-0.89999 -0.1,-0.10001 -0.300003,-0.20001 0,-0.1 0.1,-0.9 c 0,-0.1 0.1,-0.20001 0.199997,-0.20001 0.1,0 0.199997,0.10001 0.199997,0.20001 l 0.599998,0.60001 1.099999,0.6 c 0,0 0.1,0 0.1,0.10001 l 0.699997,1.5 c 0.800003,-0.60001 1.900001,-1.5 2,-1.60001 0.1,-0.1 2.199997,-2.79998 3.5,-4.5 l 0.300003,-0.29998 c -0.1,0 -0.1,-0.10001 -0.1,-0.20002 0,-0.20001 -0.1,-1.1 -0.1,-1.29998 0,-0.10001 -0.1,-1.9 -0.199997,-2.9 l 0,-0.1 0.699997,-1.29999 c 0,-0.10001 0.1,-0.10001 0.199997,-0.10001 0,0 0,0 0.1,0 l 0.1,0 1.099998,0.70001 2.5,-0.1 2.099999,-0.5 c 0,0 0,0 0.1,0 0,0 0,0 0.1,0 l 2,0.6 1.800003,0.20002 2.300003,0 0.5,-1 c 0,-0.10001 0.1,-0.10001 0.199997,-0.10001 l 1.699997,-0.29999 -0.699997,-1 c 0,0.10001 -0.1,0.20002 -0.199997,0.20002 l -1.800003,0.70001 -0.1,0 c -0.1,0 -0.1,0 -0.199997,-0.10001 l -0.699997,-0.89999 -0.699997,0.20001 c 0,0 0,0 -0.1,0 l -0.1,0 -1.599999,-1.10001 c -0.1,0 -0.1,-0.1 -0.1,-0.20001 l 0,-0.5 -1.900002,-0.20001 c -0.1,0 -0.1,0 -0.199997,-0.10001 l -0.599998,-1 c -0.1,-0.1 -0.1,-0.20001 0,-0.29998 l 0.599998,-0.9 c 0,-0.1 0.1,-0.1 0.199997,-0.1 l 2.099999,-0.4 c 0.1,0 0.1,0 0.199997,0.10001 l 1.5,1.29999 2.599998,0 1.800003,-2.60001 1.400002,-2.79999 c 0,-0.1 0.1,-0.1 0.199997,-0.1 l 0.1,0 1.400002,0.5 1.6,0 0.8,0 0.6,-2.20002 -0.6,-1.1 -1,0.5 -1.599997,1.20001 c 0,0 -0.1,0.10001 -0.199997,0.10001 l -2.900002,0 -1.5,1.5 c 0,0 -0.1,0.1 -0.199996,0.1 l -3,-0.29999 c -0.1,0 -0.1,0 -0.199997,-0.1 0,-0.10001 -0.1,-0.10001 0,-0.20001 l 0.199997,-1 c 0,-0.10001 0.1,-0.20002 0.199996,-0.20002 l 0.199997,0 -0.5,0 -0.300003,0.4 -0.800003,0.5 0.300003,0.89999 c 0,0.10001 0,0.20001 -0.1,0.29999 0,0.10001 -0.1,0.10001 -0.199997,0.10001 0,0 0,0 -0.1,0 l -1.199997,-0.4 -2.699996,-0.6 -0.800004,1.1 c 0,0.10001 -0.1,0.10001 -0.199996,0.10001 0,0 -0.900002,0.1 -1,0.1 -0.1,0 -0.1,0 -0.199997,-0.1 l -0.800003,-1 -0.699997,0.70001 c 0,0.10001 -0.1,0.10001 -0.199997,0.10001 l -2.900002,0.1 c -0.1,0 -0.1,0 -0.199997,-0.1 0,0 -0.1,-0.10001 -0.1,-0.20002 l 0,-5.5 c 0,-0.1 0,-0.1 0,-0.1 l 0.300003,-0.4 -0.1,-0.5 -1.800003,-0.6 -0.199997,1 c 0,0.1 -0.1,0.1 -0.1,0.20001 l -0.1,0 -0.1,0 -1.699997,-1.10001 -2,0.20002 -0.599998,0.79998 -0.699997,1.29999 0.1,1.29999 c 0,0.1 0,0.1 -0.1,0.20001 l -2.099999,2.4 -0.1,0.1 -2.300003,0.29999 c -0.1,0 -0.199997,0 -0.199997,-0.10001 l -0.800003,-1.29998 c 0,-0.10001 0,-0.10001 0,-0.20002 0.300003,-1 0.5,-1 0.599998,-1 0.1,0 0.900002,0.20002 2.300003,0.60001 0.699997,-0.9 1.699997,-2.20001 1.800003,-2.4 0,-0.1 0.1,0.4 0.5,-0.70001 l -0.300003,-0.70001 -0.599998,-1.29999 -0.300003,-2.89999 c 0,-0.10001 0,-0.10001 0.1,-0.20001 0,-0.10001 0.1,-0.10001 0.199997,-0.10001 l 14.5,-1 -1,-0.39999 c -0.1,0 -0.199997,-0.20002 -0.199997,-0.29999 0,-0.10001 0.1,-0.20001 0.199997,-0.20001 l 2.599998,0.20001 c 0,0 2.190613,-0.0719 2.253113,-0.0719 0.0625,0 1.046891,0.47186 1.046891,0.47186 l 1.599998,-0.6 0.400002,-1.60001 1.078109,-1.75623 0.921883,-0.44378 c 1.300003,-0.10001 3.300003,-0.29999 3.5,-0.29999 0.1,0 0.900001,-0.39999 1.699995,-0.70001 l 1,-1 3.1,-1.60001 1.04375,-1.70621 0.0563,-3.29379 0.3,-0.89999 0.0656,-2.33747 5.73437,-2.56256 0.1,0 4.18125,0.71881 4.21875,2.65625 0.4375,-0.17187 0.75,0.21875 0.82813,0.28125 1.3542,0.41354 2.67705,3.75833 c 0,0 1.09375,2.3125 1.15625,2.26563 0.0625,-0.0469 4.62499,-0.0937 4.62499,-0.0937 0.0312,0 2.45109,-2.34277 2.45109,-2.34277 l 0.1,0 c 0.10001,0 0.10001,0 0.2,0.1 l 2.7,2.10001 4.8,-0.4 -0.3,-2.5 0.3,-0.30001 4.1,0.5 2.30001,-1.79999 0.39999,0 4.2,6.70001 2.2,6.60001 4.31454,-0.29789 0.54687,-0.0312 1,5.20313 5.95313,-0.20313 1.07812,-1.82812 0.375,-2.625 0.9375,0.25 1.96875,-0.875 c 1.56247,0.95001 2.43747,1.36563 3.54688,2.07812 0.10001,-0.1 1.21875,-1.125 2.64062,-2.39062 0.0156,-0.0625 0.34375,-2.65625 0.34375,-2.65625 l 1.3125,-0.5625 z"
         id="전북"
         inkscape:connector-curvature="0"
         x="131"
         y="340" /><path
         style="fill:#cccccc;stroke:#ffffff;stroke-width:0.5"
         d="m 127.17188,301.15625 4.67187,-0.0781 2.44792,-2.32812 0.1875,0 2.83333,2.20834 4.75,-0.41668 -0.28027,-2.48429 0.31152,-0.32299 4.125,0.5 2.26562,-1.8125 0.39063,0.0156 4.23437,6.75 2.15625,6.5625 4.85938,-0.32813 1.03125,5.1875 5.90625,-0.17187 1.11458,-1.83853 0.375,-2.60419 1,0.20834 1.91667,-0.875 c 0,0 3.51562,2.09375 3.51562,2.07813 0,0.0156 2.65625,-2.375 2.65625,-2.375 l 0.34375,-2.64063 0.54688,-0.25 -2.29688,-6.09375 -2.45312,-1.85937 -0.39063,-2.65625 1.39679,-2.73441 -0.31866,-3.15622 -1.9375,-3.03125 -2.70313,0.10938 -3.73437,-1.71875 -3.29688,2.09375 -2.125,3.01562 -4.22395,-2.11459 -2,-3.5 -0.39584,-4.27081 -1.58333,0.0833 -0.3125,8.125 -0.60417,2.35419 -1.39583,-0.0833 -1.20833,-3.02084 -2.39584,-0.14581 -1.5,-2.64585 -0.39583,-3.0625 -2,-2.3125 -0.97917,-3.9375 2.89584,-2.25 -0.91667,-8.8125 7.3125,-2.89062 1.01563,-5.60938 -0.5,-0.90625 -1.32813,0.10938 1.40625,-5.28125 -1.1875,-1.23438 1.20313,-3.29687 -3.30935,-0.29065 -0.58128,-1.45935 0.18127,-2.64066 -2.89999,-3.39999 1.70309,-0.69373 0.40625,-2.8125 -1.40625,-2 5,-7.90625 3.71875,0.3125 1.67188,-1.89062 -1.1875,-3.79688 -3.46875,-2.10937 -2.73747,0.0968 -1,-0.80001 0.19999,-1.69999 -0.8,-0.7 -1.3,-0.60001 -0.2,-2.8 -2.60002,-1.69997 c 0,0 -0.5,-1.39999 -1,-2.6 l 0,0 -5.10001,-0.7 -3.3,-3.5 -3.3,-1.19999 -2.5,-0.10001 -3.1,2.3 -5.6,1.9 -6.1,-1.9 -3.69999,2.30001 c 0,0 -0.5,-0.10001 -1.1,-0.30001 l -4,1.10001 -1.5,4.1 -0.30001,0.9 -1.59999,-0.7 -1.400006,-0.2 0.400001,-1.1 1.199995,-0.5 -1.399999,-4.4 -2.400002,-0.8 0,-2.6 -2,-1.4 0,-2.2 0,-1.4 1.199997,-1 -2.900002,-1.80001 -1.400001,0.80001 -3.599999,-2.10001 -3.400001,1 -0.900002,2 -3.400001,-3.2 -0.199997,-0.8 -8.5,-4.2 -0.5,-1.8 -1.900001,0.39999 -2.699997,3.5 -0.199997,1.30001 3.099998,4.19999 1.699997,0.80001 -2.5,0.3 0.1,2.3 0.5,2 -1.300003,3 -0.400002,2.80001 -0.900002,0.19999 0.599999,-3.69999 1.199997,-2.7 -1.400002,-5.4 -4.099998,-3.89999 -6.299999,1.2 -2.599999,1.39999 0.400002,1.3 4.099998,0.2 -0.799999,2.4 -2.400002,-0.7 1.099999,3.5 1.599998,-1.10001 1.099999,2.5 1,-1.3 1.900001,0.89999 -0.900001,2.4 1.900001,1.1 -0.5,0.7 -2.099998,-0.3 -0.5,1.69999 -2.799999,0.60001 -0.1,1.3 0.900002,0.80001 -1.599999,1.19999 0.799999,1.7 -1.900001,-1.3 -0.1,-2 -1.5,0.3 -0.799999,1.8 c 0,0 -0.299999,0.80001 -0.200001,0.80001 0.1,0 1.3,1.69999 1.3,1.69999 l -3.700001,2.5 -0.799999,-0.69999 0.2,-1.2 2.700001,-1.8 -0.5,-0.80001 -1.400001,-0.19999 2.5,-5.7 -1.799999,-3.39999 1.2,-1.30001 -1,-1.3 0.400002,-2.10001 -1.900002,-1.19999 0.599999,3.6 -0.299999,1.9 -1,2 -0.400002,1 -1.299999,-1.10001 -0.299999,0.39999 0.799999,1 c 0,0 -1.799999,0.4 -1.900002,0.4 -0.100002,0 0.400002,-2.4 0.400002,-2.4 l -2.400002,0.7 -1.799999,0.7 -0.900001,1 -0.5,1.19999 0.1,4.4 -1.299999,1.2 0.799999,1.19999 -1.299999,1.2 0,-3.60001 -1,0 -0.1,2.9 -3.099999,6.69999 -0.200001,1.5 -0.200001,1.4 -2.299999,1.19999 0,1.80001 1.900002,0.19999 2.900001,-3 -0.799999,-1.89999 3,-0.8 4.599999,4.1 -0.200001,1.2 -2.299999,0.89999 -2.5,-1.6 -1.5,1.5 0.2,2.6 4.3,1.2 0.5,-1.7 0.599998,-0.5 2.299999,-0.19999 0.299999,-2.2 2.700001,0.10001 -0.599998,2.19999 c 0,0 0.599998,2.2 0.700001,2.2 0.1,0 1.2,0.39999 1.2,0.39999 l 1.3,1.80001 -0.8,1.3 -0.799999,0.8 0,1.60001 0.200001,0.10001 0.599998,0.6 -0.2,0.30001 0.5,3.19999 1,0 0.7,-0.69999 0.8,0.5 -0.3,2.1 1.8,1.9 -0.5,5.00001 1.099998,0.70001 -0.200001,1.4 -0.599998,1.39999 -0.200001,3 0.400002,0.10001 0.1,2.29998 1,0.10001 0.299999,-0.5 1,0.10001 -0.299999,1.39999 0.799999,0.89999 0.900002,0.79999 0.5,-1 1.200001,0.29999 2.900001,1.20001 1.200001,-0.89999 -0.1,-4.5 -3.299999,-7.10001 -1.799999,0 -0.400002,-6 -1.299999,-1.1 1.299999,-0.5 -0.799999,-3.5 -2,0.1 -0.299999,0.5 -0.799999,-0.1 0,-0.9 1,-0.5 1.200001,-0.69999 -1.099999,-0.60001 0,1.2 -0.299999,-0.60001 0.200001,-0.8 -0.400002,-0.60001 -0.200001,-2.8 -0.400001,-2.4 0.200001,-3.8 -1.200001,-0.7 0.700001,-0.39999 1.099998,0.7 0.1,1.39999 0.200001,2.10001 1.299999,-1 -1,2 0.400001,1.19999 -1.099998,4.4 0.400001,0.1 0,-0.3 1,-0.39999 0,-1.5 2.700001,-0.30001 0.700001,1.7 -0.400002,1.10001 -0.5,1.1 c 0,0 1.8,0.4 1.900002,0.4 0.100002,0 1.799999,1.19999 1.799999,1.19999 l 1.499996,-3.1 0.1,-2.5 -0.300003,-2.30001 1,-1.69999 0.199997,-3.10001 -0.5,-1.6 0.900001,0.5 1.599999,-0.10001 -1.400002,1.89999 -0.199997,1.10001 0.1,1.3 1.099998,0.5 -0.400001,1.60001 2.400001,1.7 0.300003,1.89999 -1.400001,0 -0.199997,-0.10001 -0.199997,-0.19999 -0.199997,0 -0.599998,0.8 c 0,0 0.1,1 0.1,1.10001 0,0.1 0.5,0.5 0.5,0.5 l 1.900002,-0.30001 0.900001,0.60001 -0.300003,0.3 -2.400002,-0.1 0.1,1 -1.699997,1.5 1,4.19999 0.599999,0.30001 -0.199997,0.89999 c 0,0 -0.300003,1 -0.300003,1.10001 0,0.1 1.400001,1 1.400001,1 l 0.300003,1.20001 1.5,-1.7 0.900002,0.7 c 0,0 -2.5,2.5 -2.5,2.39999 0,-0.20001 -0.300003,4.79999 -0.300003,4.79999 l 0.5,2 1.300003,2.20001 1.599998,-1.1 4.199997,-4.20002 0.1,0.70002 -0.400002,2 -1.900001,0.29998 -1.800004,1.60001 -0.400001,0.89999 -1.599999,0.5 -1.099998,1.60001 -0.300003,2.89999 2,0.4 4.5,3.20001 -0.199997,1.29999 -0.699997,0.89999 -2.400001,0.10001 -0.5,1.1 -1.099999,0.29999 3.800003,5.70001 0.1,1.20002 -0.1,2.29998 -1,0.60001 0.5,5.10001 -0.300003,0.39999 -0.900001,1 0.5,0.79999 0.599998,-1 0.599999,-0.60001 1.300003,0.20001 1.099998,-0.39999 0.300003,0.70001 -1.900001,0.20001 -0.900002,0.10001 -1.699997,2.10001 -0.400001,1.1 c 0,0 -2.599999,-0.5 -2.599999,-0.39999 0,0.1 0,3 0.1,3 0.1,0 1.800003,-1.70001 1.800003,-1.70001 l 1.800003,0.39999 1.199997,-0.10001 0.199997,1 0.900001,1.20002 1,-0.60001 0.300003,-0.5 0.900002,0.70001 1,0.4 0.900001,0.89999 1,2.89999 0.199997,0.4 1,-0.10001 1,-0.6 0.599999,0.70001 0.400001,0.5 0,0.39999 -1.400001,0.70001 -0.199997,1 0.5,2.10001 1.400001,-0.10001 2,2.9 -0.199996,0.70001 -0.599999,1.60001 7.518745,1.53756 0.40625,-1.59375 1.068763,-1.75314 0.984375,-0.46875 3.46875,-0.3125 1.662497,-0.67493 1.03125,-1 3.07188,-1.62195 1.0625,-1.6875 0.0469,-3.28125 0.29687,-0.875 0.0625,-2.375 5.75,-2.57812 4.28125,0.73437 4.21875,2.67188 0.4375,-0.1875 2.92188,0.92187 2.70312,3.78125 1.10938,2.20313 z"
         id="충남"
         inkscape:connector-curvature="0"
         x="109"
         y="248" /><path
         style="fill:#cccccc;stroke:#ffffff;stroke-width:0.5"
         d="m 58.883339,97.183342 0.599998,-2.099999 2,-0.1 1.8,-1.5 3.2,3.5 4.5,2.5 1.001038,1.610407 0.609375,1.39063 -0.01041,0.59896 0,0.1 -0.1,1.6 -0.699997,1.4 0.5,1.7 0.599999,0.9 -0.400002,3.2 1.21978,1.21978 -0.3125,0.60938 -0.375,1.34375 -0.132286,0.42709 1.199997,3 c 0,0 -1.599999,0.9 -1.699997,1.09999 -0.1,0.2 -0.800003,4.10001 -0.800003,4.10001 l -2.800003,-2 c 0,0 -7.900006,0.3 -8.100003,0.2 -0.2,-0.10001 -2.599998,-2.10001 -2.799999,-2 -0.2,0.1 0,-2.4 0,-2.4 l 3,-1.90001 0.400002,-2.09999 -2.099999,-4 -1.900001,-0.5 -0.799999,-9.800009 2.400005,-2.099991 z m 8.900001,31.399998 -0.5,2.7 -4.000003,0.2 -1.099999,-0.80001 0.400002,-3.1 1.099998,1.7 2.600002,-1.4 1.5,0.70001 z m -8.400001,1 -5.299999,0.80001 -0.1,-2.10001 c 0,0 -0.900001,-1.39999 -1.200001,-1.60001 l 2,0.4 0.599999,1.3 4,1.20001 z m -4.099998,-19.69999 1.7,0.1 1.400002,0.9 -0.1,2.6 c 0,0 -2.7,2.5 -3,2.4 -0.299999,-0.1 -1.400001,-0.9 -1.400001,-0.9 l 0.200001,-1.40001 -1.400002,-2.19999 -2,-0.9 -2.400001,-2.30001 1.7,-0.4 0.1,-3.5 c 0,0 2.599998,-1.3 2.799999,-1.3 l 1.299999,0.6 -0.900001,3.3 2.000004,3.00001 z m -23.100003,68 c -0.299997,0 -0.999998,-3.10001 -0.999998,-3.30001 0,-0.19999 1.099997,-0.19999 1.299997,-0.39999 l 1.3,3.7 c 4e-6,0 -1.299996,0 -1.599999,0 z m 4.600003,-9.90001 -0.1,3.89999 -3,0 c 0,0 -2.699999,-5.7 -2.499998,-6 0.1,-0.39999 0.9,-5.5 0.9,-5.5 l 0.599998,-0.5 0.5,0 0.799999,3 1.400002,-0.39999 2.400001,2.5 0.299999,1.6 -1.300002,1.4 z m 2.799999,-0.5 c 0,0 -1.099999,-0.7 -1.400002,-0.9 -0.299999,-0.1 1,-0.89999 1,-0.89999 l 1.700001,1.89999 -1.299999,-0.1 z m 1.299999,-52.9 -0.799999,-1.4 c 0,0 -2.400002,-1 -2.700001,-1.19999 l 4.200001,-0.5 0.900001,3.3 -1.600002,-0.20001 z m 2.799999,-16.999997 0.400002,-0.800003 1.200001,-1.199997 2.900001,0.300004 1.200001,1 2.799999,0.1 1.200001,-1.199997 0.599998,2.900002 -1.400001,2.399998 -2.299999,0.7 c 0,0 -1.099999,-0.8 -1.400002,-0.7 -0.299999,0.1 -2.700001,0.3 -2.700001,0.3 l -0.599998,1.7 -1.200001,-0.3 -1.900002,-1.5 1.5,-2 -0.299999,-1.700005 z m 1,7.800007 1.700001,1.69999 -2.700001,-0.1 c 0,0.1 0.800003,-1.40001 1,-1.6 z m -0.799999,9.89999 3.200001,0.1 -0.900002,2.2 c 0,0 -2,-2.3 -2.299999,-2.3 z m 4.100002,58.7 0,-1 0,-0.2 c -0.200001,0 -1.200001,-0.39999 -1.5,-0.5 -0.400001,-0.10001 1.299999,-1.3 1.5,-1.39999 l 0,1.1 0.299999,0.9 -0.299999,1.09999 z m 6.199997,-11.29999 -1.400001,0.5 -3.3,-1.7 1.400002,-1.19999 c 0.299999,0.1 3.599998,1.6 3.599998,1.6 l -0.299999,0.79999 z m 6.300003,-17.40001 c 0,0 1.099999,-1.39999 1.400002,-1.60001 l 0.2,0.9 2.700005,1.89999 -0.900005,2.7 c 0,0 -2.200001,0 -2.200001,-0.2 -4e-6,-0.19998 -1.200001,-3.69998 -1.200001,-3.69998 z m 7.900006,16.60001 c 0.1,0.3 -2.099999,3.39999 -2.099999,3.39999 l -2.400005,-0.60001 -0.1,-4.6 1.900006,-0.10001 1.900001,-1.69999 1.900002,0.1 0.400001,3.2 c -7e-6,0.10002 -1.600014,1e-5 -1.500007,0.30002 z m 3.5,-25 -2.400002,2.1 c 0,0 -4.300003,3.2 -4.5,3.5 -0.199997,0.2 -3.000004,0.10001 -3.000004,0.10001 l 0.299999,-1.7 -1.599998,-1.1 -3.5,0.39999 -0.400002,-1.8 -0.400001,-1 -0.1,-0.80001 1.599999,0.5 2,-0.69999 1.799999,-0.5 0.299999,2.1 5.800003,0 1.599999,-3.5 0.400001,-4.19999 1.599999,-1.10001 2.300003,1.2 0.900002,-0.4 1.199996,-1.69999 1.400002,0.8 -0.1,1.39999 -1.400001,0.60001 1.699997,1.5 0.599998,1.39999 -1.400001,1.7 -4.699989,1.2 z m 23.699996,4 c 0,0 -1.099998,1.5 -1.099998,1.8 0,0.3 -1.199997,2 -1.199997,2 l -0.5,0.3 -0.1,-0.6 -1.900002,1.89999 -1.400001,-0.39999 -4.099999,5.39999 -7.200005,-0.2 -0.400001,-1.5 3.900001,-0.1 1.900002,0.89999 0.900002,-1.2 -3.199997,-2 -0.699997,-1.69999 -0.300003,-1.30001 -1.099999,-1.39999 1.300003,-1.2 0.1,-0.6 -1.599999,-1.10001 0.400002,-1.5 -0.5,-0.8 0.199997,-0.9 2.199997,1.10001 0.300003,-1.60001 -1.699997,-1.89999 3.299987,-1.2 c 0,0 0,-1.19999 -0.300003,-1.19999 -0.300003,0 -2.599998,0.8 -2.900001,0.69999 -0.300003,-0.1 -0.199997,-2.1 -0.199997,-2.1 l -0.5,-1.60001 0.300003,-1.1 0.199997,-2 c 0,0 -0.400002,-0.9 -0.699997,-1 -0.199997,-0.10001 -0.658348,-0.90522 -0.858345,-1.2052 1,-0.4 1.890625,-0.6875 1.890625,-0.6875 l 1.96875,-0.0781 0.40625,-1.90625 0.703125,-1.21875 1.390625,0.10938 0.109375,-1.3125 3.389595,1.19895 1.43853,2.42605 1.06147,1.17395 2,-0.10001 1.43853,1.58231 1.171875,3.34375 -0.01563,0.67187 -1.09478,3.10208 0.1,2 c 0,0 0.400001,2.7 0.699996,2.7 0.299996,0 0.900002,1.1 0.900002,1.1 l 0.199997,1.60001 -0.299996,1.60001 z"
         id="인천"
         inkscape:connector-curvature="0"
         x="88"
         y="135" /><path
         style="fill:#cccccc;stroke:#ffffff;stroke-width:0.5"
         d="m 207.8,428.20001 0.80001,-1.29999 1.19999,2.29999 -2,-1 z m 10.4,16 -4.30001,-1.5 -1.89999,0.9 c 0,0 -3.2,-0.70002 -3.5,-0.70002 -0.3,0 -1,-3.5 -1,-3.5 l 2.7,-2.6 0.69999,-2.29999 c 0,0 2.7,-1 3.10001,-0.89999 l 0.10001,1.1 -2.30001,3.10001 -0.1,0.1 1.39999,-0.39999 4.60001,1.39999 -0.80001,3.5 2.10001,0.4 -0.8,1.39999 z m 12.1,16 c 0,0 -3,-1.1 -3.5,-1.1 -0.5,0 1.30001,-0.79999 2.30001,-1.20002 l 1.5,0.70002 -0.30001,1.6 z m -0.3,-15.5 -2.39999,-1.5 -0.10001,-1.6 3.39999,-0.60001 1.9,1.39999 -2.10001,0.4 L 230,444.70001 Z M 231.3,444 c 0,0 2.4,-0.5 3,-0.60001 l 2.2,2 -3,2.4 -1.89999,-1 L 231.3,444 Z m 7.09999,24.70001 -3.89999,-0.39999 -1.5,-1.60001 c 0,0 1.2,-1.79999 1.60001,-2.1 l 5.6,1.70001 -1.80002,2.39999 z M 252.7,450.5 l -1.7,1.60001 -1.89999,-0.9 -1.5,-2.29999 -1.30001,-1.20001 c 0,0 0.5,-1.6 0.30001,-1.70001 -0.2,-0.10001 -3.5,-1.39999 -3.7,-1.39999 -0.2,0 1.39999,-1.5 1.39999,-1.5 l 4.4,1.70001 2.6,-1.4 1.7,1.10001 0.39999,3.5 -1.69999,0.39999 1,2.09998 z m 2.5,6.79999 c 0,0 -0.5,1.20001 -0.7,1.1 -0.2,-0.1 -0.2,-2.1 -0.2,-2.1 l 0.30001,-0.60001 1.39999,0.10001 -0.8,1.5 z m 0.8,-2.59998 1.20001,-1 1.10001,-0.39999 1.29999,1.20001 L 256,454.70001 Z m 1.70001,-2.1 -1.70001,-0.4 -0.39999,-3.5 0.6,-0.79999 c 0,0 -0.5,-1.89999 -0.5,-2.20001 l 1.9,1.29999 0.39999,2.70001 1.70001,0.60001 -2,2.29999 z m 5.4,1 -3.20002,-1.4 c 0,0 0.9,-0.39999 1.20002,-0.39999 l 0.6,0.29999 2.20001,0.1 -0.80001,1.4 z m 17.89999,-11 c -0.29999,0 -1.20001,0.29998 -1.20001,0.29998 l -1,-1 -1.20001,1.10001 1,1.39999 1.20001,-0.89999 -0.4,2.70001 2,3 -3.20001,-0.70001 0.29999,-2.60001 -2.10001,1.20002 -2,-0.70002 0.4,3.4 -2.29999,0.6 -0.89999,1.29999 1.20001,2.10001 0.1,0.89999 -2.29998,0.9 c 0,0 1.29998,2.39999 1.1,2.39999 -0.19998,0 -1.89999,-0.20001 -1.89999,-0.20001 l -1,1.39999 -1.10001,-0.70001 -0.1,0.10001 0.89999,1.5 -1.10001,0 -1,-0.4 -0.39999,0.4 -0.10001,-0.60001 0.5,0.20001 1.10001,-1.1 -1.39999,-2.29999 -0.60001,-3.79999 2.39999,-0.5 -0.5,-1.79999 -2.5,0.20001 -0.6,0.9 -0.70001,-1 1.20001,-1 -1.20001,-0.70001 2.20001,-0.20002 0.89999,-3.20001 -0.6,-3.29999 -1.70002,2 -2.6,-0.20001 -1.10001,1 -0.29999,1.70001 -2.20001,-2.6 -2.1,-2.10001 0.5,-4.20001 5.5,-3.89999 1.20001,1 0,-2.5 1.29999,-1.29999 3.5,-1.60001 2.1,0 c 0.29999,-0.79999 0.60001,-1.6 0.60001,-1.6 l 0.29999,-2.79999 -0.20002,-0.70001 c 0,0 1.4,-0.29999 1.60001,-0.4 l -0.29999,3.60001 -0.29999,2 0.20002,0 0.6,-3.79999 1.79999,-1.60001 0.79999,-3.5 3.5,1.79999 -2.20001,2.79999 0.1,3.29999 1.79999,0.5 1.10001,2.39999 c 0,0 -1.29999,2.79999 -1.10001,2.79999 0.19998,0 0.20001,2.5 0.20001,2.5 l -1.70001,2.1 c 0,0 1.10001,0.79999 1.29999,0.70002 0.29998,-0.10001 1.20001,-1.9 1.5,-1.9 0.29998,0 2,-0.5 2,-0.5 l -1.9,3.79999 c 0.40006,-0.19992 1.40006,1.90009 1.10007,1.90009 z m -19.60001,-9.9 -1.5,-1.1 0.4,-4 1.29999,-0.10001 -0.70002,3.29999 0.50003,1.90002 z m 1.67813,-82.48126 0.71875,1.28125 -0.51562,3.10937 1.82812,3.70313 4.3125,3.29687 6.27811,-1.40942 9.4,3.4 5.5,-3.9 1.0094,0.2688 4.5,-3.98438 c 0.1,0 2.125,0.10938 2.125,0.10938 l 2.9375,0.98437 3.51562,1.42188 0.95312,-0.3125 1.14063,0.85937 1.42187,1.0625 -0.40625,1.90625 -3.5,2.48438 0.59375,5.79687 2.51563,2.3125 5,0 8.89374,7.89054 3.29999,-1 1.08752,1.42196 -0.75,0.79688 -2.11566,2.27185 -0.70001,2 -4.32187,0.80939 -3.4,6.6 -2,-0.39999 -4.29998,3.39999 -4.20002,6.5 -4.29998,0 -3.29999,2 -2.4,0 -0.70001,3.70002 -6.79999,2.6 -0.5,0.9 0,-1 -2.1,1.6 c 0,0 1.89999,0.9 2.1,0.9 0.10001,0 -0.79998,2.5 -0.79998,2.5 l -2.5,1.39999 -1.29999,0.39999 -3.60001,0 -1.20001,-4 1.10001,-4.20001 -0.60001,-1.5 -1,-0.39999 -0.79999,0.5 0.60001,1.29999 -0.79999,0.39999 -1.39999,-1 -1.29999,-0.29999 0.29999,-1.79999 -1.5,0 c 0,0 -1.29999,1.5 -1.4,1.4 -0.1,-0.10001 -2,-3.5 -2,-3.5 l -0.6,-3.70001 0.6,-0.4 0.70001,-0.70001 -0.89999,-0.10001 -1.5,0.5 -0.79999,1.70002 0.60001,1.39999 1.29999,2.10001 1.29998,2.5 0,3.89999 2.4,2 0.1,0.5 -1.5,0 -0.70001,0.29999 1.20001,1.20001 c 0,0 1.70002,0 1.9,0 0.1,0 -2.4,1.5 -2.60001,1.5 -0.1,0 -3,0.29999 -3,0.29999 l 0.4,-1.20001 -1.4,-0.4 L 265,414.5 266.60001,414 267,413.29999 l -3.89999,-0.60001 -0.4,-2.79999 -0.6,1.79999 -1.4,0.70001 c 0,0 -2.89999,0.10001 -3.1,0.10001 -0.20002,0 -3.4,-0.5 -3.4,-0.5 l -1.5,0.60001 0,0 1.10001,-0.29999 0.3,0.5 1.90001,1.70001 -0.3,1 -2.4,0.20001 -0.39999,1.20001 -0.60001,0.9 -1.19999,-0.9 -4,1.10001 0.89999,1.60001 -1.7,1.89999 2.10001,0.5 c 0,0 -0.10001,-1.60001 -0.10001,-1.79999 0,-0.20001 0.5,-0.5 0.5,-0.5 l 4.80001,-1.39999 1.89999,-2 0.70001,-1.20001 1,1.29998 -0.20001,1.9 c 0,0 2.10001,4.1 2.29999,4.20001 -0.20001,0 -1.70001,0.10001 -1.70001,0.10001 l -0.9,2.20001 -6.3,-0.10001 0.10001,1.20002 3,-0.20002 0.1,2.29999 -1.89999,2.89999 0.89999,3 -1.8,1.70002 -0.10001,1.39999 1.10001,0.79999 2.8,-2.60001 1.3,1.10001 0.20002,2.39999 -1.80001,0.4 0.30001,2.20001 c 0,0 -0.60001,0.6 -0.80001,0.6 -0.1,0 -2.69999,0.60001 -2.69999,0.60001 0,0 -2.30001,1.10001 -2.4,1.10001 -0.1,0 -2.1,-2.5 -2.1,-2.5 l 1.6,-1.20002 2.80001,0.29999 0,-0.89999 c 0,0 -2.80001,-0.29999 -2.9,-0.29999 -0.1,0 -0.1,-0.79999 -0.1,-0.79999 l -0.80001,0 -1.69999,0.60001 -0.30001,-1 -2.3,-0.89999 -1.2,1 -2,-2.4 1.80001,-0.89999 3.5,0.29999 -1,-4.9 -2.30001,-1.5 -0.1,0.60001 0.5,0.79999 -0.30001,0.79998 -1.5,0.5 -0.39999,0.5 0.8,0.79999 -0.1,1.20001 -2.10001,1.4 -2.60001,-2.60001 1.10001,-0.79999 0.2,-0.79998 -1.80001,-0.4 -4,0.4 -0.19999,1.39999 -0.60001,1 -0.39999,0.60001 0.69999,0.70001 -0.1,1.79999 -3.8,-0.4 -0.4,-1.20001 -0.5,-0.10001 -1.39999,2.29999 -0.60001,0.29999 -2.2,-3.9 -5.19999,-0.89999 -2.30001,-3.60001 2.10001,-2.1 -1.60001,-2.60001 1.2,-0.79999 -0.3,-0.89999 -0.60001,-2.39999 0,-2.70002 2,-2.70001 -2.3,1.5 -0.39999,1.29999 c 0,0 -0.30001,1.60001 -0.2,1.70001 0,0.10001 -0.4,1.60001 -0.4,1.60001 l -1,0.20001 -0.5,-1.39999 -1.40002,0 0.60001,1.5 0.19999,2.39999 1.30001,1.29999 -0.60001,4.1 -1.3,0 -1,-0.6 -1.7,-3.20001 -1.7,2 -1.69999,-0.70002 0.6,-2.70001 -1.39999,-0.6 -1.7,5.5 -2.6,2.6 1.19999,-0.1 2.2,0.5 1.2,2.70001 -0.4,5.1 -1.89999,1.60001 0.89999,2 3,1.29999 0.9,2.6 3,-2.89999 2.19999,0.10001 5.10001,1.5 -1.60001,4.29998 0.4,1.10001 0.39999,3.10001 -1.60001,1.1 -0.19999,1.4 1.8,1.5 c 0,0 -2.39999,-0.10001 -2.7,0 -0.3,0.1 -0.39999,-1.29999 -0.39999,-1.29999 l -1.5,1.20001 -1.39999,-0.79999 -0.10001,1 -3.2,0.4 -0.8,-0.60001 -0.2,-5.89999 -1.89999,2.89999 -6.2,0 0,0.79999 0,1 c 0,0 0,-0.79999 -0.3,-0.79999 -0.3,0 -0.39999,-1.79999 -0.39999,-1.79999 0,0 -1.30001,-0.79998 -1.60001,-0.79998 -0.3,0 1.60001,-2 1.60001,-2 l -1.5,-4.20002 -1.7,-2.39999 -0.8,-3.79999 1.19999,-1.6 0.60001,-2.9 0.8,-0.89999 1.5,1 -0.39999,-1.20001 1.39999,-0.5 c -0.6,0 -1.6,0 -1.7,0 -0.19999,0 -0.39999,-3.10001 -0.39999,-3.10001 l -2.10001,-0.70001 -0.30627,0.0874 c -0.5,-1.70001 -1.28125,-4.60938 -1.28125,-4.60938 l -1.40625,-4.17187 -1.76563,-0.0937 -7.9375,-5.8125 0.0156,-2.85938 -5.31874,-6.64062 0.61561,-9.34375 -2.2156,-3.05624 0.68435,-2.41251 2.61565,-2.38748 -0.89999,-2.9 1.6,-3.29998 3.5,-2.9 0.7,-4.6 c 0.11574,-0.36274 -1.34064,-0.48603 -1.89999,-0.4 -0.4,-0.1 -0.4,-2 -0.4,-2 l 0.4,-3.20001 -1.2,-2.29999 0.42808,-3.32504 -3.42187,-1.23438 -0.10622,-1.94058 4.9,-14.1 1.39999,-0.9 -0.6,-1.29999 0.69999,-5.6 5.30001,-4.60001 1.6,-4 0.88435,-1.01254 1.91564,0.91254 1.60001,-1.29999 1.73435,0.1062 3,-1.70312 2.06565,-4.7031 2.19998,-1.07816 0.20312,1.29688 1,1.28125 2.32813,0.5 0.57812,0.51562 0.40625,2.5 0.82813,0.40625 3.85937,0.57813 1.70313,1.70312 7.09375,0.57813 c 0,0 1.36876,0.77502 1.46875,0.875 0.10001,0 1.82812,1.42187 1.82812,1.42187 l 0.79688,2.92188 1.125,0.82812 1.8125,0.67188 0.375,1.90625 2.1875,1.17187 1.20312,2.03125 -2.125,6.34375 -0.17187,1.34375 1.09999,1.60312 c 0,0 3.60001,1.5 3.8,1.5 0.2,0 3.31876,-0.58749 3.31876,-0.58749 l 2.90625,-1.21875 4.59375,1.42187 2.1875,2.28125 1.375,0.23438 2.42187,1.26562 0.48438,-0.375 3.5125,-2.52191 1.40001,-0.39999 2.29998,1.10001 1.20938,-0.78748 0.39063,-3.51563 2.07812,-1.07812 z"
         id="경남"
         inkscape:connector-curvature="0"
         x="245"
         y="387" /><path
         style="fill:#cccccc;stroke:#ffffff;stroke-width:0.5"
         d="M 117.29375,403.39072 119,406 l -1.07812,0.5 -0.40625,5.21875 -1.60938,1.29687 -0.42187,1.79688 -2.09063,1.67819 -1,2.70001 -1.40001,0 -1.19999,-2.1 -0.21562,-1.70008 -0.78125,-0.0781 -1.90625,1.28125 L 105,417 l -1.71875,-0.40625 -1.40625,1.625 -2.203125,1.3125 c 0,0 -1.19062,0.0375 -1.390625,-0.0625 -0.199997,-0.10001 -0.765625,-1.04688 -0.765625,-1.04688 l -1.03125,1.09375 -2.1875,-0.3125 -0.6875,-0.90625 1,-0.71875 0.09375,-0.875 -0.421875,-1.40625 -1.1875,-0.60937 -0.578125,-1.07813 -0.890625,-0.40625 -2.40625,-0.40625 -1.9375,0.60938 c 0,0 -1.344704,0.32568 -1.640625,0.375 -0.28125,0.0469 -0.140625,-1.1875 -0.140625,-1.1875 l -2.515625,-0.29688 -1.490623,-0.92187 0,-1.17188 0.881248,-0.60937 0.421875,-1.1875 1.1875,-0.21875 0.03125,-0.875 1.015625,-0.75 0.453125,-0.89063 c 0,0 -1.109375,-1.48123 -1.109375,-1.78125 0,-0.20001 -0.07813,-0.79687 -0.07813,-0.79687 L 86.921875,403 87.062508,401.6188 88,401 l 0.593758,0.59067 1.199997,-0.5 0.300003,-2.10001 1,-0.5 0.5,-1.6 1.300003,-1.20002 1.699997,0 -0.800003,1.79999 0.1,0.79999 1.699997,0.6 2.400001,1.20002 1.5,-0.9 1.399997,-0.1 3.2,-2.20002 1.5,0.10001 2.4,-1.39999 2.7,1.20001 -0.2,1.39999 c 0,0 2.2,1.10001 2.2,1.29999 0,0.19998 0.1,1.70001 0.1,1.70001 l 1.19999,0.70002 -0.9,0.79998 0.1,1.20002 0.9,0.79998 1.4,-0.89999 1.80001,-0.39993 z"
         id="광주"
         inkscape:connector-curvature="0"
         x="99"
         y="408" /></g></svg>