<?xml version="1.0" encoding="utf-8"?>
<!DOCTYPE svg>
<svg width="300" height="300" style="background:white" xmlns="http://www.w3.org/2000/svg">
	<defs>
		<clipPath id="clip-id-1409713652540-95">
			<rect x="0" y="0" width="300" height="300"></rect>
		</clipPath>
	</defs>
	<g class="grid block" display="none" transform="translate(0,0)">
		<g transform="translate(0, 0)">
			<line x1="0" y1="0" x2="300" y2="0" stroke="#aaaaaa" stroke-width="1" stroke-opacity="1"></line>
			<text font-family="arial,Tahoma,verdana" font-size="11px" fill="#333333" text-anchor="end" y="37.5" x="-10">week1</text>
		</g>
		<g transform="translate(0, 75)">
			<line x1="0" y1="0" x2="300" y2="0" stroke="#aaaaaa" stroke-width="1" stroke-opacity="1"></line>
			<text font-family="arial,Tahoma,verdana" font-size="11px" fill="#333333" text-anchor="end" y="37.5" x="-10">week2</text>
		</g>
		<g transform="translate(0, 150)">
			<line x1="0" y1="0" x2="300" y2="0" stroke="#aaaaaa" stroke-width="1" stroke-opacity="1"></line>
			<text font-family="arial,Tahoma,verdana" font-size="11px" fill="#333333" text-anchor="end" y="37.5" x="-10">week3</text>
		</g>
		<g transform="translate(0, 225)">
			<line x1="0" y1="0" x2="300" y2="0" stroke="#aaaaaa" stroke-width="1" stroke-opacity="1"></line>
			<text font-family="arial,Tahoma,verdana" font-size="11px" fill="#333333" text-anchor="end" y="37.5" x="-10">week4</text>
		</g>
		<g transform="translate(0, 300)">
			<line x1="0" y1="0" x2="300" y2="0" stroke="#aaaaaa" stroke-width="1" stroke-opacity="1"></line>
		</g>
	</g>
	<g class="grid range" display="none" transform="translate(0,300)">
		<line x1="0" y1="0" x2="300" y2="0" stroke="#aaaaaa" stroke-width="2px" stroke-opacity="1"></line>
		<g transform="translate(0, 0)">
			<line x1="0" y1="0" x2="0" y2="6" stroke="#aaaaaa" stroke-width="1" stroke-opacity="1"></line>
			<text font-family="arial,Tahoma,verdana" font-size="11px" fill="#333333" text-anchor="middle" y="18" x="0">0</text>
		</g>
		<g transform="translate(33.33333333333333, 0)">
			<line x1="0" y1="0" x2="0" y2="6" stroke="#aaaaaa" stroke-width="1" stroke-opacity="1"></line>
			<text font-family="arial,Tahoma,verdana" font-size="11px" fill="#333333" text-anchor="middle" y="18" x="0">5</text>
		</g>
		<g transform="translate(66.66666666666666, 0)">
			<line x1="0" y1="0" x2="0" y2="6" stroke="#aaaaaa" stroke-width="1" stroke-opacity="1"></line>
			<text font-family="arial,Tahoma,verdana" font-size="11px" fill="#333333" text-anchor="middle" y="18" x="0">10</text>
		</g>
		<g transform="translate(100, 0)">
			<line x1="0" y1="0" x2="0" y2="6" stroke="#aaaaaa" stroke-width="1" stroke-opacity="1"></line>
			<text font-family="arial,Tahoma,verdana" font-size="11px" fill="#333333" text-anchor="middle" y="18" x="0">15</text>
		</g>
		<g transform="translate(133.33333333333331, 0)">
			<line x1="0" y1="0" x2="0" y2="6" stroke="#aaaaaa" stroke-width="1" stroke-opacity="1"></line>
			<text font-family="arial,Tahoma,verdana" font-size="11px" fill="#333333" text-anchor="middle" y="18" x="0">20</text>
		</g>
		<g transform="translate(166.66666666666669, 0)">
			<line x1="0" y1="0" x2="0" y2="6" stroke="#aaaaaa" stroke-width="1" stroke-opacity="1"></line>
			<text font-family="arial,Tahoma,verdana" font-size="11px" fill="#333333" text-anchor="middle" y="18" x="0">25</text>
		</g>
		<g transform="translate(200, 0)">
			<line x1="0" y1="0" x2="0" y2="6" stroke="#aaaaaa" stroke-width="1" stroke-opacity="1"></line>
			<text font-family="arial,Tahoma,verdana" font-size="11px" fill="#333333" text-anchor="middle" y="18" x="0">30</text>
		</g>
		<g transform="translate(233.33333333333334, 0)">
			<line x1="0" y1="0" x2="0" y2="6" stroke="#aaaaaa" stroke-width="1" stroke-opacity="1"></line>
			<text font-family="arial,Tahoma,verdana" font-size="11px" fill="#333333" text-anchor="middle" y="18" x="0">35</text>
		</g>
		<g transform="translate(266.66666666666663, 0)">
			<line x1="0" y1="0" x2="0" y2="6" stroke="#aaaaaa" stroke-width="1" stroke-opacity="1"></line>
			<text font-family="arial,Tahoma,verdana" font-size="11px" fill="#333333" text-anchor="middle" y="18" x="0">40</text>
		</g>
		<g transform="translate(300, 0)">
			<line x1="0" y1="0" x2="0" y2="6" stroke="#aaaaaa" stroke-width="1" stroke-opacity="1"></line>
			<text font-family="arial,Tahoma,verdana" font-size="11px" fill="#333333" text-anchor="middle" y="18" x="0">45</text>
		</g>
	</g>
	<g transform="translate(0,0)">
		<rect x="0" y="15" width="13.333333333333334" height="45" fill="#7977C2"></rect>
		<rect x="13.333333333333334" y="15" width="100" height="45" fill="#7BBAE7"></rect>
		<rect x="113.33333333333333" y="15" width="133.33333333333331" height="45" fill="#FFC000"></rect>
		<rect x="0" y="90" width="100" height="45" fill="#7977C2"></rect>
		<rect x="100" y="90" width="40" height="45" fill="#7BBAE7"></rect>
		<rect x="140" y="90" width="133.33333333333331" height="45" fill="#FFC000"></rect>
		<rect x="0" y="165" width="53.333333333333336" height="45" fill="#7977C2"></rect>
		<rect x="53.333333333333336" y="165" width="66.66666666666666" height="45" fill="#7BBAE7"></rect>
		<rect x="120" y="165" width="133.33333333333331" height="45" fill="#FFC000"></rect>
		<rect x="0" y="240" width="120" height="45" fill="#7977C2"></rect>
		<rect x="120" y="240" width="33.33333333333333" height="45" fill="#7BBAE7"></rect>
		<rect x="153.33333333333331" y="240" width="133.33333333333331" height="45" fill="#FFC000"></rect>
	</g>
</svg>