<?xml version="1.0" encoding="utf-8"?>
<!DOCTYPE svg>
<svg width="300" height="300" style="background:white" xmlns="http://www.w3.org/2000/svg">
	<defs>
		<clipPath id="clip-id-1409720768313-34">
			<rect x="0" y="0" width="300" height="300"></rect>
		</clipPath>
	</defs>
	<g class="grid block" display="none" transform="translate(0,300)">
		<g transform="translate(37.5, 0)">
			<line x1="-37.5" y1="0" x2="-37.5" y2="-300" stroke="#aaaaaa" stroke-width="1" stroke-opacity="1"></line>
			<text font-family="arial,Tahoma,verdana" font-size="11px" fill="#333333" text-anchor="middle" y="20" x="0">week1</text>
		</g>
		<g transform="translate(112.5, 0)">
			<line x1="-37.5" y1="0" x2="-37.5" y2="-300" stroke="#aaaaaa" stroke-width="1" stroke-opacity="1"></line>
			<text font-family="arial,Tahoma,verdana" font-size="11px" fill="#333333" text-anchor="middle" y="20" x="0">week2</text>
		</g>
		<g transform="translate(187.5, 0)">
			<line x1="-37.5" y1="0" x2="-37.5" y2="-300" stroke="#aaaaaa" stroke-width="1" stroke-opacity="1"></line>
			<text font-family="arial,Tahoma,verdana" font-size="11px" fill="#333333" text-anchor="middle" y="20" x="0">week3</text>
		</g>
		<g transform="translate(262.5, 0)">
			<line x1="-37.5" y1="0" x2="-37.5" y2="-300" stroke="#aaaaaa" stroke-width="1" stroke-opacity="1"></line>
			<text font-family="arial,Tahoma,verdana" font-size="11px" fill="#333333" text-anchor="middle" y="20" x="0">week4</text>
		</g>
		<g transform="translate(300, 0)">
			<line x1="0" y1="0" x2="0" y2="-300" stroke="#aaaaaa" stroke-width="1" stroke-opacity="1"></line>
		</g>
	</g>
	<g class="grid range" display="none" transform="translate(0,0)">
		<line x1="0" y1="0" x2="0" y2="300" stroke="#aaaaaa" stroke-width="2px" stroke-opacity="1"></line>
		<g transform="translate(0, 300)">
			<line x1="0" y1="0" x2="-6" y2="0" stroke="#aaaaaa" stroke-width="1" stroke-opacity="1"></line>
			<text font-family="arial,Tahoma,verdana" font-size="11px" fill="#333333" text-anchor="end" y="6" x="-10">-16</text>
		</g>
		<g transform="translate(0, 266.6666666666667)">
			<line x1="0" y1="0" x2="-6" y2="0" stroke="#aaaaaa" stroke-width="1" stroke-opacity="1"></line>
			<text font-family="arial,Tahoma,verdana" font-size="11px" fill="#333333" text-anchor="end" y="6" x="-10">-12</text>
		</g>
		<g transform="translate(0, 233.33333333333334)">
			<line x1="0" y1="0" x2="-6" y2="0" stroke="#aaaaaa" stroke-width="1" stroke-opacity="1"></line>
			<text font-family="arial,Tahoma,verdana" font-size="11px" fill="#333333" text-anchor="end" y="6" x="-10">-8</text>
		</g>
		<g transform="translate(0, 200)">
			<line x1="0" y1="0" x2="-6" y2="0" stroke="#aaaaaa" stroke-width="1" stroke-opacity="1"></line>
			<text font-family="arial,Tahoma,verdana" font-size="11px" fill="#333333" text-anchor="end" y="6" x="-10">-4</text>
		</g>
		<g transform="translate(0, 166.66666666666669)">
			<line x1="0" y1="0" x2="-6" y2="0" stroke="#ff7800" stroke-width="1" stroke-opacity="1"></line>
			<text font-family="arial,Tahoma,verdana" font-size="11px" fill="#ff7800" text-anchor="end" y="6" x="-10">0</text>
		</g>
		<g transform="translate(0, 133.33333333333331)">
			<line x1="0" y1="0" x2="-6" y2="0" stroke="#aaaaaa" stroke-width="1" stroke-opacity="1"></line>
			<text font-family="arial,Tahoma,verdana" font-size="11px" fill="#333333" text-anchor="end" y="6" x="-10">4</text>
		</g>
		<g transform="translate(0, 100)">
			<line x1="0" y1="0" x2="-6" y2="0" stroke="#aaaaaa" stroke-width="1" stroke-opacity="1"></line>
			<text font-family="arial,Tahoma,verdana" font-size="11px" fill="#333333" text-anchor="end" y="6" x="-10">8</text>
		</g>
		<g transform="translate(0, 66.66666666666666)">
			<line x1="0" y1="0" x2="-6" y2="0" stroke="#aaaaaa" stroke-width="1" stroke-opacity="1"></line>
			<text font-family="arial,Tahoma,verdana" font-size="11px" fill="#333333" text-anchor="end" y="6" x="-10">12</text>
		</g>
		<g transform="translate(0, 33.33333333333337)">
			<line x1="0" y1="0" x2="-6" y2="0" stroke="#aaaaaa" stroke-width="1" stroke-opacity="1"></line>
			<text font-family="arial,Tahoma,verdana" font-size="11px" fill="#333333" text-anchor="end" y="6" x="-10">16</text>
		</g>
		<g transform="translate(0, 0)">
			<line x1="0" y1="0" x2="-6" y2="0" stroke="#aaaaaa" stroke-width="1" stroke-opacity="1"></line>
			<text font-family="arial,Tahoma,verdana" font-size="11px" fill="#333333" text-anchor="end" y="6" x="-10">20</text>
		</g>
	</g>
	<g transform="translate(0,0)">
		<path stroke="#7977C2" stroke-width="2" fill="transparent" d="M37.5,150 C62.5,229.25925925925927 87.5,308.51851851851853 112.5,291.6666666666667 C137.5,274.81481481481484 162.5,161.85185185185185 187.5,100 C212.5,38.14814814814815 237.5,27.40740740740742 262.5,16.666666666666686"></path>
		<path stroke="#7BBAE7" stroke-width="2" fill="transparent" d="M37.5,41.66666666666663 C62.5,77.96296296296295 87.5,114.25925925925927 112.5,116.66666666666666 C137.5,119.07407407407405 162.5,87.5925925925926 187.5,83.33333333333334 C212.5,79.07407407407409 237.5,102.03703703703704 262.5,125"></path>
	</g>
</svg>