<?xml version="1.0" encoding="utf-8"?>
<!DOCTYPE svg>
<svg width="300" height="300" style="background:white" xmlns="http://www.w3.org/2000/svg">
  <defs>
    <clipPath id="clip-id-1410917527864-94">
      <rect x="0" y="0" width="300" height="300"></rect>
    </clipPath>
  </defs>
  <g class="grid block" display="none" transform="translate(0,300)">
    <g transform="translate(37.5, 0)">
      <line x1="-37.5" y1="0" x2="-37.5" y2="-300" stroke="#aaaaaa" stroke-width="1" stroke-opacity="1"></line>
      <text font-family="arial,Tahoma,verdana" font-size="11px" fill="#333333" text-anchor="middle" y="20" x="0">week1</text>
    </g>
    <g transform="translate(112.5, 0)">
      <line x1="-37.5" y1="0" x2="-37.5" y2="-300" stroke="#aaaaaa" stroke-width="1" stroke-opacity="1"></line>
      <text font-family="arial,Tahoma,verdana" font-size="11px" fill="#333333" text-anchor="middle" y="20" x="0">week2</text>
    </g>
    <g transform="translate(187.5, 0)">
      <line x1="-37.5" y1="0" x2="-37.5" y2="-300" stroke="#aaaaaa" stroke-width="1" stroke-opacity="1"></line>
      <text font-family="arial,Tahoma,verdana" font-size="11px" fill="#333333" text-anchor="middle" y="20" x="0">week3</text>
    </g>
    <g transform="translate(262.5, 0)">
      <line x1="-37.5" y1="0" x2="-37.5" y2="-300" stroke="#aaaaaa" stroke-width="1" stroke-opacity="1"></line>
      <text font-family="arial,Tahoma,verdana" font-size="11px" fill="#333333" text-anchor="middle" y="20" x="0">week4</text>
    </g>
    <g transform="translate(300, 0)">
      <line x1="0" y1="0" x2="0" y2="-300" stroke="#aaaaaa" stroke-width="1" stroke-opacity="1"></line>
    </g>
  </g>
  <g class="grid range" display="none" transform="translate(0,0)">
    <line x1="0" y1="0" x2="0" y2="300" stroke="#aaaaaa" stroke-width="2px" stroke-opacity="1"></line>
    <g transform="translate(0, 300)">
      <line x1="0" y1="0" x2="-6" y2="0" stroke="#aaaaaa" stroke-width="1" stroke-opacity="1"></line>
      <text font-family="arial,Tahoma,verdana" font-size="11px" fill="#333333" text-anchor="end" y="6" x="-10">0</text>
    </g>
    <g transform="translate(0, 262.5)">
      <line x1="0" y1="0" x2="-6" y2="0" stroke="#aaaaaa" stroke-width="1" stroke-opacity="1"></line>
      <text font-family="arial,Tahoma,verdana" font-size="11px" fill="#333333" text-anchor="end" y="6" x="-10">2</text>
    </g>
    <g transform="translate(0, 225)">
      <line x1="0" y1="0" x2="-6" y2="0" stroke="#aaaaaa" stroke-width="1" stroke-opacity="1"></line>
      <text font-family="arial,Tahoma,verdana" font-size="11px" fill="#333333" text-anchor="end" y="6" x="-10">4</text>
    </g>
    <g transform="translate(0, 187.5)">
      <line x1="0" y1="0" x2="-6" y2="0" stroke="#aaaaaa" stroke-width="1" stroke-opacity="1"></line>
      <text font-family="arial,Tahoma,verdana" font-size="11px" fill="#333333" text-anchor="end" y="6" x="-10">6</text>
    </g>
    <g transform="translate(0, 150)">
      <line x1="0" y1="0" x2="-6" y2="0" stroke="#aaaaaa" stroke-width="1" stroke-opacity="1"></line>
      <text font-family="arial,Tahoma,verdana" font-size="11px" fill="#333333" text-anchor="end" y="6" x="-10">8</text>
    </g>
    <g transform="translate(0, 112.5)">
      <line x1="0" y1="0" x2="-6" y2="0" stroke="#aaaaaa" stroke-width="1" stroke-opacity="1"></line>
      <text font-family="arial,Tahoma,verdana" font-size="11px" fill="#333333" text-anchor="end" y="6" x="-10">10</text>
    </g>
    <g transform="translate(0, 75)">
      <line x1="0" y1="0" x2="-6" y2="0" stroke="#aaaaaa" stroke-width="1" stroke-opacity="1"></line>
      <text font-family="arial,Tahoma,verdana" font-size="11px" fill="#333333" text-anchor="end" y="6" x="-10">12</text>
    </g>
    <g transform="translate(0, 37.5)">
      <line x1="0" y1="0" x2="-6" y2="0" stroke="#aaaaaa" stroke-width="1" stroke-opacity="1"></line>
      <text font-family="arial,Tahoma,verdana" font-size="11px" fill="#333333" text-anchor="end" y="6" x="-10">14</text>
    </g>
    <g transform="translate(0, 0)">
      <line x1="0" y1="0" x2="-6" y2="0" stroke="#aaaaaa" stroke-width="1" stroke-opacity="1"></line>
      <text font-family="arial,Tahoma,verdana" font-size="11px" fill="#333333" text-anchor="end" y="6" x="-10">16</text>
    </g>
  </g>
  <g transform="translate(0,0)">
    <rect x="2" y="18.75" width="71" height="281.25" fill="#7977C2"></rect>
    <rect x="77" y="187.5" width="71" height="112.5" fill="#7977C2"></rect>
    <rect x="152" y="112.5" width="71" height="187.5" fill="#7977C2"></rect>
    <rect x="227" y="206.25" width="71" height="93.75" fill="#7977C2"></rect>
  </g>
  <g transform="translate(0,0)">
    <path stroke="#7BBAE7" stroke-width="2" fill="transparent" d="M37.5,262.5 C62.5,167.5 87.5,72.5 112.5,56.25 C137.5,40 162.5,102.5 187.5,150 C212.5,197.5 237.5,230 262.5,262.5"></path>
  </g>
  <g clip-path="url(#clip-id-1410917527864-94)" transform="translate(0,0)">
    <ellipse rx="3.5" ry="3.5" cx="37.5" cy="262.5" fill="#7BBAE7" stroke="white" stroke-width="1"></ellipse>
    <ellipse rx="3.5" ry="3.5" cx="112.5" cy="56.25" fill="#7BBAE7" stroke="white" stroke-width="1"></ellipse>
    <ellipse rx="3.5" ry="3.5" cx="187.5" cy="150" fill="#7BBAE7" stroke="white" stroke-width="1"></ellipse>
    <ellipse rx="3.5" ry="3.5" cx="262.5" cy="262.5" fill="#7BBAE7" stroke="white" stroke-width="1"></ellipse>
  </g>
</svg>