<?xml version="1.0" encoding="utf-8"?>
<!DOCTYPE svg>
<svg width="300" height="300" style="background:white" xmlns="http://www.w3.org/2000/svg"><defs><clipPath id="clip-id-1409720652244-6"><rect x="0" y="0" width="300" height="300"></rect></clipPath></defs><g class="grid radar"><g><line x1="150" y1="150" x2="150" y2="0" stroke="#aaaaaa" stroke-width="1"></line><line x1="150" y1="150" x2="256.06601717798213" y2="43.93398282201788" stroke="#aaaaaa" stroke-width="1"></line><line x1="150" y1="150" x2="300" y2="150" stroke="#aaaaaa" stroke-width="1"></line><line x1="150" y1="150" x2="256.0660171779821" y2="256.0660171779821" stroke="#aaaaaa" stroke-width="1"></line><line x1="150" y1="150" x2="150" y2="299.99999999999994" stroke="#aaaaaa" stroke-width="1"></line><line x1="150" y1="150" x2="43.933982822017924" y2="256.0660171779821" stroke="#aaaaaa" stroke-width="1"></line><line x1="150" y1="150" x2="8.526512829121202e-14" y2="150" stroke="#aaaaaa" stroke-width="1"></line><line x1="150" y1="150" x2="43.93398282201794" y2="43.93398282201794" stroke="#aaaaaa" stroke-width="1"></line><circle cx="150" cy="150" r="150" fill-opacity="0" stroke="#aaaaaa" stroke-width="1"></circle><circle cx="150" cy="150" r="135" fill-opacity="0" stroke="#aaaaaa" stroke-width="1"></circle><circle cx="150" cy="150" r="120" fill-opacity="0" stroke="#aaaaaa" stroke-width="1"></circle><circle cx="150" cy="150" r="105" fill-opacity="0" stroke="#aaaaaa" stroke-width="1"></circle><circle cx="150" cy="150" r="90" fill-opacity="0" stroke="#aaaaaa" stroke-width="1"></circle><circle cx="150" cy="150" r="75" fill-opacity="0" stroke="#aaaaaa" stroke-width="1"></circle><circle cx="150" cy="150" r="60" fill-opacity="0" stroke="#aaaaaa" stroke-width="1"></circle><circle cx="150" cy="150" r="45" fill-opacity="0" stroke="#aaaaaa" stroke-width="1"></circle><circle cx="150" cy="150" r="30" fill-opacity="0" stroke="#aaaaaa" stroke-width="1"></circle><circle cx="150" cy="150" r="15" fill-opacity="0" stroke="#aaaaaa" stroke-width="1"></circle></g></g><g class="brush path"><path fill="#FFC000" fill-opacity="0.5" stroke="#FFC000" stroke-width="1" d="M150,45 L208.33630944789016,91.66369055210984 L162,150 L169.0918830920368,169.09188309203677 L150,177 L118.18019484660537,181.81980515339464 L75,150 L43.93398282201787,43.933982822017896 Z"></path><path fill="#FF7800" fill-opacity="0.5" stroke="#FF7800" stroke-width="1" d="M150,22.5 L213.63961030678928,86.36038969321072 L195,150 L205.1543289325507,205.1543289325507 L150,225 L144.6966991411009,155.3033008588991 L0,150.00000000000003 L144.6966991411009,144.6966991411009 Z"></path></g></svg>