<?xml version="1.0" encoding="utf-8"?>
<!DOCTYPE svg>
<svg width="800" height="300" style="background:white" xmlns="http://www.w3.org/2000/svg">
	<g transform="translate(0.5,0.5)">
		<defs>
			<clipPath id="clip-id-1414130217415-31">
				<rect x="0" y="0" width="800" height="250">
				</rect>
			</clipPath>
		</defs>
		<g class="grid date" transform="translate(0,250)">
			<g transform="translate(7, 0)">
				<line x1="0" y1="0" x2="0" y2="-250" stroke="#ebebeb" stroke-width="1" stroke-opacity="1">
				</line>
				<text font-family="arial,Tahoma,verdana" font-size="11px" fill="#333333" text-anchor="middle" y="18" x="0">
					02:52
				</text>
			</g>
			<g transform="translate(167, 0)">
				<line x1="0" y1="0" x2="0" y2="-250" stroke="#ebebeb" stroke-width="1" stroke-opacity="1">
				</line>
				<text font-family="arial,Tahoma,verdana" font-size="11px" fill="#333333" text-anchor="middle" y="18" x="0">
					02:53
				</text>
			</g>
			<g transform="translate(327, 0)">
				<line x1="0" y1="0" x2="0" y2="-250" stroke="#ebebeb" stroke-width="1" stroke-opacity="1">
				</line>
				<text font-family="arial,Tahoma,verdana" font-size="11px" fill="#333333" text-anchor="middle" y="18" x="0">
					02:54
				</text>
			</g>
			<g transform="translate(487, 0)">
				<line x1="0" y1="0" x2="0" y2="-250" stroke="#ebebeb" stroke-width="1" stroke-opacity="1">
				</line>
				<text font-family="arial,Tahoma,verdana" font-size="11px" fill="#333333" text-anchor="middle" y="18" x="0">
					02:55
				</text>
			</g>
			<g transform="translate(647, 0)">
				<line x1="0" y1="0" x2="0" y2="-250" stroke="#ebebeb" stroke-width="1" stroke-opacity="1">
				</line>
				<text font-family="arial,Tahoma,verdana" font-size="11px" fill="#333333" text-anchor="middle" y="18" x="0">
					02:56
				</text>
			</g>
		</g>
		<g class="grid range" transform="translate(0,0)">
			<g transform="translate(0, 250)">
				<line x1="0" y1="0" x2="800" y2="0" stroke="#ebebeb" stroke-width="1" stroke-opacity="1">
				</line>
				<text font-family="arial,Tahoma,verdana" font-size="11px" fill="#333333" text-anchor="end" y="6" x="-10">
					0
				</text>
			</g>
			<g transform="translate(0, 125)">
				<line x1="0" y1="0" x2="800" y2="0" stroke="#ebebeb" stroke-width="1" stroke-opacity="1">
				</line>
				<text font-family="arial,Tahoma,verdana" font-size="11px" fill="#333333" text-anchor="end" y="6" x="-10">
					1
				</text>
			</g>
			<g transform="translate(0, 0)">
				<line x1="0" y1="0" x2="800" y2="0" stroke="#ebebeb" stroke-width="1" stroke-opacity="1">
				</line>
				<text font-family="arial,Tahoma,verdana" font-size="11px" fill="#333333" text-anchor="end" y="6" x="-10">
					2
				</text>
			</g>
		</g>
		<g transform="translate(0,0)">
			<path stroke="#7977C2" stroke-width="2" fill="transparent" d="M2,54.41969082562059 L5,47.703774616282885 L8,41.33126996869174 L10,35.330488637559625 L13,29.728090885770058 L16,24.548967038198583 L18,19.816126899012943 L21,15.55059752374683 L24,11.77132980032735 L26,8.495114254096706 L29,5.736506450889607 L32,3.5077623295859155 L34,1.8187837514424814 L37,0.6770745081179257 L40,0.08770698383759168 L42,0.053299619811866705 L45,0.5740052810293719 L48,1.6475105771086476 L50,3.269046140225612 L53,5.431407814454161 L56,8.124988662380275 L58,11.337821646789791 L61,15.055632797804776 L64,19.261904629256748 L66,23.937949522551236 L69,29.062992751993164 L72,34.61426478270943 L74,40.56710243110612 L77,46.89505843842636 L80,53.57001897059408 L82,60.56232852231696 L85,67.8409216705235 L88,75.37346109178128 L90,83.12648123051187 L93,91.06553697971466 L96,99.15535671363955 L98,107.35999899251661 L101,115.64301224313411 L104,123.96759670583695 L106,132.2967679284475 L109,140.59352108073733 L112,148.82099535943567 L114,156.9426377533539 L117,164.922365441053 L120,172.72472609955142 L122,180.31505541185655 L125,187.6596310735431 L128,194.72582261416028 L130,201.48223636783987 L133,207.89885494903126 L136,213.94717061369954 L138,219.60031191349103 L141,224.833163080166 L144,229.62247560989897 L146,233.94697155169854 L149,237.7874380410585 L152,241.12681265884524 L154,243.9502592361895 L157,246.24523376859656 L160,248.00154014643195 L162,249.21137545418304 L165,249.86936463724103 L168,249.97258438218608 L170,249.52057610448009 L173,248.51534798586542 L176,246.96136605241787 L178,244.8655343328923 L181,242.2371641855134 L184,239.08793292948621 L186,235.43183196501914 L189,231.28510461235035 L192,226.6661739459475 L194,221.5955609444984 L197,216.09579332033573 L200,210.19130543334808 L202,203.9083297340402 L205,197.27478021803861 L208,190.32012840983134 L210,183.07527242671966 L213,175.5723997047063 L216,167.84484399619964 L218,159.92693727486574 L221,151.85385720558315 L224,143.66147085716318 L226,135.38617535218705 L229,127.06473616192018 L232,118.73412376472842 L234,110.4313493936883 L237,102.1933006031332 L240,94.05657738467792 L242,86.05732956082775 L245,78.23109617859751 L248,70.61264761668363 L250,63.23583110767396 L253,56.13342036161069 L256,49.336969958996946 L258,42.876675160151365 L261,36.78123775374729 L264,31.077738540546477 L266,25.791517018855842 L269,20.94605880623928 L272,16.56289129764926 L274,12.661488023546639 L277,9.25918213292698 L280,6.371089385630199 L282,4.01004099606422 L285,2.1865266267033405 L288,0.9086477846308583 L290,0.18208182817437546 L293,0.010056743546414282 L296,0.3933368035517617 L298,1.3302191720772498 L301,2.8165414694497883 L304,4.845700265050709 L306,7.408680415028357 L309,10.494095114766395 L312,14.088236488163204 L314,18.175136488964938 L317,22.736637843578933 L320,27.752474720183216 L322,33.20036276573583 L325,39.05609811086731 L328,45.29366490279742 L330,51.885350888529814 L333,58.80187053480981 L336,66.0124951378518 L338,73.48518934478042 L341,81.1867534802517 L344,89.08297104592401 L346,97.13876073746906 L349,105.31833230374161 L352,113.58534555565632 L354,121.90307181833026 L357,130.2345571091871 L360,138.54278631705932 L362,146.79084765287246 L365,154.94209664128948 L368,162.96031892473474 L370,170.80989115649106 L373,178.45593926805375 L376,185.86449340759467 L378,193.00263886117122 L381,199.8386622861717 L384,206.3421926073093 L386,212.4843359491928 L389,218.2378040059958 L392,223.57703527790304 L394,228.4783086357067 L397,232.91984870900558 L400,236.8819226297901 L402,240.34692770160083 L405,243.2994696047635 L408,245.7264307902509 L410,247.61702875831145 L413,248.96286396294357 L416,249.7579571293874 L418,249.99877581883794 L421,249.6842501223594 L424,248.8157774142751 L426,247.39721614391468 L429,245.43486869330084 L432,242.9374533769356 L434,239.91606570808446 L437,236.3841291036459 L440,232.35733524661345 L442,227.8535743710886 L445,222.89285577957375 L448,217.49721894567114 L450,211.6906355971403 L453,205.4989032143401 L456,198.94953041721837 L458,192.07161475005438 L461,184.89571340692964 L464,177.45370747226906 L466,169.77866027960357 L469,161.90467051783833 L472,153.866720737646 L474,145.70052193103868 L477,137.44235487462333 L480,129.12890894141822 L482,120.79711909735792 L485,112.48400180667838 L488,104.2264905752217 L490,96.06127186230762 L493,88.02462209018475 L496,80.15224647519108 L498,72.47912039666988 L501,65.03933400840324 L504,57.865940782924554 L506,50.990810661597095 L509,44.444488462883186 L512,38.25605817786797 L514,32.453013755943914 L517,27.061136954731438 L520,22.104382796922238 L522,17.604773142938 L525,13.582298852240001 L528,10.054830967966325 L530,7.038041319486894 L533,4.5453328956218115 L536,2.5877802978611157 L538,1.1740805381412258 L541,0.3105143997722166 L544,0.0009185331827552545 L546,0.24666841045478805 L549,1.0466722143781624 L552,2.3973756891746234 L554,4.292777931340311 L557,6.724458050451602 L560,9.681612581485098 L562,13.15110348243698 L565,17.117516503997564 L568,21.56322967195655 L570,26.468491578085462 L573,31.811509131665872 L576,37.56854438180301 L578,43.714019980360405 L581,50.2206328169662 L584,57.05947532123383 L586,64.20016389327503 L589,71.61097389191517 L592,79.25898058088359 L594,87.1102054067872 L597,95.12976695897879 L600,103.28203594063962 L602,111.5307934625695 L605,119.83939195641673 L608,128.17091799244355 L610,136.4883562784602 L613,144.75475411131217 L616,152.93338555029936 L618,160.98791458313315 L621,168.88255655952088 L624,176.58223717516 L626,184.0527482998083 L629,191.26089995711652 L632,198.17466778100933 L634,204.7633352934934 L637,210.99763037178332 L640,216.84985529844747 L642,222.2940098167873 L645,227.30590664474315 L648,231.8632789341156 L650,235.94587919768804 L653,239.5355692647343 L656,242.61640086525804 L658,245.1746864849446 L661,247.19906017603017 L664,248.68052805391864 L666,249.61250825519951 L669,249.99086017954141 L672,249.81390288554542 L674,249.08242255882914 L677,247.79966901916242 L680,245.97134128217243 L682,243.6055622397655 L685,240.71284257175375 L688,237.30603404902195 L690,233.40027243569767 L693,229.01291024399978 L696,224.1634396405214 L698,218.87340584645952 L701,213.16631141653644 L704,207.06751182188276 L706,200.6041028007855 L709,193.8047999777804 L712,186.69981128591516 L714,179.3207027589871 L717,171.7002582900123 L720,163.87233397899143 L722,155.8717077170776 L725,147.73392467540805 L728,139.49513938506914 L730,131.1919551097959 L733,122.86126122504356 L736,114.54006932592156 L738,106.26534879213096 L741,98.0738625404561 L744,90.00200369452949 L746,82.08563389751308 L749,74.35992398604034 L752,66.85919773327265 L754,59.616779355287946 L757,52.664845458300306 L760,46.034282084478576 L762,39.75454749148304 L765,33.8535412753574 L768,28.357480418243938 L770,23.290782811611848 L773,18.675958772483085 L776,14.53351103462765 L779,10.881843659046552 L781,7.737180268435452 L784,5.11349196889654 L787,3.0224352791280467 L790,1.4733003428590337 L792,0.47296965461214313 L795,0.025887482166353948 L798,0.13404012157053558">
			</path>
		</g>
	</g>

</svg>
