<?xml version="1.0" standalone="no"?>
<!DOCTYPE svg PUBLIC "-//W3C//DTD SVG 1.1//EN" "http://www.w3.org/Graphics/SVG/1.1/DTD/svg11.dtd" >
<svg xmlns="http://www.w3.org/2000/svg">
<metadata>Generated by IcoMoon</metadata>
<defs>
<font id="icomoon" horiz-adv-x="1024">
<font-face units-per-em="1024" ascent="960" descent="-64" />
<missing-glyph horiz-adv-x="1024" />
<glyph unicode="&#x20;" horiz-adv-x="512" d="" />
<glyph unicode="&#xe900;" glyph-name="tool" d="M192.307 52.122c1.229-9.011-1.434-18.022-8.192-24.371-4.096-3.891-9.216-6.144-14.541-6.963 5.325 0.819 10.24 3.277 14.336 6.963 6.758 6.349 9.421 15.36 8.397 24.371zM182.682 71.987c-9.421 10.035-22.733 13.312-33.997 9.626 11.059 3.686 24.576 0.205 33.997-9.626zM138.65 75.674c2.867 2.867 6.349 4.71 10.035 5.939-3.686-1.024-7.168-3.072-10.035-5.939zM182.682 71.987c5.53-5.734 8.602-12.902 9.626-19.866-1.024 6.963-4.096 14.131-9.626 19.866zM140.083 31.437c-12.493 13.312-13.107 32.973-1.434 44.237-11.878-11.264-11.264-31.13 1.229-44.237 8.192-8.806 19.456-12.493 29.696-10.65-10.035-1.638-21.299 2.048-29.491 10.65zM496.845 337.818l20.070-18.227c-13.312-12.902-26.419-25.805-39.117-38.707-86.016-87.245-204.8-215.654-269.312-286.515-29.286-31.949-79.872-31.334-108.339 1.434-25.6 29.491-23.142 73.933 5.53 100.557 59.597 55.091 171.213 160.154 268.493 257.434 1.229 1.024 2.253 2.253 3.277 3.277 41.574-40.55 64.922-45.261 119.398-19.251zM192.307 52.122c-0.819 7.168-4.096 14.131-9.626 19.866-9.421 10.035-22.733 13.312-33.997 9.626-3.686-1.229-7.168-3.277-10.035-5.939-11.878-11.264-11.264-31.13 1.229-44.237 8.192-8.806 19.456-12.493 29.696-10.65 5.325 0.819 10.445 3.072 14.541 6.963 6.554 6.144 9.216 15.36 8.192 24.371zM1003.315 801.894l-101.786-101.99-47.104-3.072-56.934 56.934 1.434 49.357 101.581 101.581c-65.126 19.046-149.709 13.926-200.909-37.478-45.466-45.466-69.018-110.592-61.44-170.598 1.434-11.878-1.229-23.757-7.987-33.587-16.179-22.938-43.418-60.826-78.234-105.677l17.203-17.613c40.346-40.141 35.43-75.776 15.155-117.146l21.504-21.504c58.573 51.405 114.688 96.461 157.082 127.181 8.192 5.939 18.637 7.987 28.672 6.144 59.802-10.854 120.218 16.179 168.55 64.512 51.405 51.405 62.259 137.83 43.213 202.957zM830.054 170.906l-38.298 6.144c-3.686 1.434-6.758 3.686-9.626 6.349l-232.038 230.195c-3.072 3.072-3.072 7.987 0 10.854 26.010 25.6 26.214 67.584 0.614 93.389l-22.733 23.142c-3.482 3.482-8.192 4.915-13.107 4.096-6.758-1.229-13.722-1.229-21.094 0.205-22.733 4.301-40.96 22.528-45.67 45.261-1.434 6.963-1.434 13.722-0.614 20.070 1.024 6.554-1.638 12.902-6.144 17.613-37.274 37.888-191.078 193.331-267.674 270.746-24.166 24.371-63.488 24.576-88.064 0.41l-58.573-57.958c-24.371-24.166-24.576-63.488-0.41-88.064l267.878-270.746c4.506-4.71 11.264-7.168 17.613-5.939 9.011 1.638 19.046 1.229 29.082-2.253 16.998-5.734 30.72-19.456 36.25-36.659 3.277-10.24 3.686-20.070 1.843-29.286-1.229-5.939 0.41-12.083 4.506-16.589l19.456-19.866c25.6-26.010 67.584-26.214 93.389-0.614 3.277 3.277 8.397 3.277 11.674 0l231.834-229.99c3.482-3.482 6.144-7.578 7.987-11.878l3.072-37.069c2.048-4.915 5.53-9.011 9.83-11.674l141.926-112.435 49.766 48.538-108.339 141.926c-3.277 5.325-8.397 9.626-14.336 12.083z" />
<glyph unicode="&#xe901;" glyph-name="screenshot" d="M509.952 248.32c102.81 0 185.958 83.354 185.958 185.958s-83.354 185.958-185.958 185.958-185.958-83.354-185.958-185.958 83.149-185.958 185.958-185.958zM509.952 527.258c51.405 0 92.979-41.779 92.979-92.979s-41.779-92.979-92.979-92.979c-51.405 0-92.979 41.779-92.979 92.979s41.574 92.979 92.979 92.979zM149.094 110.899v170.803h-92.979v-263.782h266.65v92.979h-173.67zM149.094 757.658h173.67v92.979h-266.65v-263.782h92.979v170.803zM870.605 110.899h-169.779v-92.979h262.758v263.782h-92.979v-170.803zM870.605 757.658v-170.803h92.979v263.782h-262.758v-92.979h169.779z" />
<glyph unicode="&#xe902;" glyph-name="server" d="M746.291-60.109h-437.453c-40.55 0-73.523 34.816-73.523 77.414v861.798c0 42.598 32.973 77.414 73.523 77.414h437.248c40.55 0 73.523-34.816 73.523-77.414v-861.594c0.205-42.803-32.768-77.619-73.318-77.619zM308.838 890.368c-3.482 0-7.578-4.915-7.578-11.264v-861.594c0-6.554 3.891-11.264 7.578-11.264h437.248c3.482 0 7.578 4.915 7.578 11.264v861.594c0 6.554-3.891 11.264-7.578 11.264h-437.248zM527.565 108.646c-42.394 0-77.005 34.611-77.005 77.005 0 42.598 34.611 77.005 77.005 77.005s77.005-34.611 77.005-77.005c0-42.394-34.611-77.005-77.005-77.005zM527.565 218.624c-18.227 0-32.973-14.746-32.973-32.973s14.746-32.973 32.973-32.973c18.227 0 32.973 14.746 32.973 32.973s-14.746 32.973-32.973 32.973zM381.747 799.437h291.84v-44.032h-291.84v44.032zM381.747 683.93h291.84v-44.032h-291.84v44.032z" />
<glyph unicode="&#xe903;" glyph-name="slider" d="M231.68 885.142c-26.88 0-48.64-21.577-48.64-48.64v-251.246c15.177 5.303 31.451 8.411 48.64 8.411s33.463-3.109 48.64-8.411v251.246c-0.183 27.063-21.76 48.64-48.64 48.64zM183.040 310.971v-251.246c0-26.88 21.577-48.64 48.64-48.64s48.64 21.577 48.64 48.64v251.246c-15.177-5.303-31.451-8.411-48.64-8.411s-33.463 3.109-48.64 8.411zM814.263 885.142c-26.88 0-48.64-21.577-48.64-48.64v-445.44c15.177 5.303 31.451 8.411 48.64 8.411 17.006 0 33.463-3.109 48.64-8.411v445.44c0 27.063-21.76 48.64-48.64 48.64zM765.806 116.777v-57.051c0-26.88 21.577-48.64 48.64-48.64s48.64 21.577 48.64 48.64v57.051c-15.177-5.303-31.451-8.411-48.64-8.411s-33.463 3.109-48.64 8.411zM522.971 885.142c-26.88 0-48.64-21.577-48.64-48.64v-57.051c15.177 5.303 31.451 8.411 48.64 8.411s33.463-3.109 48.64-8.411v57.051c0 27.063-21.76 48.64-48.64 48.64zM474.331 505.348v-445.44c0-26.88 21.577-48.64 48.64-48.64s48.64 21.577 48.64 48.64v445.44c-15.177-5.303-31.451-8.411-48.64-8.411s-33.463 2.926-48.64 8.411zM328.777 448.114c0-53.577-43.52-97.097-97.097-97.097s-97.097 43.52-97.097 97.097c0 53.577 43.52 97.097 97.097 97.097s97.097-43.337 97.097-97.097zM620.069 642.491c0-53.577-43.52-97.097-97.097-97.097s-97.097 43.52-97.097 97.097c0 53.577 43.52 97.097 97.097 97.097s97.097-43.52 97.097-97.097zM911.36 253.919c0-53.577-43.52-97.097-97.097-97.097s-97.097 43.52-97.097 97.097c0 53.577 43.52 97.097 97.097 97.097s97.097-43.337 97.097-97.097z" />
<glyph unicode="&#xe904;" glyph-name="statistics" d="M6.554 470.938c0 255.59 208.282 462.848 464.077 462.848 127.795 0 242.688-51.814 326.451-135.578l-328.704-327.27v-462.848c-249.037 0-461.824 207.258-461.824 462.848zM553.165 470.938l327.27 327.27c180.838-180.838 180.838-473.907 0-654.541l-327.27 327.27zM509.747 432.23v-462.848c124.518 0 236.954 45.261 327.27 135.578l-327.27 327.27z" />
<glyph unicode="&#xe905;" glyph-name="themes" d="M466.739 233.574c-1.024 0-2.253 0-3.482 0 12.288-21.709 35.43-33.178 61.44-33.178 46.899 0 102.605 37.274 118.784 117.76l-26.624 26.624c-83.763-5.939-66.15-111.206-150.118-111.206zM718.029 389.837l-29.696 29.696-56.934-60.211 26.419-26.419 60.211 56.934zM881.664 498.79l-208.077-195.994c-22.528-92.57-92.57-134.963-148.89-134.963-41.574 0-76.186 19.456-90.317 50.79-3.072 6.963-10.035 28.672-10.035 28.672l-4.71 14.541 15.155 1.434c0 0 31.13 3.072 31.949 3.072 22.323 0 30.31 10.035 47.923 38.707 16.179 26.624 38.298 62.874 88.064 71.27l169.37 179.2c-22.118 8.192-44.851 15.36-68.403 20.89-41.574 9.83-83.354 14.336-124.109 14.336-306.586 0-561.562-255.795-365.363-482.099 55.296-63.898 208.486-130.253 333.21-130.253 39.526 0 76.186 6.758 105.882 22.323 19.456 10.24 20.070 35.635 2.458 60.006-22.118 30.925-59.392 59.187-38.502 91.136 7.168 10.854 19.456 14.541 35.635 14.541 32.154 0 78.848-14.541 126.362-14.541 0.41 0 1.024 0 1.434 0 77.005 0.41 166.912 32.973 195.174 130.662 24.986 86.835-18.227 161.792-94.208 216.269zM229.581 372.838c0 22.938 26.419 41.574 58.982 41.574s58.982-18.637 58.982-41.574c0-22.938-26.419-41.574-58.982-41.574s-58.982 18.637-58.982 41.574zM287.744 178.483c-41.574 0-75.366 23.757-75.366 53.248s33.792 53.248 75.366 53.248c41.779 0 75.571-23.757 75.571-53.248-0.205-29.491-33.997-53.248-75.571-53.248zM331.981 465.408c0 18.637 21.504 33.792 47.923 33.792s47.923-15.155 47.923-33.792-21.504-33.792-47.923-33.792-47.923 14.95-47.923 33.792zM452.608 520.909c0 14.95 17.203 27.034 38.298 27.034 21.299 0 38.502-12.083 38.502-27.034s-17.203-27.034-38.502-27.034c-21.094 0-38.298 12.083-38.298 27.034zM992.256 693.76c-6.144 6.144-14.336 9.216-22.323 9.216s-16.179-3.072-22.323-9.216l-245.35-259.482 30.515-30.515 259.277 245.146c12.493 12.288 12.698 32.358 0.205 44.851zM893.542 821.35v-138.24l39.526 41.779c5.734 5.734 12.698 9.421 20.070 12.083v143.974c0 21.709-17.613 39.526-39.526 39.526h-647.373c-21.709 0-39.526-17.613-39.526-39.526v-20.275h627.302c21.709 0 39.526-17.613 39.526-39.322zM794.419 722.227v-143.155l59.597 63.078v139.674c0 21.709-17.613 39.526-39.322 39.526h-647.373c-21.709 0-39.526-17.613-39.526-39.526v-20.275h627.302c21.709 0 39.322-17.613 39.322-39.322zM117.965 391.066c67.994 148.685 257.843 252.723 461.619 252.723 45.875 0 91.75-5.325 136.192-15.565 13.107-3.072 26.214-6.758 39.322-10.65v65.331c0 21.709-17.613 39.526-39.526 39.526h-647.373c-21.709 0-39.526-17.613-39.526-39.526v-408.986c0-21.709 17.613-39.526 39.526-39.526h27.443c-8.192 52.019-1.229 105.062 22.323 156.672z" />
<glyph unicode="&#xe906;" glyph-name="was" d="M989.184 301.978c0-53.862-43.827-97.69-97.69-97.69h-754.893c-53.862 0-97.69 43.827-97.69 97.69v500.941c0 53.862 43.827 97.69 97.69 97.69h754.893c53.862 0 97.69-43.827 97.69-97.69v-500.941zM901.12 802.714c0 7.782-6.349 13.926-13.926 13.926h-752.435c-7.782 0-13.926-6.349-13.926-13.926v-502.579c0-7.782 6.349-13.926 13.926-13.926h752.435c7.782 0 13.926 6.349 13.926 13.926v502.579zM693.453 50.688h-70.861v139.264h-208.896v-139.264h-69.222c-30.925 0-55.91-28.672-55.91-57.344h460.595c0 28.672-24.986 57.344-55.706 57.344z" />
<glyph unicode="&#xe907;" glyph-name="realtime" d="M321.126 782.234c-13.107-7.578-25.6-16.179-37.683-24.986l-90.112 89.907c24.371 19.661 50.995 37.478 79.053 52.429l48.742-117.35zM736.051 905.318l-48.333-116.326c24.781-13.107 47.923-29.286 68.813-47.104l89.293 89.088c-33.178 29.491-70.042 54.477-109.773 74.342zM70.042 701.747l117.76-48.947c5.53 9.011 11.878 18.227 18.227 26.829l-89.907 90.112c-17.408-21.299-32.768-44.032-46.080-67.994zM467.558 957.338c-36.454-3.072-71.885-9.83-105.677-20.070l48.742-117.555c18.432 5.12 37.478 9.011 56.934 11.059v126.566zM669.901 933.171c-37.478 12.493-77.005 20.89-117.76 24.166v-126.566c23.962-2.662 47.104-7.578 69.632-14.131l48.128 116.531zM58.163 220.262l92.979-271.565c3.277-11.059 11.878-12.493 18.637-3.072l62.259 86.426 2.458-1.843c85.197-55.501 191.078-82.33 275.251-82.739v0c295.322 0 506.47 226.918 506.47 505.856 0 129.024-48.947 246.374-128.614 335.872l-89.293-89.498c56.73-66.355 91.136-152.166 91.136-246.374 0-209.51-168.96-379.699-379.699-379.699v0.41c-84.173 0.205-140.493 19.661-203.571 60.211l63.693 89.498c6.554 9.421 2.662 16.794-9.011 16.589h-288.154c-11.469 0.205-18.022-9.011-14.541-20.070zM23.142 602.214c-6.349-22.528-11.059-64.717-14.131-64.717h127.795c1.229 0 2.662 4.506 4.096 11.264l-117.76 53.453zM641.024 333.312l-96.87 97.28c-7.168 7.373-11.264 17.203-11.264 27.443v215.040c0 21.504-17.408 38.707-38.707 38.707h-1.843c-21.504 0-38.707-17.408-38.707-38.707v-238.182c0-17.818 8.397-33.178 20.685-44.442l112.026-112.026c15.155-15.155 39.731-15.155 54.886 0v0c14.95 15.155 14.95 39.731-0.205 54.886z" />
<glyph unicode="&#xe908;" glyph-name="report-link" d="M903.578 433.459c31.539 0 57.139-25.6 57.139-57.139v-355.738c0-21.094-16.998-38.093-38.093-38.093v0h-831.693c-21.094 0-38.093 16.998-38.093 38.093v831.693c0 21.094 16.998 38.093 38.093 38.093h355.533c31.539 0 57.139-25.6 57.139-57.139v0c0-31.539-25.6-57.139-57.139-57.139h-279.347v-679.322h679.322v279.552c0 31.539 25.6 57.139 57.139 57.139v0zM538.214 467.661c14.95-14.95 38.912-14.95 53.862 0l292.454 292.454v-133.734c0-21.094 17.203-38.093 38.093-38.093 21.094 0 38.093 16.998 38.093 38.093v225.69c0 21.094-16.998 38.093-38.093 38.093h-225.69c-21.094 0-38.093-16.998-38.093-38.093s16.998-38.093 38.093-38.093h133.734l-292.454-292.454c-14.95-14.746-14.95-38.912 0-53.862z" />
<glyph unicode="&#xe909;" glyph-name="report2" d="M729.293 494.899h-426.598v65.946h426.598v-65.946zM729.293 417.075h-426.598v-65.946h426.598v65.946zM911.155 904.909v-906.24h-790.323v906.24h96.051v-70.451h72.294v70.451h105.472v-70.451h72.294v70.451h105.472v-70.451h72.294v70.451h105.472v-70.451h72.294v70.451h88.678zM823.296 692.531h-614.4v-605.798h614.4v605.798zM729.498 273.306h-426.803v-65.946h426.803v65.946z" />
<glyph unicode="&#xe90a;" glyph-name="resize" d="M282.2-0.2c-7.6 0-15.4 3-21.2 8.8-11.8 11.8-11.8 30.8 0 42.4l652 652c11.8 11.8 30.8 11.8 42.4 0 11.8-11.8 11.8-30.8 0-42.4l-652-652c-5.8-6-13.4-8.8-21.2-8.8zM616-0.2c-7.6 0-15.4 3-21.2 8.8-11.8 11.8-11.8 30.8 0 42.4l318.2 318.2c11.8 11.8 30.8 11.8 42.4 0 11.8-11.8 11.8-30.8 0-42.4l-318.2-318.2c-5.8-6-13.6-8.8-21.2-8.8z" />
<glyph unicode="&#xe90b;" glyph-name="return" d="M18.637 706.458h826.982v-91.341h-826.982v91.341zM18.637 921.088h826.982v-91.341h-826.982v91.341zM18.637 491.622h507.085v-91.341h-507.085v91.341zM18.637 276.992h507.085v-91.341h-507.085v91.341zM18.637 62.157h507.085v-91.341h-507.085v91.341zM984.883 710.963c-12.698 0-22.938-10.24-22.938-22.938v-479.642h-126.976v94.618c0 15.155-16.998 23.962-29.491 15.565l-178.381-122.061c-10.854-7.373-10.854-23.552 0-31.13l178.381-122.061c12.493-8.602 29.491 0.41 29.491 15.565v103.629h149.709c12.698 0 22.938 10.24 22.938 22.938v502.579c0.205 12.698-10.035 22.938-22.733 22.938z" />
<glyph unicode="&#xe90c;" glyph-name="label" d="M533.709 852.275c109.363 0 174.694-47.718 174.694-154.624v-535.142l-151.757 134.144-151.757-134.144v504.627c0 78.643-7.168 148.070-28.262 185.139h157.082zM533.709 949.76c-76.595 0-339.149 0-381.133 0 103.834-35.226 155.034-115.712 155.034-265.421 0-132.71 0-738.099 0-738.099l249.037 220.365 249.242-220.365c0 0 0 673.382 0 751.411 0 147.456-93.594 252.109-272.179 252.109v0z" />
<glyph unicode="&#xe90d;" glyph-name="mail" d="M532.48 287.232c-6.349-6.349-14.746-9.83-23.552-9.83s-17.408 3.482-23.552 9.83l-435.2 435.2c-1.229-5.325-3.277-10.445-3.277-16.384v-534.528c0-36.864 29.901-66.765 66.765-66.765h801.792c36.864 0 66.765 29.901 66.765 66.765v534.528c0 9.216-1.843 18.022-5.325 25.805l-444.416-444.621zM508.928 358.298l413.286 413.286c-2.458 0.205-4.301 1.434-6.758 1.434h-801.587c-5.734 0-11.059-1.843-16.384-3.277l411.443-411.443z" />
<glyph unicode="&#xe90e;" glyph-name="message" d="M8.192-17.51c40.96 81.51 86.63 193.536 84.173 271.565-55.296 66.56-86.426 152.576-86.426 239.821 0 246.579 239.206 426.803 506.88 426.803 266.035 0 506.88-178.995 506.88-426.803 0-258.048-284.467-499.302-674.611-403.456-70.861-43.622-227.123-88.064-336.896-107.93zM512.819 821.965c-225.075 0-408.166-147.251-408.166-328.090 0-95.232 41.165-155.034 99.123-214.221-11.878-87.859-40.141-164.045-40.141-164.045s83.763 22.118 178.79 77.619c363.725-96.461 578.765 113.459 578.765 300.646-0.205 181.043-183.296 328.090-408.371 328.090zM319.488 566.374c38.502 0 69.632-31.13 69.632-69.632s-31.13-69.632-69.632-69.632-69.632 31.13-69.632 69.632 31.13 69.632 69.632 69.632zM515.891 566.374c38.502 0 69.632-31.13 69.632-69.632s-31.13-69.632-69.632-69.632-69.632 31.13-69.632 69.632 31.13 69.632 69.632 69.632zM712.499 566.374c38.502 0 69.632-31.13 69.632-69.632s-31.13-69.632-69.632-69.632-69.632 31.13-69.632 69.632 31.13 69.632 69.632 69.632z" />
<glyph unicode="&#xe90f;" glyph-name="monitoring" d="M683.418 639.488c-2.662 3.482-6.963 5.325-11.469 5.12-7.373-0.614-13.312-6.349-23.757-23.757l-106.291-175.923 14.95-4.71c7.987-2.458 15.77-5.53 22.938-8.806s14.336-7.373 21.504-11.878l13.107-8.397 66.56 194.56c6.349 19.661 7.168 27.853 2.458 33.792zM509.952 938.291c-266.445 0-483.328-216.883-483.328-483.328 0-25.19 1.843-49.766 5.734-73.933 23.552-153.395 119.603-283.034 251.699-353.28 67.379-35.84 144.384-56.115 225.894-56.115s158.31 20.275 225.894 56.115c132.096 70.246 228.147 199.885 251.699 353.28 3.686 24.166 5.734 48.742 5.734 73.933 0 266.445-216.883 483.328-483.328 483.328zM511.386 240.947c-32.563 0-58.778 26.419-58.778 58.778 0 32.563 26.419 58.982 58.778 58.982 32.563 0 58.778-26.419 58.778-58.982 0-32.358-26.214-58.778-58.778-58.778zM918.118 381.030h-286.72c-29.491 33.997-72.909 55.501-121.446 55.501s-91.955-21.504-121.446-55.501h-286.72c-4.301 23.962-6.554 48.742-6.554 73.933 0 228.762 185.958 414.925 414.72 414.925s414.925-186.163 414.925-414.925c0-25.19-2.253-49.971-6.758-73.933zM863.437 483.84c12.288 0 21.709 10.65 20.275 22.733-24.166 184.525-181.862 326.246-372.326 326.246-190.259 0-347.955-141.517-372.122-325.837-1.638-12.288 7.987-23.142 20.48-23.142v0c10.24 0 19.046 7.578 20.48 17.818 0.205 1.638 0.41 3.277 0.614 4.71 0.819 6.349 6.963 10.445 13.107 9.011 7.578-1.638 17.408-3.891 24.781-5.53 5.939-1.229 11.674 2.253 12.902 8.192v0.205c1.229 5.939-2.253 11.674-8.192 12.902l-25.19 5.734c-6.144 1.434-9.83 7.578-7.987 13.722 12.493 43.008 33.587 82.739 61.030 116.736 3.891 4.915 11.264 5.325 15.974 1.024l19.456-18.432c4.301-4.096 11.264-3.891 15.36 0.41l0.205 0.205c4.096 4.301 3.891 11.264-0.41 15.36l-19.866 18.637c-4.506 4.301-4.506 11.469 0 15.77 36.659 34.611 81.306 61.235 130.662 76.595 5.939 1.843 12.288-1.843 13.722-7.987l6.349-27.648c1.434-5.734 7.168-9.421 12.902-8.192h0.205c5.939 1.434 9.421 7.168 8.192 13.107l-6.349 27.853c-1.434 6.144 2.662 12.083 8.806 13.107 17.818 3.072 36.25 4.506 55.091 4.506 26.214 0 51.61-3.072 75.981-8.806 6.144-1.434 9.626-7.782 7.782-13.722l-8.602-27.853c-1.843-5.734 1.434-11.878 7.168-13.517h0.205c5.734-1.843 11.878 1.434 13.517 7.168l8.602 27.853c1.843 5.939 8.397 9.216 14.336 6.963 41.574-15.974 79.258-39.936 111.002-70.042 4.506-4.301 4.506-11.674-0.205-15.77l-21.299-19.661c-4.301-4.096-4.71-10.854-0.614-15.36l0.205-0.205c4.096-4.301 10.854-4.71 15.36-0.614l21.299 19.661c4.71 4.301 11.878 3.686 15.77-1.229 27.238-33.997 48.128-73.318 60.621-116.122 1.843-5.939-2.048-12.288-7.987-13.722l-27.853-6.349c-5.939-1.229-9.421-7.168-8.192-12.902v-0.205c1.229-5.939 7.168-9.421 12.902-8.192l27.443 6.144c6.144 1.434 12.288-2.867 13.107-9.011 0.205-1.638 0.41-3.482 0.614-5.12 1.229-10.035 9.83-17.613 20.070-17.613 0.41 0.41 0.614 0.41 0.614 0.41z" />
<glyph unicode="&#xe910;" glyph-name="grip1" d="M837 540h-650c-16.6 0-30 13.4-30 30v0c0 16.6 13.4 30 30 30h650c16.6 0 30-13.4 30-30v0c0-16.6-13.4-30-30-30zM837 296h-650c-16.6 0-30 13.4-30 30v0c0 16.6 13.4 30 30 30h650c16.6 0 30-13.4 30-30v0c0-16.6-13.4-30-30-30z" />
<glyph unicode="&#xe911;" glyph-name="grip2" d="M508.928 792.883c37.478 0 67.789-30.31 67.789-67.789s-30.31-67.789-67.789-67.789-67.789 30.31-67.789 67.789 30.31 67.789 67.789 67.789zM515.072 520.704c37.478 0 67.789-30.31 67.789-67.789s-30.31-67.789-67.789-67.789-67.789 30.31-67.789 67.789 30.31 67.789 67.789 67.789zM510.976 248.73c37.478 0 67.789-30.31 67.789-67.789s-30.31-67.789-67.789-67.789-67.789 30.31-67.789 67.789 30.31 67.789 67.789 67.789z" />
<glyph unicode="&#xe912;" glyph-name="grip3" d="M644.8 683.2v-469.8c0-17.2 14-31 31-31v0c17.2 0 31 14 31 31v469.8c0 17.2-14 31-31 31v0c-17 0-31-14-31-31zM345.4 714.2v0c-17.2 0-31-14-31-31v-469.8c0-17.2 14-31 31-31v0c17.2 0 31 14 31 31v469.8c0 17-13.8 31-31 31z" />
<glyph unicode="&#xe913;" glyph-name="dashboard" d="M512.41 954.061c-279.142 0-506.061-226.918-506.061-505.856 0-62.464 11.674-124.109 34.816-183.501 5.325-13.517 11.264-27.034 17.818-40.141 40.346-81.715 101.99-151.142 178.176-200.704 14.131-9.216 26.010-16.179 37.274-22.118 72.909-38.912 155.238-59.597 237.978-59.597s165.069 20.48 237.978 59.392c11.264 5.939 23.142 13.107 37.274 22.118 76.186 49.766 137.83 119.194 178.176 200.704 6.554 13.107 12.493 26.624 17.818 40.141 23.142 59.392 34.816 121.037 34.816 183.501-0.205 279.142-227.123 506.061-506.061 506.061zM828.826 293.786c19.251 0 37.888-4.506 55.501-13.312-33.997-75.162-90.931-139.059-161.792-181.658-13.517 20.685-20.48 44.032-20.48 68.198-0.205 69.837 56.73 126.771 126.771 126.771zM639.181 166.81c0-33.997 9.216-66.97 26.829-96.461-98.304-40.346-209.101-40.346-307.2 0 17.613 29.286 26.829 62.464 26.829 96.461 0 104.448-84.992 189.645-189.645 189.645-26.214 0-52.019-5.734-76.8-16.998-9.83 35.43-14.95 71.885-14.95 108.749 0 225.075 183.091 408.166 408.166 408.166s408.166-183.091 408.166-408.166c0-36.659-4.915-73.114-14.95-108.749-24.781 11.264-50.586 16.998-76.8 16.998-104.653 0-189.645-84.992-189.645-189.645zM195.994 293.786c69.837 0 126.771-56.934 126.771-126.771 0-24.166-7.168-47.514-20.48-68.198-70.861 42.803-127.795 106.701-161.792 181.658 17.613 8.602 36.454 13.312 55.501 13.312zM512.41 715.674c27.034 0 48.947 21.914 48.947 48.947s-21.914 48.947-48.947 48.947c-27.034 0-48.947-21.914-48.947-48.947s21.914-48.947 48.947-48.947zM694.886 764.621c-22.733 13.107-53.862 4.506-66.765-18.022-13.517-23.347-5.53-53.248 18.022-66.97 7.373-4.301 15.77-6.554 24.371-6.554 17.408 0 33.792 9.421 42.394 24.371 6.554 11.264 8.192 24.576 4.915 37.069-3.482 12.902-11.469 23.552-22.938 30.106zM810.803 563.917c11.264 6.554 19.456 16.998 22.733 29.696 3.482 12.698 1.638 25.805-4.915 37.069-12.902 22.528-44.032 31.13-66.765 18.022-11.264-6.554-19.456-17.203-22.733-29.696-3.482-12.698-1.638-25.805 4.915-37.069 8.806-15.155 24.986-24.576 42.394-24.576 8.397 0 16.998 2.253 24.371 6.554zM877.568 448.205c0 26.829-21.914 48.947-48.947 48.947s-48.947-22.118-48.947-48.947c0-27.034 21.914-48.947 48.947-48.947 13.107 0 25.395 5.12 34.611 14.336 9.421 9.216 14.541 21.504 14.336 34.611zM378.675 679.629c23.347 13.517 31.334 43.622 17.818 66.97-12.902 22.528-44.237 30.925-66.765 18.022-11.264-6.554-19.456-16.998-22.733-29.696s-1.638-25.805 4.915-37.274c8.806-15.155 24.986-24.371 42.394-24.371 8.397-0.205 16.794 2.048 24.371 6.349zM262.758 648.704c-22.528 13.107-53.862 4.506-66.765-18.022-6.554-11.264-8.192-24.576-4.915-37.274 3.482-12.698 11.469-23.142 22.733-29.696 7.373-4.301 15.974-6.554 24.576-6.554 17.408 0 33.587 9.421 42.394 24.371 6.554 11.264 8.192 24.576 4.915 37.069-3.482 13.107-11.469 23.552-22.938 30.106zM195.994 497.152c-27.034 0-48.947-21.914-48.947-48.947s21.914-48.947 48.947-48.947 48.947 21.914 48.947 48.947c0 26.829-21.914 48.742-48.947 48.947zM526.131 495.514c-57.549 67.174-138.445 130.253-141.926 132.915l-32.563 25.395 10.854-39.936c1.229-4.301 28.467-103.219 68.198-182.067-1.638-6.758-2.458-12.902-2.458-19.046 0-46.285 37.683-84.173 84.173-84.173 15.36 0 30.31 4.301 42.598 11.878l4.301 2.458c23.142 15.77 37.069 41.779 37.069 69.632 0 41.779-29.901 76.39-70.246 82.944z" />
<glyph unicode="&#xe914;" glyph-name="domain" d="M753.664 313.242v-242.893h242.893v242.893h-242.893zM631.603 875.008h-242.893v-242.893h242.893v242.893zM830.054 405.811c0-9.216-0.41-18.227-1.229-27.238h87.245c0.614 9.011 1.024 18.022 1.024 27.238 0 157.082-89.498 293.683-220.16 361.472v-101.99c80.691-58.163 133.12-152.781 133.12-259.482zM23.757 313.242v0 0-242.893h242.893v242.893h-242.893zM190.259 405.811c0 106.701 52.634 201.523 133.12 259.686v101.99c-130.662-67.789-220.16-204.39-220.16-361.472 0-9.216 0.41-18.227 1.024-27.238h87.245c-0.819 8.602-1.229 17.818-1.229 27.034zM688.333 140.186c-50.995-34.406-112.23-54.272-178.176-54.272s-127.181 20.070-178.176 54.272v-100.147c53.862-26.419 114.278-41.165 178.176-41.165s124.314 14.746 178.176 41.165v100.147z" />
<glyph unicode="&#xe915;" glyph-name="edit" d="M601.498 811.315l-486.81-486.81-53.658-261.53 266.035 49.152 486.81 486.81-212.378 212.378zM169.574 270.029l432.128 432.128 26.829-26.829-432.128-432.128-26.829 26.829zM272.179 166.81l-26.829 26.829 432.128 432.128 26.829-26.829-432.128-432.128zM956.826 741.888l-95.437-95.437-212.378 212.378 95.437 95.437 212.378-212.378zM958.259-47.616h-904.602v53.658h904.602v-53.658z" />
<glyph unicode="&#xe916;" glyph-name="etc" d="M223.642 543.232c53.248 0 96.461-43.213 96.461-96.461s-43.213-96.461-96.461-96.461-96.461 43.213-96.461 96.461 43.213 96.461 96.461 96.461zM513.229 543.232c53.248 0 96.461-43.213 96.461-96.461s-43.213-96.461-96.461-96.461-96.461 43.213-96.461 96.461 43.213 96.461 96.461 96.461zM802.816 543.232c53.248 0 96.461-43.213 96.461-96.461s-43.213-96.461-96.461-96.461-96.461 43.213-96.461 96.461 43.213 96.461 96.461 96.461z" />
<glyph unicode="&#xe917;" glyph-name="chart-candle" d="M986.317-0.512h-920.781v919.757c0 13.107-10.65 23.552-23.552 23.552s-23.552-10.65-23.552-23.552v-943.309c0-13.107 11.674-23.552 24.576-23.552h943.514c13.107 0 23.552 10.445 23.552 23.552s-10.65 23.552-23.757 23.552zM747.725 329.216h38.707v-164.864c0-12.083 10.24-22.118 23.552-22.118s23.552 9.83 23.552 22.118v164.864h36.454c14.336 0 24.986 10.035 24.986 23.142v147.251c0 13.107-10.65 22.118-24.986 22.118h-36.454v165.888c0 12.083-10.24 22.118-23.552 22.118s-23.552-9.83-23.552-22.118v-165.888h-38.707c-14.131 0-26.829-9.011-26.829-22.118v-147.251c0-13.107 12.698-23.142 26.829-23.142zM177.562 261.632h39.526v-163.43c0-12.083 10.24-22.118 23.552-22.118s23.552 9.83 23.552 22.118v163.43h35.635c14.336 0 23.757 11.674 23.757 24.781v147.251c0 13.107-9.421 24.576-23.757 24.576h-35.635v163.43c0 12.083-10.24 22.118-23.552 22.118s-23.552-9.83-23.552-22.118v-163.43h-39.526c-14.131 0-26.010-11.674-26.010-24.576v-147.251c0-13.107 11.878-24.781 26.010-24.781zM462.643 364.032h37.069v-91.75c0-12.083 10.24-22.118 23.552-22.118s23.552 9.83 23.552 22.118v91.75h37.888c14.336 0 25.6 9.626 25.6 22.528v294.707c0 13.107-11.264 26.829-25.6 26.829h-37.888v87.45c0 12.083-10.24 22.118-23.552 22.118s-23.552-9.83-23.552-22.118v-87.45h-37.069c-14.336 0-26.419-13.722-26.419-26.829v-294.707c0-12.902 12.083-22.528 26.419-22.528z" />
<glyph unicode="&#xe918;" glyph-name="chart-gauge" d="M878.182 783.053l-91.136-83.558c63.078-68.813 97.894-157.696 97.894-250.266 0-204.595-166.502-371.098-371.098-371.098s-371.098 166.502-371.098 371.098 166.502 370.893 371.098 370.893v123.699c-272.794 0-494.797-221.798-494.797-494.797s222.003-494.592 494.797-494.592 494.797 222.003 494.797 494.797c0 123.494-46.285 242.074-130.458 333.824zM575.693 424.448l135.987 478.208-259.686-428.851 30.925-86.63 92.774 37.274z" />
<glyph unicode="&#xe919;" glyph-name="arrow2" d="M514.048 880.333l263.782-314.778h-527.565l263.782 314.778zM514.048 24.883l-263.782 314.778h527.77l-263.987-314.778z" />
<glyph unicode="&#xe91a;" glyph-name="arrow4" d="M595.968 783.462v0c-24.371-24.371-24.371-63.693 0-88.064l180.224-180.224h-702.054c-34.406 0-62.259-27.853-62.259-62.259v0c0-34.406 27.853-62.259 62.259-62.259h702.874l-178.586-178.586c-24.371-24.371-24.371-63.693 0-88.064v0c24.371-24.371 63.693-24.371 88.064 0l303.309 303.309c13.926 13.926 13.926 36.659 0 50.79l-305.766 305.357c-24.371 24.371-63.693 24.371-88.064 0z" />
<glyph unicode="&#xe91b;" glyph-name="bell" d="M509.806-5.303c81.737 0 147.931 66.194 147.931 147.931h-295.863c0-81.737 66.194-147.931 147.931-147.931zM917.943 294.4c-162.743 104.594-111.36 264.96-162.377 415.269-4.206 12.434-8.229 24.869-12.434 37.486-32 98.377-124.343 169.326-233.326 169.326-108.069 0-199.863-70.034-232.594-167.131-70.217-152.32-23.040-346.697-177.371-454.583-16.457-11.52-28.709-27.611-28.709-47.543v-1.829c0-29.623 23.954-53.76 53.76-53.76h767.451c29.623 0 53.76 23.954 53.76 53.76v1.646c-0.183 19.749-11.52 36.754-28.16 47.36z" />
<glyph unicode="&#xe91c;" glyph-name="info" d="M512.205 855.757c225.28 0 407.552-182.272 407.552-407.552s-182.272-407.552-407.552-407.552-407.552 182.272-407.552 407.552c0 225.28 182.272 407.552 407.552 407.552zM512.205 954.061c-279.347 0-505.856-226.509-505.856-505.856s226.509-505.856 505.856-505.856 505.856 226.509 505.856 505.856-226.509 505.856-505.856 505.856v0zM580.813 171.93h-137.011v339.968h137.011v-339.968zM512.205 576.41c-40.755 0-73.933 33.178-73.933 73.933s33.178 73.933 73.933 73.933 73.933-33.178 73.933-73.933-32.973-73.933-73.933-73.933z" />
<glyph unicode="&#xe91d;" glyph-name="tumblr" d="M784.384 239.309l-3.482 2.458h-119.603c-5.53 0-5.939 16.998-5.939 22.733v208.691c0 2.048 1.638 3.686 3.686 3.686h139.469c2.048 0 3.686 1.638 3.686 3.686v210.534c0 2.048-1.638 3.686-3.686 3.686h-138.854c-2.048 0-3.686 1.638-3.686 3.686v175.923c0 2.048-1.638 3.686-3.686 3.686h-261.12c-17.818 0-38.502-13.312-41.37-37.683-12.493-101.376-68.813-150.733-156.262-179.814l-9.83-3.277-2.458-3.482v-173.056c0-2.048 1.638-3.686 3.686-3.686h105.882v-224.87c0-170.189 111.002-250.47 328.909-250.47 87.654 0 184.32 31.13 213.197 69.018l5.734 7.578-54.272 160.973zM796.672 83.866c-27.443-26.419-93.184-45.875-147.046-46.694h-5.939c-177.152 0-207.462 135.168-207.462 215.040v257.024c0 2.048-1.638 3.686-3.686 3.686h-101.581c-2.048 0-3.686 1.638-3.686 3.686l-0.819 111.821 2.253 3.277c91.546 35.635 142.541 94.822 156.058 204.186 0.819 6.144 5.734 6.144 5.734 6.144h125.952c2.048 0 3.686-1.638 3.686-3.686v-175.923c0-2.048 1.638-3.686 3.686-3.686h138.854c2.048 0 3.686-1.638 3.686-3.686v-138.854c0-2.048-1.638-3.686-3.686-3.686h-139.469c-2.048 0-3.482-1.638-3.482-3.686v-244.941c0.819-52.429 26.214-79.053 75.366-79.053 19.866 0 40.755 4.506 61.44 12.493 1.843 0.819 4.096-0.205 4.71-2.253l36.25-107.725-0.819-3.482z" />
<glyph unicode="&#xe91e;" glyph-name="kakao" d="M416.563 538.112l28.467-89.293h-59.392l30.925 89.293zM827.392 355.635l-67.584 92.16-15.36-12.288c0 0 0-45.466 0-69.632 0-20.685-52.634-20.685-52.634 0 0 13.107 1.229 189.85 0.614 209.306-0.614 20.89 51.814 22.323 52.224 1.434 0.819-26.419 0-74.342 0-74.342s76.186 76.39 87.040 87.040c11.264 11.059 45.875-23.757 34.611-35.021-19.251-19.046-67.789-71.68-67.789-71.68l71.68-94.413c13.722-18.022-29.286-50.586-42.803-32.563v0zM661.709 351.539c-24.166 0-78.438-0.205-102.81-0.205s-20.275 28.467-20.275 28.467-0.205 143.565-0.205 188.211c0 31.334 55.501 31.334 55.501 0.205 0-32.358-0.205-165.069-0.205-165.069s44.032-0.205 67.994-0.205c23.962 0 24.166-51.405 0-51.405v0zM471.654 365.466c-12.493 32.768-9.216 36.045-9.216 36.045h-93.798l-10.24-37.683c-10.854-25.19-58.163-5.53-47.104 19.661 15.155 34.816 60.621 165.478 73.318 193.331 11.059 24.166 54.886 16.179 62.464-0.205 9.011-19.456 58.778-155.443 73.318-193.536 10.035-26.624-38.707-44.237-48.742-17.613v0zM276.070 541.389l-0.205-172.237c0-23.962-53.043-23.142-53.248 0.819 0.205 32.768 0 173.466 0 173.466h-51.2c-30.106 0-30.106 49.152 0 49.152 0 0 120.013-0.41 155.853-0.41 31.949 0 31.744-50.586 0-50.381-34.202 0-51.2-0.41-51.2-0.41v0zM511.59 895.693c-271.565 0-491.725-174.080-491.725-388.71 0-139.674 93.184-262.144 233.267-330.752-10.24-38.298-37.274-139.059-42.598-160.563-6.758-26.829 9.83-26.419 20.48-19.251 8.397 5.734 134.758 91.546 189.235 128.614 29.491-4.301 60.006-6.758 91.341-6.758 271.565 0 491.725 174.080 491.725 388.71-0.205 214.835-220.365 388.71-491.725 388.71v0z" />
<glyph unicode="&#xe91f;" glyph-name="googleplus2" d="M1015.808 406.221h-125.338v-125.338h-83.558v125.338h-125.338v83.558h125.338v125.338h83.558v-125.338h125.338v-83.558zM304.947 489.779v-100.352h166.093c-6.758-43.008-50.176-126.362-166.093-126.362-99.942 0-181.453 82.739-181.453 184.73s81.51 184.73 181.453 184.73c56.934 0 94.822-24.166 116.736-45.261l79.462 76.595c-50.995 47.718-117.146 76.595-196.198 76.595-161.792 0.205-292.659-130.662-292.659-292.454s130.867-292.659 292.659-292.659c168.96 0 280.986 118.784 280.986 285.901 0 19.251-2.048 33.792-4.71 48.538h-276.275z" />
<glyph unicode="&#xe920;" glyph-name="close2" d="M904.192 855.757l-390.144-389.939-390.144 389.939-27.648-27.648 390.144-390.144-390.144-389.939 27.648-27.853 390.144 390.144 390.144-390.144 27.648 27.853-390.144 389.939 390.144 390.144z" />
<glyph unicode="&#xe921;" glyph-name="facebook2" d="M373.146 607.334h-134.144v-159.13h134.144v-477.184h223.846v477.184h162.816l16.179 159.13h-178.79v66.15c0 38.093 8.602 53.043 49.766 53.043h129.024v198.861h-170.394c-160.768 0-232.448-63.078-232.448-183.501v-134.554z" />
<glyph unicode="&#xe922;" glyph-name="github2" d="M58.368 437.146c0-201.318 130.662-372.326 311.706-432.538 22.733-4.301 30.106 9.83 30.106 21.914v84.787c-126.771-27.648-153.19 53.862-153.19 53.862-20.685 52.634-50.586 66.765-50.586 66.765-41.37 28.262 3.072 27.648 3.072 27.648 45.875-3.277 69.837-46.899 69.837-46.899 40.55-69.632 106.701-49.562 132.71-37.888 4.096 29.491 15.974 49.562 28.877 61.030-101.171 11.674-207.667 50.586-207.667 225.28 0 49.766 17.818 90.522 46.899 122.266-4.71 11.469-20.275 57.958 4.506 120.627 0 0 38.298 12.288 125.338-46.694 36.454 10.035 75.366 15.155 114.074 15.36 38.707-0.205 77.824-5.325 114.278-15.36 87.245 58.982 125.338 46.694 125.338 46.694 24.781-62.874 9.216-109.158 4.506-120.627 29.286-31.949 46.899-72.499 46.899-122.266 0-175.104-106.701-213.606-208.077-224.87 16.384-14.131 31.334-41.779 31.334-84.378v-125.133c0-12.083 7.373-26.419 30.515-21.914 180.838 60.211 311.296 231.014 311.296 432.333 0 251.699-204.186 455.885-455.885 455.885s-455.885-204.186-455.885-455.885z" />
<glyph unicode="&#xe923;" glyph-name="hierarchy" d="M219.136 296.653h-73.728v184.32h331.776v110.592h73.728v-110.592h331.776v-184.32h-73.728v110.592h-258.048v-110.592h-73.728v110.592h-258.048v-110.592zM661.504 665.293h-294.912v221.184h294.912v-221.184zM587.776 812.749h-147.456v-73.728h147.456v73.728zM403.456 222.925h221.184v-221.184h-221.184v221.184zM477.184 75.469h73.728v73.728h-73.728v-73.728zM956.416 222.925v-221.184h-221.184v221.184h221.184zM882.688 149.197h-73.728v-73.728h73.728v73.728zM71.68 222.925h221.184v-221.184h-221.184v221.184zM145.408 75.469h73.728v73.728h-73.728v-73.728z" />
<glyph unicode="&#xe924;" glyph-name="loveit" d="M737.485 838.554l-227.533-147.251-227.533 147.251-227.738-183.91v-257.434l455.27-367.821 455.066 367.821v257.434l-227.533 183.91z" />
<glyph unicode="&#xe925;" glyph-name="return2" d="M145.613 851.251v-609.075h521.421v120.218c0 19.251 23.552 30.515 40.96 19.866l248.218-155.034c15.155-9.421 15.155-29.901 0-39.526l-248.218-155.034c-17.408-10.854-40.96 0.614-40.96 19.866v131.482h-552.96c-17.613 0-31.949 12.902-31.949 29.082v638.157c-0.205 16.179 13.926 29.082 31.539 29.082s31.949-12.902 31.949-29.082z" />
<glyph unicode="&#xe926;" glyph-name="theme" d="M800.358 453.325l-491.93 491.93-70.246-70.246 138.24-138.24-287.334-278.528c-58.778-58.573-58.778-150.733 0-209.51l253.338-253.338c28.058-28.058 64.512-44.032 102.81-45.056 1.229 0 2.662 0 3.686 0 37.478 0 71.885 14.131 97.894 39.936l253.338 253.338c58.982 59.187 58.982 150.938 0.205 209.715zM158.925 387.584l287.744 278.938 283.443-283.238c10.24-10.24 15.36-22.323 15.36-34.611h-600.269c-1.638 13.722 2.458 27.443 13.722 38.912zM993.894 50.483c0-54.682-44.851-99.533-99.533-99.533s-99.533 44.851-99.533 99.533 99.533 198.656 99.533 198.656 99.533-143.974 99.533-198.656z" />
<glyph unicode="&#xe927;" glyph-name="line-merge" d="M974.234 448.205l-209.92 131.482v-74.138h-32.563c-90.522 0-135.168 43.622-191.488 98.509-61.85 61.85-131.891 130.662-267.059 130.662h-5.939c-20.275 34.202-57.754 57.344-100.352 57.344-64.307 0-116.736-52.429-116.736-116.736s52.429-116.736 116.736-116.736c44.442 0 83.149 24.986 102.81 61.645h3.482c88.269 0 131.891-43.622 186.778-97.485 25.19-25.19 52.634-52.634 87.040-75.571-30.925-21.709-57.344-48.128-82.534-72.294-56.115-55.091-100.762-98.509-191.488-98.509h-4.096c-19.866 36.045-58.163 60.416-102.195 60.416-64.307 0-116.736-52.429-116.736-116.736s52.429-116.736 116.736-116.736c43.213 0 80.896 23.552 101.171 58.573h5.12c137.626 0 211.968 73.318 271.565 131.891 55.091 53.862 98.509 97.485 186.778 97.485h32.563v-74.138l210.33 131.072zM166.912 603.443c-39.526 0-71.68 32.154-71.68 71.68s32.154 71.68 71.68 71.68 71.68-32.154 71.68-71.68-32.154-71.68-71.68-71.68zM166.912 148.173c-39.526 0-71.68 32.154-71.68 71.68s32.154 71.68 71.68 71.68 71.68-32.154 71.68-71.68-32.154-71.68-71.68-71.68z" />
<glyph unicode="&#xe928;" glyph-name="line-separate" d="M758.579 280.269h-20.685c-90.522 0-135.168 43.622-191.488 98.509-25.19 24.166-51.61 50.381-82.534 72.294 34.406 22.938 61.85 50.381 87.040 75.571 55.091 53.862 98.509 97.485 186.778 97.485h20.685v-63.078l208.486 120.422-208.282 120.218v-63.078h-20.685c-135.168 0-205.21-68.813-267.059-130.662-56.115-55.091-100.762-98.509-191.488-98.509h-14.95c-19.456 34.406-57.344 57.344-99.738 57.344-63.078 0-114.688-51.61-114.688-114.688s51.61-114.688 114.688-114.688c42.394 0 79.053 22.938 99.738 57.344h14.95c88.269 0 131.891-43.622 186.778-97.485 59.597-58.368 134.144-131.891 271.565-131.891h20.685v-63.078l208.486 120.422-208.486 120.422v-62.874zM164.864 383.283c-37.888 0-68.813 30.925-68.813 68.813s30.925 68.813 68.813 68.813 68.813-30.925 68.813-68.813-30.925-68.813-68.813-68.813z" />
<glyph unicode="&#xe929;" glyph-name="enter" d="M751 645.8v-335.6h-66.6l-319.6 0.6v-119l-184 152 184 152.2v-119.2h319.6v269h66.6z" />
<glyph unicode="&#xe92a;" glyph-name="ws" d="M384.819 108.442c-42.189 0-76.39 34.202-76.39 76.39s34.202 76.39 76.39 76.39 76.39-34.202 76.39-76.39-34.202-76.39-76.39-76.39zM384.819 217.805c-18.022 0-32.768-14.746-32.768-32.768s14.746-32.768 32.768-32.768 32.768 14.746 32.768 32.768-14.746 32.768-32.768 32.768zM240.23 793.702h289.382v-43.622h-289.382v43.622zM240.23 679.014h289.382v-43.622h-289.382v43.622zM168.141 5.632c-3.482 0-8.397 5.939-8.397 12.493v854.426c0 6.349 4.71 15.77 8.397 15.77h433.562c3.482 0 4.506-9.421 4.506-15.77v-360.243c20.48 8.192 45.056 14.131 65.536 17.408v342.835c0 42.189-29.901 81.306-70.042 81.306h-433.562c-40.346 0-75.981-39.117-75.981-81.306v-854.426c0-42.394 35.635-78.029 75.981-78.029h433.562c21.504 0 40.755 9.83 54.067 25.395-35.021 7.373-67.584 17.613-96.666 40.141h-390.963zM960.922 244.838c0 136.397-110.592 243.098-243.098 243.098-131.482 0-243.098-105.472-243.098-243.098 0-138.445 112.23-243.098 243.098-243.098 131.686 0 243.098 105.882 243.098 243.098zM602.726 334.131c-4.71-22.323-7.578-46.080-8.397-70.656h-69.837c3.072 32.563 14.336 62.874 31.539 88.883 14.95-7.578 30.72-13.517 46.694-18.227zM594.33 226.202c1.024-24.781 4.096-48.742 9.011-71.066-16.179-4.71-31.949-10.65-46.899-18.227-17.408 26.010-28.672 56.525-31.949 89.293h69.837zM613.171 119.296c5.734-17.408 13.312-34.611 22.733-50.381-20.48 9.626-39.117 22.733-55.091 38.502 10.035 4.506 20.89 8.397 32.358 11.878zM736.461 170.291v55.91h67.994c-1.024-21.914-3.686-42.803-7.987-62.464-19.251 3.686-39.322 5.734-60.006 6.554zM786.432 127.693c-9.216-26.214-25.805-60.006-50.176-73.318v78.643c17.408-0.614 34.202-2.458 50.176-5.325zM736.461 263.475v55.296c20.89 0.819 41.37 3.072 60.826 6.758 3.891-19.456 6.554-40.346 7.373-61.85l-68.198-0.205zM736.461 356.045v81.715c24.986-13.722 41.984-49.152 51.2-76.186-16.384-2.867-33.587-4.71-51.2-5.53zM699.187 437.555v-81.51c-17.408 0.819-34.406 2.662-50.586 5.53 9.011 27.034 25.805 62.054 50.586 75.981zM699.187 318.771v-55.296h-67.584c0.819 21.504 3.277 42.394 7.373 61.85 19.251-3.482 39.322-5.734 60.211-6.554zM639.59 163.738c-4.301 19.661-6.963 40.755-7.987 62.464h67.379v-55.91c-20.48-0.819-40.346-3.072-59.392-6.554zM699.187 133.018v-78.234c-23.962 13.517-40.55 46.899-49.562 72.909 15.77 2.867 32.358 4.506 49.562 5.325zM822.886 119.296c11.264-3.277 21.914-7.373 31.949-11.674-15.77-15.77-34.202-28.672-54.477-38.298 9.626 15.565 16.794 32.768 22.528 49.971zM832.717 155.136c4.915 22.323 7.987 46.285 9.011 71.066h69.222c-3.072-32.768-14.336-63.078-31.744-89.088-15.155 7.578-30.515 13.312-46.49 18.022zM879.616 352.154c17.203-25.805 28.262-56.115 31.334-88.474h-69.222c-0.819 24.576-3.891 48.333-8.397 70.656 15.974 4.506 31.539 10.445 46.285 17.818zM855.245 381.85c-9.83-4.506-20.275-8.397-31.334-11.674-5.53 17.203-12.493 33.997-21.504 49.357 19.866-9.421 37.683-22.323 52.838-37.683zM633.856 419.942c-9.011-15.77-16.179-32.563-21.709-49.766-11.264 3.482-21.914 7.373-31.744 11.878 15.36 15.565 33.587 28.467 53.453 37.888z" />
<glyph unicode="&#xe92b;" glyph-name="clip" d="M717.824 714.24v-456.499c0-104.858-91.341-190.259-203.776-190.259s-203.776 85.402-203.776 190.259v456.499c0 62.874 54.886 114.074 122.266 114.074s122.266-51.2 122.266-114.074v-342.426c0-20.89-18.227-38.093-40.755-38.093s-40.755 16.998-40.755 38.093v304.333h-81.51v-304.333c0-63.078 54.682-114.074 122.266-114.074s122.266 50.995 122.266 114.074v342.426c0 105.062-91.341 190.259-203.776 190.259s-203.776-85.197-203.776-190.259v-456.499c0-147.046 127.795-266.24 285.286-266.24s285.286 119.194 285.286 266.24v456.499h-81.51z" />
<glyph unicode="&#xe92c;" glyph-name="scissors" d="M843.162 331.469c-46.899 22.733-100.352 9.011-119.398-30.31s3.686-89.907 50.586-112.435c46.899-22.733 100.352-9.011 119.194 30.31 19.046 39.322-3.686 89.702-50.381 112.435zM581.837 455.373c0 15.974-12.902 28.877-28.877 28.877s-28.877-12.902-28.877-28.877c0-15.974 12.902-28.877 28.877-28.877s28.877 12.902 28.877 28.877zM722.33 595.046c18.842-39.322 72.294-53.043 119.194-30.515s69.837 72.909 50.995 112.435c-18.842 39.322-72.294 53.248-119.194 30.515-47.104-22.528-69.837-72.909-50.995-112.435zM820.838 101.069c-26.419 0-53.658 5.939-79.667 18.432-74.957 36.25-113.869 115.712-96.256 187.187 10.035 40.755-11.469 46.285-44.237 62.054l-547.021 264.806c0 0 65.536 89.702 136.806 55.296 43.622-21.094 219.341-105.882 370.688-179.405l37.888 18.227c32.768 15.77 54.272 21.299 44.237 62.054-17.408 71.475 21.709 150.938 96.666 186.982 25.805 12.288 52.838 18.227 79.258 18.227 89.088 0 155.853-65.331 155.853-146.637 0-61.030-38.093-121.651-100.762-153.19s-106.496-6.963-168.755-37.274l-19.456-9.421 21.299-10.445c62.259-30.515 106.086-5.939 168.755-37.683 62.669-31.539 100.352-92.16 100.352-152.986 0.205-81.101-66.765-146.227-155.648-146.227zM515.072 366.49c-133.939-64.512-289.382-139.469-327.066-157.696-71.27-34.202-136.602 55.706-136.602 55.706l337.715 162.816 125.952-60.826z" />
<glyph unicode="&#xe92d;" glyph-name="topology" d="M862.618 329.421c64.102 0 116.326 52.019 116.326 116.326 0 64.102-52.019 116.326-116.326 116.326-49.562 0-91.75-31.334-108.339-75.162h-243.302c1.843-12.698 3.072-25.6 3.072-38.707s-1.229-26.010-3.072-38.707h241.869c15.36-46.49 58.368-80.077 109.773-80.077zM597.197 133.632c-3.277-10.854-5.734-22.323-5.734-34.406 0-64.102 52.019-116.326 116.326-116.326 64.102 0 116.326 52.019 116.326 116.326s-52.019 116.326-116.326 116.326c-23.757 0-45.875-7.168-64.307-19.456l-162.611 121.856c-12.493-22.938-28.262-43.622-46.49-61.85l162.816-122.47zM823.91 796.774c0 64.102-52.019 116.326-116.326 116.326-64.102 0-116.326-52.019-116.326-116.326 0-12.083 2.458-23.552 5.734-34.406l-162.816-122.47c18.227-18.227 33.997-39.117 46.49-61.85l162.611 121.856c18.432-12.288 40.55-19.456 64.512-19.456 64.102 0 116.122 52.019 116.122 116.326zM242.893 641.741c106.906 0 193.741-86.835 193.741-193.741s-86.835-193.741-193.741-193.741c-107.11 0-193.741 86.835-193.741 193.741s86.63 193.741 193.741 193.741z" />
<glyph unicode="&#xe92e;" glyph-name="equalizer" d="M399.77 790.221h228.557v76.186h-228.557v-76.186zM399.77 637.85h228.557v76.186h-228.557v-76.186zM399.77 485.478h228.557v76.186h-228.557v-76.186zM56.934 485.478h228.557v76.186h-228.557v-76.186zM742.605 333.107h228.557v76.186h-228.557v-76.186zM399.77 333.107h228.557v76.186h-228.557v-76.186zM56.934 333.107h228.557v76.186h-228.557v-76.186zM742.605 180.736h228.557v76.186h-228.557v-76.186zM399.77 180.736h228.557v76.186h-228.557v-76.186zM56.934 180.736h228.557v76.186h-228.557v-76.186zM742.605 28.16h228.557v76.186h-228.557v-76.186zM399.77 28.16h228.557v76.186h-228.557v-76.186zM56.934 28.16h228.557v76.186h-228.557v-76.186z" />
<glyph unicode="&#xe92f;" glyph-name="idea" d="M562.381-11.571c-7.168-8.602-17.613-13.517-28.672-13.517h-41.574c-10.854 0-21.299 4.915-28.672 13.517l-55.091 65.331h209.101l-55.091-65.331zM627.098 112.947c0-10.854-8.602-19.661-19.046-19.661h-190.054c-10.445 0-19.046 8.806-19.046 19.661s8.602 19.661 19.046 19.661h190.054c10.445 0 19.046-8.806 19.046-19.661zM627.098 191.795c0-10.854-8.602-19.661-19.046-19.661h-190.054c-10.445 0-19.046 8.806-19.046 19.661s8.602 19.661 19.046 19.661h190.054c10.445 0 19.046-8.806 19.046-19.661zM779.059 655.667c0-164.25-142.541-275.251-142.541-404.685h-75.776c0 81.92 37.888 150.938 74.752 217.293 34.611 62.464 67.379 121.446 67.379 187.392 0 122.47-95.642 186.573-190.259 186.573-94.413 0-189.85-64.102-189.85-186.573 0-65.741 32.768-124.928 67.379-187.392 36.864-66.56 74.752-135.373 74.752-217.293h-75.776c0 129.638-142.541 240.64-142.541 404.685 0 171.213 132.915 265.421 266.035 265.421 133.325 0 266.445-94.413 266.445-265.421z" />
<glyph unicode="&#xe930;" glyph-name="tag" d="M330.138 631.091h518.758c6.963 0 12.698-5.734 12.698-12.698v-340.992c0-6.963-5.734-12.698-12.698-12.698h-518.554c-3.277 0-6.554 1.434-9.011 3.686l-170.598 170.598c-4.915 4.915-4.915 12.902 0 17.818 33.178 33.178 148.275 148.275 170.394 170.394 2.458 2.662 5.734 3.891 9.011 3.891zM284.877 686.387l-210.739-210.944c-15.155-15.155-15.155-39.731 0-54.886l210.944-210.944c7.373-7.373 17.203-11.469 27.443-11.469h575.693c21.504 0 38.912 17.408 38.912 38.912v421.683c0 21.504-17.408 38.912-38.912 38.912h-575.898c-10.24 0.205-20.070-3.891-27.443-11.264zM376.422 448c0-29.901-24.166-53.862-53.862-54.067-29.901 0-54.067 24.166-54.067 54.067s24.166 54.067 53.862 54.067c29.901 0 54.067-24.166 54.067-54.067z" />
<glyph unicode="&#xe931;" glyph-name="all" d="M753.459 550.81l-314.163-314.163-179.405 179.405 76.39 76.39 103.014-103.014 237.773 237.773 76.39-76.39zM859.955 212.685c44.442 66.765 70.451 147.046 70.451 233.472 0 233.062-188.826 421.888-421.888 421.888s-421.888-188.826-421.888-421.888c0-231.424 186.368-419.43 417.178-421.888v81.92c-185.754 2.458-335.258 153.6-335.258 339.968 0 187.802 151.962 339.968 339.968 339.968 187.802 0 339.968-151.962 339.968-339.968 0-64.922-18.227-125.542-49.766-177.152l-80.691 74.342-15.155-235.52 233.472 34.406-76.39 70.451z" />
<glyph unicode="&#xe932;" glyph-name="cursor1" d="M480 638h-128l160 192 160-192h-128v-96h-64v96zM544 350h-64v-96h-128l160-192 160 192h-128v96zM736 478h-448v-64h448v64z" />
<glyph unicode="&#xe933;" glyph-name="roundsquare" d="M775.782 819.712c61.85 0 112.23-50.381 112.23-112.23v-523.264c0-61.85-50.381-112.23-112.23-112.23h-523.469c-61.85 0-112.23 50.381-112.23 112.23v523.264c0 61.85 50.381 112.23 112.23 112.23h523.469zM775.782 894.464h-523.469c-103.219 0-186.778-83.763-186.778-186.982v-523.264c0-103.219 83.558-186.778 186.778-186.778h523.264c103.219 0 186.778 83.763 186.778 186.778v523.264c0.205 103.219-83.354 186.982-186.573 186.982z" />
<glyph unicode="&#xe934;" glyph-name="paintbucket" d="M881.050 531.763c-29.286 55.501-76.186 121.446-143.974 189.235-118.579 118.579-218.112 155.853-270.131 155.853-16.589 0-28.262-3.686-34.202-9.83l-54.272-54.067c-75.571 9.421-136.192-4.301-171.008-39.117s-46.285-86.016-31.539-140.288c19.661-71.885 91.75-161.178 235.11-214.016 1.434-12.902 6.349-25.395 16.179-35.226 23.347-23.347 61.235-23.347 84.378 0 23.347 23.347 23.347 61.030 0 84.378s-61.235 23.347-84.582 0l-6.758-10.24c-80.896 30.515-135.168 72.704-168.55 115.507l154.419 154.419c19.661-108.749 256.205-345.498 365.568-365.568l-283.443-283.238c-9.421-6.144-111.411 12.493-245.146 146.432-135.168 135.168-126.362 209.92-120.627 218.931l74.138 73.933c-17.408 14.336-36.864 44.032-45.466 67.174l-84.992-84.787c-17.818-17.818-27.238-42.394-27.238-72.499 0-65.126 44.646-155.853 147.866-259.072 110.182-110.182 222.208-168.96 295.936-168.96 25.805 0 46.899 7.782 61.645 22.323l321.946 321.741c36.25-34.816-30.925-140.902-30.925-185.139 0-44.032 35.635-79.667 79.667-79.667s79.667 35.635 79.667 79.667c0 126.976-56.73 271.36-113.664 372.122zM235.52 745.574c20.89 21.094 58.573 31.539 105.882 30.31l-127.795-127.59c-9.626 38.912-2.253 73.523 21.914 97.28zM605.594 583.168l-1.229 1.229c-51.405 51.405-151.552 173.466-123.29 201.728 28.467 28.467 138.854-60.621 201.523-123.29 34.406-34.406 83.149-89.498 116.941-137.626-68.403 42.394-139.059 58.163-193.946 57.958z" />
<glyph unicode="&#xe935;" glyph-name="square" d="M887.194 817.050v-754.278h-754.483v754.278h754.483zM962.56 892.416h-905.216v-905.216h905.216v905.216z" />
<glyph unicode="&#xe936;" glyph-name="circle" d="M512 824.218c210.739 0 382.362-171.418 382.362-382.362s-171.622-382.362-382.362-382.362-382.362 171.622-382.362 382.362 171.622 382.362 382.362 382.362zM512 900.608c-253.338 0-458.752-205.414-458.752-458.752s205.414-458.752 458.752-458.752 458.752 205.414 458.752 458.752-205.414 458.752-458.752 458.752z" />
<glyph unicode="&#xe937;" glyph-name="eraser" d="M933.069 96.563h-513.843l487.014 487.014c21.094 21.299 21.094 55.706 0 76.8l-230.605 230.4c-21.094 21.094-55.501 21.094-76.8 0l-537.395-537.6c-21.094-21.299-21.094-55.706 0-76.8l230.4-230.4c4.096-4.096 8.602-7.373 13.517-9.83 5.325-3.686 11.878-5.939 19.046-5.939h608.666c18.432 0 33.178 14.95 33.178 33.178 0 18.432-14.746 33.178-33.178 33.178zM637.338 775.475l153.6-153.395-230.4-230.4-153.6 153.6 230.4 230.195z" />
<glyph unicode="&#xe938;" glyph-name="paintbrush" d="M53.248 107.827c216.064-17.818 138.65 211.558 338.534 213.811l86.63-72.294c21.504-260.915-297.37-319.078-425.165-141.517zM686.694 413.798c67.174 105.472 275.456 459.162 275.456 459.162 16.589 29.286-20.275 60.006-45.875 38.298 0 0-309.658-269.107-400.794-354.509-72.090-67.379-72.499-98.304-95.846-209.51l79.053-65.946c104.653 43.213 134.963 49.152 188.006 132.506z" />
<glyph unicode="&#xe939;" glyph-name="pen" d="M651.674 674.304c0 0 11.059 74.547 57.958 165.274l300.032-300.237c-91.136-46.49-166.707-56.525-166.707-56.525s-191.283 191.488-191.283 191.488zM375.808 472.166l-131.482-353.28c-2.253-6.144 5.325-11.059 10.035-6.554l167.117 167.117c12.288 12.288 20.070 28.262 22.118 45.466 1.229 9.421 5.325 18.842 12.698 26.010 17.613 17.613 46.080 17.613 63.488 0 17.613-17.613 17.613-46.080 0-63.488-7.373-7.373-16.589-11.469-26.010-12.698-17.203-2.253-33.178-9.83-45.466-22.118l-166.912-167.117c-4.71-4.71 0.205-12.288 6.554-10.035l353.075 131.482 150.323 276.275-139.264 139.264-276.275-150.323zM243.712 59.085c11.264 1.434 19.046 11.674 17.613 22.938s-11.674 19.046-22.938 17.613c-0.819 0-73.523-9.011-116.531 28.877-21.709 19.046-32.563 47.718-32.563 84.992 0 69.632 38.093 118.579 78.643 170.598 44.032 56.32 93.798 120.422 93.798 216.474 0 53.862-12.083 128.205-69.427 176.128-35.43 29.491-71.27 34.611-72.704 34.816-11.264 1.434-21.504-6.349-23.142-17.613-1.434-11.264 6.349-21.504 17.613-22.938 4.301-0.614 106.496-17.408 106.496-169.984 0-82.125-41.37-135.168-84.992-191.283-43.008-55.091-87.245-112.026-87.245-195.789 0-49.766 15.77-88.883 46.694-115.917 39.117-34.406 92.774-39.936 123.699-39.936 14.131-0.205 23.757 1.024 24.986 1.024z" />
<glyph unicode="&#xe93a;" glyph-name="eyedropper" d="M774.554 573.952c-28.672-32.154-26.010-81.51 6.144-110.387l-52.019-58.368-291.43 260.506 52.224 58.163c32.154-28.672 81.51-26.010 110.387 6.144l136.806 149.709c23.142 26.214 55.091 39.322 87.45 39.322 65.126 0 117.965-53.043 117.965-117.146 0-28.262-10.65-56.115-30.515-78.438 0 0.205-137.011-149.504-137.011-149.504zM453.427 332.902h-105.267l153.6 170.394-58.368 52.019-308.634-343.654c-49.971-55.706-6.758-88.269-44.851-158.31-5.325-9.626-7.782-18.842-7.782-27.238 0-25.805 21.094-45.056 44.646-45.056 9.421 0 19.251 3.072 28.262 10.035 67.789 52.019 103.424 7.168 154.624 64.307l308.838 343.654-58.368 52.019-106.701-118.17z" />
<glyph unicode="&#xe93b;" glyph-name="x-mark" d="M507.904 918.426c-259.686 0-470.221-210.534-470.221-470.221s210.534-470.426 470.221-470.426 470.221 210.534 470.221 470.221-210.534 470.426-470.221 470.426zM688.128 214.733l-179.814 178.381-178.586-180.224-55.091 55.091 178.176 180.019-180.019 178.381 55.091 55.091 179.814-177.971 178.176 179.814 55.501-54.886-178.176-179.814 180.019-178.176-55.091-55.706z" />
<glyph unicode="&#xe93c;" glyph-name="server2" d="M953.958 247.706h-876.749v-278.938h876.749v278.938zM156.877 48.435l34.406 119.603h50.79l-34.406-119.603h-50.79zM239.206 48.435l34.406 119.603h50.79l-34.406-119.603h-50.79zM321.536 48.435l34.406 119.603h50.79l-34.406-119.603c0 0-50.79 0-50.79 0zM403.866 48.435l34.406 119.603h50.79l-34.406-119.603h-50.79zM536.986 48.435h-50.79l34.406 119.603h50.79c0 0-34.406-119.603-34.406-119.603zM834.355 68.301c-21.914 0-39.936 17.818-39.936 39.936s17.818 39.936 39.936 39.936c22.118 0 39.936-17.818 39.936-39.936s-17.818-39.936-39.936-39.936zM874.291 845.517v-438.272h-717.414v438.272h717.414zM953.958 925.184h-876.749v-597.811h876.749v597.811zM435.814 626.381l-102.195 99.533-30.72-29.901 71.475-69.632-71.475-69.632 30.72-29.901 102.195 99.533zM714.752 566.579h-199.27v-39.936h199.27v39.936z" />
<glyph unicode="&#xe93d;" glyph-name="server1" d="M908.493 600.166v-157.286h-786.842v157.286h786.842zM987.136 679.014h-944.128v-314.778h944.128v314.778zM160.973 482.202l33.997 78.643h50.176l-33.997-78.643h-50.176zM242.278 482.202l33.997 78.643h50.176l-33.997-78.643h-50.176zM323.584 482.202l33.997 78.643h50.176l-33.997-78.643c0 0-50.176 0-50.176 0zM404.89 482.202l33.997 78.643h50.176l-33.997-78.643h-50.176zM536.371 482.202h-50.176l33.997 78.643h50.176c0 0-33.997-78.643-33.997-78.643zM829.85 482.202c-21.709 0-39.322 17.613-39.322 39.322s17.613 39.322 39.322 39.322c21.709 0 39.322-17.613 39.322-39.322s-17.613-39.322-39.322-39.322zM908.493 206.95v-157.286h-786.842v157.286h786.842zM987.136 285.594h-944.128v-314.778h944.128v314.778zM160.973 88.781l33.997 78.643h50.176l-33.997-78.643h-50.176zM242.278 88.781l33.997 78.643h50.176l-33.997-78.643h-50.176zM323.584 88.781l33.997 78.643h50.176l-33.997-78.643c0 0-50.176 0-50.176 0zM404.89 88.781l33.997 78.643h50.176l-33.997-78.643h-50.176zM536.371 88.781h-50.176l33.997 78.643h50.176c0 0-33.997-78.643-33.997-78.643zM829.85 88.781c-21.709 0-39.322 17.613-39.322 39.322s17.613 39.322 39.322 39.322c21.709 0 39.322-17.613 39.322-39.322s-17.613-39.322-39.322-39.322zM216.269 718.336h-94.618l157.286 196.608h472.064l157.286-196.608h-94.618l-104.858 117.965h-387.686c0 0-104.858-117.965-104.858-117.965z" />
<glyph unicode="&#xe93e;" glyph-name="unhappy" d="M509.952 843.264c220.16 0 399.36-179.2 399.36-399.36s-179.2-399.36-399.36-399.36-399.36 179.2-399.36 399.36 179.2 399.36 399.36 399.36zM509.952 923.136c-264.602 0-479.232-214.63-479.232-479.232s214.63-479.232 479.232-479.232 479.232 214.63 479.232 479.232-214.63 479.232-479.232 479.232zM509.952 364.032c-93.184 0-165.478-65.331-203.366-111.616l18.842-23.142c51.405 32.768 109.158 52.224 184.525 52.224s133.325-19.456 184.525-52.224l18.842 23.142c-37.888 46.285-110.182 111.616-203.366 111.616zM370.074 603.648c-32.973 0-59.802-26.829-59.802-59.802s26.829-59.802 59.802-59.802 59.802 26.829 59.802 59.802-26.624 59.802-59.802 59.802zM649.626 603.648c-32.973 0-59.802-26.829-59.802-59.802s26.829-59.802 59.802-59.802 59.802 26.829 59.802 59.802-26.624 59.802-59.802 59.802z" />
<glyph unicode="&#xe93f;" glyph-name="layout2" d="M15.36 889.344v-881.664h995.123v881.664h-995.123zM914.022 104.346h-801.997v550.707h801.997v-550.707z" />
<glyph unicode="&#xe940;" glyph-name="layout1" d="M19.866 887.296v-871.424h983.654v871.424h-983.654zM354.304 111.309h-239.002v544.358h239.002v-544.358zM908.083 111.309h-458.342v544.358h458.138v-544.358z" />
<glyph unicode="&#xe941;" glyph-name="3d" d="M510.362 944.64l-456.090-248.832v-503.194l456.090-243.302 456.294 243.302v500.531c0 0-456.294 251.494-456.294 251.494zM883.712 462.541l-124.314-65.126v135.168l124.314 66.355v-136.397zM344.474 489.779l124.314-67.379v-132.096l-124.314 66.97v132.506zM381.747 564.326l123.904 66.56 129.843-70.042-124.928-66.765-128.819 70.246zM551.936 421.99l124.314 66.355v-134.349l-124.314-65.126v133.12zM723.558 607.744l-130.253 70.042 116.122 62.259 129.024-71.066c0 0-114.893-61.235-114.893-61.235zM623.002 787.763l-117.146-62.874-113.254 61.030 117.555 64.102c0 0 112.845-62.259 112.845-62.259zM305.766 738.406l112.435-60.621-123.29-65.946-110.797 60.416 121.651 66.15zM261.53 535.040v-132.915l-124.314 67.789v133.325c0 0 124.314-68.198 124.314-68.198zM137.216 375.501l124.314-67.789v-132.096l-124.314 66.765c0 0 0 133.12 0 133.12zM344.474 131.379v131.482l124.314-66.97v-130.458l-124.314 65.946zM551.936 195.482l124.314 65.126v-128.819l-124.314-66.355v130.048zM759.194 176.026v127.795l124.314 65.126v-126.566l-124.314-66.355z" />
<glyph unicode="&#xe942;" glyph-name="cursor" d="M1006.387 449.434l-247.808 206.438v-165.274h-206.438v206.643h165.274l-206.438 247.808-206.438-247.808h165.274v-206.438h-206.643v165.274l-247.808-206.643 247.808-206.438v165.274h206.438v-206.438h-165.274l206.438-247.808 206.438 247.808h-165.274v206.234h206.438v-165.274l248.013 206.643z" />
<glyph unicode="&#xe943;" glyph-name="feed" d="M315.187 134.042c0-63.488-51.61-114.893-115.098-114.893s-115.098 51.405-115.098 114.893 51.61 114.893 115.098 114.893c63.693 0 115.098-51.405 115.098-114.893zM84.992 579.072v-170.394c214.221-2.253 388.096-175.718 390.144-389.734h170.598c-2.253 308.429-251.904 557.875-560.742 560.128zM84.992 698.266c374.579-1.638 677.888-304.128 679.117-679.322h170.598c-1.024 468.378-380.723 848.077-849.715 849.715 0 0 0-170.394 0-170.394z" />
<glyph unicode="&#xe944;" glyph-name="filter" d="M941.261 800.461c43.827 95.437-310.067 112.435-431.718 112.435-116.122 0-475.546-16.998-431.718-112.435 20.070-44.032 352.666-511.386 352.666-511.386v-207.667l158.31-118.579v326.246c0 0 332.39 467.354 352.461 511.386zM509.747 836.096c167.936 0 322.355-22.733 322.355-48.538s-154.214-46.694-322.355-46.694-318.259 20.89-318.259 46.694 150.323 48.538 318.259 48.538z" />
<glyph unicode="&#xe945;" glyph-name="column" d="M210.739 314.675v-73.728h-149.504v675.84h675.84v-188.416h-75.776v112.64h-526.336v-526.336h75.776zM548.659 578.867h151.552v73.728h-151.552v-73.728zM548.659-23.245h151.552v75.776h-151.552v-75.776zM775.987 578.867v73.728h186.368v-186.368h-73.728v112.64h-112.64zM286.515 390.451h75.776v-149.504h-75.776v149.504zM436.019-23.245h-149.504v188.416h75.776v-112.64h73.728v-75.776zM962.355 240.947h-73.728v149.504h73.728v-149.504zM812.851 52.531h75.776v112.64h73.728v-188.416h-149.504v75.776zM286.515 466.227v186.368h188.416v-73.728h-112.64v-112.64h-75.776z" />
<glyph unicode="&#xe946;" glyph-name="analysis" d="M535.142 468.070c0 107.725-87.45 195.174-195.174 195.174s-195.174-87.45-195.174-195.174 87.45-195.174 195.174-195.174v195.174h195.174zM583.885 419.328h-195.174v-195.174c107.725 0 195.174 87.45 195.174 195.174zM635.29 555.11h212.992v-87.040h-212.992v87.040zM634.266 680.653h212.992v-84.582h-212.992v84.582zM635.29 426.496h212.992v-81.92h-212.992v81.92zM635.29 302.182h212.992v-81.92h-212.992v81.92zM1013.35-3.789h-1004.749v908.493h1004.749v-908.493zM92.365 79.974h837.222v740.966h-837.222v-740.966z" />
<glyph unicode="&#xe947;" glyph-name="wireless" d="M50.381 585.011c117.555 124.109 280.166 200.909 459.571 200.909s342.016-76.8 459.571-200.909l-78.029-82.33c-97.69 103.014-232.653 166.707-381.542 166.707s-283.853-63.693-381.542-166.707c0 0-78.029 82.33-78.029 82.33zM269.517 353.997c61.645 64.922 146.637 105.062 240.435 105.062s178.995-40.141 240.435-105.062l80.077 84.582c-82.125 86.63-195.379 140.083-320.717 140.083s-238.592-53.453-320.717-140.083c0.205 0 80.486-84.582 80.486-84.582zM409.6 206.131c25.6 27.034 61.235 43.827 100.352 43.827s74.752-16.794 100.352-43.827l78.848 83.149c-45.875 48.333-109.158 78.234-179.2 78.234s-133.325-29.901-179.2-78.234c0 0 78.848-83.149 78.848-83.149zM509.952 167.219c-40.755 0-73.728-32.973-73.728-73.728s32.973-73.728 73.728-73.728 73.728 32.973 73.728 73.728c0 40.755-32.973 73.728-73.728 73.728z" />
<glyph unicode="&#xe948;" glyph-name="network" d="M556.237 173.363h-78.848v-78.848h-157.491v-78.643h393.83v78.848h-157.491v78.643zM910.541 94.72h-157.491v-78.848h157.491v78.848zM280.576 94.72h-157.491v-78.848h157.491v78.848zM910.541 488.346v-157.491h-787.456v157.491h787.456zM989.389 567.194h-945.152v-314.982h945.152v314.982zM831.898 370.176c-21.709 0-39.322 17.613-39.322 39.322s17.613 39.322 39.322 39.322c21.709 0 39.322-17.613 39.322-39.322 0-21.504-17.613-39.322-39.322-39.322zM713.728 370.176c-21.709 0-39.322 17.613-39.322 39.322s17.613 39.322 39.322 39.322c21.709 0 39.322-17.613 39.322-39.322 0-21.504-17.613-39.322-39.322-39.322zM595.558 370.176c-21.709 0-39.322 17.613-39.322 39.322s17.613 39.322 39.322 39.322c21.709 0 39.322-17.613 39.322-39.322 0-21.504-17.408-39.322-39.322-39.322zM217.702 606.515h-94.618l157.491 275.661h472.474l157.491-275.661h-94.618l-105.062 196.813h-388.096c0 0-105.062-196.813-105.062-196.813z" />
<glyph unicode="&#xe949;" glyph-name="cloud" d="M512 726.733c137.421 0 234.496-111.411 221.594-269.926 69.427 1.843 176.538-29.901 176.538-148.070 0-76.8-62.464-139.469-139.469-139.469h-517.53c-76.8 0-139.469 62.464-139.469 139.469 0 111.411 98.714 152.576 176.538 148.070-6.554 167.936 88.064 269.926 221.798 269.926zM512 806.4c-159.539 0-289.382-125.133-297.779-282.419-102.4-18.432-180.019-107.725-180.019-215.45 0-121.037 98.099-218.931 218.931-218.931h517.734c121.037 0 218.931 98.099 218.931 218.931 0 107.52-77.619 197.018-180.019 215.45-8.397 157.286-138.24 282.419-297.779 282.419z" />
<glyph unicode="&#xe94a;" glyph-name="checkbox" d="M942.080 799.846c0 37.478-30.31 67.994-67.994 67.994h-728.269c-37.683 0-67.994-30.31-67.994-67.994v-728.474c0-37.478 30.31-67.994 67.994-67.994h728.474c37.478 0 67.994 30.31 67.994 67.994v728.474zM441.754 215.962l-190.054 190.054c-7.373 7.373-7.373 19.456 0 26.829l41.37 41.37c7.373 7.373 19.456 7.373 26.829 0l122.061-122.061 258.253 257.638c7.373 7.373 19.251 7.373 26.624 0l41.165-40.55c7.578-7.373 7.578-19.456 0-26.829l-326.246-326.451z" />
<glyph unicode="&#xe94b;" glyph-name="checkbox2" d="M145.818 4.608h728.269c37.478 0 67.994 30.31 67.994 67.994v728.269c0 37.478-30.31 67.994-67.994 67.994h-728.269c-37.478 0-67.994-30.31-67.994-67.994v-728.269c0.205-37.478 30.515-67.994 67.994-67.994zM173.875 772.813h672.154v-672.154h-672.154v672.154z" />
<glyph unicode="&#xe94c;" glyph-name="stop" d="M98.714 864.358h823.296v-823.296h-823.296v823.296z" />
<glyph unicode="&#xe94d;" glyph-name="link2" d="M589.005 99.226l-130.048-75.162c-129.843-74.957-295.936-30.515-370.893 99.533-74.957 129.843-30.515 295.936 99.328 370.893l130.253 75.162 57.344-99.328-130.253-75.162c-74.752-43.213-100.557-139.264-57.344-214.016 43.213-74.957 139.264-100.762 214.221-57.344l130.048 74.957c0-0.205 57.344-99.533 57.344-99.533zM465.715 772.608l-75.162-130.048 99.328-57.344 75.162 130.253c43.213 74.752 139.264 100.557 214.016 57.344 74.957-43.213 100.557-139.264 57.549-214.221l-75.162-130.048 99.328-57.344 75.162 129.843c74.957 129.843 30.31 295.936-99.328 370.893-129.843 74.957-295.936 30.515-370.893-99.328zM749.568-2.97l-66.15-9.421-20.070 141.517 66.15 9.421 20.070-141.517zM972.39 276.378l-9.626-66.15-141.517 20.275 9.421 66.15 141.722-20.275zM752.435 160.87l47.104 47.104 101.171-101.171-47.309-47.104c0.205 0-100.966 101.171-100.966 101.171z" />
<glyph unicode="&#xe94e;" glyph-name="minus2" d="M509.952 921.088c-260.096 0-471.040-210.944-471.040-471.040s210.944-471.040 471.040-471.040 471.040 210.944 471.040 471.040-210.944 471.040-471.040 471.040zM745.472 410.726h-471.040v78.438h471.040v-78.438z" />
<glyph unicode="&#xe94f;" glyph-name="more" d="M512 919.040c-260.096 0-471.040-210.944-471.040-471.040s210.944-471.040 471.040-471.040 471.040 210.944 471.040 471.040-210.944 471.040-471.040 471.040zM747.52 408.678h-196.198v-196.198h-78.438v196.198h-196.403v78.438h196.198v196.198h78.438v-196.198h196.403v-78.438z" />
<glyph unicode="&#xe950;" glyph-name="zip" d="M590.234 608.768h-123.494v-41.165h123.494v41.165zM590.234 526.234h-123.494v-41.165h123.494v41.165zM528.589 199.373c-66.97 0-116.122 38.093-99.942 103.014l38.093 141.517h123.494l38.093-141.517c16.179-64.922-32.768-103.014-99.738-103.014zM590.234 279.245c0 55.296-123.494 54.067-123.494-0.205 0-52.019 123.494-52.224 123.494 0.205zM264.192 773.632c56.73-66.355 106.086-123.699 202.547-123.699h453.222v-535.757h-824.115v659.456c0 0 168.346 0 168.346 0zM301.875 855.962h-288.563v-824.115h988.979v700.621h-535.552c-67.174 0-95.027 43.418-164.864 123.494z" />
<glyph unicode="&#xe951;" glyph-name="mobile" d="M686.694 921.293h-347.955c-56.115 0-101.99-45.875-101.99-101.99v-743.834c0-56.115 45.875-101.99 101.99-101.99h347.955c56.115 0 101.99 45.875 101.99 101.99v743.834c0 56.115-45.875 101.99-101.99 101.99zM512.819-5.427c-26.214 0-47.309 21.299-47.309 47.309 0 26.214 21.299 47.309 47.309 47.309 26.214 0 47.309-21.299 47.309-47.309s-21.299-47.309-47.309-47.309zM734.618 138.547c0-14.336-11.878-26.214-26.214-26.214h-391.373c-14.336 0-26.214 11.878-26.214 26.214v617.882c0 14.336 11.878 26.214 26.214 26.214h391.373c14.336 0 26.214-11.878 26.214-26.214 0 0 0-617.882 0-617.882z" />
<glyph unicode="&#xe952;" glyph-name="tablet" d="M792.576-33.075c44.237 0 80.077 35.84 80.077 80.077v801.997c0 44.237-35.84 80.077-80.077 80.077h-561.152c-44.237 0-80.077-35.84-80.077-80.077v-801.792c0-44.237 35.84-80.077 80.077-80.077h561.152zM231.424 87.142v721.715h561.152v-721.51h-561.152zM491.93 27.136c0 11.059 9.011 20.070 20.070 20.070s20.070-9.011 20.070-20.070-9.011-20.070-20.070-20.070-20.070 9.011-20.070 20.070z" />
<glyph unicode="&#xe953;" glyph-name="share2" d="M649.626 368.947c0 0-474.726 122.266-602.726-298.394 0 0-46.080 602.522 602.726 602.522v152.371l335.462-300.646-335.462-310.477v154.624z" />
<glyph unicode="&#xe954;" glyph-name="caution3" d="M512 842.24c217.293 0 394.24-176.947 394.24-394.24s-176.947-394.24-394.24-394.24-394.24 176.947-394.24 394.24 176.947 394.24 394.24 394.24zM512 921.088c-261.325 0-473.088-211.763-473.088-473.088s211.763-473.088 473.088-473.088 473.088 211.763 473.088 473.088-211.763 473.088-473.088 473.088zM460.39 624.333c-3.891 31.744 20.89 60.211 53.043 60.211 30.31 0 54.272-26.624 50.381-57.139l-29.901-238.592c-1.434-11.059-10.854-19.456-22.118-19.456s-20.685 8.397-22.118 19.456c0.205 0-29.286 235.52-29.286 235.52zM512 201.626c-27.238 0-49.357 22.118-49.357 49.357s22.118 49.357 49.357 49.357 49.357-22.118 49.357-49.357c0-27.238-22.118-49.357-49.357-49.357z" />
<glyph unicode="&#xe955;" glyph-name="lock" d="M362.086 529.92h-120.627v151.142c0 147.046 119.808 266.65 266.854 266.65s266.854-119.603 266.854-266.854v-150.938h-120.627v151.142c0 80.691-65.536 146.227-146.227 146.227s-146.227-65.536-146.227-146.227v-151.142zM865.075 457.421v-502.989h-713.523v502.989h713.523zM573.44 246.067c0 36.045-29.082 65.126-65.126 65.126s-65.126-29.082-65.126-65.126c0-18.842 7.987-35.84 20.685-47.718 10.65-9.83 16.589-23.552 16.589-38.093v-55.296h55.501v55.296c0 14.541 5.939 28.262 16.589 38.093 12.902 12.083 20.89 28.877 20.89 47.718z" />
<glyph unicode="&#xe956;" glyph-name="script" d="M409.19 413.389l215.654 126.362 34.202-44.237-217.088-127.181-32.768 45.056zM696.115 450.458l-218.112-128 32.768-45.056 219.546 128.614-34.202 44.442zM855.245 221.491c-66.97-43.827 0 0 0 0 0-0.205-390.963-246.784-390.963-246.784v0c-60.826-36.045-132.915-21.504-177.562 22.938-64.307 64.307-53.043 173.261 24.371 223.642l44.442-57.139c-67.379-35.84-41.37-137.83 34.202-137.83 60.006 0 94.618 69.018 58.368 116.941 0 0-241.869 309.453-302.285 385.229-62.464 79.258-39.731 185.139 46.694 226.714l341.402 174.49c63.078 28.058 138.65 5.12 174.694-56.32 35.021-59.802 20.48-137.83-37.274-180.429l-337.51-190.669-44.646 57.344c67.379 36.045 41.165 137.626-34.406 137.626-51.2 0-101.376-61.645-52.429-124.518 58.982-75.366 298.189-380.109 298.189-380.109 21.504-25.6 32.973-56.73 33.997-88.474 0 0 239.002 150.733 275.866 174.285 38.093 24.371 45.056 70.451 16.998 103.014-0.614 0.614-186.778 229.171-186.778 229.171l62.259 37.478c0 0 137.011-168.346 186.778-229.171 48.128-58.163 32.358-153.6-34.406-197.427zM647.782 834.867c-17.408 33.382-56.32 42.394-85.606 28.672l-228.762-117.146c41.574-26.624 67.994-73.523 66.765-125.747l222.413 125.952c34.611 20.070 40.141 59.392 25.19 88.269z" />
<glyph unicode="&#xe957;" glyph-name="business" d="M519.373 627.405c29.491 41.165-2.048 43.213-7.373 43.213v0 0c-5.325 0-38.093-2.048-7.373-43.213l-14.746-67.584h-149.914v48.538c0 10.65 4.301 20.070 12.698 26.419 44.237 35.84 90.726 60.211 100.352 64.307 1.024 1.024 2.048 2.048 2.048 3.072v68.608c-8.397 5.325-13.722 15.77-13.722 26.419v70.861c0 34.816 28.467 63.283 63.283 63.283h14.746c34.816 0 63.283-28.467 63.283-63.283v-70.656c0-11.674-5.325-21.094-13.722-26.419v-68.608c0-1.024 1.024-2.048 2.048-3.072 9.421-4.301 56.934-28.467 100.352-64.307 8.397-6.349 12.698-15.77 12.698-26.419v-48.538h-149.914l-14.746 67.379zM898.253 103.936c-1.024 1.024-2.048 2.048-2.048 3.072v68.608c8.397 5.325 13.722 15.77 13.722 26.419v70.656c0 34.816-28.467 63.283-63.283 63.283h-14.746c-34.816 0-63.283-28.467-63.283-63.283v-70.656c0-11.674 5.325-21.094 13.722-26.419v-68.608c0-1.024-1.024-2.048-2.048-3.072-9.421-4.301-56.934-28.467-100.352-64.307-8.397-6.349-12.698-15.77-12.698-26.419v-48.538h149.914l14.746 67.584c-29.491 41.165 2.048 43.213 7.373 43.213v0 0c5.325 0 38.093-2.048 7.373-43.213l14.746-67.584h149.914v48.538c0 10.65-4.301 20.070-12.698 26.419-43.418 35.84-90.931 58.982-100.352 64.307zM243.917 103.936c-1.024 1.024-2.048 2.048-2.048 3.072v68.608c8.397 5.325 13.722 15.77 13.722 26.419v70.656c0 34.816-28.467 63.283-63.283 63.283h-14.746c-34.816 0-63.283-28.467-63.283-63.283v-70.656c0-11.674 5.325-21.094 13.722-26.419v-68.608c0-1.024-1.024-2.048-2.048-3.072-9.421-4.301-56.934-28.467-100.352-64.307-8.397-6.349-12.698-15.77-12.698-26.419v-48.538h149.914l14.746 67.584c-29.491 41.165 2.048 43.213 7.373 43.213v0 0c5.325 0 38.093-2.048 7.373-43.213l14.746-67.584h149.914v48.538c0 10.65-4.301 20.070-12.698 26.419-44.442 35.84-90.726 58.982-100.352 64.307zM512 439.603c-12.698 0-23.142-10.65-23.142-23.142s10.65-23.142 23.142-23.142 23.142 10.65 23.142 23.142-10.445 23.142-23.142 23.142zM512 372.019c-12.698 0-23.142-10.65-23.142-23.142s10.65-23.142 23.142-23.142 23.142 10.65 23.142 23.142-10.445 23.142-23.142 23.142zM512 304.435c-12.698 0-23.142-10.65-23.142-23.142 0-12.698 10.65-23.142 23.142-23.142s23.142 10.65 23.142 23.142c0 12.698-10.445 23.142-23.142 23.142zM512 505.958c-6.349 0-11.674-2.048-15.77-6.349-4.301-4.301-6.349-10.65-6.349-15.77 0-6.349 2.048-11.674 6.349-15.77 4.301-4.301 10.65-6.349 15.77-6.349 6.349 0 11.674 2.048 15.77 6.349s6.349 10.65 6.349 15.77c0 6.349-2.048 11.674-6.349 15.77-4.096 4.301-9.421 6.349-15.77 6.349zM580.608 264.294c-10.65 7.373-25.395 4.301-31.744-7.373-7.373-10.65-4.301-25.395 6.349-31.744 10.65-7.373 25.395-4.301 31.744 6.349 7.373 11.674 4.096 26.419-6.349 32.768zM637.542 228.454c-10.65 7.373-25.395 4.301-31.744-6.349-7.373-10.65-4.301-25.395 6.349-31.744 10.65-7.373 25.395-4.301 31.744 6.349s4.301 24.371-6.349 31.744zM700.826 159.846c7.373 10.65 4.301 25.395-6.349 31.744-10.65 7.373-25.395 4.301-31.744-6.349-7.373-10.65-4.301-25.395 6.349-31.744 10.65-7.373 24.371-4.096 31.744 6.349zM443.392 264.294c-10.65-7.373-13.722-21.094-7.373-31.744 7.373-10.65 21.094-13.722 31.744-6.349s13.722 21.094 6.349 31.744c-6.349 10.65-20.070 13.722-30.72 6.349zM386.458 228.454c-10.65-7.373-13.722-21.094-6.349-31.744s21.094-13.722 31.744-6.349c10.65 7.373 13.722 21.094 6.349 31.744-6.554 9.626-21.299 12.698-31.744 6.349zM330.547 191.59c-10.65-7.373-13.722-21.094-6.349-31.744s21.094-13.722 31.744-6.349c10.65 7.373 13.722 21.094 7.373 31.744-8.602 10.445-22.323 13.722-32.768 6.349z" />
<glyph unicode="&#xe958;" glyph-name="build" d="M912.589 503.501l95.027-55.501-495.616-289.178-495.616 289.178 95.027 55.501 400.589-233.677 400.589 233.677zM512 63.181l-400.589 233.677-95.027-55.501 495.616-288.973 495.616 289.178-95.027 55.501-400.589-233.882zM512 943.616l-495.616-289.178 495.616-288.973 495.616 289.178-495.616 288.973z" />
<glyph unicode="&#xe959;" glyph-name="themes2" d="M401.613 160.051c-66.355 0-134.554 29.082-177.562 89.088 7.168-0.614 13.722-0.819 20.275-0.819 163.635 0 107.52 185.754 275.456 187.597l75.776-63.078c11.264-139.674-88.883-212.787-193.946-212.787zM802.611 541.798c48.742 76.595 157.696 280.576 199.27 359.834 2.662 4.506 3.686 9.011 3.686 13.312 0 14.541-12.902 26.624-27.034 26.624-5.53 0-11.469-1.843-16.794-6.349-68.608-58.163-242.483-206.438-308.838-268.493-63.078-58.982-63.283-85.811-83.558-182.886l69.018-57.549c91.546 37.683 117.76 42.803 164.25 115.507zM841.114 455.168v-418.611h-740.352v575.898h415.334c26.829 73.523 71.68 109.568 230.4 246.784h-728.064v-904.806h904.806v629.965c-28.262-49.971-52.429-93.184-82.125-129.229z" />
<glyph unicode="&#xe95a;" glyph-name="download" d="M953.139 728.986v-768.41h-855.654v768.41h236.339v-104.653h-131.891v-559.309h646.554v559.514h-135.987v104.653h240.64zM586.957 441.856v487.424h-123.29v-487.424h-150.528l211.968-253.952 212.173 253.952h-150.323z" />
<glyph unicode="&#xe95b;" glyph-name="upload" d="M97.485 160.87v768.41h855.654v-768.41h-236.339v104.653h131.891v559.104h-646.554v-559.309h135.987v-104.653h-240.64zM463.667 448v-487.424h123.494v487.424h150.528l-211.968 253.952-212.378-253.952h150.323z" />
<glyph unicode="&#xe95c;" glyph-name="pin" d="M582.861 270.848v-229.581l-132.301-98.918v328.499h132.301zM229.171 332.288h574.669c0 224.87-141.926 235.725-141.926 393.83 0 121.242 75.776 146.637 79.053 226.509h-448.922c3.277-80.282 79.053-104.448 79.053-226.509v0c0-158.72-141.926-168.55-141.926-393.83zM432.947 829.542h60.006v-223.846h-60.006v223.846z" />
<glyph unicode="&#xe95d;" glyph-name="template" d="M328.499 656.896h349.798v-557.261h90.317v647.578h-349.798l-90.317-90.317zM491.11 820.531h349.798v-598.016h90.317v688.128h-350.003l-90.112-90.112zM312.525 490.803h198.656v-419.43h-324.813v293.478h126.157v125.952zM96.256 421.376v-440.32h505.242v600.064h-345.498l-159.744-159.744z" />
<glyph unicode="&#xe95e;" glyph-name="line-height" d="M697.139 888.115v0h-665.19v-194.765h85.197c0 47.514 38.502 86.016 86.016 86.016h100.352v-625.459c0-47.514-38.502-86.016-86.016-86.016h-29.696v-84.582h350.413v84.582h-25.395c-47.514 0-86.016 38.502-86.016 86.016v625.459h99.533c47.514 0 86.016-38.502 86.016-86.016h84.582l0.205 194.765zM888.422 736.563h80.896l-114.688 167.936-114.893-167.936h81.101v-595.558h-81.101l114.893-167.936 114.688 167.936h-80.896v595.558z" />
<glyph unicode="&#xe95f;" glyph-name="outdent" d="M16.384 879.104h991.232v-96.256h-991.232v96.256zM403.661 686.592h603.955v-96.256h-603.955v96.256zM403.661 494.080h603.955v-96.256h-603.955v96.256zM403.661 301.568h603.955v-96.256h-603.955v96.256zM16.384 109.056h991.232v-96.256h-991.232v96.256zM295.526 255.078v381.747l-279.142-190.874 279.142-190.874z" />
<glyph unicode="&#xe960;" glyph-name="indent" d="M15.155 880.128h993.69v-96.461h-993.69v96.461zM403.456 687.206h605.389v-96.461h-605.389v96.461zM403.456 494.285h605.389v-96.461h-605.389v96.461zM403.456 301.158h605.389v-96.461h-605.389v96.461zM15.155 108.237h993.69v-96.461h-993.69v96.461zM15.155 637.235v-382.771l279.757 191.488-279.757 191.283z" />
<glyph unicode="&#xe961;" glyph-name="like" d="M919.954 304.274c35.657 55.771 17.554 131.84-7.68 156.16 10.057 30.903 19.2 89.6-6.583 132.023 0 0-192.731 0.183-195.291 0 31.086 133.851 44.8 346.697-91.246 346.697-75.337 0-93.806-67.84-114.651-134.766-85.943-276.297-291.109-279.040-414.903-292.937 0-98.011 0-316.16 0-426.057 189.074 0 284.16-15.543 446.72-84.846 170.789-72.594 382.537-50.834 359.131 145.189 45.531 45.166 44.251 116.297 24.503 158.537zM855.954 527.543c5.486-41.326-14.080-87.406-58.697-87.406h-80.457c-30.903 0-41.509 25.234-41.509 45.531 0 17.371 15.177 41.874 42.971 41.874h137.691zM162.011 154.697c0 99.291 0 173.897 0 290.926 238.811 20.48 357.12 165.486 406.309 318.903 15.36 47.543 19.749 113.006 60.526 100.571 44.069-13.349 42.789-141.166 8.96-264.046-14.446-52.48-52.663-96.549-20.114-159.634-57.783-19.931-76.617-118.674-28.16-159.817-38.583-37.669-37.303-113.006 9.509-149.029-17.554-20.846-24.869-44.617-22.491-70.217-78.263 27.429-215.406 92.343-414.537 92.343zM750.263 32.549h-60.343c-29.623 0-42.971 19.566-42.971 39.314 0 23.406 14.994 44.069 42.971 44.069h134.583c-2.377-31.817-16.64-83.383-74.24-83.383zM795.063 166.949h-121.6c-29.623 0-42.971 25.6-42.971 44.069s13.349 44.069 42.971 44.069h186.514c5.12-43.886-16.091-88.137-64.914-88.137zM810.971 305.371h-137.509c-29.623 0-42.971 26.331-42.971 44.069 0 18.103 13.349 43.337 42.971 43.337h195.109c5.486-40.594-13.166-87.406-57.6-87.406z" />
<glyph unicode="&#xe962;" glyph-name="blogger" d="M647.131 351.269c0-17.737-14.446-32.183-32.183-32.183h-196.571c-17.737 0-32.183 14.446-32.183 32.183s14.446 32.183 32.183 32.183h196.754c17.554 0 32-14.446 32-32.183zM418.377 515.657h98.377c17.737 0 32.183 14.446 32.183 32.183s-14.446 32.183-32.183 32.183h-98.377c-17.737 0-32.183-14.446-32.183-32.183-0.183-17.737 14.263-32.183 32.183-32.183zM941.714 877.714v-858.514h-858.514v858.514h858.514zM786.469 488.411c0 14.811-11.886 26.697-26.697 26.697h-43.886c-14.811 0-26.697 11.886-26.697 26.697v11.703c0 90.88-73.691 164.389-164.389 164.389h-113.92c-90.88 0-164.389-73.691-164.389-164.389v-209.92c0-90.88 73.691-164.389 164.389-164.389h211.017c90.88 0 164.389 73.691 164.389 164.389l0.183 144.823z" />
<glyph unicode="&#xe963;" glyph-name="github" d="M82.103 877.897v-863.269h863.269v863.269h-863.269zM609.463 152.137c-15.36-2.926-20.114 6.4-20.114 14.446 0 9.874 0 42.423 0 82.834 0 28.16-9.874 46.629-20.663 55.954 67.291 7.497 138.057 33.097 138.057 149.029 0 32.914-11.703 59.977-31.086 81.006 3.109 7.68 13.531 38.4-2.926 79.909 0 0-25.234 8.046-83.017-30.903-24.137 6.766-49.92 10.057-75.703 10.24-25.6-0.183-51.566-3.474-75.703-10.24-57.783 39.131-83.2 30.903-83.2 30.903-16.457-41.691-6.034-72.411-2.926-79.909-19.383-21.211-31.086-48.091-31.086-81.006 0-115.749 70.583-141.714 137.691-149.394-8.594-7.497-16.457-20.846-19.2-40.411-17.189-7.68-61.074-21.029-87.954 25.051 0 0-15.909 29.074-46.263 31.086 0 0-29.44 0.366-2.011-18.286 0 0 19.749-9.326 33.463-44.251 0 0 17.554-53.943 101.486-35.657v-56.32c0-8.046-4.937-17.371-19.931-14.446-120.137 39.863-206.629 153.234-206.629 286.72 0 166.949 135.314 302.080 302.080 302.080 166.949 0 302.080-135.314 302.080-302.080 0-133.12-86.491-246.309-206.446-286.354z" />
<glyph unicode="&#xe964;" glyph-name="facebook" d="M79.36 879.726v-866.926h866.926v866.926h-866.926zM655.36 646.766c0 0-48.091 0-67.291 0-23.771 0-28.709-9.691-28.709-34.377 0-20.48 0-59.429 0-59.429h96l-9.326-104.229h-86.857v-311.589h-124.343v310.309h-64.731v105.509h64.731c0 0 0 15.177 0 83.2 0 78.080 41.691 118.857 134.217 118.857 15.177 0 86.126 0 86.126 0v-108.251z" />
<glyph unicode="&#xe965;" glyph-name="googleplus" d="M530.651 265.143c0-53.394-43.337-95.086-133.12-95.086-70.217 0-120.869 44.434-120.869 97.829 0 52.297 59.429 97.463 129.646 96.731 77.897-0.183 124.343-48.64 124.343-99.474zM947.566 880.823v-869.303h-869.303v869.303h869.303zM591.177 271.36c0 49.371-18.469 81.554-74.057 123.246-56.503 41.143-70.217 64.549-16.457 106.24 30.354 23.406 51.749 54.857 51.749 93.44 0 42.057-17.189 80.274-49.554 98.926h45.714l39.131 40.96c0 0-147.383 0-174.811 0-109.166 0-162.743-65.463-162.743-137.326 0-73.509 50.469-131.474 149.029-131.474-15.36-30.903-9.143-59.246 15.909-79.726-168.229 0-204.251-73.874-204.251-130.743 0-73.691 84.663-117.577 186.331-117.577 138.789-0.183 194.011 73.509 194.011 134.034zM819.2 645.303h-80.64v80.64h-40.411v-80.64h-80.64v-40.411h80.64v-80.64h40.411v80.64h80.64v40.411zM482.011 591.543c-8.046 61.806-48.457 112.64-95.634 114.103s-78.811-45.897-70.583-107.886c8.046-61.806 52.846-105.143 100.023-106.606 47.36-1.463 74.423 38.4 66.194 100.389z" />
<glyph unicode="&#xe966;" glyph-name="share" d="M751.543 646.217c-35.657 0-69.12-9.326-98.194-25.783-19.2-10.789-42.789-10.24-61.257 1.646l-207.543 132.937c-16.091 10.24-26.149 27.611-27.246 46.629-4.389 74.057-65.829 134.034-142.263 134.034-78.811 0-142.629-63.817-142.629-142.629 0-100.937 101.851-169.143 194.377-132.754 17.737 6.949 37.669 4.937 53.76-5.303l178.651-114.286c32.366-20.846 52.297-56.686 52.297-95.269 0 0 0 0 0 0 0.183-37.303-18.834-72.229-50.286-92.343l-180.663-115.749c-16.091-10.24-36.023-12.251-53.76-5.303-92.709 36.389-194.377-32-194.377-132.754 0-78.811 63.817-142.629 142.629-142.629 76.434 0 138.057 59.977 142.263 134.034 1.097 19.017 11.337 36.389 27.246 46.629l207.543 132.937c18.469 11.886 42.24 12.617 61.257 1.646 29.074-16.457 62.537-25.783 98.194-25.783 110.446 0 200.046 89.6 200.046 200.046s-89.6 200.046-200.046 200.046z" />
<glyph unicode="&#xe967;" glyph-name="twitter" d="M954.514 720.64c-32.549-14.446-67.474-24.137-104.229-28.526 37.486 22.491 66.194 57.966 79.909 100.389-35.109-20.846-73.874-35.84-115.2-44.069-33.097 35.291-80.274 57.234-132.571 57.234-117.211 0-203.337-109.349-176.823-222.903-150.857 7.497-284.709 79.909-374.126 189.623-47.543-81.554-24.686-188.343 56.137-242.286-29.806 0.914-57.783 9.143-82.286 22.674-2.011-84.114 58.331-162.743 145.554-180.297-25.6-6.949-53.577-8.594-81.92-3.109 23.040-72.046 90.149-124.526 169.509-125.989-76.434-59.794-172.617-86.491-268.983-75.154 80.274-51.566 175.726-81.554 278.309-81.554 337.006 0 527.543 284.709 516.023 539.977 35.474 25.6 66.194 57.6 90.697 93.989z" />
<glyph unicode="&#xe968;" glyph-name="image" d="M922.010 729.6v-568.73h-817.562v568.73h817.562zM1020.314 828.109h-1014.17v-765.542h1014.374v765.542h-0.205zM449.741 238.49c-64.717 11.059-114.278 67.379-114.278 135.373v107.52l114.278-113.459v-129.434zM535.347 326.349v117.555c114.688 21.504 118.989 145.818 83.968 210.125l-57.344-63.078-49.562 63.078-46.080-63.078-58.778 63.078c-33.997-62.669-31.334-188.416 83.968-210.125v-207.258h62.259c75.981 0 137.421 61.645 137.421 137.421v107.52l-155.853-155.238z" />
<glyph unicode="&#xe969;" glyph-name="refresh2" d="M331.776 826.266c-129.638-80.282-203.571-215.654-210.739-356.966h-117.146l187.802-188.621 188.621 188.621h-116.122c6.963 93.594 56.934 182.067 142.95 235.52 142.541 88.269 329.728 44.442 417.997-98.099s44.442-329.728-98.099-417.997c-130.253-80.896-298.189-50.995-393.421 64.102l-100.762-102.81c141.722-159.949 381.952-199.475 569.549-83.149 209.715 130.048 274.227 405.504 144.179 615.219-129.638 209.715-405.299 274.227-614.81 144.179z" />
<glyph unicode="&#xe96a;" glyph-name="connection" d="M512 951.808c-278.323 0-503.808-225.485-503.808-503.808s225.485-503.808 503.808-503.808 503.808 225.485 503.808 503.808-225.485 503.808-503.808 503.808zM376.832 95.334l123.699 288.768-251.904-45.261 395.674 461.824-119.603-281.395 250.675 36.659-398.541-460.595z" />
<glyph unicode="&#xe96b;" glyph-name="analysis2" d="M898.253 725.709c7.578-2.048 15.565-3.072 23.757-3.072 52.634 0 95.232 42.598 95.232 95.232s-42.598 95.027-95.232 95.027c-44.646 0-82.125-30.925-92.365-72.499v75.366h-6.349v-149.504h-143.36v149.504h-6.554v-149.504h-143.36v149.504h-6.554v-149.504h-143.36v149.504h-6.554v-149.504h-143.36v149.504h-6.554v-149.504h-136.192v151.142h-77.619v-971.981h49.357l0.614-0.614 0.41 0.614h919.347v77.414h-149.914v133.325h146.227v6.554h-146.227v144.384h146.227v6.554h-146.227v144.384h146.227v6.554h-146.227v144.384h146.227v6.554h-146.227v6.758l68.608 103.424zM846.438 759.91l-16.794-25.395v25.395h16.794c0 0 0 0 0 0zM829.645 794.931c2.458-10.24 6.758-19.866 12.288-28.467h-12.288v28.467zM823.296 759.91v-35.226l-72.294-109.363h-71.066v144.589h143.36zM339.763 412.57c-52.634 0-95.232-42.598-95.232-95.232 0-1.229 0.205-2.458 0.205-3.891h-14.336v144.384h143.36v-51.814c-10.65 4.301-21.914 6.554-33.997 6.554zM245.146 307.098c1.638-14.95 6.554-28.672 14.336-40.755l-29.082-33.178v73.728h14.746zM307.814 227.84c10.035-3.482 20.685-5.53 31.744-5.53 12.083 0 23.347 2.253 33.997 6.349v-65.946h-122.88l57.139 65.126zM380.109 231.322c29.286 13.926 50.586 42.189 54.272 75.776h89.088v-144.384h-143.36v68.608zM434.79 313.651c0 1.229 0.205 2.458 0.205 3.891 0 0.41 0 1.024 0 1.434l88.678 40.55v-45.67h-88.883zM413.696 377.344c-9.011 11.059-20.48 20.070-33.382 26.214v54.682h143.36v-30.72l-109.978-50.176zM530.022 458.035h60.621l-60.621-27.648v27.648zM596.582 470.118c0-1.843 0.205-3.686 0.205-5.53h-66.765v144.384h143.36v-45.466c-43.827-8.602-76.8-47.104-76.8-93.389zM523.469 464.589h-143.36v144.384h143.36v-144.384zM373.76 464.589h-143.36v144.384h143.36v-144.384zM223.846 464.589h-136.397v144.384h136.602v-144.384zM223.846 458.035v-144.384h-136.397v144.384h136.397zM223.846 307.098v-81.101l-55.706-63.283h-80.691v144.384h136.397zM162.611 156.16l-75.366-85.811v85.811h75.366zM245.146 156.16h128.614v-133.325h-143.36v116.531l14.746 16.794zM380.109 156.16h143.36v-133.325h-143.36v133.325zM530.022 156.16h143.36v-133.325h-143.36v133.325zM530.022 162.714v144.384h143.36v-144.384h-143.36zM530.022 313.651v48.742l92.774 42.394c13.312-13.926 30.925-23.962 50.586-27.853v-63.078h-143.36zM715.571 562.278c-7.578 2.048-15.565 3.072-23.757 3.072-4.096 0-7.987-0.41-11.878-0.819v44.442h66.765l-31.13-46.694zM673.382 759.91v-144.384h-143.36v144.384h143.36zM523.469 759.91v-144.384h-143.36v144.384h143.36zM373.76 759.91v-144.384h-143.36v144.384h143.36zM223.846 759.91v-144.384h-136.397v144.384h136.397zM223.846 131.994v-109.158h-95.642l95.642 109.158zM823.296 22.835h-143.36v133.325h143.36v-133.325zM823.296 162.714h-143.36v144.384h143.36v-144.384zM823.296 313.651h-143.36v62.259c3.891-0.41 7.782-0.819 11.878-0.819 48.538 0 88.474 36.25 94.413 83.149h37.069v-144.589zM823.296 464.589h-36.454c0.205 1.843 0.205 3.686 0.205 5.53 0 21.709-7.373 41.779-19.661 57.754l53.658 81.101h2.253v-144.384z" />
<glyph unicode="&#xe96c;" glyph-name="chart-scatter" d="M635.904 628.838c13.107 0 23.757 10.854 23.757 23.962s-10.65 23.757-23.757 23.757c-13.107 0-23.962-10.854-23.962-23.757 0-13.107 10.854-23.962 23.962-23.962zM665.805 416.461c-23.142 0-44.032-9.421-59.392-24.576-15.155-15.155-24.576-36.25-24.576-59.392s9.421-44.032 24.576-59.392c15.155-15.155 36.25-24.576 59.392-24.576s44.032 9.421 59.392 24.576c15.155 15.155 24.576 36.25 24.576 59.392s-9.421 44.032-24.576 59.392c-15.36 15.155-36.25 24.576-59.392 24.576zM297.37 159.846c23.142 0 44.237 9.421 59.392 24.576s24.576 36.25 24.576 59.392c0 23.142-9.421 44.237-24.576 59.392s-36.25 24.576-59.392 24.576c-22.938 0-44.032-9.626-59.392-24.576-15.155-15.155-24.576-36.25-24.576-59.392 0-22.938 9.421-44.032 24.576-59.392 15.155-15.155 36.25-24.576 59.392-24.576zM626.483 540.16c0-21.709 17.818-39.526 39.526-39.526 21.914 0 39.526 17.818 39.526 39.526 0 21.914-17.613 39.526-39.526 39.526-21.709 0.205-39.526-17.613-39.526-39.526zM731.75 429.158c13.107 0 23.757 10.65 23.757 23.757s-10.65 23.757-23.757 23.757c-13.107 0-23.757-10.65-23.757-23.757 0-13.312 10.65-23.757 23.757-23.757zM941.67 670.822c21.914 0 39.731 17.613 39.731 39.526s-17.818 39.526-39.731 39.526c-21.914 0-39.526-17.818-39.526-39.526 0-21.914 17.818-39.526 39.526-39.526zM816.128 414.413c-21.914 0-39.526-17.818-39.526-39.731s17.818-39.526 39.526-39.526c21.914 0 39.731 17.818 39.731 39.526 0 21.914-17.818 39.731-39.731 39.731zM986.317-5.222h-927.539v927.334c0 13.107-10.65 23.757-23.757 23.757s-23.757-10.65-23.757-23.757v-951.091c0-13.107 10.65-23.757 23.757-23.757h951.296c13.107 0 23.757 10.65 23.757 23.757 0 13.312-10.854 23.757-23.757 23.757zM333.21 337.613c13.107 0 23.757 10.65 23.757 23.757s-10.65 23.757-23.757 23.757c-13.107 0-23.757-10.65-23.757-23.757s10.65-23.757 23.757-23.757zM405.094 255.078c0-21.914 17.613-39.526 39.526-39.526 21.709 0 39.526 17.818 39.526 39.526 0 21.914-17.818 39.731-39.526 39.731-21.914 0-39.526-17.818-39.526-39.731zM204.8 83.046c12.902 0 23.757 10.854 23.757 23.757 0 13.107-10.854 23.962-23.757 23.962-13.107 0-23.757-10.854-23.757-23.962s10.65-23.757 23.757-23.757zM600.064 432.435c13.107 0 23.962 10.65 23.962 23.757s-10.854 23.757-23.962 23.757c-13.107 0-23.757-10.65-23.757-23.757 0-13.312 10.65-23.757 23.757-23.757zM515.686 253.235c0-13.107 10.65-23.757 23.757-23.757s23.757 10.65 23.757 23.757c0 13.107-10.65 23.757-23.757 23.757-13.312 0-23.757-10.65-23.757-23.757zM132.71 123.392c21.914 0 39.526 17.818 39.526 39.731s-17.818 39.526-39.526 39.526c-21.914 0-39.731-17.818-39.731-39.526 0-21.914 17.818-39.731 39.731-39.731zM471.654 322.253c22.938 0 44.032 9.421 59.187 24.576s24.576 36.25 24.576 59.392c0 22.938-9.421 44.032-24.576 59.187s-36.25 24.576-59.187 24.576c-23.142 0-44.237-9.421-59.392-24.576s-24.576-36.25-24.576-59.187c0-23.142 9.421-44.237 24.576-59.392s36.25-24.576 59.392-24.576zM849.715 451.891c23.142 0 44.237 9.216 59.392 24.576 15.155 15.155 24.576 36.25 24.576 59.392 0 22.938-9.421 44.032-24.576 59.187s-36.25 24.576-59.392 24.576c-22.938 0-44.032-9.421-59.187-24.576s-24.576-36.25-24.576-59.187c0-23.142 9.421-44.237 24.576-59.392 15.155-15.36 36.25-24.576 59.187-24.576z" />
<glyph unicode="&#xe96d;" glyph-name="chart-radar" d="M910.336 511.898l-0.41-1.229-0.205-0.819-0.41-0.819-151.962-402.842 64.512-88.883c7.578-10.445 5.12-25.395-5.12-32.973-10.65-7.782-25.395-5.325-32.973 5.12l-64.922 89.088h-418.202l-64.512-88.678c-7.782-10.65-22.528-12.902-32.973-5.12-10.65 7.578-12.902 22.528-5.12 32.973l64.512 88.883-0.205 0.614-149.299 402.637-0.205 0.819-83.968 27.443c-12.493 4.096-19.251 17.408-15.155 29.901 4.096 12.288 17.203 19.046 29.696 14.95l83.968-27.238 1.229 0.819 357.376 265.011v83.149c0 12.902 10.65 23.757 23.757 23.757s23.757-10.65 23.757-23.757v-82.944l0.41-0.205 361.882-264.602 80.282 26.010c12.493 4.096 25.805-2.662 29.901-14.95 4.096-12.493-2.867-25.805-15.36-29.901l-80.282-26.214zM485.99 439.194v284.467l-266.854-197.632 266.854-86.835zM533.299 724.275v-284.877l269.926 87.654-269.926 197.222zM814.285 480.768l-266.24-86.63 153.805-211.558 112.435 298.189zM661.504 157.594l-151.962 208.896-151.757-208.896h303.718zM318.054 182.989l153.6 211.149-263.373 85.606 109.773-296.755z" />
<glyph unicode="&#xe96e;" glyph-name="chart-area" d="M120.218 148.378l229.99 338.125c12.288 18.227 36.864 22.733 55.091 10.65 4.301-3.072 7.987-6.758 10.854-11.059l42.189-62.259 154.419 227.123c12.288 18.227 36.864 22.938 55.091 10.65 4.301-3.072 7.987-6.758 10.854-11.059l46.49-68.198 178.79 262.963c12.083 18.227 36.864 22.938 54.886 10.65 11.264-7.578 17.408-20.070 17.408-32.973h0.205v-700.211c0-22.118-17.818-39.936-39.731-39.936h-785.613c-22.118 0-39.936 17.818-39.936 39.936 0 10.035 3.277 18.637 9.011 25.6v0zM38.707-54.17h955.392c13.107 0 23.962 10.65 23.962 23.962s-10.854 23.962-23.962 23.962h-932.045v931.84c0 13.312-10.854 23.962-23.962 23.962-13.312 0-23.962-10.65-23.962-23.962v-956.006c0-13.312 10.854-23.962 23.962-23.962h0.614v0.205z" />
<glyph unicode="&#xe96f;" glyph-name="chart-column" d="M993.894-6.042h-932.25v932.25c0 13.312-10.854 23.962-23.962 23.962-13.107-0.205-23.962-10.854-23.962-23.962v-956.211c0-13.312 10.854-23.962 23.962-23.962h956.416c13.312 0 23.962 10.65 23.962 23.962-0.205 13.312-10.854 23.962-24.166 23.962zM837.427 61.133h113.050c13.312 0 23.962 10.854 23.962 23.962v149.299c0 13.312-10.65 23.962-23.962 23.962h-113.050c-13.107 0-23.962-10.65-23.962-23.962v-149.299c0-13.312 10.854-23.962 23.962-23.962zM628.122 61.133h113.050c13.312 0 23.962 10.854 23.962 23.962v593.92c0 13.107-10.65 23.962-23.962 23.962h-113.050c-13.312 0-23.962-10.854-23.962-23.962v-593.92c0-13.312 10.65-23.962 23.962-23.962zM151.142 61.133h113.050c13.312 0 23.962 10.854 23.962 23.962v726.016c0 13.312-10.65 23.962-23.962 23.962h-113.050c-13.107 0-23.962-10.854-23.962-23.962v-726.016c0-13.312 10.854-23.962 23.962-23.962zM360.653 61.133h112.845c13.312 0 23.962 10.854 23.962 23.962v298.803c0 13.312-10.65 23.962-23.962 23.962h-112.845c-13.312 0-23.962-10.65-23.962-23.962v-298.803c0-13.312 10.65-23.962 23.962-23.962z" />
<glyph unicode="&#xe970;" glyph-name="chart-bar" d="M991.027-5.222h-930.406v930.406c0 13.107-10.65 23.757-23.757 23.757s-23.962-10.445-23.962-23.757v-954.368c0-13.107 10.65-23.757 23.757-23.757h954.368c13.107 0 23.757 10.65 23.757 23.757 0 13.312-10.445 23.962-23.757 23.962zM151.552 745.165h724.787c13.107 0 23.757 10.854 23.757 23.757v112.64c0 13.107-10.65 23.757-23.757 23.757h-724.787c-13.107 0-23.757-10.65-23.757-23.757v-112.64c0-12.902 10.65-23.757 23.757-23.757zM151.552 269.21h592.896c13.107 0 23.757 10.854 23.757 23.962v112.64c0 13.107-10.65 23.757-23.757 23.757h-592.896c-13.107 0-23.757-10.65-23.757-23.757v-112.64c0-13.312 10.65-23.962 23.757-23.962zM151.552 536.269h298.189c13.107 0 23.962 10.854 23.962 23.757v112.64c0 13.107-10.854 23.962-23.962 23.962h-298.189c-13.107 0-23.757-10.854-23.757-23.962v-112.64c0-13.107 10.65-23.757 23.757-23.757zM151.552 60.314h149.094c13.107 0 23.757 10.65 23.757 23.757v112.64c0 13.107-10.65 23.757-23.757 23.757h-149.094c-13.107 0-23.757-10.65-23.757-23.757v-112.64c0-13.107 10.65-23.757 23.757-23.757z" />
<glyph unicode="&#xe971;" glyph-name="chart-line" d="M213.811 586.65c34.406 0 64.717-23.552 73.523-56.32l90.317-26.214 86.016 140.083c11.469 18.842 35.635 24.576 54.477 13.107l1.843-1.024 147.046-100.762 117.35 206.848c-6.144 11.059-9.626 23.552-9.626 36.864 0 21.094 8.602 40.141 22.323 54.067 13.722 13.722 32.973 22.323 53.862 22.323 41.779 0 76.186-34.611 76.186-76.39 0-21.094-8.397-40.141-22.323-53.862-13.107-13.312-31.539-21.709-51.405-22.323l-137.83-243.098c-0.819-1.434-1.434-2.458-2.458-3.891-12.493-18.022-37.274-22.733-55.296-10.445l-148.48 101.581-52.838-86.016 52.019-14.95c4.71-1.434 8.602-3.482 12.493-6.144v0.205l169.37-124.314 90.317 13.722c11.674 27.853 39.526 46.694 70.246 46.694 21.094 0 40.141-8.602 53.862-22.323 13.926-13.926 22.323-32.768 22.323-54.067 0-41.779-34.406-76.186-76.186-76.186-21.094 0-40.141 8.602-53.862 22.323l-4.506 4.71-106.496-16.179c-10.035-1.434-20.685 0.819-29.491 7.168l-177.152 130.048-65.741 19.251-132.096-215.040c5.325-10.445 8.397-22.323 8.397-34.816 0-21.094-8.602-40.141-22.323-53.862s-32.768-22.323-53.862-22.323c-41.779 0-76.39 34.611-76.39 76.186 0 41.779 34.611 76.39 76.39 76.39h0.205l120.627 196.403-69.427 20.070c-13.517-12.493-31.744-20.070-51.405-20.070-41.779 0-76.39 34.611-76.39 76.39 0 41.574 34.406 76.186 76.39 76.186v0zM35.226-53.555h955.187c13.312 0 23.962 10.65 23.962 23.962s-10.854 23.962-23.962 23.962h-931.226v931.226c0 13.312-10.65 23.962-23.962 23.962-13.107 0-23.962-10.65-23.962-23.962v-955.187c0.205-13.312 10.854-23.962 23.962-23.962z" />
<glyph unicode="&#xe972;" glyph-name="info-message" d="M585.523 279.654h-121.446v258.048h121.446v-258.048zM524.698 594.842c-36.25 0-65.536 29.286-65.536 65.536s29.286 65.536 65.536 65.536c36.25 0 65.536-29.286 65.536-65.536s-29.286-65.536-65.536-65.536zM9.421-17.306c40.96 81.306 86.221 192.922 83.968 270.746-55.091 66.355-86.221 151.962-86.221 239.206 0 245.76 238.387 425.37 505.242 425.37 265.216 0 505.242-178.381 505.242-425.37 0-257.229-283.443-497.664-672.358-402.022-70.656-43.827-226.304-87.859-335.872-107.93zM512.41 819.507c-224.461 0-406.938-146.637-406.938-327.066 0-94.822 40.96-154.624 98.714-213.606-11.674-87.45-39.936-163.43-39.936-163.43s83.354 22.118 178.176 77.414c362.496-96.051 576.922 113.050 576.922 299.622 0 180.429-182.477 327.066-406.938 327.066z" />
<glyph unicode="&#xe973;" glyph-name="report" d="M790.528 246.272h-389.53v72.704h389.53v-72.704zM790.528 387.584h-389.53v72.704h389.53v-72.704zM790.528 526.438h-389.53v72.499h389.53v-72.499zM305.152 46.387v641.434h578.97c0 0 0-322.97 0-399.77 0-123.29-169.574-81.92-169.574-81.92s40.141-159.744-77.414-159.744c-77.619 0-45.67 0-331.981 0zM980.992 291.738v492.749h-772.71v-834.97h430.285c164.864 0 342.426 193.536 342.426 342.221zM129.229 48.435v812.032h752.435v84.992h-837.018v-897.024h84.582z" />
<glyph unicode="&#xe974;" glyph-name="menu" d="M966.246 651.981h-908.493v143.36h908.493v-143.36zM966.246 519.68h-908.493v-143.36h908.493v143.36zM966.246 244.019h-908.493v-143.36h908.493v143.36z" />
<glyph unicode="&#xe975;" glyph-name="report-build" d="M420.864 554.086c58.573 254.771 350.003 306.79 350.003 306.79v85.811l173.875-173.466-173.875-173.67v85.811c0 0-225.485 2.048-350.003-131.277zM775.373 501.453c0-95.027 0-186.778 0-216.474 0-137.626-169.984-82.534-169.984-82.534s52.019-165.888-76.39-165.888c-69.837 0-104.858 0-362.701 0v723.763h280.781c28.058 32.154 61.235 61.44 99.123 87.245h-466.944v-898.253h451.379c148.685 0 331.981 194.15 331.981 328.090v311.091c-40.141-40.141-16.384-16.179-87.245-87.040zM682.394 296.653h-422.912v65.331h422.912v-65.331zM682.394 439.194h-422.912v65.331h422.912v-65.331z" />
<glyph unicode="&#xe976;" glyph-name="jennifer-server" d="M846.643-39.424c40.55 16.179 122.266 141.926 146.842 225.075 24.371 83.149 56.32 70.861-34.202 173.67-90.522 102.605-122.266 212.787-176.128 225.075s-161.382-10.854-151.552 77.21c0 0 24.166 30.515 29.491 54.477 9.83 44.646 4.915 64.102 12.083 77.619 7.373 13.517 6.144 24.371-2.458 57.549-8.602 32.973-47.718 137.011-156.467 88.064-108.954-48.947-55.091-178.586-39.117-199.27s42.803-47.718 45.261-65.946c2.458-18.432-7.373-50.176-56.32-81.92s-113.664-90.522-123.494-176.128c-9.83-85.606-13.517-99.123-57.344-52.634-44.032 46.49-69.632 95.437-84.378 113.664-14.746 18.432-111.206 25.6-137.011 32.973-25.6 7.373-63.488 19.661-56.32 7.373 7.373-12.288 58.778-20.89 83.149-44.032 24.371-23.347 55.091-19.661 74.547-26.829 19.456-7.373 57.344-47.718 63.488-79.462s12.288-62.259 7.373-74.547c-4.915-12.288 13.517-26.829 30.515-48.947 17.203-21.914 75.776-109.978 100.352-107.725 24.371 2.458 44.032 6.144 68.403 36.659s36.659-8.602 31.744-35.43c-1.843-10.035-15.565-51.61-31.334-112.23-9.216-35.226 17.203-69.632 53.658-69.632 0-0.41 322.765-9.421 359.219 5.325zM779.264 218.419c8.602 58.778 29.286 111.206 29.286 111.206s9.83 25.6 32.973 6.144c23.142-19.661 84.378-78.234 86.835-97.894s-15.974-140.698-31.744-163.84c-15.974-23.347-35.43-55.091-77.005-29.286s-48.742 115.098-40.346 173.67z" />
<glyph unicode="&#xe977;" glyph-name="user" d="M864.461 193.638c-137.216 31.539-264.806 59.392-202.957 175.923 188.211 354.918 49.766 544.563-148.89 544.563-202.752 0-337.715-197.018-148.89-544.563 63.693-117.35-68.813-144.998-202.957-175.923-137.216-31.744-126.771-104.038-126.771-235.11h956.826c0.205 131.072 10.65 203.366-126.362 235.11z" />
<glyph unicode="&#xe978;" glyph-name="rule" d="M1010.893 448.205c0-274.432-222.413-497.050-497.050-497.050s-496.845 222.618-496.845 497.050 222.618 497.050 497.050 497.050 496.845-222.618 496.845-497.050zM914.432 448.205c0 221.389-179.2 400.589-400.384 400.589-221.389 0-400.384-179.2-400.384-400.384 0-221.389 179.2-400.384 400.384-400.384 221.389-0.205 400.384 178.995 400.384 400.179zM712.294 661.402l-279.962-280.166-121.242 121.446-89.907-89.907 211.354-211.354 370.074 370.074-90.317 89.907z" />
<glyph unicode="&#xe979;" glyph-name="profile" d="M293.478 364.237l34.816 212.173 35.635-152.781c3.482-15.565 25.19-17.408 31.13-2.253l32.154 82.33c0 0 15.565-36.25 18.432-42.394s6.144-10.24 16.179-10.24h39.526v32.768h-28.877l-30.925 69.222c-5.734 13.517-24.986 13.107-30.31-0.41l-27.238-69.837-42.189 186.368c-3.891 17.613-29.286 16.589-32.154-1.024l-34.816-215.45-35.635 132.506c-3.891 15.77-26.419 16.794-31.334 1.024l-26.624-102.81h-30.31v-32.768h43.213c5.939 0 12.288 4.71 13.926 10.445l15.155 54.477 38.298-152.576c4.301-17.408 29.286-16.179 31.949 1.229zM877.158 211.456c18.842 29.696 29.696 64.922 29.696 102.605 0 105.882-86.221 192.102-192.102 192.102s-192.102-86.221-192.102-192.102c0-105.882 86.221-192.102 192.102-192.102 35.84 0 69.427 9.83 98.099 27.034l129.638-129.638 63.283 63.283-128.614 128.819zM714.957 193.638c-66.355 0-120.422 54.067-120.422 120.422s54.067 120.422 120.422 120.422c66.355 0 120.422-54.067 120.422-120.422s-54.067-120.422-120.422-120.422zM473.498 206.746h-459.776v622.797h805.888v-272.794c-25.6 11.059-53.248 18.227-82.33 20.685v169.779h-641.024v-458.342h355.738c2.458-28.877 10.035-56.73 21.504-82.125zM601.088 75.674h-380.928l82.33 82.33h199.27c25.805-35.021 59.802-63.488 99.328-82.33z" />
<glyph unicode="&#xe97a;" glyph-name="device" d="M923.648 799.846c0 28.467-23.142 51.814-51.814 51.814h-712.704c-28.467 0-51.814-23.142-51.814-51.814v-501.76h816.333v501.76zM853.811 367.923h-676.659v413.696h676.659v-413.696zM926.31 259.174h-821.658l-77.414-135.987c-9.216-15.974-9.011-35.635 0.205-51.61s26.214-25.805 44.646-25.805h887.194c18.432 0 35.43 9.83 44.851 25.805s9.216 35.635 0 51.61l-77.824 135.987zM416.973 119.501l20.685 60.826h156.467l20.685-60.826h-197.837z" />
<glyph unicode="&#xe97b;" glyph-name="caution2" d="M481.28 875.008l-463.667-803.226c-14.541-25.19 3.686-56.73 32.768-56.73h927.539c29.082 0 47.309 31.539 32.768 56.73l-464.077 803.226c-14.541 25.19-50.79 25.19-65.331 0zM463.462 590.336h101.171v-306.995h-101.171v306.995zM514.048 125.030c-30.106 0-54.682 24.371-54.682 54.682 0 30.106 24.371 54.682 54.682 54.682 30.106 0 54.682-24.371 54.682-54.682-0.205-30.31-24.576-54.682-54.682-54.682z" />
</font>
</defs>
</svg>
