<?xml version="1.0" encoding="UTF-8" standalone="no"?>
<!-- (c) ammap.com | SVG map of South Korea - Low -->

<svg
   xmlns:amcharts="http://amcharts.com/ammap"
   xmlns:dc="http://purl.org/dc/elements/1.1/"
   xmlns:cc="http://creativecommons.org/ns#"
   xmlns:rdf="http://www.w3.org/1999/02/22-rdf-syntax-ns#"
   xmlns:svg="http://www.w3.org/2000/svg"
   xmlns="http://www.w3.org/2000/svg"
   xmlns:sodipodi="http://sodipodi.sourceforge.net/DTD/sodipodi-0.dtd"
   xmlns:inkscape="http://www.inkscape.org/namespaces/inkscape"
   version="1.1"
   id="svg3088"
   inkscape:version="0.48.4 r9939"
   width="100%"
   height="100%"
   sodipodi:docname="southKoreaLow.svg">
  <metadata
     id="metadata3114">
    <rdf:RDF>
      <cc:Work
         rdf:about="">
        <dc:format>image/svg+xml</dc:format>
        <dc:type
           rdf:resource="http://purl.org/dc/dcmitype/StillImage" />
        <dc:title></dc:title>
      </cc:Work>
    </rdf:RDF>
  </metadata>
  <sodipodi:namedview
     pagecolor="#ffffff"
     bordercolor="#666666"
     borderopacity="1"
     objecttolerance="10"
     gridtolerance="10"
     guidetolerance="10"
     inkscape:pageopacity="0"
     inkscape:pageshadow="2"
     inkscape:window-width="1535"
     inkscape:window-height="876"
     id="namedview3112"
     showgrid="false"
     showguides="true"
     inkscape:guide-bbox="true"
     inkscape:zoom="0.5"
     inkscape:cx="372.04724"
     inkscape:cy="230.23976"
     inkscape:window-x="65"
     inkscape:window-y="24"
     inkscape:window-maximized="1"
     inkscape:current-layer="g3094" />
  <defs
     id="defs3090">
    <style
       type="text/css"
       id="style3092">
			.land
			{
				fill: #CCCCCC;
				fill-opacity: 1;
				stroke:white;
				stroke-opacity: 1;
				stroke-width:0.5;
			}
		</style>
    <amcharts:ammap
       projection="mercator"
       leftLongitude="125.384480"
       topLatitude="38.612409"
       rightLongitude="130.921802"
       bottomLatitude="33.194315" />
    <!-- All areas are listed in the line below. You can use this list in your script. -->
    <!--{id:"KR-11"},{id:"KR-26"},{id:"KR-27"},{id:"KR-28"},{id:"KR-29"},{id:"KR-30"},{id:"KR-31"},{id:"KR-41"},{id:"KR-42"},{id:"KR-43"},{id:"KR-44"},{id:"KR-45"},{id:"KR-46"},{id:"KR-47"},{id:"KR-48"},{id:"KR-49"}-->
  </defs>
  <g
     id="g3094">
    <path
       id="KR-11"
       title="Seoul"
       class="land"
       d="m 133.45,208.68 0,0 3.8,3.83 0.77,5.4 1.12,0.43 2.42,-1.25 3.1,5.83 1.81,-0.73 3.6,0.4 4.17,-2.31 3.07,-0.29 0.69,2.93 3.65,-2.08 2.99,-0.26 1.68,-1.58 -0.02,-1.15 1.26,-0.3 1.28,-1.72 -1.18,-1.08 0.4,-2.51 3.2,-2.14 -1.45,-3.56 -4.8,2.17 -1.55,-0.42 1.42,-5.35 -2.08,-4.72 -0.1,-4.52 -2.1,-1.29 -4.97,-0.2 -2.17,1.52 -1.63,2.77 -0.08,3.01 -1.1,0.79 -5.15,0.4 -1.63,4.52 -3.62,1.61 -5.07,-3.2 -2.18,3.47 0,0 -0.13,1.25 z"
       position="152,209"
       inkscape:connector-curvature="0"
       style="fill:#cccccc;fill-opacity:1;stroke:#ffffff;stroke-width:0.5;stroke-opacity:1" />
    <path
       id="KR-26"
       title="Busan"
       class="land"
       d="m 361.82,463.22 0.04,0.76 h 3.97 l 1.34,1.34 0,0 1,1.67 -0.17,1.51 -1.5,1.09 -0.84,5.03 -1.86,0.99 1.6,0.19 0.31,1.63 -1.42,3.04 -0.97,-0.51 -0.6,1.41 0.79,1.38 -0.55,1.73 -2.34,0.67 -0.58,2.21 -1.13,0.7 -1.65,-0.61 -1.29,0.93 -1.65,-1.09 0.11,0.8 -1.63,0.22 -0.6,2.08 1.02,0.16 0.52,1.5 -0.13,2.62 -1.18,-0.64 -1.92,0.32 -0.32,-0.38 -1.94,-0.26 0.21,-1.98 -0.71,-0.45 -1.79,1.31 -1.71,2.68 -0.21,1.79 -0.81,0.1 0.68,1.44 -0.71,1.15 -1.1,-3.58 -1.08,0.19 0.92,3.86 -0.94,0.42 -0.16,-1.47 -0.97,-0.35 0.21,1.66 -1.16,-0.13 0.68,0.93 -1.18,0.83 0.1,-1.76 -0.73,-0.38 -0.82,-3.32 0.55,-3.04 -2.08,2.43 -0.08,-2.88 -1.97,3.61 h -1.65 l 1.02,-4.54 -1.05,-0.38 -0.97,4.92 -4.44,-0.51 -1.5,-1.63 -2.94,2.17 -0.76,-0.89 1.84,-1.53 -1.26,0.19 0.32,-2.32 0,0 6.93,-2.61 0.43,-5.01 2.29,-0.29 3.87,-2.43 4.15,-0.14 4.06,-4.94 3.95,-2.48 1.84,0.32 3.61,-6.64 4.87,-0.57 0.57,-1.86 2.95,-2.71 0,0 0.3,0.33 z m -14.5,30.88 1.86,1.6 -0.29,1.63 1.94,1.63 -0.5,1.08 h -0.89 l -0.47,-1.18 -0.63,0.26 -0.58,-1.28 -3.13,-2.3 2.69,-1.44 z"
       x="349"
       y="483"
       inkscape:connector-curvature="0"
       style="fill:#cccccc;fill-opacity:1;stroke:#ffffff;stroke-width:0.5;stroke-opacity:1" />
    <path
       id="KR-27"
       title="Daegu"
       class="land"
       d="m 297.68,431.85 -1.59,4.59 -1.07,0.6 0,0 -2.42,-0.89 -1.53,0.37 0,0 -3.49,2.5 -2.41,0.06 0,0 -0.74,-3.43 -4.05,-4.99 0.31,-2.81 3.43,1.87 2.19,0 0.62,-2.5 -3.12,-3.43 1.25,-3.12 1.25,-2.81 5.3,-0.93 -0.31,-1.88 -2.81,-2.18 -4.68,-0.31 1.56,-5.93 2.18,-3.12 4.06,-1.87 0.62,5.61 2.5,0 3.43,-8.11 5.93,-1.25 2.81,-3.12 3.43,-0.93 3.12,0.31 3.75,3.12 0.62,7.49 1.88,4.05 -0.94,2.19 -3.43,1.25 -1.56,3.43 0,3.12 -2.5,0.31 0,1.87 1.25,1.56 0,4.06 -3.43,1.25 -1.56,1.87 -2.81,-0.31 -0.63,-2.81 -3.12,0 -2.18,1.25 -1.56,2.49 z"
       x="324"
       y="349"
       inkscape:connector-curvature="0"
       style="fill:#cccccc;fill-opacity:1;stroke:#ffffff;stroke-width:0.5;stroke-opacity:1" />
    <path
       id="KR-28"
       title="Incheon"
       class="land"
       d="m 113.39,205.14 4.15,-2.72 2.11,-2.84 2.08,0.19 7.46,6.03 0,0 3.82,1.29 0.45,1.58 0,0 0,0 0,0 -3.54,4.55 0,0 0.13,4.02 3.31,2.9 0,0 -0.45,3.79 -1.79,2.33 0,0 -2,-0.59 0.47,-1.81 -0.68,-0.53 -0.39,1.68 -0.6,-2.34 0.45,3 -1.97,2.27 -3.57,-0.49 -3.68,4.64 -4.6,0.13 -0.34,1.09 -1,-0.03 0.84,-0.26 0.52,-1.84 4.57,0.82 3.6,-4.51 -4.04,-3.16 -0.95,-4.28 -0.5,2.31 -1.47,-0.1 0.18,-2.6 -0.81,1.28 -1.21,-0.49 1.21,-4.65 2.99,-1.19 1.23,0.4 -0.92,-1.68 -2.42,1.12 0.05,-1.32 -1.02,-1.09 0.97,0.1 -0.16,-1.25 -1.23,-1.25 0.68,-0.3 0.05,-1.42 -2.78,1.65 -1,-0.16 -2.31,2.02 2.21,-2.08 3.91,-1.62 -2.01,-2.59 z m -26,1.62 1.84,1.25 0.87,-0.26 1.42,2.01 2.97,-0.43 -0.26,1.45 -2.05,-0.43 -1.86,0.63 -0.39,-0.56 -1.02,0.96 0.37,-2.11 -1.89,-2.51 z m 19.64,3.16 0.73,1.19 3.57,0.99 1.39,1.32 0.42,1.85 -2.26,1.42 -2,-0.66 -8.88,7.38 -2.86,0.56 0.34,-1.98 -0.95,-0.66 -1.23,0.82 0.89,-0.92 -0.47,-0.72 -1.6,1.25 -1.63,-0.82 0.87,-0.63 -1.55,-1.78 0.24,-1.38 1.65,-0.03 3.94,-2.8 5.57,-0.26 1.34,-0.96 0.68,-2.7 1.8,-0.48 z m -9.85,14.66 2.78,2.9 -0.84,2.14 -1.57,0.43 -0.95,-0.92 0.11,-1.94 -1.18,-0.3 0.89,-2.44 0.76,0.13 z"
       x="114"
       y="214"
       inkscape:connector-curvature="0"
       style="fill:#cccccc;fill-opacity:1;stroke:#ffffff;stroke-width:0.5;stroke-opacity:1" />
    <path
       id="KR-29"
       title="Gwangju"
       class="land"
       d="m 149.04,478.34 -4.26,-0.96 -4.45,2 -2,2.09 -1.48,0.09 -3.57,-2.09 -0.61,-2.18 -2.18,-0.08 -2.09,5.31 -2.35,-0.09 -1.74,2.09 -1.13,4.79 0.43,4.09 7.23,1.05 3.75,6.09 3.74,0 3.4,-2 3.83,0 1.48,-1.04 3.14,0.61 4.79,-4.18 1.74,-6.1 0,-1.39 -4.71,-1.22 -1.02,-4.54 z"
       x="140"
       y="488"
       inkscape:connector-curvature="0"
       style="fill:#cccccc;fill-opacity:1;stroke:#ffffff;stroke-width:0.5;stroke-opacity:1" />
    <path
       id="KR-30"
       title="Daejeon"
       class="land"
       d="m 191.13,336.42 1.56,5.47 0,0 1.46,-2.37 0,0 0.61,-0.64 0,0 1.39,0.18 -0.32,1.3 0,0 -0.07,0.64 0,0 2.86,-2.4 0,0 2.5,2.5 0,0 0.24,2.62 2.43,1.16 -0.32,1.63 2.02,2.39 -2.81,1.87 0,0 -0.94,5.62 0,0 -1.25,6.24 1.17,3.75 0,0 -3.35,2.18 -2.18,2.81 -3.75,-2.19 -2.18,-3.74 -0.63,-3.43 -1.56,0 -0.31,8.11 -0.94,2.18 -1.24,0 -0.94,-3.12 -2.5,-0.93 -1.56,-2.19 -0.31,-3.43 -2.18,-1.87 -0.31,-4.06 2.18,-2.49 -0.31,-8.74 6.86,-2.19 0.96,-6.13 0,0 z"
       x="189"
       y="352"
       inkscape:connector-curvature="0"
       style="fill:#cccccc;fill-opacity:1;stroke:#ffffff;stroke-width:0.5;stroke-opacity:1" />
    <path
       id="KR-31"
       title="Ulsan"
       class="land"
       d="m 361.02,427.42 1.8,1.47 2.98,0.9 0.24,0.82 0,0 -0.42,2.85 0,0 1.01,1.1 0,0 1.98,0.65 0,0 5.37,-2.39 0,0 8.13,2.15 0,0 2.9,0.41 0.7,1.45 -0.03,1.38 -1.13,0.78 0.53,3.14 -0.66,2.41 -1.13,0.52 0.76,0.09 -0.18,1.58 -1.21,0.51 1,0.74 -1.26,0.61 1.49,0.71 -1.02,1.18 -1,-0.41 -1.81,1.28 0.16,-2.47 -1.16,-0.9 -0.63,-2.95 -1.94,-2.13 -1.5,-0.48 2.31,2.35 -0.08,1.12 0.97,0.26 0.35,1.44 -2.37,0.13 0.53,0.71 0.97,-0.26 0.89,1.58 -2.6,3.24 -2.23,-1.7 0.76,3.01 1.16,-0.06 -0.5,0.99 1.36,-0.73 0,1.6 -1.57,1.22 1.13,1.73 -1.82,2.92 1.79,2.5 -1.5,0.87 -1.18,-0.49 -2.02,3.08 -1.08,0.07 -0.26,1.18 -1.99,-0.67 0.17,-1.51 -1,-1.68 0,0 -1.34,-1.34 -3.98,0 -0.04,-0.76 0,0 -1.54,-1.88 0,0 -3.09,-0.21 0,0 -5.66,-5.87 0,0 -3.26,-3.36 -2.4,-0.2 0,0 -2.75,0 -2.23,-1.05 -0.34,-4.83 2.23,-1.89 0,0 1.2,-1.05 0,-1.46 -1.47,-2.43 0,0 3.92,-3.09 0,0 0,0 0,0 1.66,-0.17 0,0 0,0 0,0 1.33,-0.74 -1.35,-2.48 0.37,-1.56 7.27,-3.59 z"
       x="364"
       y="445"
       inkscape:connector-curvature="0"
       style="fill:#cccccc;fill-opacity:1;stroke:#ffffff;stroke-width:0.5;stroke-opacity:1" />
    <path
       id="KR-41"
       title="Gyeonggi"
       class="land"
       d="m 79.19,183.7 -1.81,-2.08 1.52,-1.65 0.21,-2.28 1.57,-1.49 h 2.65 l 3.05,1.75 2.39,-0.66 1.08,1.19 -1.71,2.78 -1.97,1.19 -2.63,-0.33 -2.23,0.6 -1.05,1.42 -1.07,-0.44 z m 9.69,58.97 -3.44,-1.77 -1.08,1.25 3.99,2.1 2.07,-0.53 0.74,-1.21 -1.37,-0.53 -0.91,0.69 z m -6.67,-46.94 -3.12,-0.1 3.73,3.86 0.34,-0.56 -1.13,-0.83 0.18,-2.37 z m -11.89,47.6 -0.92,0.62 -0.76,-2.86 -1.1,-0.16 -1.52,6.01 1.26,-0.2 0.18,-0.79 0.39,1.28 1.16,-0.36 -0.16,1.44 3.39,-0.53 1.6,-1.87 -3.28,-2.04 -0.24,-0.54 z m 4.75,-50.27 -1.05,-0.36 -1.23,0.89 1.18,0.73 1.16,-0.5 0.87,1.49 1.86,0.33 0.29,-1.45 -1.44,-2.51 -1.64,1.38 z m 79.15,-67 -4.9,5.81 h -2.81 l -4.68,-1.87 -2.5,1.56 -5.62,4.68 -3.43,4.99 1.87,0.94 1.87,3.74 6.31,0.29 3.37,1.89 0.62,3.12 -1.25,0.94 -0.31,1.87 -4.99,-0.62 -0.31,3.74 -1.56,0.94 0.31,2.5 1.87,0.94 -0.31,6.55 -2.18,1.25 -3.12,-3.74 1.25,-4.37 -1.96,-2.47 -2.4,0.07 -0.32,2.71 -1.87,1.87 -3.48,-3.34 -0.74,0.11 0.9,4.9 -0.49,1.87 4.74,1.77 3.43,4.99 -6.55,1.87 h -2.84 l -0.96,4.55 -3,0.18 -3.07,2.46 -3.56,-0.53 -2.02,-1.61 -0.6,1.17 -1.76,0.79 1.1,1.75 -0.87,4.23 1.08,1.79 -0.5,3.11 1.16,0.53 -0.76,1.72 2.65,6.34 2.37,3.1 0,0 4.15,-2.72 2.11,-2.84 2.08,0.19 7.46,6.03 0,0 3.82,1.29 0,0 2.18,-3.46 5.07,3.2 3.63,-1.62 1.63,-4.52 5.15,-0.4 1.1,-0.79 0.08,-3 1.63,-2.77 2.18,-1.52 4.96,0.2 2.1,1.29 0.11,4.52 2.07,4.72 -1.42,5.35 1.55,0.43 4.8,-2.18 1.44,3.56 -3.2,2.14 -0.39,2.5 1.18,1.09 -1.29,1.71 -1.26,0.3 0.03,1.15 -1.68,1.58 -2.99,0.26 -3.65,2.08 -0.68,-2.93 -3.07,0.3 -4.18,2.31 -3.6,-0.39 -1.81,0.72 -3.1,-5.83 -2.42,1.25 -1.13,-0.43 -0.76,-5.4 -3.81,-3.82 0,0 -3.54,4.55 0,0 0.13,4.02 3.31,2.9 0,0 -0.45,3.79 -1.79,2.33 0,0 1.23,0.59 -3.96,-0.76 -0.89,1.05 0.81,0.63 -0.39,1.51 -4.7,2.63 0.29,1.51 -7.48,2.56 -2.94,2.24 -0.92,-0.26 0.47,0.99 -1.29,1.38 -2.89,-1.38 2.89,4.04 -0.34,2.07 -1.81,1.12 1.44,1.48 h -1.21 l 0.29,0.85 -1.08,1.08 1.65,-0.69 1.02,1.58 1.84,-3.38 3.02,1.54 0.79,-3.32 0.26,1.64 2,1.25 -0.52,1.71 0.58,0.62 0.79,-2.33 -0.34,-1.64 -2.63,-1.35 -0.63,-2.69 -2.21,-0.39 -2.13,-2 1.02,-1.81 3.2,-2.23 6.49,-2.24 9.37,4.54 3.1,-0.39 2.76,3.29 1.26,-0.43 -1,1.77 -1.58,-2 -1.92,-0.49 0.16,-0.92 -0.89,0.33 -0.34,0.79 0.95,1.28 -1.92,-0.1 0.73,1.74 -0.92,0.85 0.66,0.2 -2.23,3.35 -1.31,-0.89 0.58,-0.69 -0.6,-3.02 -2.65,0.85 -0.34,-1.08 -3.57,-0.76 -0.73,1.84 -1.71,0.36 0.39,1.74 0.92,0.59 -0.95,1.74 0.97,1.54 -1.42,0.03 -1.16,1.48 1.18,2.59 -1.08,0.95 1.5,-0.62 2.44,0.49 -2.23,2.13 1.29,0.82 -0.18,1.77 0.84,0.79 0.39,-1.61 3.36,-1.9 2.07,-3.41 2.55,0.23 1.39,-2.13 0.94,2.4 -2.15,1.31 4.67,0.07 -2.08,0.59 0.92,1.02 -0.81,-0.36 -1.37,1.31 -1.05,-0.72 -2.02,1.93 0.05,7.08 -1.58,2.75 0.37,0.79 4.31,0.33 0.29,2.1 -1.34,0.43 0.05,0.82 3.91,0.82 1.63,4.16 1.92,0.79 0.45,1.86 1.94,-0.33 1.42,0.92 0.87,4.56 0,0 3.46,-2.08 7.55,1.76 4.94,-1.77 3.01,-2.07 2.58,-0.08 2.99,1.43 3.29,3.38 5.1,0.7 0,0 2.76,-0.23 0,0 3.78,-1.7 0,0 1.7,-1.24 2.21,0.14 1.8,-1.75 0.17,-2.11 0,0 -0.3,-1.08 5.09,-3.01 0,0 0.8,-2.63 2.34,-2.57 0.8,1.19 1.48,-0.02 -0.27,2.07 1.6,-3.22 4.3,0.78 4.06,-3.74 2.5,-0.31 0.62,-7.8 h 1.56 l 1.56,1.87 h 1.87 l 2.66,-6.65 2.65,-0.58 0,0 0.62,-7.44 -0.62,-3.43 1.56,-1.25 -0.31,-7.49 3.43,-8.11 0.31,-4.06 -1.95,-0.71 -0.79,-2.38 3.14,-4.03 2.06,-0.7 0.79,-2.18 -1.65,-2.9 -8.97,-1.37 -4.31,-3.69 -2.69,-0.32 -4.11,-2.48 -3.64,1.4 -2.64,-2.84 1.75,-3.51 0.31,-4.39 -3.59,0.9 0.12,-2.02 2.7,-3.08 -1.32,-3.5 0.83,-1.96 -0.85,-2.95 0.59,-1.52 2.26,-0.75 1.8,-2.07 3.31,-1.07 1,-3.97 -0.82,-4.03 -1.44,-1.59 -4.2,-1.42 -0.08,-2.7 -0.88,-0.6 -3.22,0.34 -3.09,-1.53 -1.56,-3.02 -0.4,-7.52 -1.42,-1.97 -1.96,1.05 -2.09,-1.55 -1.49,0.2 -4.11,1.93 -4.47,-3.58 0.48,-5.32 1.09,-0.92 -1.97,-0.88 -3.66,3.74 -2.44,0.16 -1.64,-0.83 -0.39,-3.19 -0.99,0.31 -0.18,-1.08 0.62,-1.87 -1.56,-1.25 -0.94,-5.3 h -4.68 v -1.87 l 1.25,-0.94 -4.74,-4.42 0,0 -1.33,0.58 -5.59,4.17 z m -61.32,64.78 -2.49,-0.36 -2.1,-1.65 -0.03,-2.31 1.02,-2.08 -0.92,-0.56 -3.23,1.32 -0.08,3.41 -1.52,0.56 4.6,3.17 1.02,1.45 -0.26,2.08 1.08,1.06 3.57,-2.74 0.39,-2.05 -1.05,-1.3 z m 15.57,3.67 -1.47,-1.35 0.79,-3.17 -1.16,-1.72 1.24,-3.74 -1.37,-1.69 -0.34,-2.28 -4.52,-2.95 -2.15,-2.78 -3.94,0.73 -0.84,2.02 -3.49,1.89 0.53,10.09 2.99,0.79 1.97,4.59 -0.87,2.38 -3.18,0.59 1.16,2.08 -0.58,0.79 3.28,1.95 5.36,0.36 0.03,-1.02 0.89,0.43 0.58,-0.92 3.15,0.92 0.81,-1.65 1.37,-0.4 -1.18,-4.72 0.94,-1.22 z m -5.54,44.48 -1.94,0.43 -0.18,1.28 -1.55,-0.13 -0.71,1.51 0.81,1.97 -0.34,1.87 1.89,-0.03 0.05,0.92 0.63,-0.07 1.34,-1.12 -0.26,-0.85 1.52,-0.1 -1.16,-1.31 1.26,-0.03 -0.21,-0.76 1,0.72 0.68,-1.97 -1.31,-1.71 -1.52,-0.62 z"
       x="160"
       y="167"
       inkscape:connector-curvature="0"
       style="fill:#cccccc;fill-opacity:1;stroke:#ffffff;stroke-width:0.5;stroke-opacity:1" />
    <path
       id="KR-42"
       title="Gangwon"
       class="land"
       d="m 281.2,81.07 1.42,2.81 2.15,2.75 0.58,-0.17 0.78,1.74 -0.55,1.27 1.76,2.34 -0.58,1.3 1.16,1 -0.16,1.47 3.7,4.88 -1.12,0.5 -0.06,1.7 5.52,7.61 -0.63,0.44 0.26,1.66 1.6,2.24 -0.03,1.46 2.32,2 0.84,5.63 3.99,5.2 -0.82,1.13 2.02,2.73 -0.91,0.99 0.91,4.06 5.6,6.58 0.71,3.02 4.04,4.32 1.1,0.1 -0.5,1.89 3.76,6.17 1.68,1.2 -0.08,1.06 4.1,3.74 -0.08,2.49 4.38,5.03 0.24,1.46 16.96,18.49 -1.21,4.65 2.39,3.24 4.49,3.69 0.37,1.82 -0.94,1.94 1.94,5.18 5.17,5.3 1.11,5.04 4.83,3.75 1.7,6.88 1.84,1.61 1.03,-0.1 0.47,2.53 1.65,0.07 0.82,1.08 -0.27,1.81 2.81,3.42 -1.47,1.11 0.71,1.77 -0.84,2.4 0.55,2.59 2.73,3.94 -0.31,1.18 0.81,0.84 0,0 -4.27,0.71 0,0 -1.87,2.19 -2.5,0.93 -2.81,2.5 0,0 -1.56,2.18 0,1.25 0,0 1.56,2.81 -6.54,0.16 0,0 -2.65,-2.27 -2.96,-1.03 -2.61,-0.4 -2.54,2.52 -7.43,-2.62 -3.35,0.72 -0.68,-1.33 -1.72,-0.68 0,0 -2.91,4.31 0,0 -0.93,1.24 -4.06,0 -6.24,-4.36 -2.02,0.18 -0.54,4.72 -1.12,1.12 -3.06,-1.38 -1.92,0.26 -4.25,-2.34 0,0 -2.38,-2.14 -3.5,0.21 -3.95,-1.27 0,0 -3.59,-2.92 -2.01,-0.09 0,0 -4.23,1 0,0 -1.89,0.47 -0.82,-1.39 0,0 -1.79,-1.65 0.1,-2.62 0,0 -0.96,-0.81 -1.46,0.33 0,0 -3.28,-0.14 -1.2,1.25 0,0 -1.96,0.66 0,0 -0.7,0.47 -2.31,-1.77 -0.66,-1.7 3.26,-2.02 2.36,-2.73 0.1,-1.36 0,0 -1.55,-0.53 -1.37,0.83 0,0 -1.05,0.26 0,0 -1.71,-0.23 -1.48,-1.73 -2.12,-0.43 -1.98,-1.51 -2.46,0.59 -1.79,2.44 -3.65,-0.91 -3.68,3.08 0,0 -5.07,0.86 0,0 -0.28,-3.84 0,0 -1.77,-3.31 -4.27,-0.44 -1.5,0.94 0,0 -2.84,2.69 0.99,4.69 -0.42,1.8 -3.15,2.1 -2.33,-1.15 -3.04,0.09 -1.44,1.88 -2.19,0.93 -4.05,-3.12 -0.62,-3.48 0,0 0.62,-7.44 -0.63,-3.43 1.56,-1.25 -0.31,-7.49 3.43,-8.11 0.31,-4.06 -1.95,-0.71 -0.78,-2.38 3.13,-4.03 2.07,-0.7 0.79,-2.19 -1.65,-2.9 -8.97,-1.36 -4.31,-3.7 -2.69,-0.32 -4.11,-2.48 -3.64,1.4 -2.64,-2.85 1.75,-3.51 0.31,-4.39 -3.59,0.91 0.12,-2.03 2.7,-3.08 -1.32,-3.5 0.82,-1.96 -0.85,-2.95 0.59,-1.52 2.27,-0.76 1.79,-2.06 3.32,-1.07 1,-3.97 -0.82,-4.04 -1.45,-1.59 -4.2,-1.42 -0.08,-2.7 -0.89,-0.6 -3.21,0.34 -3.1,-1.53 -1.56,-3.02 -0.4,-7.52 -1.42,-1.97 -1.96,1.05 -2.09,-1.55 -1.49,0.19 -4.11,1.94 -4.46,-3.59 0.48,-5.32 1.09,-0.92 -1.97,-0.88 -3.66,3.74 -2.44,0.16 -1.64,-0.83 -0.39,-3.19 -1,0.31 -0.18,-1.07 0.63,-1.87 -1.56,-1.25 -0.94,-5.31 -4.68,0 0,-1.87 1.25,-0.94 -4.74,-4.41 0,0 4.04,-3.26 3.37,0.38 6.69,-3.05 3.41,0.52 1.61,1.19 3.19,-0.11 1.14,-0.95 6.01,-1.12 9.23,4 8.24,-4.24 2.61,1.44 3.78,-0.41 2.67,0.67 1.95,-1.31 5.79,0.29 2.54,-1.4 3.67,4.6 3.92,-1.11 2.12,-2.24 6.29,1.84 1.78,-0.43 6.45,1.44 2.96,-0.46 2.98,-2.44 3.34,-0.28 6.8,-5.41 1.28,-2.11 5.54,-4.84 2.16,-4.61 0.81,-4.59 -0.52,-9.08 z"
       x="279"
       y="190"
       inkscape:connector-curvature="0"
       style="fill:#cccccc;fill-opacity:1;stroke:#ffffff;stroke-width:0.5;stroke-opacity:1" />
    <path
       id="KR-43"
       title="North Chungcheong"
       class="land"
       d="m 214.22,387.59 -2.49,-5.92 -2.19,-1.88 -0.31,-2.8 0,0 1.25,-2.81 -0.31,-3.12 -1.87,-3.12 0,0 -2.8,0.26 -3.96,-1.92 -1.05,-3.65 1.25,-6.24 0,0 0.94,-5.62 0,0 2.81,-1.87 -2.02,-2.39 0.32,-1.63 -2.43,-1.16 -0.24,-2.62 0,0 -2.5,-2.5 0,0 -2.86,2.4 0,0 0.07,-0.64 0,0 0.32,-1.3 -1.39,-0.18 0,0 -0.61,0.64 0,0 -1.46,2.37 0,0 -0.31,-0.17 0,0 0,0 0,0 -1.25,-5.3 0,0 -5.45,0.06 0,0 -0.58,0.78 0,0 1.87,-6.1 -1.08,-1.14 0.92,-3.28 -3.34,-0.2 -0.45,-1.35 0,0 0,-2.81 -2.81,-3.43 2.19,-0.63 0.31,-2.81 0,0 -1.56,-2.18 4.99,-7.8 3.75,0.31 1.56,-1.87 -1.25,-3.75 -3.12,-2.18 -2.88,0 0,0 -1.08,-0.48 0.16,-1.99 0,0 -0.59,-0.49 0,0 -1.49,-0.71 0,0 -0.23,-2.66 -2.83,-1.92 -0.91,-2.42 2.76,-0.23 0,0 3.78,-1.7 0,0 1.71,-1.24 2.21,0.14 1.79,-1.75 0.17,-2.11 0,0 -0.3,-1.09 5.08,-3 0,0 0.8,-2.63 2.34,-2.57 0.81,1.19 1.48,-0.02 -0.27,2.07 1.59,-3.23 4.31,0.78 4.05,-3.74 2.5,-0.31 0.62,-7.8 1.56,0 1.56,1.87 1.88,0 2.66,-6.65 2.71,-0.6 0.56,3.5 4.05,3.12 2.19,-0.93 1.44,-1.88 6.04,0.7 0.44,-0.95 2.04,-0.79 0.42,-1.8 -0.99,-4.69 2.84,-2.69 0,0 1.5,-0.94 4.27,0.44 1.77,3.31 0,0 0.28,3.84 0,0 5.07,-0.86 0,0 3.68,-3.08 3.65,0.91 1.79,-2.44 2.46,-0.59 1.98,1.51 2.12,0.43 1.48,1.73 1.71,0.23 0,0 1.05,-0.26 0,0 1.37,-0.83 1.55,0.53 0,0 -0.1,1.36 -2.36,2.73 -3.26,2.02 0.66,1.7 2.31,1.77 0.7,-0.47 0,0 1.96,-0.66 0,0 1.2,-1.25 3.28,0.14 0,0 1.46,-0.33 0.96,0.81 0,0 -0.1,2.62 1.79,1.65 0,0 0.82,1.39 1.89,-0.47 0,0 4.23,-1 0,0 2.01,0.09 3.59,2.92 0,0 3.95,1.27 3.5,-0.21 2.38,2.14 0,0 -2.21,2.16 -2.14,-0.25 0,0 -2.28,2.62 0,0 -0.62,0.28 0,0 -3.29,3.25 -2.8,0.8 0,0 -0.79,1.25 0,0 -3.54,2.75 -3.16,5.66 0,0 -0.84,1.57 0,0 -0.05,1.33 1.32,0.61 0,0 0.79,2.92 -2.84,3.89 -4,0.78 0,0 -0.92,1.03 -2.44,-0.05 0,0 -2.2,0.18 0,0 -2.49,-4.92 -3.24,-1.85 -1.18,-1.97 0,0 -1.67,3.05 -1.13,0.34 -0.44,3.23 0,0 -0.37,0.57 -5.7,-1.74 0,0 -0.42,-0.63 0,0 -1.07,-0.37 -0.61,0.62 0,0 -2.53,3.09 -1.38,0.19 0,0 -1.64,-1.75 -0.51,0.31 0,0 -2.86,6.69 0,0 3.39,5.25 -4.6,-0.91 0,0 -1.18,-0.67 -1.21,0.59 -3.31,-1.64 0,0 -2.88,3.74 0,0 -4.25,1.42 -1.68,2.38 0.48,2.22 -3.23,3.34 0,0 -1.76,1.55 0,0 -1.56,0.35 0,0 -0.99,1.91 0.72,1.1 5.37,1.13 1.22,1.22 -0.14,0.93 0,0 0.96,1.97 0,0 2.01,1.36 -0.42,1.71 0,0 -2.02,0.89 -0.81,7.63 0,0 0.6,2.47 -1.29,2.02 1.32,3.25 0,0 0.5,0.31 0,0 -1.01,2.56 -2.66,2.31 0,0 -0.07,4.28 2.16,1.78 0,0 3.41,-2.56 0.47,1.45 2.5,1.48 0,0 1.85,1.57 0,0 1.17,0.4 0,0 1.99,-0.84 0,0 2.23,-0.79 2.02,0.7 0,0 0.62,1.07 0,0 0.15,3.17 0,0 1.26,1.87 0,0 -1.24,1.35 -2.47,-1.48 -3.07,2.28 -0.52,0.89 1.17,2.96 -0.41,3.57 -1.75,1.46 -1.04,4.64 -1.84,2.6 -2.88,-0.1 -3.82,3.64 -2.9,-2.28 0,0 -4.99,2.4 -0.36,0.91 -2.6,0 -0.16,-0.92 -1.7,-1.04 -4.1,-1.42 0,0 -1.05,-2.27 z"
       x="218"
       y="303"
       inkscape:connector-curvature="0"
       style="fill:#cccccc;fill-opacity:1;stroke:#ffffff;stroke-width:0.5;stroke-opacity:1" />
    <path
       id="KR-44"
       title="South Chungcheong"
       class="land"
       d="m 91.38,348.77 h 0.66 l 0.21,1.69 0.95,0.71 -0.79,0.1 -0.11,0.91 -1.31,-0.62 -0.47,0.68 -0.24,-1.4 1.08,-0.75 0.02,-1.32 z m 6.64,-3.51 1.02,0.1 0.63,1.14 -0.73,0.78 2.73,0.75 -0.16,0.94 -5.28,-1.75 -1.86,0.16 0.71,-1.62 2.52,1.4 -0.53,-1.43 0.95,-0.47 z m -6.62,-26.99 1.34,0.62 0.97,2.61 -0.05,1.14 -1.52,0.98 1.47,0.68 0.1,3.25 1.02,1.37 -0.81,0.88 2.23,1.24 -0.34,2.02 1.1,-0.33 -0.16,1.82 0.87,1.43 -1,1.43 2.36,1.76 0.26,2.14 -1.29,1.01 0.58,1.36 -1.47,-0.49 -0.16,-1.17 h -1.21 l 0.37,-0.75 -1.92,-0.03 -0.97,1.1 -1.73,-1.53 0.55,-1.89 -2.44,-0.39 0.63,-3.35 -1.37,0.39 1.08,-2.89 -0.89,-2.05 0.32,-5.21 -1.65,-3.39 3.73,-3.76 z m 6.44,-52.8 2.36,0.39 0.5,2.1 -2.81,0.3 -0.05,-2.79 z m 9.4,0.66 1.55,2.26 2.21,0.36 6.8,4.06 6.35,0.23 0.37,0.79 7.51,2.03 -0.08,1.37 1.68,3.89 1.13,0.39 1.5,5 3.57,0.65 4.49,-1.06 0,0 3.46,-2.08 7.55,1.76 4.94,-1.77 3.01,-2.07 2.58,-0.08 2.99,1.43 3.29,3.38 5.1,0.7 0,0 0.91,2.42 2.84,1.92 0.23,2.66 0,0 1.48,0.71 0,0 0.59,0.49 0,0 -0.16,1.99 1.08,0.48 0,0 h 2.88 l 3.12,2.18 1.25,3.74 -1.56,1.87 -3.75,-0.31 -4.99,7.8 1.56,2.18 0,0 -0.31,2.81 -2.18,0.62 2.81,3.43 v 2.81 l 0,0 0.45,1.35 3.34,0.2 -0.92,3.28 1.08,1.14 -1.87,6.1 0,0 0.58,-0.78 0,0 1.11,-0.18 0.62,0.86 0,0 -0.96,6.13 -6.87,2.18 0.31,8.74 -2.18,2.5 0.31,4.06 2.18,1.87 0.31,3.43 1.56,2.18 2.5,0.94 0.94,3.12 h 1.25 l 0.94,-2.18 0.31,-8.11 h 1.56 l 0.62,3.43 2.18,3.74 3.75,2.18 2.18,-2.81 3.35,-2.18 0,0 3.83,1.83 2.8,-0.27 0,0 1.87,3.12 0.31,3.12 -1.25,2.81 0,0 0.31,2.81 2.18,1.87 2.18,6.25 0,0 v 2.49 l -2.81,2.81 -4.1,-2.45 -1.89,1 0,0 -1.03,0.18 -0.16,2.21 0,0 -0.94,1.87 -6.55,0.31 -0.7,-4.99 -4.92,1.56 -2.22,-7.14 -2.96,-5.1 0,0 -1.13,-1.63 -2.42,2.02 0,0 -4.37,-0.31 0.62,2.5 -5.3,0.31 -2.85,-1.89 -5.67,2.1 -2.55,-0.18 -0.53,-2.02 -2.44,-0.19 -0.31,-3.74 -2.19,-2.01 -1.27,0.38 -3.76,-2.27 -3.68,-0.67 -4.69,2.68 0,8.44 -11.55,4.99 -1.48,-1.36 -1.31,0.56 0,0 -0.68,-0.33 -1.39,2.17 -4.28,-1.07 -1.13,0.61 -0.73,-0.74 -0.05,-2.13 0.76,-0.48 -2.26,-2.59 -1.05,0.1 -0.29,-2.81 -1.05,0.19 2.44,-1.94 -1.18,0.32 0.03,-0.84 -1.05,-0.49 -0.81,0.71 -1.34,-2.94 -2.55,-2.2 -1.39,1.39 -0.92,-1.85 -2.63,-0.94 -1.18,0.32 -0.29,2.4 -1.08,-0.97 0.03,-2.75 2.36,0.23 0.76,-0.97 -0.18,-2.23 1.5,-1.62 -0.89,-4.5 1.73,-3.14 -4.57,-6.91 1.29,-0.1 4.07,-2.82 2.6,0.23 -3.26,-0.68 -4.73,-3.28 -1.79,-0.03 0.42,-3.22 0.92,-1.92 2.39,-1.66 h 1.26 l 1.52,-1.49 1.5,0.1 0.68,-2.76 2.7,0.45 1,-1.24 -2.23,0.78 -2.44,-1.01 -2.52,3.28 -0.79,0.06 -0.32,1.4 -2.63,1.33 0.26,-1.2 -1.23,-1.3 -0.55,-2.8 0.24,-3.41 2.02,-2.11 4.2,2.24 -4.15,-2.99 -1.5,1.27 -2.36,-2.9 0.66,-1.69 -0.74,-3.03 -5.02,-3.55 -4.31,-1.24 -6.67,5.76 -1.02,-1.73 0.55,-2.93 1.05,-0.75 -0.13,-3.16 -1.08,-2.31 -2.18,-0.29 -0.32,-2.15 1.13,-1.37 0.08,-2.22 0.81,-0.29 -0.39,-0.75 -1.86,1.53 -2.1,-0.1 0.32,1.83 -0.63,0.81 -2.31,0.23 -1.08,2.31 -3.91,-0.39 -0.55,-3.29 1.84,-1.47 3.57,1.53 1.55,-1.92 -0.89,-0.65 -1.05,0.65 1.26,-2.35 -1.23,0.59 -1.92,-1.08 1.02,-1.34 -3.54,0.26 -1.55,-0.85 1.16,3.69 -3.1,2.67 1.37,-4.93 h -0.87 l -1.21,-2.81 1.81,-0.36 -0.03,-1.27 0.42,0.52 1.05,-0.85 0.42,-1.57 -0.74,-0.65 1.31,-1.01 0.18,-1.18 -1.29,-1.21 0.92,-0.03 -0.58,-1.05 0.63,0.29 0.47,-0.75 0.08,1.08 1.02,0.06 -0.05,3.72 0.68,-0.52 1.92,3.69 -1.63,-4.34 1.1,-0.1 -1.42,-1.57 2.07,-2.74 -1,0.07 -0.68,-1.7 0.89,-0.69 -1.34,-1.21 1.87,0.13 0.5,-2.26 0.92,0.78 2.36,-1.9 1.47,-0.1 -0.45,0.69 3.7,1.08 -0.37,-1.08 0.84,-1.31 -1.05,-5.14 2.34,-1.8 -0.18,1.57 -1.02,0.26 0.81,1.05 1,-0.1 -0.95,1.31 v 3.24 l 1.65,1.47 0.18,1.6 h 0.97 l -1.76,0.95 -1.65,3.66 -0.08,1.18 2.1,0.46 -0.16,0.69 -3.05,0.92 -0.24,0.75 0.97,2.35 0.39,-1.11 0.95,0.06 0.03,-1.04 0.76,0.42 0.87,-0.88 1.13,0.56 -0.87,-1.14 0.29,-1.18 -0.97,-0.75 1.13,-2.68 1.6,0.29 -0.42,1.7 2.07,1.83 -0.89,-1.86 1.44,-1.24 -0.6,-2.22 1.23,-0.72 1.94,0.26 -0.16,-1.54 3.31,-0.98 -2.15,-0.82 -0.34,-1.15 1.31,-0.62 -0.03,-1.5 -0.92,-0.43 -1.68,1.34 -0.87,-1.83 -1.18,-0.26 -0.95,0.92 0.18,-1.34 -0.92,-0.16 -0.18,-1.15 -1.44,0.16 0.21,-1.08 h 2.47 l 0.71,1.11 1.65,-1.34 -1,-0.16 -0.45,-1.24 -0.81,0.49 -3.15,-0.72 -0.32,-1.83 0.71,0.36 1.97,-1.67 0.81,0.52 2.1,-1.05 3.96,0.39 2.68,1.34 1.26,-0.65 -1,-1.9 2.6,-2.42 -0.53,-0.56 0.71,-1.38 0.89,-0.66 2.12,0.76 z"
       x="143"
       y="326"
       inkscape:connector-curvature="0"
       style="fill:#cccccc;fill-opacity:1;stroke:#ffffff;stroke-width:0.5;stroke-opacity:1" />
    <path
       id="KR-45"
       title="North Jeolla"
       class="land"
       d="m 128.74,388.35 1.31,-0.55 1.48,1.36 11.55,-5 0,-8.44 4.69,-2.68 3.69,0.67 3.76,2.27 1.27,-0.38 2.19,2.01 0.31,3.74 2.44,0.2 0.53,2.02 2.55,0.18 5.68,-2.1 2.85,1.89 5.3,-0.31 -0.62,-2.5 4.36,0.31 0,0 2.42,-2.01 1.14,1.62 0,0 2.96,5.11 2.22,7.14 4.92,-1.56 0.7,4.99 6.55,-0.31 0.94,-1.87 0,0 0.15,-2.21 1.03,-0.18 0,0 1.89,-1 4.1,2.45 2.81,-2.81 0,-2.48 0,0 1.1,-0.63 1.05,2.27 0,0 4.1,1.42 1.7,1.04 0.16,0.92 2.6,0 0.36,-0.91 4.99,-2.4 0,0 2.9,2.28 2.74,-2.57 0,0 4.71,8.98 -1.28,5.01 0,0 -2.33,1.52 -2.05,4.62 -3.1,1.88 -1.46,0.01 0,0 -1.83,1.15 -2.01,-0.44 0,0 -0.65,0.47 0,0 -1.66,4.08 -4.94,4.74 -0.78,4.82 0,0 -0.16,1.92 -0.89,0.79 0,0 -5.22,14.41 0.17,2.32 2.77,1.37 0,0 0.42,2.91 0,0 1.27,2.27 -0.68,3.34 0.69,1.93 1.63,0.43 -0.46,4.01 0,0 -3.7,3.56 -1.16,3.15 0.55,2.87 -2.21,2.3 0,0 -0.23,0.21 0,0 -6.38,-4.47 0,0 -4.54,-2.07 0,0 -2,0.11 0,0 -1.75,0.98 -2.95,3.79 -1.75,0.47 0,0 -3.2,-0.37 -2.38,0.7 0,0 -6.15,0.02 -1.13,-0.66 0,0 -1.44,-1.37 -1.93,1.12 0,0 -3.16,-1.35 -1.3,0.83 0,0 -0.96,0.9 0,0 -3.04,1.09 0,0 -2.09,-0.54 -2.6,-1.97 0,0 0.42,-3.61 -1.01,-2.88 0,0 -2.08,-0.67 1.07,-2.31 0,0 -0.46,-4.42 -1.35,-1.04 -2.52,-0.07 -0.98,1.78 0,0 -1,0.65 -0.67,3.1 0,0 -1.02,0.69 -1.97,-0.57 0,0 -3.56,-5.66 0,0 -4.05,-2.99 -3.02,-0.61 -1.57,1.87 -1.08,-0.22 0,0 -1.53,-0.35 0,0 -2.27,0.98 -0.79,1.99 0,0 -0.44,3.77 0,0 -1.6,1.63 0,0 0.26,0.77 0,0 -0.63,2.97 -2.41,1.22 0,0 -3.14,0.97 -1.53,1.49 0,0 -2.07,0.71 -0.97,-0.43 0,0 -2.1,0.12 -1.45,1.54 -4.35,0.23 0,0 -0.37,-1.7 -1.72,0 -1.24,-4.06 -1.88,-2.18 -0.93,-5.62 -1.88,-1.56 0,0 -1.87,-0.62 0,0 -3.83,-0.5 5.12,-9.83 1.36,1.29 0.24,-1.58 1.79,-1.15 2.2,0.93 2.23,-2.09 2.55,0.32 0.24,1.26 1.52,-3.57 0.55,0.16 -0.05,-1.22 1.44,-0.42 1.6,0.48 2.47,3.06 -0.31,-3.28 -0.97,-0.58 1.15,-1.06 -1.39,0.03 -2.05,-1.7 -0.29,0.87 -1.47,-0.23 -0.79,0.93 -1.23,-0.96 -0.42,0.77 -4.91,-0.03 -1.16,1.09 -0.91,-0.06 -0.35,-1 -0.57,1.06 -1.71,-0.74 -1.1,-2.02 -1.24,0.58 -0.73,-1.65 1.05,-1.89 -1.26,-1.03 4.3,-2.45 3.34,-3.57 1.84,-1.19 1.15,0.61 2.5,-2.12 3.07,-4.25 -0.71,-4.32 1.05,-1.61 1.86,0.93 4.63,-0.71 4.49,1.2 2.1,1.74 1.34,3.03 0.68,-0.65 -1.24,-0.35 0.61,-2.29 -0.69,-2.9 -8.77,-5 1.45,-1.48 3.2,-1.23 5.31,0.23 0.92,-1.13 0.07,-2.1 2.92,-1.42 -4.18,0.13 -1.65,1.65 -2.81,-0.29 -2.15,0.77 -3.26,-1 -1.36,1.23 -5.18,-0.29 0.19,-6.56 -4.55,-0.48 -0.02,-1.1 -1.89,-1.49 0.73,-0.9 4.91,-0.36 1.16,1.01 0.71,-0.84 5.72,-0.81 1.66,-1.23 2.88,1.13 1.71,-1.87 0.32,-1.33 z"
       x="164"
       y="421"
       inkscape:connector-curvature="0"
       style="fill:#cccccc;fill-opacity:1;stroke:#ffffff;stroke-width:0.5;stroke-opacity:1" />
    <path
       id="KR-46"
       title="South Jeolla"
       class="land"
       d="m 66.62,587.6 0.37,1.2 -1.84,-1.17 -0.68,1.2 -0.21,-1.61 -1.02,0.06 0.03,1.58 -0.47,-1.11 -2.47,-0.19 0.18,-1.11 -0.95,0.22 1.71,-1.58 -0.24,-0.32 0.84,-1.08 1.29,1.68 3.33,-0.89 0.13,3.12 z m 26.78,-24.13 0.89,-0.67 -0.47,-1.14 -2.42,-1.71 -0.68,-1.78 -0.92,0.32 0.63,-1.11 -2.44,0.79 -1.34,-1.52 0.76,-0.67 -0.73,-1.08 -5.78,-1.81 -0.13,2.48 1,0.54 -1.5,2.92 -0.84,-0.67 -0.08,1.21 -1.23,0.41 1.1,1.21 -1.89,0.16 -0.37,1.05 0.74,0.83 -1.13,0.54 -0.5,-2.28 -1.73,3.36 -5.25,2.89 0.94,1.71 -0.66,-0.57 -1.13,0.44 -1.73,3.1 2.7,4.56 2.34,-0.79 0.29,0.79 -1.02,0.44 0.39,0.6 -0.94,1.23 h 1.65 l -0.13,-0.73 0.76,-0.22 0.92,1.62 2.26,0.06 2.65,-0.98 -0.66,-1.27 1.23,0.54 0.92,-0.89 0.6,0.67 0.89,-1.2 1.63,0.13 0.13,-2.12 1.5,0.79 1.58,-0.82 -0.81,-0.98 0.89,-0.38 0.81,0.7 -0.37,-1.2 1.16,0.86 -0.24,-1.81 1.39,1.74 -0.37,0.73 1.23,0.03 -0.03,-1.68 2.81,-3.17 -0.69,-1.67 1.31,-1.68 -1.21,-0.35 0.03,-0.86 1.5,-0.41 0.58,0.86 -0.05,-1.62 -0.74,-0.47 z m -41.75,-26.9 1.05,-0.16 -1.26,-1.91 0.05,-1.46 5.04,-0.67 0.34,-1.34 1.16,-0.16 -0.26,-2.83 -2.02,0.32 -0.97,1.91 -1.23,-0.25 0.21,0.64 -1.21,0.73 -3.99,-0.6 0.42,1.21 -0.81,0.38 -0.13,-0.54 -0.39,0.76 0.58,0.7 -0.74,3.28 2.86,1.81 2.13,-0.6 -0.83,-1.22 z m 79.48,47.9 -2.07,-0.73 -1.81,-3.77 0.08,-2.82 -1.08,-1.2 -3.39,-1.84 -4.07,1.96 -0.05,5.13 0.71,0.67 -0.5,0.89 1.97,0.41 2.84,3.61 1.55,-0.6 2.49,1.27 -0.18,-2.09 1.18,1.49 2.78,0.51 -1.39,-1.87 0.94,-1.02 z m -75.65,-46.19 -0.97,-2.39 -0.16,1.81 -1.23,-0.06 -0.11,2 -0.97,-0.57 0.26,-0.6 -2.1,0.44 -0.2,2.97 0.6,1.65 1.13,-0.79 -0.05,1.11 0.84,0.51 1.29,-1.02 -0.11,1.56 0.97,0.32 1.5,-0.67 0.03,-1.08 1.5,-1.02 0.16,-1.05 1.08,0.29 0.47,-1.21 -3.93,-2.2 z m 67.38,61.12 -3.36,-2.15 -0.66,1.55 -0.89,-0.09 1.81,2.05 -2.07,2.12 -0.05,1.61 0.71,1.64 1.37,-0.79 -0.13,1.61 1,0.47 0.89,-1.04 -0.13,-2.62 1.1,0.38 0.26,-1.07 -1.31,-0.03 -1.08,-2.65 2,-0.25 0.54,-0.74 z m -7.27,-4.87 -2.76,-0.54 -0.53,0.73 -0.47,-1.39 -1.42,0.06 1.23,1.67 -0.89,0.1 -0.26,0.76 h 0.97 l -1.13,0.67 0.39,1.26 -0.92,0.41 1.6,0.41 -0.05,1.17 2.57,0.54 -1.34,-1.55 2,-0.51 -0.1,0.92 1.89,-0.03 -1.23,-1.93 h 1.81 l -0.6,-1.74 -0.76,-1.01 z m -2.47,6.16 -0.6,1.01 -0.5,-1.11 -1.39,0.29 -1.55,-1.61 -3.28,2.5 -0.08,2.46 0.84,1.96 1.39,0.06 4.67,-2.68 0.24,-1.55 1.13,-0.6 1.15,2.02 0.05,-1.67 1.23,1.39 0.47,-1.86 -1.1,0.35 -2.67,-0.96 z m -53.2,-44.93 0.97,-0.13 0.55,-1.3 0.6,0.98 1.81,-0.51 0.37,-1.17 -0.42,-1.11 -0.71,0.64 0.24,-2 -1.44,0.45 -0.84,-1.27 0.79,-2.13 -1.05,0.25 0.16,-0.79 -1.86,0.45 0.6,1.43 -0.53,2.54 0.81,-0.45 0.6,0.57 -0.66,0.6 v 2.95 z m 23.76,-35.33 -0.76,1.82 -2.81,-0.89 -0.47,1.82 3.31,1.02 1.57,-1.88 3.15,0.35 0.37,0.86 1.29,-0.57 1.39,1.91 -1.71,1.08 0.45,0.67 1.76,0.54 0.18,-0.96 1.5,-0.22 0.05,-3.7 -1.08,0.45 0.03,-1.27 -3.13,0.32 -0.97,-0.83 1.02,-0.48 -1.08,-0.73 1.16,-0.19 0.05,-1.24 2.42,0.16 -0.03,-0.99 -1.44,-1.24 -2.26,0.19 -1.31,-1.66 -1.57,1.05 2.07,2.96 -1.02,0.64 -1.18,-0.61 -0.21,1.63 0.71,0.64 -1.1,0.38 -0.35,-1.03 z m -13.54,16.74 1.42,-0.13 0.63,3.02 2.78,-0.57 0.29,-1.78 -1.81,-4.07 -1.79,0.67 -1.71,-2.23 -1.73,0.54 -1.81,-0.92 -0.34,1.21 -0.66,0.03 0.45,1.43 -0.87,2.13 2.05,-1.21 0.1,1.02 0.66,-0.29 -0.37,1.88 1.18,-0.16 0.68,0.76 0.85,-1.33 z m 5.43,10.14 0.32,-1.52 -3.05,-2.35 -0.97,0.32 -0.63,1.56 -0.79,-0.57 -0.31,0.95 -1.18,0.09 0.26,1.02 1,-0.64 0.58,0.73 -1.05,1.62 0.71,1.62 2.05,-0.57 0.47,-0.95 1.68,0.57 0.63,-1.05 1.52,-0.16 0.29,-1.21 -1.53,0.54 z m -1.65,-49.95 0.13,0.7 0.97,-0.29 -0.55,0.77 1.89,0.38 0.42,-0.61 0.84,1.05 1.78,-0.16 0.97,0.61 -0.42,1.66 0.92,0.19 0.87,1.6 1.42,0.13 0.97,-1.92 -1.15,-0.73 -0.39,-2.43 -1.42,-0.99 0.5,-2.75 -0.53,-0.64 -1.39,0.9 -0.39,-1.05 -1.97,0.35 -1,-1.25 -1.05,0.22 -2.29,1.37 0.76,1.79 0.11,1.1 z m -8.72,25.55 -1.58,0.29 3.05,3.85 0.37,2.07 2.21,-0.35 0.5,-1.4 -0.92,-1.66 0.79,-1.15 1.13,0.51 1.6,-1.24 -1.73,-1.11 -0.03,-0.8 1.84,0.06 0.6,-0.8 -1.39,-1.82 -0.47,0.77 -2.21,-0.89 -0.58,0.38 0.16,1.78 0.89,0.73 -0.5,0.92 -3.1,-1.12 -0.63,0.98 z m 8.09,-16.93 0.63,-1.88 -3.78,-1.37 -2.78,2.97 5.93,0.28 z m -17.33,15.43 5.2,0.54 1.05,1.85 -0.18,-1.79 0.76,-0.22 0.21,0.76 1.44,-0.45 -0.34,-0.8 1.97,0.1 -0.6,-1.43 1.92,-0.92 -1.44,-1.5 1.52,-1.4 -1.42,-0.22 0.71,-1.21 -1.23,0.29 0.1,-1.31 -2.1,-0.86 0.39,2.17 -0.58,0.96 -1.02,0.19 -0.42,-1.12 -0.66,1.21 -1.81,-0.35 -2.21,4.21 -2.13,0.03 1.39,0.89 -0.52,0.38 z m 7.64,-22.99 0.18,-0.35 1.58,-0.26 v 1.6 l 2.36,0.96 0.03,-1.56 1.52,0.1 -0.81,-1.53 1.23,-0.22 -1.79,-1.76 0.32,-1.5 1.18,-0.03 0.32,-3.1 3.83,-1.66 -4.65,0.22 -0.11,1.09 -2.81,2.97 -3.2,0.57 -0.68,2.27 1.58,0.93 -0.32,0.84 -1.68,-0.25 1.05,1.05 0.87,-0.38 z m -58.27,43.65 -1.34,-0.73 1.29,-1.05 -3.1,0.57 0.05,1.24 -2.07,2.92 1.08,1.02 -1.24,0.6 0.95,1.65 1.58,0.57 -0.08,-1.68 1.63,-0.7 -0.55,-1.59 1.89,-0.48 0.24,-2.07 1.86,-0.64 -1.02,-1.05 -1.17,1.42 z m 138.54,57.01 0.5,-1.2 -0.79,-0.88 0.71,-1.2 -1.89,-0.54 -1.86,0.85 -0.18,0.82 -1.18,0.31 0.03,2.53 -1,0.35 1.16,0.54 -1,0.88 0.71,1.39 1.18,-1.77 1.1,1.86 1.79,-0.69 0.79,0.6 1.02,-0.92 0.13,-3.29 -1.22,0.36 z m 83,-80.22 -0.13,-3.44 -1.71,-1.69 -2.7,-0.06 0.26,-1.72 -0.79,-0.64 -2.57,2.58 0.05,2.01 5.36,1.21 0.5,0.7 -0.29,-2.71 0.94,-0.35 0.94,3.92 0.14,0.19 z m 0.45,34.58 1.55,-0.6 0.16,-0.86 -1.86,-1.24 0.32,-2.16 0.84,-0.35 -0.18,-2.89 0.74,-0.73 -1.02,0.13 0.55,-0.73 -1.55,-0.38 -0.79,-1.24 0.29,-1.88 -1.29,0.35 -0.66,-1.08 0.58,-0.76 0.84,0.67 0.16,0.29 1.31,0.32 -0.24,-2 -4.52,-1.94 0.68,2.26 1.13,0.16 -0.18,2.54 1.44,0.7 -1.79,0.32 -0.5,1.46 -2.28,1.49 -0.58,1.43 0.66,0.95 -1.34,1.52 2.55,1.18 1.16,2.16 1.44,-0.09 2.38,1 z m -8.46,-15.92 -2.1,-1.27 0.34,-0.67 -1.76,-1.08 0.05,-0.73 -0.6,0.16 0.18,1.02 -2.26,3.05 0.71,1.44 -1.55,-0.55 v -0.83 l -0.42,1.3 h -0.73 l 1.31,1.27 -0.42,1.02 1.39,0.35 -1.55,0.67 1.31,2.22 -0.66,0.51 1.31,0.51 -1.21,1.46 1.02,0.03 0.42,1.14 -2,-0.29 -0.97,-1.62 -2.42,-0.98 -1.21,0.38 0.45,2.16 -2.78,-4.1 1.18,-1.18 -1.1,-0.35 0.05,-1.59 2.36,-0.89 -1.29,-0.06 v -0.83 l -1.02,0.96 0.37,-1.53 -0.81,0.1 1.47,-1.27 -0.24,-0.92 0.63,0.48 1.05,-0.57 0.34,-1.43 1.92,0.06 -1.81,-0.6 0.63,-0.83 -0.68,-1.34 -1,1.08 -0.03,-1.59 -1.29,-0.38 1.37,-0.73 -1.37,-1.43 -0.13,-1.3 -3.12,-0.22 0.18,-1.62 1.6,-2.17 -1.65,-0.26 -0.79,-4.01 -2.55,0.7 0.18,3.06 -0.6,0.76 -1.78,-0.54 -2.34,0.92 -0.47,-1.37 -0.42,1.37 -3.36,1.34 -1.29,-1.34 -2.34,-0.1 2.23,1.18 0.92,1.46 3.36,0.03 -3.1,2.01 -0.79,2 -1.94,-0.1 3.44,1.24 -0.39,1.24 -2.39,1.88 1.55,3.4 3.28,2.29 0.81,1.33 -0.45,0.7 1.84,0.03 -0.24,1.37 1.21,-0.83 -0.05,0.83 0.95,0.09 -0.47,-1.08 1.47,-0.13 -0.39,2 1.55,0.51 -0.03,0.89 -1.18,-0.67 -0.34,0.83 -0.92,-0.95 -0.47,0.44 0.84,0.92 2.78,0.6 0.81,4.26 -1.71,1.43 -0.05,0.98 -2.44,-0.79 -0.39,-1.27 -1.23,1.68 -1,-1.3 -1.47,0.63 -0.92,-0.92 -3.96,0.57 0.05,0.67 2.36,-0.19 0.24,0.95 1.31,-0.79 -0.39,1.37 -2.21,0.38 -0.18,1.08 1.97,-0.57 2.26,0.38 -0.63,0.57 1.37,-0.32 0.45,2.28 -1.26,0.44 0.63,2.19 -2.07,-0.89 -0.34,1.68 -1.42,-0.6 -1.05,0.73 1.13,1.43 -0.24,0.92 -0.89,-0.48 -0.84,0.79 -1.34,-1.3 -0.47,1.62 -0.63,-0.67 -1.65,0.82 1.13,1.01 -1.68,0.19 1.68,0.95 0.26,1.01 -1.13,0.82 -2.21,-0.86 0.03,-0.63 1.1,0.03 -0.71,-0.98 -1.18,-0.03 0.34,-0.86 -3.05,-1.24 1.42,-1.93 -2.76,-2.63 -0.97,0.03 -0.03,0.73 -1.18,-0.38 0.21,-0.79 -2.39,-2.09 0.08,2.6 -2.52,-1.71 -0.84,1.74 -0.5,-0.67 -2.94,0.35 -1.47,-0.79 0.08,-1.24 -0.95,-0.63 0.47,-1.94 2.63,-2.41 0.34,-1.87 0.95,1.08 1.23,-0.38 0.05,-3.59 2.55,-2.54 2.68,-0.67 0.42,-2.48 1.1,-1.08 -0.39,-1.65 2.23,-1.97 0.68,0.54 0.97,-0.79 0.5,2.77 -0.73,2.42 0.76,0.8 2.68,0.25 1.71,-4.93 1.13,-0.35 -1.15,-0.54 -0.63,-4.17 -2.05,0.25 -1.13,2.2 -1.97,-1.24 -0.76,1.14 -1.73,-3.31 -1.55,0.35 -4.25,7.25 -3.86,0.13 -1.31,-1.21 -2.94,3.66 -2.94,1.08 -1.79,2.95 -2.76,1.27 -2.28,0.19 -0.03,0.95 1.39,0.76 -1.02,0.45 -0.66,2.57 -1.08,0.95 0.95,0.7 1.63,-0.32 -0.13,1.49 -1.6,-0.48 0.03,2.48 -1.55,-0.38 -1.16,1.3 1.65,2.03 -0.95,0.51 -0.37,1.55 1.5,2.09 -2.05,0.82 -1.39,-1.59 -0.58,0.83 0.97,2.31 -0.84,1.05 -1.65,-0.79 -4.73,-0.19 1.52,2.47 -0.16,1.46 -1.21,-1.81 -2.6,-1.58 -2.55,0.35 -1.29,-0.92 0.29,-1.4 -2.05,-0.06 1.02,-1.24 -0.95,-3.84 1.05,-3.93 -0.66,-0.51 0.42,-1.71 -0.87,-1.02 0.24,-1.17 -1.02,-0.92 0.84,-5.18 -1.55,2.73 -0.6,9.43 0.55,0.64 -1.05,0.67 0.68,2.63 -2.55,1.55 0.79,1.55 -2.21,3.3 -2.36,0.29 -2.34,1.43 -0.08,0.95 -0.81,-0.82 -1.37,0.48 -0.52,1.49 -0.97,-0.25 -0.55,1.05 -0.55,-0.57 -0.6,0.79 0.5,0.57 -0.94,1.17 0.84,0.73 -0.05,2.34 -1.71,1.08 0.6,0.51 -0.79,1.01 0.53,2.37 -4.28,-0.85 -1.5,2.21 -1.44,0.25 -0.34,1.01 -0.87,-0.32 0.26,-2.21 -0.66,-0.54 1.39,-1.68 -0.6,-3.07 -1.44,-0.63 -3.18,2.03 -0.6,-1.08 0.31,-0.66 0.92,0.85 -0.21,-1.01 0.97,0.09 -1.26,-2.22 2.39,-0.41 -1.08,-2.44 1.68,0.92 1.08,-1.65 -0.71,-2.82 -1.13,0.92 -1.29,-0.29 v 0.98 l -2.63,-2.44 0.84,-0.86 0.37,-0.25 0.16,-1.65 -0.63,0.25 -0.74,-0.95 1,-0.73 -0.92,-2.06 1.34,-0.83 -0.79,-1.36 -1.92,-0.16 2.21,-1.68 -0.31,-0.83 -2.05,0.63 -0.03,-1.59 -2.28,-0.79 0.21,1.21 -1.5,0.25 0.03,0.95 -1.44,0.7 -0.79,-0.79 0.92,-2.35 -2.21,-0.09 -2.86,-1.43 -2,0.7 -0.95,-1.14 0.87,-1.02 -3.18,-1.18 0.11,-2.95 1.23,-1.02 -0.42,-0.57 -0.41,0.7 -1.18,-0.29 -1.18,-1.14 -0.45,-4.19 0.76,-0.7 -0.16,-2.45 0.58,0.45 0.68,-1.11 1.05,-5.15 1.31,-0.54 1.05,0.99 -0.32,0.73 1.26,-0.13 1,3.25 1.76,1.4 -1.55,1.3 0.16,2.76 -0.71,0.99 2.55,1.43 -0.1,2.89 1.31,0.63 0.26,1.84 1.02,-1.49 6.75,4.06 -0.18,-0.89 2.89,-1.46 0.45,-1.14 -0.87,-0.54 -2.02,0.98 -0.45,-2.89 -1.18,1.18 -0.81,-2.45 -1.05,0.25 0.5,-1.84 -0.74,-0.06 0.05,-0.83 -0.87,0.03 -0.31,1.24 -1.39,0.92 -1.08,-0.95 1.65,-1.97 -0.7,-2.42 1.13,0.92 0.47,-0.41 -0.74,-1.78 -1.05,-0.19 1.05,-0.95 1.81,3.5 1.65,-1.91 0.5,0.6 0.55,-0.95 1.13,0.67 -2.57,3.59 1.13,1.27 0.97,-0.38 -0.03,0.89 1.63,1.21 3.94,0.51 1.57,1.37 1,-1.33 -1.31,-0.38 0.13,-1.4 2.21,0.22 0.31,0.89 3.26,1.4 3.54,-0.16 -2.81,-0.86 -3.02,-2.22 0.24,-2.67 -2.39,-0.13 -1.18,-2.92 -2.68,-3.18 -2.47,-0.25 -1.44,1.11 -0.74,-1.65 -1.71,0.54 -1.58,-1.08 -2.42,1.84 -2.34,-0.86 1.63,-1.56 -0.21,-1.56 1.16,-0.44 -0.06,-1.36 -2,0.13 -0.71,-2.17 2.99,-4.26 1.81,-0.7 -1.6,-2.9 0.63,-1.31 -1.29,-0.35 0.29,-1.98 h 0.84 l 0.45,-1.28 -1.47,-1.88 0.66,-0.73 -0.79,-1.21 0.53,-2.23 -1.16,-0.77 -0.92,-3.25 -0.32,2.77 -0.87,0.7 0.08,0.77 1.42,0.61 -0.89,1.43 0.76,0.51 -0.71,0.86 0.39,0.92 -2.49,1.05 -1.37,-0.16 -0.24,-1.63 -1.92,0.25 -0.18,-0.73 1.5,-1.05 -2.42,-2.5 1.63,-2.55 -0.29,1.4 0.95,-0.67 0.81,1.69 1.89,-0.96 0.94,-2.04 -1.86,-0.42 4.91,-3.16 -0.08,-1.5 -0.9,-1.11 -2.63,0.83 -0.26,-2.04 -1.65,-0.42 1.26,-0.96 -1.16,-2.17 -1.34,-0.03 -0.13,0.73 -1.37,-0.96 1.21,2.24 -1.37,1.05 1.26,0.89 -1.29,1.21 -1.47,-2.08 -2.06,1.01 -0.6,-3 -1.02,-0.67 0.42,-1.28 1.65,-0.13 -2.21,-2.43 0.81,-1.92 0.76,0.31 -0.26,-1.3 1.47,-0.9 0.71,1.92 1.05,-0.83 1.36,0.42 0.08,1.25 1.29,-0.06 0.92,-1.63 -0.6,-0.77 h 0.97 l 1.08,-1.28 0.05,2.56 -0.68,2.33 -0.76,0.22 -0.13,2.46 1.21,0.22 0.89,-1.02 -0.71,2.65 1.23,0.42 0.74,-0.58 0.21,1.95 2.23,-2.75 -0.66,2.27 1.13,-1.18 1,1.53 -1.55,2.27 0.97,-0.03 0.1,1.85 2.23,-0.06 -0.58,-1.76 2.1,-1.41 1.44,-2.3 -2.07,-0.96 2.1,-0.67 0.66,-1.18 -4.07,-0.73 -3.62,-5.82 -2.18,-1.25 0.29,-1.34 -1,-0.48 1.63,-0.54 0.68,-2.56 -4.1,0.86 -1.58,-0.8 -0.26,-1.73 -1.37,-1.12 1.1,-2.08 1.34,2.85 1.37,-1.38 -0.55,-0.99 1.6,-2.18 -0.29,-0.71 -1.76,0.03 0.74,-1.31 3.12,0.03 0.74,-5.29 1.76,-4.45 4.7,1.57 -3.47,-2.37 -0.76,-2.4 0.45,-2.34 1.47,-1.41 4.49,-0.24 0,0 1.87,0.62 0,0 1.87,1.56 0.94,5.62 1.87,2.18 1.25,4.06 h 1.71 l 0.38,1.7 0,0 4.35,-0.23 1.45,-1.54 2.1,-0.11 0,0 0.97,0.43 2.07,-0.71 0,0 1.53,-1.5 3.14,-0.96 0,0 2.41,-1.22 0.62,-2.97 0,0 -0.26,-0.77 0,0 1.6,-1.63 0,0 0.44,-3.77 0,0 0.79,-1.99 2.27,-0.98 0,0 1.53,0.35 0,0 1.08,0.22 1.57,-1.87 3.02,0.61 4.04,2.99 0,0 3.56,5.67 0,0 1.97,0.57 1.02,-0.69 0,0 0.67,-3.1 1,-0.64 0,0 0.98,-1.79 2.52,0.08 1.35,1.04 0.46,4.41 0,0 -1.06,2.31 2.08,0.67 0,0 1.01,2.88 -0.42,3.61 0,0 2.59,1.98 2.1,0.54 0,0 3.03,-1.09 0,0 0.96,-0.9 0,0 1.3,-0.84 3.15,1.36 0,0 1.93,-1.12 1.44,1.37 0,0 1.13,0.66 6.15,-0.02 0,0 2.38,-0.7 3.19,0.36 0,0 1.75,-0.46 2.95,-3.79 1.76,-0.98 0,0 2,-0.11 0,0 4.54,2.08 0,0 6.38,4.46 0,0 -0.8,2.26 2.66,2.99 0.91,9.22 6.57,6.46 0.19,2.9 0,0 1.09,1.05 0,0 3.56,3.8 0,0 1.74,1.33 0,0 2.24,8.23 -2.78,-0.09 -1.36,-2.97 -2.97,1.66 -0.05,-2.9 -1.42,-2.04 1.13,5.2 -1.79,2.1 -2.02,0.77 0.29,1.43 -3.2,1.53 -0.95,1.37 -0.95,-1.21 0.45,-0.57 -2.07,0.22 -1.52,-2.26 0.16,-2.46 -0.71,-0.67 -0.13,3 -1.97,0.54 2.44,1.88 -0.5,0.8 -0.39,0.19 -1.92,0.8 1.44,0.54 1.58,3.76 2.89,0.67 -0.94,1.31 1.16,1.43 0.03,-1.12 2.31,0.8 2.55,-1.78 0.92,-1.53 0.1,-0.29 3.18,-0.96 -0.95,0.86 1.76,0.7 -0.13,-0.76 2.31,-0.83 1.34,1.34 -0.84,0.19 -0.29,5.89 -0.89,-0.06 -1.34,2.61 0.97,4.55 h -2 l -0.26,1.11 -2.95,0.54 z m -66.86,-52.3 -1.02,-4.54 -1.94,-2.34 -1.83,-0.87 -2.44,-0.09 -2.44,0.96 -4.01,3.14 -1.48,0.09 -3.57,-2.09 -0.61,-2.18 -2.18,-0.09 -2.09,5.31 -2.35,-0.09 -1.74,2.09 -1.13,4.79 0.44,4.09 7.23,1.04 3.75,6.1 h 3.74 l 3.4,-2 h 3.83 l 1.48,-1.04 3.13,0.61 3.4,-2.35 2.18,-3.48 0.96,-5.83 -2.09,-0.96 -2.62,-0.27 z m 49.87,83.13 -1.42,-2.28 -0.05,1.14 -0.68,-0.41 -0.45,1.01 -0.92,-0.03 0.66,-0.82 -1.68,0.16 -1.76,-1.17 0.39,2.57 -0.81,0.48 2.21,-0.51 1,0.6 -0.21,0.63 -1.86,-0.22 1.21,1.27 h 1.68 l -0.55,1.74 0.5,0.7 2.7,-1.71 1,0.48 0.76,-0.95 -0.11,-2.06 -1.61,-0.62 z m 23.29,-6.44 1.39,-0.51 -1.84,-2.25 -0.55,-2.16 -1.71,0.03 -2.55,1.75 -1.42,-0.13 2.18,1.78 1.26,-0.41 -0.74,1.17 1.5,0.7 -0.6,0.89 1.84,-0.19 -0.03,0.63 1.65,0.29 -0.87,0.57 2.7,0.51 0.76,-1.17 -2.97,-1.5 z m -3.73,-43.68 -0.95,-0.83 -1.76,0.67 -0.68,1.18 0.95,0.73 -0.47,0.45 2.26,0.57 0.92,-1.91 1.58,-0.38 -0.34,-0.57 -1.51,0.09 z m -89.64,58.33 -1.31,2.6 1.39,0.82 0.03,-1.9 1.08,-1.46 2.55,-0.1 0.55,-1.96 2.31,1.24 1.55,-0.1 0.08,-0.82 h -0.71 l -0.16,-1.36 -0.81,0.13 0.21,-1.24 -1.1,0.82 -1.42,-1.01 1.79,-0.1 0.29,-0.98 -1.13,-0.29 -0.08,-1.39 -4.25,1.24 -2.23,2.57 0.34,1.36 -1.71,2.25 2.74,-0.32 z m 65.2,-11.95 1.44,0.32 0.39,-0.7 0.58,0.7 1.13,-0.83 -1.39,-1.97 -2.89,-0.22 0.16,-0.79 1.21,0.38 -1.52,-1.78 1.84,-0.79 -0.47,-0.92 -1.52,-0.16 -2.23,2.89 2.05,1.05 -0.42,0.54 0.66,0.44 -1.68,1.05 0.94,1.55 1.02,0.16 0.7,-0.92 z m 31.51,3.87 0.31,-1.01 -1.08,0.57 0.29,0.89 -1.16,2.22 1.5,-0.25 -1.47,1.65 0.26,0.54 0.87,-0.48 0.1,0.82 0.71,0.03 0.97,-5.04 -0.71,0.47 -0.59,-0.41 z m -78.75,12.95 -1.16,1.36 0.26,2.12 0.55,-0.38 0.81,1.27 4.02,-2.59 -0.13,-0.92 -1.58,-0.85 h -2.77 z m -9.69,2.88 -0.05,-0.95 0.52,1.46 1.08,-0.03 -0.24,-2.34 1.5,-0.16 0.1,-1.52 -1.68,0.92 -0.71,-1.46 -1.44,0.41 -0.13,-0.66 -0.68,0.85 -1.5,-1.61 -1.37,1.3 0.13,1.04 -1.23,0.51 -1.6,-1.42 -1.39,1.27 -2.18,-0.13 2.73,0.98 1.21,1.39 1.44,-1.39 1.86,0.13 1.21,3.13 1.31,-1.2 1.11,-0.52 z m 20.69,-5 -0.89,-0.48 -2.91,1.27 0.05,-1.96 -1.55,-1.46 -0.21,0.89 h -1.63 l 0.63,0.63 -0.89,0.06 v 1.14 l -2.13,-0.32 2.13,1.24 0.71,-0.73 1.34,0.86 0.34,0.79 -1.42,0.32 1.16,0.67 2.05,-0.95 0.13,0.73 -1.58,1.11 0.42,1.83 1.65,-2.78 2.02,-0.51 -1.71,-0.29 0.55,-0.89 3.31,1.14 -1.89,-1.74 0.32,-0.57 z m -16.3,-3.83 -0.6,-1.33 -0.66,0.6 -0.47,-0.7 -0.16,0.92 -1,-1.27 -0.76,0.79 -0.05,-0.89 -0.87,-0.41 -0.31,0.63 0.94,1.36 -0.79,2.38 0.68,0.57 1.34,-0.6 0.32,1.62 1.79,0.7 1.63,-0.79 0.39,-1.17 1.81,0.35 -0.66,-1.96 1.02,-2.12 -0.55,-1.11 -1.23,2.5 -1.81,-0.07 z m 31.16,16.27 -0.03,1.17 -0.92,0.09 -0.71,2.78 1.47,-0.66 1.68,0.85 -0.81,-1.2 1.1,-0.28 -0.34,-3.07 -1.44,0.32 z m -2.6,-28.16 -1.39,0.86 -2.02,-0.29 -3.49,2.03 -1.34,-0.63 -0.42,-1.43 -0.79,0.06 -0.16,1.62 -2,0.67 1.26,1.74 -0.66,1.4 1.63,-0.63 -0.08,1.08 2.52,2.12 0.58,-1.24 1.47,0.29 0.21,-0.76 4.04,0.63 2.47,-5.29 -1.83,-2.23 z m -18.22,4.57 1.1,0.67 0.34,3.2 0.81,0.79 0.6,-0.32 -0.26,-1.27 1.05,0.25 0.13,2.79 1.18,-3.14 -0.92,-2.54 -0.97,-0.82 -0.39,0.76 -0.6,-0.95 -2.07,0.58 z"
       x="167"
       y="520"
       inkscape:connector-curvature="0"
       style="fill:#cccccc;fill-opacity:1;stroke:#ffffff;stroke-width:0.5;stroke-opacity:1" />
    <path
       id="KR-47"
       title="North Gyeongsang"
       class="land"
       d="m 522.25,208.93 0.94,0.28 -1.05,1.46 0.96,1.76 -0.74,2.61 0.94,0.68 -3.53,1.86 -0.75,1.9 -6.31,-2.46 -1.42,-5.79 0.75,0.48 4.06,-2.09 4.47,-0.62 0.77,-0.86 0.91,0.79 z m -222.6,224 -0.47,3.05 0,0 1.68,3.67 0,0 4.45,3.47 5.88,-1.11 7.44,2.75 0,0 1.92,0.57 5.51,-3.83 1.01,0.3 0,0 4.96,-4.15 2.1,0.04 0,0 2.93,0.87 0,0 3.7,1.57 0.96,-0.35 0,0 4.69,-3.88 0,0 0,0 0,0 1.66,-0.17 0,0 0,0 0,0 1.33,-0.74 -1.58,-3.54 4.75,-3.07 3.11,-1.02 4.22,-0.36 2.9,1.89 2.01,0.31 1.21,1.41 0,0 -0.43,2.84 0,0 1.02,1.11 0,0 1.98,0.65 0,0 5.37,-2.39 0,0 8.14,2.15 0,0 3.01,0.22 -1.44,-1.38 -0.24,-2.32 1.26,-2.38 1.05,-0.1 v -1.61 l 1.15,-1.29 -0.45,-1.83 2.37,-7.54 -0.63,-1.9 1.94,-2.06 -0.29,-2.13 2.47,-5.52 -1.6,-0.32 1.1,-1.07 -0.45,-1.32 0.87,-0.74 -1.52,-3.23 2.94,-2.65 0.24,-3.17 3.07,-4.36 -0.68,-0.94 0.63,-2.49 -1.21,-3.75 -1.18,-1.07 -1.23,0.29 -0.92,2.3 -3.07,3.33 -0.05,1.33 -4.17,2.49 -0.24,1.23 -0.82,0.26 -2.54,-1 -0.26,-2.13 -2.34,0.61 1.37,-1.91 2.26,-0.19 -2.6,-0.94 -1.68,1.16 -1,-1.65 0.66,-2.33 3.47,-1.36 -0.18,-1.45 1.31,-1.65 0.08,-0.97 -3.02,-2.49 -0.47,-6.02 -1.39,-0.62 -0.84,-1.59 1.39,-2.24 v -2.3 l -1.23,-1.46 0.81,-2.5 -0.68,-1.59 1.29,-7.98 4.59,-8.25 -0.24,-6.31 1.79,-2.99 -0.87,-0.78 -0.29,-4.62 -2.71,-3.65 0.03,-4.59 2.39,-5.67 1.18,-0.98 1.31,0.07 1.26,-2.41 -0.55,-2.58 0.52,-1.44 -0.92,-2.84 1.05,-1.11 -3.02,-7.67 -1.68,-1.86 -1.23,-4.31 0.5,-6.9 -1.18,-3.96 1.05,-1.87 -0.97,-4.19 0.68,-0.52 -0.18,-2.52 1.6,-0.36 -5.25,-5.24 0.37,-2.02 0,0 -4.28,0.72 0,0 -1.87,2.2 -2.5,0.94 -2.81,2.5 0,0 -1.56,2.18 v 1.25 l 0,0 1.56,2.81 -6.54,0.16 0,0 -2.66,-2.27 -2.95,-1.03 -2.61,-0.4 -2.55,2.52 -7.43,-2.62 -3.35,0.72 -0.68,-1.32 -1.72,-0.68 0,0 -2.91,4.31 0,0 -0.94,1.25 h -4.06 l -6.24,-4.37 -2.02,0.18 -0.54,4.72 -1.11,1.12 -3.07,-1.37 -1.92,0.26 -4.25,-2.34 0,0 -2.2,2.16 -2.15,-0.25 0,0 -2.28,2.61 0,0 -0.62,0.28 0,0 -3.29,3.25 -2.8,0.81 0,0 -0.79,1.24 0,0 -3.55,2.75 -3.16,5.67 0,0 -0.83,1.56 0,0 -0.05,1.33 1.31,0.61 0,0 0.8,2.91 -2.84,3.9 -4,0.78 0,0 -0.93,1.03 -2.44,-0.05 0,0 -2.19,0.18 0,0 -2.49,-4.92 -3.24,-1.85 -1.18,-1.97 0,0 -1.67,3.05 -1.13,0.34 -0.45,3.23 0,0 -0.37,0.57 -5.7,-1.74 0,0 -0.42,-0.63 0,0 -1.06,-0.38 -0.61,0.63 0,0 -2.54,3.09 -1.38,0.19 0,0 -1.64,-1.75 -0.51,0.31 0,0 -2.87,6.69 0,0 3.39,5.25 -4.6,-0.91 0,0 -1.18,-0.67 -1.21,0.59 -3.31,-1.63 0,0 -2.87,3.73 0,0 -4.25,1.42 -1.68,2.38 0.48,2.22 -3.23,3.34 0,0 -1.76,1.55 0,0 -1.56,0.35 0,0 -0.99,1.91 0.73,1.1 5.37,1.13 1.22,1.22 -0.14,0.93 0,0 0.97,1.97 0,0 2.01,1.36 -0.42,1.71 0,0 -2.02,0.89 -0.81,7.63 0,0 0.6,2.48 -1.28,2.02 1.32,3.25 0,0 0.49,0.31 0,0 -1,2.56 -2.66,2.31 0,0 -0.07,4.29 2.15,1.78 0,0 3.41,-2.56 0.46,1.44 2.5,1.48 0,0 1.85,1.57 0,0 1.17,0.4 0,0 1.99,-0.84 0,0 2.23,-0.79 2.02,0.7 0,0 0.62,1.07 0,0 0.15,3.17 0,0 1.26,1.87 0,0 -0.6,1.28 -3.12,-1.41 -2.41,1.43 -1.18,1.74 1.18,2.96 -0.41,3.57 -1.76,1.46 -1.04,4.64 -1.84,2.6 -2.88,-0.1 -1.08,1.07 0,0 4.72,8.97 -1.29,5.01 0,0 0.7,2.8 2.7,0.88 0,0 0.71,0.37 0,0 0.31,2.61 0.94,0.56 0,0 3.92,0.54 0,0 1.74,1.76 0,0 7,0.52 1.49,0.75 0,0 2.03,1.49 0.78,2.88 0,0 0.66,0.5 0,0 2.07,0.99 0.43,1.76 2.52,1.49 0.94,1.79 -2.06,6.18 0,0 -0.27,1.66 0.89,1.64 3.8,1.49 3.44,-0.62 0,0 2.96,-1.09 4.49,1.36 0,0 2.24,2.18 0,0 1.71,1.25 0,0 -0.73,-3.43 -4.06,-4.99 0.31,-2.81 3.43,1.87 h 2.18 l 0.62,-2.5 -3.12,-3.43 1.25,-3.12 1.25,-2.81 5.31,-0.94 -0.31,-1.87 -2.81,-2.18 -4.68,-0.31 1.56,-5.93 2.18,-3.12 4.06,-1.87 0.62,5.62 h 2.5 l 3.43,-8.11 5.93,-1.25 2.81,-3.12 3.43,-0.94 3.12,0.31 3.74,3.12 0.63,7.49 1.87,4.06 -0.94,2.19 -3.43,1.25 -1.56,3.43 v 3.12 l -2.5,0.31 V 421 l 1.25,1.56 v 4.06 l -3.43,1.25 -1.56,1.87 -2.81,-0.31 -0.62,-2.81 h -3.12 l -2.18,1.25 -1.56,2.5 0.45,1.51 0,0 1.28,-0.21 0.71,1.26 z"
       x="324"
       y="349"
       inkscape:connector-curvature="0"
       style="fill:#cccccc;fill-opacity:1;stroke:#ffffff;stroke-width:0.5;stroke-opacity:1" />
    <path
       id="KR-48"
       title="South Gyeongsang"
       class="land"
       d="m 240.35,406.64 2.09,0.38 0,0 0.71,0.37 0,0 0.31,2.61 0.94,0.56 0,0 3.92,0.54 0,0 1.74,1.76 0,0 7,0.52 1.49,0.75 0,0 2.03,1.49 0.78,2.88 0,0 0.66,0.5 0,0 2.06,0.99 0.43,1.76 2.52,1.49 0.94,1.79 -2.06,6.18 0,0 -0.27,1.66 0.89,1.64 3.8,1.49 3.44,-0.62 0,0 2.96,-1.09 4.49,1.36 0,0 2.24,2.18 0,0 1.66,1.24 2.46,-0.05 3.49,-2.5 0,0 1.52,-0.38 2.42,0.89 0,0 1.35,-0.92 0.54,-3.26 2.05,-1.21 0,0 0.69,1.28 -0.47,3.05 0,0 1.68,3.67 0,0 4.45,3.47 5.88,-1.11 7.44,2.75 0,0 1.92,0.57 5.51,-3.83 1.01,0.3 0,0 4.96,-4.15 2.1,0.04 0,0 2.93,0.87 0,0 3.7,1.57 0.96,-0.35 0,0 0.77,-0.79 0,0 1.47,2.43 v 1.47 l -1.2,1.05 0,0 -2.23,1.89 0.34,4.83 2.23,1.05 h 2.75 l 0,0 2.4,0.21 3.26,3.35 0,0 5.66,5.87 0,0 3.09,0.21 0,0 1.27,1.55 0,0 -2.95,2.71 -0.57,1.86 -4.87,0.57 -3.61,6.64 -1.84,-0.32 -3.95,2.48 -4.06,4.94 -4.15,0.14 -3.87,2.43 -2.29,0.29 -0.43,5.01 -6.93,2.61 0,0 -1.81,2.23 -0.97,-0.74 0.16,1.25 -2.26,-0.67 -1.13,1.05 -0.37,-0.73 -0.87,0.19 -0.05,-0.93 -1.23,-0.03 -0.6,0.83 -0.71,-0.74 1.5,-2.21 -0.6,-1.82 -0.87,-0.29 0.21,-0.99 -1.68,0.8 0.52,1.76 -1.18,0.96 -0.34,-1.54 -1.79,-0.73 0.29,-1.34 -1.84,0.32 -0.42,1.73 -0.63,-0.83 -0.84,0.26 0.76,-1.09 -0.47,-1.89 -1.52,-1.09 -0.21,-3.23 3.94,-2.37 -4.2,1.34 -2.21,2.59 1.39,1.6 -0.29,1.31 1.13,0.13 0.95,2.11 -2.18,0.54 -0.13,0.7 2.52,-0.06 0.05,3.39 2.44,1.95 -2.26,0.64 0.79,0.96 1.37,-0.32 0.87,0.7 -5.94,1.76 1.42,-1.15 -0.42,-0.22 -1.97,-0.19 0.58,1.37 -1.21,0.16 -1.29,-1.82 2.23,-0.16 -0.31,-1.21 1.86,-1.12 -3.78,-1.15 0.6,-0.74 -0.87,-0.03 -0.08,-1.44 -1.02,1.82 -1.55,0.64 -2.52,-1.18 0.1,0.83 -1.02,0.42 -2.28,-0.89 -0.21,1.05 2.97,2.11 -1.08,-0.38 -0.42,0.96 -2.1,0.19 -1.31,1.95 h -1.16 l -0.34,-0.89 -2.73,1.92 -0.76,-0.41 0.71,1.6 -1.23,0.48 -0.97,2.42 2.73,-1.08 0.11,-1.76 1.5,-0.89 4.07,-1.02 -0.18,-2.01 0.79,-0.19 0.39,0.83 0.97,-1.44 1.26,1.31 -0.05,1.21 -0.26,0.89 -1.79,-0.06 2.02,0.67 -0.03,1.4 1.97,1.5 -0.92,1.24 -0.84,-0.54 -0.6,1.95 -1.29,-0.51 -0.05,1.02 -5.2,-0.8 0.03,1.44 1.94,-0.42 1.21,0.38 0.24,1.05 -1.94,1.95 0.58,0.25 -0.42,1.69 1,0.89 -1.68,2.52 0.79,0.76 -0.6,0.77 0.18,2.77 2.36,-3.25 -0.6,-1.47 1.23,-0.1 1.1,2.52 0.97,0.25 -0.76,2.29 -1.05,-1.34 v 1.94 l -0.87,-0.13 0.5,2.26 -3.94,1.37 2.76,0.64 0.24,0.92 -0.03,2.07 -1,0.16 0.81,0.86 -1.89,0.29 1.52,1.21 -1.16,2.23 -2.49,-0.38 -0.08,-1.69 -0.81,0.38 0.29,-1.18 -0.84,-1.21 -0.63,0.96 -1.13,-0.76 1.5,-0.96 -0.05,-1.27 -2.99,-1.21 -1.05,0.96 -0.58,-1.05 0.92,-0.41 -0.24,-1.43 0.66,1.11 0.95,-1.18 1.08,1.43 0.63,-0.54 1.23,2.52 -0.18,-1.75 1,0.32 0.94,-0.76 -1.1,0.32 -0.79,-0.57 0.42,-0.86 -1.31,0.09 -0.37,-1.15 1.73,-1.37 2.92,0.13 -0.34,-0.61 h -2.81 l -0.55,-2.36 -0.29,0.7 -0.79,-0.42 0.29,1.88 -1.58,-0.32 -0.47,-1.69 -0.21,1.56 -0.66,-1.02 -1.29,0.7 -0.03,-1.24 -1.08,0.8 -1.79,-2.71 1.39,-0.7 4.07,0.13 -1.39,-4.62 -1.02,0.19 0.21,-1.08 -1.31,-0.64 0.29,2.01 -2.02,0.89 0.47,2.07 -1.42,1.02 -0.71,-0.73 0.03,1.4 -1.55,-0.92 0.03,-3.22 -1.65,-0.25 -0.31,-0.16 -1.63,0.32 -0.58,-0.61 -0.42,0.83 -2.02,0.19 0.79,1.28 -0.18,3.7 -1.89,-0.16 -0.66,-1.4 -0.21,1.21 h -0.74 l -0.68,-1.21 -1.6,0.57 -0.87,1.56 -1,-1.85 -1.05,0.26 -0.73,-1.02 1.68,-1.31 -4.25,-0.06 -3.44,-1.94 -0.94,-2.04 2.18,-2.33 -1.34,-2.08 1.02,-2.33 -0.42,-0.8 -0.74,0.64 -0.16,-0.51 1.29,-5.46 1.16,-0.99 -0.63,-0.32 -2.02,1.53 -1.18,4.66 -1.42,-0.73 1.18,-0.64 -0.24,-0.7 -0.73,0.86 -2.05,-0.93 -0.89,1.34 1.92,-0.35 1,2.81 1.13,0.25 -1.05,3.35 -0.97,-1.59 -1.47,2.11 -1.13,-2.17 -2.18,1.47 0.5,0.86 -1.5,-0.54 0.37,-0.83 -0.87,-0.42 0.76,-0.22 0.08,-1.24 -1.55,-1.44 -0.6,3.83 h -0.92 l 0.39,1.25 -1,0.13 -0.31,1.34 -1.84,1.34 -2.94,0.19 -0.24,-1.53 -0.58,0.38 -0.55,-0.86 -0.42,2.1 -1.72,-0.25 -0.79,-0.77 0.04,-2.93 -1.58,-4.11 0,0 -1.74,-1.33 0,0 -3.56,-3.8 0,0 -1.09,-1.05 0,0 -0.19,-2.9 -6.57,-6.46 -0.91,-9.22 -2.66,-2.99 0.8,-2.26 0,0 0.23,-0.2 0,0 2.22,-2.3 -0.55,-2.87 1.16,-3.15 3.7,-3.57 0,0 0.46,-4.01 -1.63,-0.43 -0.69,-1.93 0.69,-3.34 -1.27,-2.27 0,0 -0.42,-2.91 0,0 -2.77,-1.37 -0.17,-2.32 5.22,-14.41 0,0 0.89,-0.8 0.16,-1.92 0,0 0.78,-4.82 4.94,-4.74 1.66,-4.08 0,0 0.65,-0.47 0,0 2.02,0.44 1.83,-1.15 0,0 1.46,-0.01 3.11,-1.88 2.05,-4.62 2.33,-1.51 0.13,1.94 1.12,1.37 z m 85.33,91.46 0.5,1.44 1.02,-0.29 0.47,1.76 -1.63,3.42 0.66,0.8 -1.31,1.85 0.26,-0.6 -1.1,-0.96 0.82,-1.21 -2.05,-0.89 0.94,-0.8 -1.79,-3 3.21,-1.52 z m -13.13,4.15 0.71,-0.64 1.31,0.51 0.89,1.47 -0.87,1.66 -1.05,-0.1 0.5,1.05 -1.37,0.06 0.79,0.51 -0.39,2.23 1.94,0.92 0.97,2.93 -0.87,-0.09 0.55,2.93 -1.26,0.22 0.63,1.31 -2,1.15 -0.05,1.05 1.45,0.29 -0.11,0.89 1.86,-2.23 0.97,0.57 -0.11,0.73 0.45,1.24 -0.66,0.7 -1.21,-0.29 1.16,2.39 -1.13,0.29 -0.58,-0.99 -1.6,1.05 0.66,1.43 0.87,-1.02 0.74,0.54 -0.6,1.08 2.02,4.14 -2.89,-0.86 0.55,-0.8 -0.76,-1.37 -1.16,1.91 -0.68,-0.19 0.21,-1.24 -2.07,-0.45 -0.24,2.29 0.71,0.86 -1.44,1.27 -1.18,-0.45 -0.73,1.78 1.39,2.39 2.71,0.19 -0.47,1.4 -1.94,-1.34 -2.5,1.02 -0.18,-0.7 -0.47,0.76 1.65,1.43 -0.16,0.92 -1.21,-0.48 -1.5,1.46 -1.81,-0.92 -1.29,0.76 0.79,-2.29 2.07,-0.99 -2.84,-1.11 0.21,-2.45 2.05,-0.16 -0.87,-0.76 0.5,-0.86 -2.13,-0.06 -1.23,1.4 -0.84,-1.08 1.42,-1.4 -1,-0.16 -1.39,1.56 0.24,-1.05 -0.66,-0.38 4.38,-1.18 0.03,-2.29 0.97,-1.62 -0.71,0.19 -1,-1.53 1.05,0.32 0.03,-0.7 -1.44,-0.83 -0.81,2.48 -3.31,-0.03 -0.11,1.37 -0.76,-0.25 0.37,0.92 -1.26,0.73 -0.94,-1.69 0.68,-0.86 -2.47,-1.08 -0.89,-3.73 1.89,-3.15 0.81,-0.06 -0.39,-0.7 0.81,0.35 -0.47,-0.8 1.44,0.19 0.92,-1.56 3.86,2.81 0.92,-0.16 -0.55,-0.92 1.44,-0.77 3.73,2.61 -0.58,-2.84 -1,0.29 0.26,-1.05 -2.42,-2.26 1.89,-3.09 -0.03,1.37 2.6,-0.35 -0.03,-0.64 1.63,1.05 -0.16,-1.66 1.08,-1.12 -0.55,-0.73 1.05,-0.26 -0.5,-0.8 1.08,-0.13 0.26,-0.29 0.73,-0.73 -1.31,0.13 0.76,-3 0.89,-0.13 0.66,0.35 z m -3.99,1.02 0.47,1.25 -0.81,3.61 -1.73,0.38 -0.5,-0.7 -1.15,1.08 0.21,-1.4 1.37,-0.83 -0.89,-0.77 1.58,-0.03 -0.24,-1.12 1.69,-1.47 z m -71.45,8.65 2.21,1.27 0.18,-0.8 0.63,0.29 v 5.58 l -2.23,0.83 -0.34,1.5 1.63,2.68 -0.58,0.92 3.18,1.43 0.16,2.13 1.71,0.25 -0.34,-0.86 2.94,-2.07 3.73,-0.29 1.47,1.4 1.42,0.1 0.47,2.32 -1.18,0.06 0.47,0.96 -0.76,1.21 0.87,3.53 -2.34,3.02 2.49,1.78 -3.9,0.84 0.66,-1.94 -0.94,-0.6 -0.79,0.29 0.08,1.08 -1.52,-0.19 -0.34,-0.83 -0.47,1.43 -2.57,-0.06 -1.23,-4.29 0.63,-3.53 -4.36,1.34 0.71,3.69 -2.13,1.33 -2.99,-0.64 0.42,-0.73 -1.08,-0.41 0.18,-1.21 -1.5,-0.1 0.37,-2.13 1.08,-0.25 -1.71,-2.96 0.24,-1.43 -2.18,-2.9 -0.58,-2.83 1.05,-1.97 0.97,-0.06 0.08,-2.13 1.18,-1.4 0.39,0.61 1.65,-0.22 -0.97,-1.27 0.1,-1.56 1.08,-0.38 0.42,-1.24 2.18,-0.59 z m 12.94,2.77 -1.92,6.37 1.29,0.29 -0.13,-2.07 1.31,-1.75 1,0.13 0.21,1.59 0.6,-0.26 1.08,1.31 -0.13,1.4 -1.1,1.05 0.76,-0.32 -0.13,1.18 h 1.45 l 1.08,1.94 -1.37,-0.86 -0.73,0.6 -0.97,-0.96 -0.79,0.32 -2.29,-1.53 -0.31,1.21 -1.39,0.32 -3.28,-0.89 -0.55,-3.22 1.31,-0.83 2,-3.76 3,-1.26 z m 16.08,7.14 3.07,1.78 -2.49,0.22 -2.02,2.04 -0.13,-1.31 -1.29,-0.32 -0.29,-1.34 3.15,-1.07 z m 3.46,2.2 2.76,2.87 -0.55,0.8 -2.02,-0.19 0.26,1.88 -4.02,-2.71 0.16,-0.8 1.21,0.38 -0.66,-0.61 0.87,-1.24 1.99,-0.38 z m 23.4,2.67 -0.6,0.7 h 0.89 l 0.55,3.44 1.21,-0.25 0.55,0.83 -0.32,1.18 -1.89,1.11 -2,-0.45 0.58,-1.15 -1.34,-1.78 0.24,-2.29 0.47,1.78 0.76,-0.38 -0.16,-1.05 -0.71,-0.86 0.29,-0.83 h 1.48 z m -22.61,18.89 2.86,1.56 -1,0.7 0.95,0.95 0.94,-1.65 1.34,-0.03 -0.92,2.29 -2.49,-0.86 -1.76,0.92 -0.16,0.92 -0.89,-0.16 -0.26,-0.57 1.13,-0.7 -0.79,-0.57 0.26,-0.76 -0.87,0.51 -0.45,-0.73 1.1,-0.38 -0.68,-0.99 1.69,-0.45 z"
       x="268"
       y="466"
       inkscape:connector-curvature="0"
       style="fill:#cccccc;fill-opacity:1;stroke:#ffffff;stroke-width:0.5;stroke-opacity:1" />
    <path
       id="KR-49"
       title="Jeju"
       class="land"
       d="m 148.46,673.64 0.68,0.78 -0.45,0.6 1.44,-0.09 -0.68,2.92 -2.07,-0.5 -0.45,-1.44 1.53,-2.27 z m -4.62,15.13 -3.15,2.28 -0.47,2.03 -2.47,2.48 0.16,1.44 -1.31,1.47 -5.07,-0.09 -3.12,3.25 -9.01,1.12 -2.76,2.94 -1.81,0.69 -1,-0.91 -1.71,-0.06 -0.52,1.28 -1.47,-0.88 -2.15,0.19 -5.3,1.66 -1.84,-1.84 -2.34,0.63 -1.86,-1 -3.31,1.5 -4.23,-1.13 -3.1,2.03 0.03,2.97 -1.39,-0.5 -0.95,0.62 -0.89,-0.59 0.24,-1.13 -0.84,-0.03 -2.13,-2.88 -4.88,-2.84 -1.84,-3 0.58,-3.31 -0.58,-1.81 1.79,-1.47 0.03,-1.41 2.76,-1.78 1.18,-1.82 1.21,0.19 2.18,-2.5 0.45,-2.82 4.2,-1.69 0.45,-1.97 5.38,-1.03 1.65,-1.35 1.18,0.75 7.9,-3.07 1.08,-1.22 2.02,0.6 2.42,-0.97 4.31,-0.09 0.79,-1.16 3.7,-0.25 1.1,-2.01 1.89,1.51 1.1,-1.13 4.65,-0.91 3.18,0.38 0.24,-0.94 3.33,1.13 2.76,-0.5 1.31,3.01 1.76,0.94 1,-0.63 3.26,1.03 -0.42,1.32 h 1.02 l 0.34,0.94 -1.16,2.16 1.81,1.44 1.34,-0.5 1.08,1.69 -0.47,0.56 -1,-0.66 -0.81,1.22 -0.11,1.03 1.5,1.1 -0.74,0.88 -1.23,-1.32 -0.92,4.74 z"
       x="111"
       y="689"
       inkscape:connector-curvature="0"
       style="fill:#cccccc;fill-opacity:1;stroke:#ffffff;stroke-width:0.5;stroke-opacity:1" />
  </g>
</svg>
