<?xml version="1.0" encoding="UTF-8" standalone="no"?>

<svg
   xmlns:svg="http://www.w3.org/2000/svg"
   xmlns="http://www.w3.org/2000/svg"
   version="1.1"
   x="0px"
   y="0px"
   width="500"
   height="650">

	<path id="제주" d="M56.7,631.6l0.2-0.8c0-0.1,0-0.3-0.1-0.4s-0.2-0.2-0.4-0.2h-0.6l-2-2.7      c-0.1-0.1-0.1-0.1-0.2-0.2l-2.9-1.3l-1.8-1.5l-1.7-2.8l0.5-3.1c0-0.1,0-0.2,0-0.2l-0.5-1.6l0.2-0.5l1.2-0.6c0.2-0.1,0.3-0.3,0.3-0.4      v-1.1l2.5-1.6c0.1,0,0.1-0.1,0.1-0.1l1-1.5l0.9,0.1h0.1c0.1,0,0.3-0.1,0.4-0.2l2.2-2.5c0.1-0.1,0.1-0.2,0.1-0.2l0.4-2.5l3.9-1.6      c0.2-0.1,0.3-0.2,0.3-0.4l0.1-1.5H61h1.8h0.1l1.9-0.5c0.1,0,0.3-0.1,0.3-0.3l0.1-0.2h1c0.1,0,0.2,0,0.3-0.1l1.5-1.2h0.1l0.5,0.6      c0.1,0.1,0.2,0.2,0.4,0.2c0.1,0,0.2,0,0.3-0.1l1.1-0.8l4.1-1.1c0.1,0,0.1,0,0.2-0.1l1.1-0.9l1.2-0.1c0.2,0,0.4-0.1,0.4-0.3l0.3-0.7      l0.4-0.2l1.8,0.5H80h0.1l1.3-0.2c0.1,0,0.1,0,0.2-0.1l0.9-0.6l0.7,0.3c0.1,0,0.1,0,0.2,0s0.2,0,0.2-0.1l1.1-0.6c0,0,1.9,0.2,2,0.2      c0.2,0,0.3-0.1,0.4-0.2l0.7-1l3.5-0.2c0.2,0,0.4-0.2,0.5-0.4l0.1-0.7l0.6-0.7l1.5,1.2c0.1,0.1,0.2,0.1,0.3,0.1c0.1,0,0.1,0,0.2,0      l0.8-0.4c0.2-0.1,0.3-0.2,0.3-0.3l0.1-0.3l0.4,0.1c0.1,0,0.1,0,0.2,0s0.1,0,0.2,0l3.7-1.2l3.1,0.4c0.2,0,0.4-0.2,0.5-0.4l0.1-0.5      l2.3,0.5l0.2,0.3c0.1,0.2,0.3,0.2,0.4,0.2s0.1,0,0.2,0l1.7-0.6h0.4l0.1,1c0,0.1,0,0.2,0.1,0.3l1.2,1.6c0.1,0.1,0.2,0.2,0.4,0.2      l0.9,0.1l0.5,0.7c0.1,0.1,0.2,0.2,0.4,0.2c0.1,0,0.2,0,0.3-0.1l0.8-0.5l1.9,0.2l0.7,0.5l-0.3,1c0,0.2,0,0.3,0.1,0.4      c0.1,0.1,0.2,0.2,0.4,0.2h0.7l0.2,0.5l-0.1,0.8H117c-0.2,0-0.4,0.2-0.4,0.4l-0.2,0.8c0,0.2,0,0.4,0.2,0.5l1.8,1.4      c0.1,0.1,0.2,0.1,0.3,0.1c0.1,0,0.1,0,0.2,0l0.8-0.3v0.3v0.1h-0.1c-0.2,0-0.3,0.1-0.4,0.2l-0.8,1.2c0,0.1-0.1,0.1-0.1,0.2l-0.1,1      c0,0.1,0,0.2,0,0.2l0,0c-0.1,0-0.2,0-0.2,0.1c-0.1,0.1-0.2,0.2-0.2,0.3l-0.9,4.5l-1.2,0.4c-0.1,0-0.1,0.1-0.2,0.1l-1.7,1.8      c-0.1,0.1-0.1,0.1-0.1,0.2l-0.4,1.9l-2.4,2.4c-0.1,0.1-0.2,0.3-0.1,0.4l0.1,1.2l-1.1,1.2l-1.9,0.4l-2.8-0.5H105      c-0.1,0-0.3,0.1-0.4,0.2l-3,3.1l-2.2,0.1h-0.1l-3.6,1l-0.6-0.3c-0.1,0-0.2-0.1-0.2-0.1h-0.1l-2,0.3c-0.1,0-0.2,0-0.2,0.1l-2.7,2.2      c-0.1,0.1-0.2,0.2-0.2,0.3v0.5l-1.3,0.5l-0.5-0.2l-0.1-0.3c-0.1-0.2-0.2-0.4-0.5-0.4l-1.7-0.1c-0.2,0-0.4,0.1-0.5,0.3l-0.3,0.7      l-1-0.6c-0.1,0-0.2-0.1-0.3-0.1l-2.2,0.2c-0.1,0-0.1,0-0.2,0.1l-1.5,0.8l-3.3,0.8l-0.9-1.4c-0.1-0.1-0.2-0.2-0.3-0.2l-0.7-0.2h-0.1      h-0.1l-2.1,0.6l-1.1-0.9c-0.1-0.1-0.2-0.1-0.3-0.1l-0.6,0.1c-0.1,0-0.1,0-0.2,0l-3.1,1.4l-4.1-1.1h-0.1c-0.1,0-0.2,0-0.3,0.1l-3.1,2      c-0.1,0.1-0.2,0.3-0.2,0.4v2.1c-0.1-0.1-0.2-0.1-0.3-0.1h-0.5c-0.1,0-0.2,0-0.3,0.1l-0.7,0.4L56.7,631.6z M121.1,598.4l-0.3-1      l0.6-1.6l0.2-0.1l0.2,0.2l-0.2,0.3c-0.1,0.2-0.1,0.4,0,0.6c0.1,0.1,0.2,0.2,0.4,0.2c0.1,0,0.1,0,0.2,0l0.2-0.1c0,0.1,0,0.2,0,0.2      l0.3,1l-0.3,0.7L121.1,598.4z" x="82" y="608"></path><path id="강원" d="M339.9,175.1l-1-2.2l-1.1-1.9l-0.3-2.1l0.3-3.3l-0.4-0.8l1.6-0.8      l-1.2-1.4l-1.4-1.4v-1.5l-0.2-1.3l-2.4-1.2v-1.8l-3.3-2.2l-2.1-2.4l-3.8-1.9v-2.8l-3-3.5l0.6-1.3l-0.1-0.5l0.8-3.1l-4.5-4.1      l-0.9,0.3l0.7-1.7l-1.8-2.7l-1-6.6l-1.7-1.8l-2.3-2.3l-1.9-2.2l1-1.4l0.1-3.5l-4.3-3.7l-1.4-2.9l-3.9-3.9l-0.4-1.3l-6.9-6.6v-1.2      l-4.4-5.1l-0.3-3l-4.1-3.7l-1.1-2.2l-4-3.1l-4.4-2.7v-1.7l-1-3.1L275,65l-1.4-1.2l-1.5-2.2l-1.2-0.2c0,0,0-1-0.2-1.2      s-1.2-3.6-1.2-3.6l-1.3-1.1c0,0-0.3-1.6-0.2-1.8c0-0.1,1-2,1-2s-1.7-2.7-1.5-2.7s-0.7-2.9-0.7-2.9l-1.7-2.2l-1.5-1.8l-0.9-4.7      l-3.9-7.5l0.3-1l-3.8-6.2l-0.7-3.5l-1.6-2.7l-1.2,1.7l-0.8-1.5l-0.5-1.6l-5.3-6.8V6.5l1.8-1.6c0,0-2.6-3.6-2.6-3.7s0.3-1.2,0.3-1.2      l-0.8,0.3c-0.4,0.1-4.3,2.3-4.3,2.3l-2.1,7.3l-3.3,3.2V16l1.1,3.6l-6.2,8.8L216,36l-8-1l-8-1.6l-1.6,2l-3.7,1l-4.4-3.1l-3.4,3.2      h-15.4l-6.6,2.3l-11.8-5.2l-7.8,2.1l-5.9-1.9l-6.6,2.6l-2.4-0.9l-6.2,4.5l4.4,4.6l-2.3,0.8v2l6.1-0.2l1.9,5.7l1.9,1l-0.6,1.9      l0.2,1.3l1.1-0.6l0.5,4.3l1.5,1.7h2.7l3.7-5.1l1.7,0.4l-1.1,0.9l-0.8,4.8l4.7,3.8l3.8-1.9l1.4-0.3l2.4,1.7l1.7-1l1.5,1.9l0.4,7.6      l1.3,2.7l3.5,1.7l3-0.4l1,0.6l-0.1,2.7l4.2,1.4l1.6,1.7l1,3.9l-1.2,4.1l-3.2,1.1l-1.9,2.2l-2.2,0.6l-0.6,1.5l0.9,2.9l-0.9,2.1      l1.2,3.5l-2.7,3.2c0,0-0.3,2.1,0,2c0.3-0.1,3.6-0.9,3.6-0.9l-0.1,4.4l-2,3.6l2.7,2.7l3.6-1.2l4.3,2.4l2.2,0.2l4.9,3.7l9.5,1.4      l1.6,2.9l-1,2.2l-1.9,0.6l-3.2,4l1,2.4l1.8,0.5l-0.2,4.3l-3.5,8.1l0.2,7.6l-1.6,1.2l0.8,3.8l-1,6.7l0.6,3.5l4.2,3.5l2.5-1.1l1.3-1.7      l5.9,0.7l0.6-1.1l1.8-0.7l0.5-1.8l-0.9-5l4.4-3.5l4.2,0.6l1.9,3.3l0.1,3.7l4.7-0.6l4.3-3.2l3.2,0.9l2.2-2.4l2.3-0.4l2.1,1.5l1.8,0.4      l1.7,1.6l1.7,0.4l1-0.2l1.4-0.8l1.4,0.4l0.1,1.5l-2.4,2.6l-3.4,1.9l0.8,1.9l1.9,1.5l0.9-0.7l1.7-0.5l1.1-1.3l3.2,0.2l1.6-0.4l1,0.9      l-0.1,2.6l1.6,1.2l0.9,1.5l6.3-1.4l2,0.3c0,0,3.5,2.7,3.5,2.7c0.2,0.1,4.1,1.5,4.1,1.5l4.1-0.3l1.4,2c0,0,4.7,2.7,4.9,2.7      c0.2,0,1.9-0.2,1.9-0.2l2.6,1.4l1.2-1.3l0.2-4.7c0,0,1.8-0.5,2.1-0.4c0.3,0.1,6.4,4.6,6.4,4.6l3.9-0.1l4.1-5.5l1.6,0.4l0.6,1.4      l3.1-0.9l7.5,2.5l2.6-2.2l3.1,0.4l3.1,1.2l2.7,2.2l5.4-0.1l-2.7-2.6v-1.4l2.9-2.4l3.4-2.4l2.6-0.8l2-2.4l2.9-0.3L339.9,175.1z" x="248" y="113"></path><path id="경북" d="M359,299.9c0-0.2-0.6-1.1-0.6-1.1l-1.5-0.4l-0.3,0.7l0.1,1l-4.2,4      l-0.2,1.9l-4.6,2.7l0.1,1l-5.8-3.1l2.3-1l-1.3-1.7l-2.3,1.5l0.2-2.3l0.1-1.3l0.4-1h2l1-0.5l0.3-2.2l2.1-2.5l-2.3-1.3l-1.9-1.5      l-0.8-1.7l0.2-3.5l-1.7-2l0.2-1.4l0.8-1.7c0,0-1-3.2-1-3.3s0.7-1.9,0.7-1.9l-0.3-1.8c0,0-0.6-1.2-0.6-1.4s0.3-1.9,0.3-1.9l0.5-3.9      l-0.1-3.2c0,0,0.4-3.8,0.4-3.9s0-8.2,0-8.2v-2.7V244v-4.1l1.5-0.8l0.8-5.1l1.6-2.4l2.2-2.4l2.5-2.4l-0.2-5.4l-0.9-1.2      c0,0,1.4-1.8,1.4-1.9c-0.1-0.1-0.9-1.5-0.9-1.5s-0.9-1.1-1-1.5c0-0.4,0.1-2.2,0.1-2.2l-3.5-4.4c0,0-0.7-4.4-0.7-4.6s0.4-1.6,0.4-1.6      l0.2-5.9l-1.2-2.7l0.4-1l0.1-2.7c0,0,0-2.4,0-2.6c0-0.2,0.3-1.6,0.3-1.8s1-1.9,1-1.9l-2.4-1.9c0,0-1.6-1.5-1.7-1.6s-0.5-2.2-0.5-2.2      l-0.6,0.1l-2.3,0.2l-2,2.4l-2.6,0.8l-3.4,2.4l-2.9,2.4l0,1.4l2.7,2.6l-5.4,0.1l-2.7-2.2l-3.1-1.2l-3.1-0.4l-2.6,2.2l-7.5-2.5      l-3.1,0.9l-0.6-1.4l-1.6-0.4l-4.1,5.5l-3.9,0.1c0,0-6.1-4.5-6.4-4.6s-2.1,0.4-2.1,0.4l-0.2,4.7L282,193l-2.6-1.4      c0,0-1.8,0.2-1.8,0.2c-0.2,0.1-5-2.7-4.9-2.7l-2,2.1l-2.2-0.1l-2.3,2.5l-1.1,0.7l-3,2.9l-2.8,0.9l-0.6,1.2l-3.7,2.7l-4.2,7.5      l-0.1,1.4l1.4,0.6l0.9,2.9l-2.7,4.2l-4.1,1.2l-0.7,1.6h-2.9l-1.9-0.7l-2.5-5.5l-3.2-2.1l-1.4-2l-1.3,3.3l-1.2,0.2l-0.6,3l-0.4,0.9      l-5.6-1.9l-0.4-0.8l-1.1-0.2l-3.2,4l-1.4,0.1l-1-1.9l-1.1,0.4l-2.9,6.7l3.6,5.4l-4.9-1.1l-0.9-0.8l-1.4,0.7l-3.2-1.7l-3,3.8      l-4.1,1.4l-1.6,2.2l0.3,2.4l-4.9,5l-1.4,0.3l-1,1.7l0.7,0.9l5.2,1.4l1.2,1.2l-0.2,1l1,1.9l2,1.5l-0.6,1.8l-1.8,1l-0.7,7.4l0.5,2.3      l-1.2,1.9l1.2,3.5l0.6,0.4l-0.8,2.4l-2.8,2.4l0.1,4.5l1.9,1.6l3.4-2.7l0.5,1.8l2.6,1.5l1.9,1.4l1.2,0.4l4-1.9l2.1,0.8l0.7,1.2      l0.1,3.2l1.4,1.7l-0.6,1.4l-3.1-1.5l-2.4,1.3l-1.3,2l1.4,2.8l-0.6,3.8l-1.8,1.4l-1.2,4.7l-1.6,2.2l-2.2,0.9l-1.9,0.1l4.8,9.1      l-1.3,5.1l0.3,1.8l1,1.3l2.3,0.5l0.6,0.5l0.4,2.5l0.8,0.4l3.9,0.6l1.7,1.7l7.1,0.6c0,0,1.3,0.7,1.4,0.8s1.9,1.5,1.9,1.5l0.8,2.9      l1.1,0.8l1.8,0.7l0.4,1.9l2.2,1.2l1.2,2l-2.1,6.3l-0.2,1.4l1.1,1.6c0,0,3.6,1.5,3.8,1.5c0.1,0,3.3-0.6,3.3-0.6l2.9-1.2l4.6,1.4      l2.2,2.3l1.3,0.2l-0.5-2.1l-4.2-4.8c0,0,0.4-2.2,0.5-2.2s3.4,2.8,3.4,2.8h2.4l0.4-3.5l-3.1-4.2l2.5-6.2l5.2-1.1l-0.2-1.8l-2.9-2.4      l-4.6-0.2l1.7-6c0,0,2-3.1,2.1-3.1s4-1.8,4-1.8l0.6,5.8l2.4-0.2l3.6-8.2l5.9-1.2l3-3.1l3.1-0.8l3.1,0.4l3.8,3.1l0.6,7.5l1.9,4.1      l-1.1,2.3l-4.6,1.3l-2.8,3.4l0,2.8l-1.1,0.5l1.1,2.1l1.3,1.6l-0.1,4l-3.4,1.4l-1.5,1.7L269,348l-0.7-3l-3.2,0.1l-2.1,1.3l-1.6,2.6      l0.5,1.8l1.2-0.6l0.7,1.3l-0.5,3.1l1.8,3.7l4.3,3.3l6.2-1.4l9.4,3.4l5.5-3.9l1,0.3l4.5-4l2.1,0.1l3,1l3.5,1.4l0.9-0.3l1.1-0.9l3.8-3      l1.5-0.2l1.3-0.7c0,0-1.7-3.6-1.6-3.6s8-4.1,8-4.1l4.7,0.1l2.4,1.6l2.3,0.6l0.8,1.1l-0.5,2.8l1,1.1l2.1,0.7l5.4-2.4l8.7,2.4      c0,0,1.5,0.1,2.3,0.2l-2.5-2.7l0.2-1.4c0,0,1.2-1.6,1.3-1.8c0.1-0.2,1.7-2.1,1.7-2.1l0.3-2.6l-0.1-1.4l0.9-1.5v-2l0.9-1l-0.2-3.9      l2-2.5c0,0,0.3-3.4,0.4-3.6c0-0.2,1.6-3.7,1.6-3.7l-0.9-2.7l0.5-0.4l0.3-0.6l-1.6-2.7l2.6-2.9l0.7-3.7l1.4-2.1l1.6-2.1l-0.8-4.1      C359.6,302.3,359,300.1,359,299.9z" x="287" y="262"></path><path id="대구" d="M251.7,357.8l-2.4-1.3l-0.5-2.1l-4.2-4.7c0,0,0.4-2.2,0.5-2.2      s3.4,2.8,3.4,2.8h2.4l0.4-3.5l-3.1-4.1l2.5-6.2l5.2-1.1l-0.2-1.8l-2.9-2.4l-4.6-0.2l1.7-6c0,0,2-3.1,2.1-3.1s4-1.8,4-1.8l0.6,5.7      l2.4-0.2l3.6-8.2l5.9-1.2l3-3.1l3.1-0.8l3.1,0.4l3.8,3.1l0.6,7.5l1.9,4.1l-1.1,2.3l-4.6,1.3l-2.8,3.4l0,2.8l-1.1,0.5l1.1,2l1.3,1.6      l-0.1,4l-3.4,1.4l-1.5,1.7L269,348l-0.7-3l-3.2,0.1l-2.1,1.3l-1.6,2.6l0.5,1.8c-0.5,0.3-0.9,0.5-0.9,0.5l-0.4,3.5l-1.2,0.8l-2.3-1.1      l-1.4,0.4L251.7,357.8z" x="265" y="334"></path><path id="울산" d="M348.1,357.4l0.3,3.2l-1.2,4.7l-0.8,0.1c0,0-0.6,0.5-0.6,0.7      c0,0.1,0.5,1.2,0.5,1.2l-0.2,1.8l-0.6-0.7l-1.8,2l-0.3-3l-0.7-1.2l-1.1-2.4c0,0-1.1-1.6-1.3-1.6c-0.2,0-2.1-1.5-2.3-1.5      s-0.7,0.4-0.7,0.4l1.7,0.8l2.1,2.1l0.4,2.3l-1.5,0.1l2.1,1.8l-2.6,2.9c0,0-1.9-1.6-2.1-1.7c-0.1-0.1,0.7,2,0.7,2l0.4,1.8      c0,0,1.4,0.3,1.5,0.5s-0.3,3.8-0.3,3.8l-1.8,1.7c0,0,0.1,2.1,0.1,2.2s1.4,1.5,1.4,1.5s-2.4,0.4-2.6,0.5s-2.8,4.1-2.8,4.1l-0.8,0.2      l-1-0.8l0.1-0.9l-1-1.3l-1-0.2l-1.8-1.6l-2.8-2l-1.1-1.4l-3.2,1l-8.9-7.9h-5l-2.5-2.3l-0.6-5.8l3.5-2.5l0.4-1.9l-2.6-1.9l1.5-1.2      l3.5-2.7l1.5-0.2l1.3-0.7c0,0-1.7-3.6-1.6-3.6s8-4.1,8-4.1l4.7,0.1l2.4,1.6l2.2,0.6l0.8,1.1l-0.5,2.8l1,1.1l2.1,0.7l5.4-2.4l8.7,2.4      c0,0,1.5,0.1,2.3,0.2l0.6,0.8L348.1,357.4z" x="326" y="363"></path><path id="부산" d="M332.2,386.9l1,0.8l-1.4,0.8l-0.7-1.1l-0.7,0.7l-0.5,5.2l-0.8-0.1      l-1.2,0.4l0.3,0.7l1.4,0.3c0,0,0.2,0.9,0.2,1s-0.3,1.3-0.4,1.5s-1.2,1.6-1.2,1.7s-0.7,1.6-0.8,1.7c0,0.1-0.4,2.4-0.4,2.4l-2.1,0.3      l-0.2,1.1l-0.8,1.6l-4.7,0.4l-1.1-0.6l-1.9,2.4l-0.1,0.7l0.9,1l0.7,1.3l-0.2,1.6l-0.9,0.9l-1.5,0.5l-0.3-0.8l-0.8-0.9l-1.3-0.3      l-0.8-0.4l0.5-1.6h-1.7l-0.8,1l-0.5,1L309,413l0.6,0.4l1.9-0.5c0,0,1.7,1.3,1.9,1.4c0.1,0.1-0.3,1.7-0.3,1.7l1.5,0.9v0.9l-1.1,1      l-4.8-3.7l0.1-1.5l-0.6,0.1l-0.4,3.8l-0.7,0.9c0,0-0.7-0.2-0.9-0.2c-0.1,0,0-3.3,0-3.3l-1.2-0.2l0.7,3.4l0.1,0.9l-1.1-1.2l-2.2,2.6      l-1-1.6c0,0-0.3-3.6-0.5-3.6s0.6-3.3,0.6-3.3s0.4-2.7,0.4-2.8c0-0.1,0.7-1.7,0.7-1.7l0.3-1.2l-0.9,0.6l-0.5,1.2l-0.3,1.4l-0.8,0.1      l-0.2,1l0.5,0.6l-0.5,2.3l-0.4,1.7l-1.2,0.9l-0.1-1.4l-1.5,1.4c0,0-1.2-0.1-1.3-0.1c-0.1,0,0-2.1,0-2.3c0-0.2,0.8-1.7,0.8-1.7      s1-0.2,1.2-0.2c0.1,0,0.4-1.1,0.4-1.1l0.1-1.2l1-0.7l0.3-1.5l-1.7,2.1h-1.1l-0.1-3.1l-0.3-0.3l-0.1,2.1l-1.1-0.8l-0.1,0.8l1.2,0.8      l0.1,1.2l-1.4,5.3l-0.5,0.3l-4.4-0.1l-0.2,1.6l1.6,0.6l0.1,3.4l-1,1.6l-0.6,1.6l0.8,2.3l-1,2.4h-0.5c0,0-3-2.7-3.2-2.8      c-0.1-0.1-2.2-2.2-2.2-2.2v-1.1l1.5,0.1l2.3-1l-0.1-1.8l-1.7-1.2l-1.3-1.2l-0.6-1.1v-0.8v-0.3l0.8,0.2l1.1-0.3l-0.1-2.7l0.5-0.7      l6.8-3.3l0.7-3.9h2.4l3.3-2h4.3l4.2-6.3l4.3-3.8l2,0.7l3.4-6.5l4.5-1l0.7-2l2.9-3.1l1,0.7l1.8,1.3l1.8,1.6l1,0.2l1,1.3L332.2,386.9z      " x="319" y="399"></path><path id="충북" d="M203.9,306.7l1.6-2.3l1.2-4.6l1.8-1.4l0.6-3.8l-1.4-2.9l1.3-2l2.4-1.3      l3.1,1.5l0.6-1.4l-1.4-1.7l-0.1-3.2l-0.7-1.2l-2.1-0.8l-4,1.9l-1.2-0.4l-1.9-1.4l-2.6-1.5l-0.5-1.8l-3.4,2.7l-1.9-1.6l-0.1-4.5      l2.8-2.4l0.8-2.4l-0.6-0.4l-1.2-3.5l1.2-1.9l-0.5-2.3l0.7-7.4l1.8-1l0.6-1.8l-2-1.4l-1.1-1.9l0.2-1l-1.2-1.2l-5.2-1.4l-0.7-0.9      l1-1.7l1.4-0.3l5-5l-0.3-2.4l1.6-2.2l4.1-1.4l3-3.8l3.2,1.7l1.4-0.7l0.9,0.8l4.9,1.1l-3.6-5.4l2.9-6.7l1.1-0.3l1,1.9l1.4-0.1l3.2-4      l1.1,0.2l0.4,0.8l5.6,1.9l0.4-0.9l0.6-3l1.2-0.2l1.3-3.3l1.4,2l3.2,2.1l2.5,5.5l1.9,0.7l2.9,0l0.7-1.6l4.1-1.2l2.7-4.2l-0.9-2.9      l-1.4-0.6l0.1-1.4l4.2-7.5l3.7-2.7l0.6-1.2l2.8-0.9l3-2.9l1.1-0.7l2.3-2.5l2.2,0.1l2-2.1l-0.5-0.7l-0.9-1.3l-4,0.3      c0,0-4-1.5-4.1-1.5l-3.6-2.7l-2-0.3l-6.3,1.4l-0.9-1.5l-1.6-1.2l0.1-2.6l-0.9-0.9l-1.7,0.4l-3.2-0.2l-1.1,1.3l-1.7,0.5l-0.9,0.7      l-1.9-1.5l-0.8-1.9l3.4-1.9l2.4-2.6l-0.1-1.5l-1.4-0.4l-1.4,0.8l-1,0.2l-1.8-0.4l-1.7-1.6l-1.8-0.4l-2.1-1.5l-2.3,0.4l-2.2,2.4      l-3.2-0.9l-4.3,3.2l-4.8,0.6l-0.1-3.7l-1.9-3.3l-4.2-0.6l-4.4,3.5l0.9,5l-0.5,1.8l-1.8,0.7l-0.6,1.1l-5.9-0.7l-1.3,1.7l-2.5,1.2      l-4.2-3.5l-0.6-3.5l-2.4,1.9l-3.3,8h-1.8l-1-3.2l-1.7-0.9l-0.7,7.4L174,187l-4.5,3.9l-3.7-1L164,193l0.4-2.1l-1.5,0.3l-0.6-1.2      l-2.1,2.5c0,0-0.6,2.1-0.6,2.4c0,0.3-5.8,3.1-5.8,3.1l0.8,1.2l-0.5,2.3l-1.9,1.7l-2.1-0.5l-1.2,1.5l-4.6,1.7l-2.3,0      c0.5,1.2,1,2.6,1,2.6l2.6,1.7l0.2,2.8l1.3,0.6l0.8,0.7l-0.2,1.7l1,0.8l2.7-0.1l3.5,2.1l1.2,3.8l-1.7,1.9l-3.7-0.3l-5,7.9l1.4,2      l-0.4,2.8l-1.7,0.7l2.9,3.4l-0.2,2.6l0.6,1.5l3.3,0.3l-1.2,3.3l1.2,1.2l-1.4,5.3l1.3-0.1l0.5,0.9l3.6-0.7l1.2,5.2l1.5-2.3l0.8-0.6      l1.3,0.1l-0.4,2l3.1-2.4l2.6,2.6l0.4,2.7l2.1,1.3l-0.3,1.3l2,2.2l-2.8,2.2L165,281l1.1,4l3.7,1.7l2.7-0.1l1.9,3l0.3,3.1l-1.4,2.7      l0.4,2.7l2.5,1.9l2.3,6.1l0.8-0.4l0.8,2.3l4.1,0.1l1.7,2.4l0.2,2.5l2.3,0l0.7-2.7l5.5-2l2.5,1.9l2.8-2.7l1.9-0.1L203.9,306.7z" x="183" y="227"></path><polygon id="대전" points="143.7,264.5 144.6,273.3 141.7,275.6 142.7,279.5 144.7,281.8      145.1,284.9 146.6,287.5 149,287.7 150.2,290.7 151.6,290.8 152.2,288.4 152.5,280.3 154.1,280.2 154.5,284.5 156.5,288      160.7,290.1 162.8,287.1 166.1,285 165,281 167.1,269.6 169.9,267.4 167.9,265.2 168.2,263.9 166.1,262.6 165.7,259.9 163.1,257.3      160,259.7 160.4,257.7 159.1,257.6 158.3,258.2 156.8,260.5 155.6,255.3 152,256 151.9,256.5 151,261.6 " x="156" y="273"></polygon><path id="전남" d="M181.3,437.9l1.7,1.5l3.3,0.1l1.1-1.7c0,0-3.9-1.5-3.6-1.7L181.3,437.9      z M57.9,444.6L57.9,444.6L57.9,444.6L57.9,444.6L57.9,444.6z M57.3,443.1v1.6l-1.6-0.7l-3.2-0.4v1.4l0.1-0.4l1.7-0.6l0.9-0.6      l-0.7-0.6l-0.9-1.5l-4.3-0.2l-1.1,1.7l-3.9-1.2l0.4-1.7l2.7,1l1.4-0.5l0.6-2.6l1.4,0.1l-1.9-2.2h2.7l0.5,4h2.4l0.5,3h-1.2l-0.6-1.7      l-0.2-1l1.2,0.1c0,0,2.2,0.4,2.4,0.6s1.2,1.2,1.4,1.2S57.3,443.1,57.3,443.1z M191.9,464.3l-0.4,4.9l1.6,1.9l-0.5,0.7l-2.2-0.3      c0,0-2.4-0.4-2.7-0.4s-0.6-1.9-0.6-1.9l-1.4-0.5l-1.7-1.2l1-0.9l-0.1-2.4l1.3-0.6l2.6-3.5c0,0-1.7-4.3-1.9-4.3      c-0.3,0-0.4-1.7-0.4-1.7l-0.6,0.9l-0.6,1.4L183,456l-3.5-3.3l-2.7,4.8l-1.7,0.6l1,1.2l-0.9,1.6l2.2,3.5l-0.5,1.2l-1.2,1.3l-1-1.7      l-1.7-0.6l-1.4,0.7l-1.2-0.2l-1.4-1.6l1-1.2l-0.4-0.5l-0.9-0.6l1.8-2.4l-1.1-1.4l2.1-2.5l0.8-3.4l-0.7,0.4l-0.6,0.2l-0.2-2.7      l-1.4-2.6h-2.5l-0.5-1l1.8-2.9h-1.9l-0.3-2.8c0,0-2.4,1.1-2.5,1.3s-0.6,6.5-0.6,6.5H160l-3.5-0.8l-2-2.7l-1.1-0.9l-1.5,0.1l0.3,1.1      l1.2,0.6l-0.5,0.7l1.7,0.2l0.7,0.5L155,447l-0.4,0.8l-1.4,2.2l1.9,1l-3,2.4l0.6,0.9l0.4,1.6l3.7,4.3l0.6,1.5l3.9,1.7l1.3,1.1      l-1.3,1.4l2.3,0.9l0.7,6l-1.7,3.7H159l-0.9-1h-3.5l-0.9-3.4l-0.1-0.5l-3.7,0.2l0.6,2.4l2.3,0.4l-0.6,1.2l2.2-0.9      c0,0,3.6,1.4,3.7,1.6c0.1,0.2-2.7,3.2-2.7,3.2l-0.5,2.1l-2.1,1.6l0.6,5.1h-5.2l-1.2-1.6l1.8,0.8l-3.2-0.2l0.1-1.5l-2.5-2.5l0.3-1      l-2.4-3.2l-5.8-3.1l1.7,1.9l-0.7,0.9l-2.8-2.3l0.1,1.3l-1.4,0.9l-2-0.2l-1.7-0.4l-0.7-1.9l0.1-2.2l2.4-1.9l0.4-1.9l2.4-0.1      c0,0-0.1-2.3-0.1-2.5c-0.1-0.2,0.4-1.4,0.4-1.4l2.3-2.1l0.5,0.3l-0.4,5.4l-0.9,0.1l-0.1,1l1.4-0.7l0.6-3.2l1.7-0.1l-0.6-0.9l0.9-1.1      l-0.3-1.2l0.3-3l1.2-0.4l0.7-2.8c0,0,2.4-0.6,2.6-0.4c0.2,0.2-0.1,3.4-0.1,3.4l0.6,1l0.9,0.6l1.7-0.7l0.2-1.4l0.7-3.4l-3.6-1.3v-3      l0.7-0.3l-0.9,0.2l-0.4,1.2c0,0-1.2,1.4-1.4,1.3s-1.9-2.9-1.9-2.9l0.6-0.8l-0.4-1.3l-1.8,0.1l-0.6-1l-1,0.9l1.4,1.2l-0.6,1.1      l-0.1,1.3l0.4,1.4l-3.2,4.3l-4.2-0.1l-0.7-1.4l-1.4,2.4l-2.2,2.2l-2.2-0.1l-2.2,3.4l-1.2,1.1l-4.7-0.2l1.5,1.8l-0.4,3.5l-2,1.1      l1.4,0.9l-0.9,5.3l-1.1,2.2l0.8,2.8l-1.5,0.8l-1.4-1.7l0.5,1.7l-1.2,2.8l-0.9-0.9l-4.9-0.6l1.2,2.7l-3.9-2.2l-4-0.2l0.1-1.2      l-1.9-0.3l0.9-1.7l-0.7-3l0.6-7.6l-1.4-5.1L95,479.4l0.6,2.3l-2.9,1.6l0.8,1.5l-0.8,0.3l-1.9,0.1v1.2l0.9,0.5l-1.7,0.8l-3.8,0.6      l-9.4,4.2v5.1l0.9,2.5l2.2,5.3h-4.1l-2,3h-0.9l-1-3.3l0.9-3.9l-0.2-3.7l-1.8-0.6l-0.8,0.6l-1.3,0.1l-0.2-2.7l1.2-0.4l0.4-0.3      l-0.9-2.3l2.3,0.2l0.2-1.2l-0.8-2.6l-2.5,1.9l-3.2-3.2l0.9-1.5l-2.3-1.6v-0.6l2.1-1.9l1.4-0.8l-2.4-2.3l1.6-0.9l-2.5-2.3l-1.1-0.1      l-2.4,2.2l-0.8,0.1l-0.1-2.7l-2.4,0.1l-1.8-1.3l-3.2-0.4l0.3-1.7l-2.4-1.9l-0.4-0.9l0.6-0.9l0.4-1.4l-0.9,0.4l-2.4-4.2l0.4-4l1.6-1      l-0.2-1.4l0.1-1.7l1.1-2.7l4.7,2.4l0.1,1.9l1.9,3.1l2.7-2.8l4,0.7l2.7,1.6l-0.8,3.1l1.1,0.1l1.3,1.5l0.4,1.6l0.8,0.3L71,466l0.4-1.4      l-2-0.4l1.2-0.8l2.7,0.1l4.5,2.5l-3.5-3.2l1.1-0.9l-2.7,0.3l-1.3-1.7l1.2-0.8l-1.5-1.5l-3-1.3l0.1-1.5l-0.7,1.2l-3.6-0.6      c0,0-3-0.7-3.2-0.7s-2.7-1.4-2.7-1.4l1.2-1.2l0.3-1.8l6.8-1.6l3,1.7l0.4,1.9l0.6-1.3l1.9-0.1l0.6-1.3l0.2-2.1l1.2-0.9l-0.5-0.9      l-1.6,1.2l-0.6,2.1l-2.2,0.4l-3.6-2.4l-4.5-0.3v0.6l-4.7,1.8l-0.3-1.4l1.4-0.3l-0.2-0.1l1.3-0.2h1.9l1.9-3.8l-1.7-4.3l-0.6-2.9      l1.2-2.2l-0.6-1.2l-0.1-5l1.9-1.3l-1.2-1.2l-1.1,1.2l-0.1,1.6l-1-1.2l-0.6-2.3l-0.5,0.2l-0.4,2.9l1.4,1.2l-1.7,4.2l-2.4,0.2      l-0.4-1.2l-1.7-0.5l0.8-1.3L51,429l-0.3-2l1.5-1.1l1.4,2.2l2-1l1.1-2.2l-1.2-0.1l-0.6-0.6l4.5-3l-0.6-2.6l-2.6,1.1l-0.1-1.7      l-1.6-3.1l-1.1-0.7l-2.2,2.6l1,1L51,419l-0.8-1.6l-3.1,0.1l1.5,2.5l-1.4,2.4l-1.4-0.9l-1.5,0.6l-0.5-4.4l-5-1.5l-1.1-2.4l0.7-1.4      l1.8-1.2l1.4,0.3l4.3,1.3l0.3-2.7l1.4-2.9l1.1,1.3l1.2-0.3l1.9-0.2l1.2,0.8l2.6-2.5l-1.2,7.3l3,1.4l0.4,2.1l2-2.8l1.5,3.5l-1.1,3.2      l0.6,4.3h2.3l-0.9-3.5l3.2-6.1l-1.3-1.5l2.1-1.1l-0.6-1.4l-3.3,0.2l-0.4-1.9l-5-5.5l-0.7-1.4l1.9-2.8l-3.3,1.1l0.4-1.8l-1.4,0.9      l-0.7-1.6l-1.6,1l-0.6-1.7l2-4.5l1.4-0.7l-0.6-1.4l3.8-1.9l3-8.2l3.6,1.2l0.3,2.3l0.6-1l-0.1-1.4l-3.4-2.9l-0.2-3.9l1.4-1.3L65,375      l-0.6-0.5h2.4l1.9,0.6l2.2,1.8l1.1,6l1.5,1.9l1.2,3.8l1.9,0.1l-0.2,2.4h4.5l1.6-2.3l2.2,0.1c1.4,0.4,3.3-0.4,3.3-0.4l0.7-1.3      l0.8-0.6l3-0.8l2.3-1.2l0.9-3.1l-0.3-0.8L97,379l0.4-3.8l0.8-1.9l2.1-1l2.7,0.7l1.5-1.9l2.8,0.6l4.3,3l3.5,5.6l1.8,0.6l1.3-0.7      l0.6-3.1l1-0.7l1.3-1.7l1.9,0.1l1.2,0.9l1,4.5l-1.2,2.3l2.1,0.7l1.1,2.8l-0.4,3.8l2.2,1.7c0.1,0.1,2.4,0.7,2.4,0.7l3.2-1l0.8-1.2      l1.7-0.6l2.8,1.5l2.1-1.2l1.5,1.3l1.1,0.6h6.3l2.2-0.8l3.2,0.4l1.9-0.5l2.9-3.8l1.6-1l2.2-0.2l4.5,2.3l6.2,4.3l-0.7,2.4l2.2,3.1      l-0.6,9.4l5.3,6.6v2.9l7.9,5.8l1.8,0.1l1.4,4.1c0,0,0.8,3,1.3,4.7l-1.3,0.1L191,431l-1.3-2.9l-0.9-1.1l-1.3,1.3l-1.7,0.1l0.1,1.5      l0.1,1.7l1,0.1l-0.2-2.4l2.7-0.2l-0.1,2.9l1.3,1.1l0.4,2l-0.5,0.3l-0.1-0.9l-1.1-0.6l0.1,1.7l1.6,0.3l-0.5,1.4l-1.7-0.9l-0.2-1.7      l-2.7,0.4l-2.2-0.9l-0.2-1.8l-0.8,1l-2.3,2l-3.3,1.9l-3-4l-0.4-3.2l-0.1,2.7l-0.9,0.4l2.2,3.1l-1.9,1.4l0.4,1.4l0.7,1.8l2.9,3.1      l2.2-2.2l0.9,0.8l2.7-2.4l3.9,0.8l2.2-1.1l1.6,1.5l-0.8,3.3l0.1,6.7H188l-0.3-0.9l-0.8-1.3l0.8,4.2l-0.9,1.1l1.1,0.6l2.3,0.5      l1.5,2.2l-0.4,0.4l-1.1-0.9l-0.9,0.3l-0.4,1.1l1.4,0.3l0.1,2.1l2.7,1.6L191.9,464.3z M119,406l-1.7-2.6l-1.8,0.4l-1.4,0.9l-0.9-0.8      l-0.1-1.2l0.9-0.8l-1.2-0.7c0,0-0.1-1.4-0.1-1.7c0-0.2-2.2-1.3-2.2-1.3l0.2-1.4l-2.7-1.2l-2.4,1.4l-1.5-0.1l-3.2,2.2l-1.4,0.1      l-1.5,0.9l-2.4-1.2l-1.7-0.6l-0.1-0.8l0.8-1.8h-1.7l-1.3,1.2l-0.5,1.6l-1,0.5l-0.3,2.1l-1.2,0.5L88,401l-0.9,0.6l-0.2,1.4l-2.6,0.1      c0,0,0.1,0.6,0.1,0.9c0,0.2,1.1,1.7,1.1,1.7l-0.5,0.9l-1,0.7v0.9l-1.2,0.2l-0.4,1.2l-0.9,0.6v1.2l1.5,0.9l2.5,0.3      c0,0-0.1,1.2,0.1,1.2s1.7-0.4,1.7-0.4l1.9-0.6l2.4,0.4l0.9,0.4l0.6,1.1l1.2,0.6l0.4,1.4l-0.1,0.9l-1,0.7l0.7,0.9l2.2,0.3l1-1.1      c0,0,0.6,1,0.8,1.1c0.2,0.1,1.4,0,1.4,0l2.2-1.3l1.4-1.6l1.7,0.4l1.9-0.4l1.9-1.3l0.8,0.1l0.2,1.7l1.2,2.1h1.4l1-2.7l2.1-1.7      l0.4-1.8l1.6-1.3l0.4-5.2L119,406z M59.1,487.5h-1.9l0.5-0.5l-1-0.6l0.3,2.4l-1.7,2.4l-1,2.3l-1.1,0.1l0.5-1.9L51,494l-1.2,3.5h-2.2      l0.2-0.7l-3.3-0.5l-1.9,1.5l-3.7,0.7l-1.6-0.9l-2.1,0.3l-3.8,0.4v-1.5l2.8-1.1l1.6-0.5l-2.3,0.2l-1.9-3.7l0.1-2.3l1.6-1.3l1,0.2      l-0.3-2.2l4.6-2.2l2.2-3.2l1.3,1.6c0,0,0.1-2-0.3-2.1c-0.4-0.1,4-4.6,4-4.6s-0.1-1.7-0.6-1.8c-0.4-0.1,1.6-1.3,1.8-1.6      c0.2,0.1,1.3,0.5,1.3,0.5l3.8,3.7l0.6,3.1h1.6l4.2,3.4L58,484L59.1,487.5z M47.1,472C47,472,47,472,47.1,472L47.1,472z M25.3,439.6      l-1.7,1.4l-2.4-0.3l2.8-4.3l0.5-1.2l3.3-0.2l0.9-1.9l1.6-0.4l0.7,3.5l1,0.4l-0.5,2.9l-0.2,1.5l1.6,0.2l0.4-0.6c0,0-2-1.9-1.7-1.9      c0.2,0,0.8,0.1,0.8,0.1v1.5l1,0.9l2.9,1.7l-2.7,2.1l0.2,2.5l-2.3,0.2l-0.2-1.2l-1.5,0.3l0.3,1.5l-2.3-2.2l2.7-0.7l-1.5-2.2l-1.3-0.2      L25.3,439.6z M35.7,452.1l2.5-0.4l0.3-4c0,0-1.7-0.7-1.9-0.8c0,0-1,1.2-1.2,1.2c-0.2,0.1-4,1.2-3.7,1.2s3,0.9,3,0.9L35.7,452.1z       M29.8,454.3l0.4,3.4l1.9-0.9l1.9,0.7l1-1.4l1.7,1.3l-0.9,2.6l1.6-0.9l1.9-0.5l0.4-3.2l-0.9-2l-2.3-0.1l-2.2-2.2l-3-0.1L29.8,454.3z       M41.7,466.8l-1.3-0.9l0.1-1.6l-3.5-1.7l-2.4,2.1l0.4,1.9l-0.3,2.3L41.7,466.8z M41,460.2l-0.6-1.2c-0.2,0.2-1.4,2.2-1.4,2.2      L41,460.2z M22.5,447.1c0,0-5.6,3.5-5.8,3.4c-0.2-0.1-3.2-0.3-3.2-0.3s-1.4,4.6-1.2,4.6s2.6,2.6,2.6,2.6l2.3-0.9l0.3-1.8l-1.1-2      l2.5-0.9c0,0,0,1.7,0.2,1.6s3.9-0.9,3.9-0.9l-1.4-1.7L22.5,447.1z M17.5,455.6l2,3v2.7l-0.6,2.2l-0.1,0.4l0.1-1.1l-1.8-0.1l-1.7-1.7      l-0.4-3.2l2.1,0.1C17,458.1,17.1,455.8,17.5,455.6z M28.5,473.7l-0.1-3l-2.1-1.3l0.1-2.3l-2.7,0.1l0.7,7.6l1.9-0.8L28.5,473.7z       M28.7,477.6c0.1-0.2,3.5-1.9,3.5-1.9l0.1-5.5l-3.2-2.7l-1.3,0.4l2.4,4.5l-3,5.2l-1.5-0.6l0.1,1.2l2.4,0.3      C28.2,478.6,28.5,477.8,28.7,477.6z M27.5,482.5c0,0.2-1.7,4-1.5,4s1.4,0.1,1.4,0.1l2.3-2.7l-1.2-1.5L27.5,482.5z M50.8,498.5      l1.4,0.4l-2.2,0.7l-0.4-1.1H50.8z M102.8,499.8c0-0.3-1.4-1.6-1.4-1.6l-2.4,2.5l-2.3-1.3l-0.3-2.4l1.3-1.2l2.8-0.2l3.2-1l-0.6-2.1      l-3-1.3l1.3-1.2l-4.4-0.2l-2.6,2.7l0.2,1.2l-1,2.2l-2.2-0.1l-2.7-2.5l-3.1,0.8l-3.1,1.5l1.2,6.1l2.2,0.8l1.5,3.4l2.6-0.4l1.6,1.1      l0.1-2.4l1.4,1.6l1.2-1.7l-1.6-3l3.5,0.6l1.2,0.7l3.3-0.1l1.2,2.8c0,0,3.6-3.2,3.6-3.5s-0.8-2.5-0.8-2.5S102.8,500.1,102.8,499.8z       M105,493.3c0,0.4-0.2,3.7-0.2,3.7l3.2,1.5l1.7-1.2l2.1,0.2l0.3-5.5l-1.5,2.1L105,493.3z M114.2,500.3c0,0-1.8,2.9-1.4,2.9      s2,1.1,2,1.1l3.5-1.6l-0.9-2.2L114.2,500.3z M122.6,498.1l-1.4,1.2l-0.1-1.7l-1.2-1c-0.1,0.3-2.5,2.8-2.2,2.7      c0.3-0.1,2.1,0.3,2.1,0.3s-0.5,2-0.1,1.8s3.4-0.9,3.4-0.9l0.3-1l2.8,0.8l-1.5-2L122.6,498.1z M119.1,488l-2.6-0.7v-0.4l4.7,0.3      l2.6,2.4l-0.3,3.1l-1.5-1l-1.3-0.6L119.1,488z M135.7,484l-1.4-1.2l-3.9,2.4l-2.2-1.8l-1.6,5.2l4.1,3.2l0.6-1.7l2.5-0.3l2.7,1      l1.3-0.9l1.9-4.9l-2.2-2.2L135.7,484z M140.2,491.9l0.2,3.5l2.2,0.2l-1.6-3.4L140.2,491.9z M33,419.9l0.4-3.5l1.7-1.3l-1.4-2      l0.9-3.9l-0.6-0.7c-0.7,0.4-4.7,4.6-4.7,4.6l-1.4,0.7l-0.4,2.3l3.3,2.9L33,419.9z M35.2,419.3l2.9,1.7l-0.9,1.7l-2.6-0.1l-1.2,2.6      l1.9,0.3l0.6,4.5l1.9-1.9l2.3-0.3l0.3-3.3l-1.9-1.6l1.2-1l1.3,1l1.4-3.6l-3.9-1.2L35.2,419.3z M46,425.4l-0.1,3.2l2.4-1l-0.6-3.6      L46,425.4z M43.5,426.5c-0.4,0.4-2.6,2.3-2.6,2.3l1.2,1.4l-1.3,2.7l2.3-1.2L43.5,426.5z M50,429.1l-1.3-0.9c-0.1,0.4-1,2-1,2      l1.2,1.3L50,429.1z M43.8,434l1.6,1l1.6-2.3l-1.2-0.7L43.8,434z M188.5,476l-2.2-0.1l-0.9,0.6l-1.2,0.9l-1.6-0.1l0.2,0.8l1.8,1.1      l0.9-0.1l0.6,3l2.8,0.1l2.3,0.8l0.2-1.5l-2.7-3.5L188.5,476z M181.8,473.5l-2,0.1l-0.3-0.9l-2.5,0.7l2.2,2.4l1.7-1l2-0.1      L181.8,473.5z M158.7,482.7l1.4-0.8l-0.4-1.3l-1.7-0.1l0.1,0.2l1.7-1.1h1.7l-0.1,1.1c0,0-0.5-0.5-0.5-0.3s0.3,0.8,0.3,0.8h1.9      l1.4,1.6l-0.2,0.4l-2.9,0.1l-1.8,1.3L158.7,482.7z M164.4,485.8l1.2,1.9l-3.1,0.8v2.4l1,1.8l0.9,1.7h-4.9v-5.9l-1.4-1.6      c0,0,1.8-1.3,1.9-1.7l3.4,1.3L164.4,485.8z M166.6,469c0.4,0.1,1.2,0.8,1.2,0.8l-0.1,1.1l2.4-0.8l-1.2-1.5L166.6,469z M177.2,468.3      l-0.6,1.1l1.5,0.3L177.2,468.3z M158,460.5l1.1,0.4l0.6-1.4l-2.5-0.6C157.2,459.1,158,460.5,158,460.5z" x="137" y="425"></path><path id="경기" d="M194.4,129.1l-9.5-1.4L180,124l-2.2-0.2l-4.2-2.4l-3.6,1.2l-2.7-2.7      l2-3.6l0.1-4.4c0,0-3.4,0.9-3.6,0.9s0.1-2,0.1-2l2.7-3.2l-1.2-3.5l0.9-2.1l-0.9-2.9l0.6-1.5l2.2-0.6l1.9-2.2l3.2-1.1l1.2-4.1l-1-3.9      l-1.6-1.7l-4.2-1.4l0.1-2.7l-1-0.6l-3,0.4l-3.5-1.7l-1.3-2.7l-0.4-7.6l-1.5-1.9l-1.7,1l-2.4-1.7l-1.4,0.3l-3.8,1.9l-4.7-3.7l0.8-4.9      l1.1-1l-1.7-0.4l-3.7,5.1h-2.7l-1.5-1.7l-0.5-4.3l-1.1,0.6l-0.2-1.3l0.6-1.9l-1.9-1l-1.9-5.7l-6.1,0.2v-2l2.3-0.8l-4.4-4.6l-1.5,1.6      l-2.9,0.4l-2.7,4.7l-2,0.7l-2.6,7.1l-0.3,1.7l-7,4.6l-1.7,6.3l-0.4,1.2l-3.9,4.3L90.9,78l-4.7,0.4l0.1,3l1.3,2.3l-0.7,2.4l0.7,5.5      l-2.3,2.3l-1.2,5.9l-3.9,0.9l-4.3,0.1l-2.7-0.4l-1.2,0.7l0.6,1.4v0.6l0,0v0.1l-0.1,1.6l-0.7,1.4l0.5,1.7l0.6,0.9l-0.4,3.2l1.2,1.2      l-0.3,0.6l-0.4,1.4l1.6,3l0.9,1.7l0.9,1.9l1.8,0.7l-0.2,1c0,0,0,0,0.1,0.1c1-0.4,1.9-0.7,1.9-0.7l2-0.1l0.4-1.9l0.7-1.2l1.4,0.1      l0.1-1.3l3.4,1.2l1.4,2.4l1.1,1.2l2-0.1l1.4,1.5l1.2,3.4l0.9-0.7l1.5-1.9l0.4-2.5l1.7-0.8l3.3,3.2l2.2-0.3l0.9-1.2l1.5-0.1l0.7-3.6      l0.4-2.8l1.6-0.3l1.8-1.4l1,1.5l1.1,1.3l1.6,0.2l0.5-1.2l-0.5-1.5l0.8-1.2l-0.1-2.1l0.9-0.1l0.3-1.1l1-1.2l1.7,0.5l2.1,1.4l1.1-1.1      l2.2,1.4l0.1,4.7l1.4,0.3l0.8,1.2l-1.3,1.2l1.9,0.7l-0.2,3.5l-2,1.8l0.1,1.8l1.4-0.1l1.2-1l2.2-1.1l2.4-1l1,4.4l-2.2,0.9l-1.5,2.4      l-0.3,1.6l1.6-0.2l0.6,0.8l-1.3,3.2l-7.3,3.8l-0.2,1.4l-1.4,0.8l-1.4-0.8l-0.6-3.6l-1.1,0.7l-1.4,0.2l-0.8-1.4l-1.6,0.7l-0.6,1.5      l-3.2,1.3l-1.1-1.7l-1.2,1.3l-1.9,0.7l-0.5-1.7l-0.9-1.3l-0.6-1.1l-0.9-3.2l-2.2,2.1l-2.7,0.3l0.1-1.7l-0.6-1.1l0.8-0.9l0.4-3      l-1-1.2l-2.1,0.5l-0.7-0.9l-1.8-0.5l-1.1,3.1l0.1,2c0,0,0.4,2.7,0.7,2.7c0.3,0,0.9,1.1,0.9,1.1l0.2,1.6l-0.3,1.6      c0,0-1.1,1.4-1.1,1.7s-1.2,2-1.2,2l-0.5,0.3l-0.1,0.1l-3.5,3.7l-1.3,2.5l-0.8,0.6l-4.6,1.4l-3.3,1.8L77,157l-0.8,1.4l-1.9-0.1      l1.4,2.5l0.4,0.9l-0.2,1.7l-2.1,0.5l-2.1-3.3l-1.5,0.4l0.6,0.6L72,163l0.4,1.3l1.2,1l1.5,0.3l-0.4,2.2l0.9,1.2l0.5-0.8l0.9-2.7      l1.2,0.9l1.7-0.6l-1.2-1.5l2.9,0.4l0.5,1.4l1.5,0.7l0.2,2.7l1.6-0.3l-0.5,1.5l-4.1,0.3l0.3,2.5l1.2-1.8l2.2,0.2l-0.3,1.7l2.3-0.3      l1.1-0.5l1,1.2l-2.5,1.6l1.4,2.9l4.6-2.9l1-0.2l-1.9,2.2l0.5,4l-3.3-2.9l-0.6,0.4l5.7,5.9l0.3,0.5l-0.8,1l0.3,2.1l4.2-0.4l0.3,2.1      l-0.3,1.6l1.9,0.5l3.5,5.4l1.1-0.1l0.1,1.4l0.7,0.7l2.1-0.5l0.7,1.8l1.3,0.8l2.2-1.8l1.5,0.2l2.2,1.3l-0.1-1.1h0.8l0.3,1l-0.2,1.1      l-2.8-0.1L111,203l-1.2,1l-1.4,0.8h-0.2c0.6,0.1,1.1,0.3,1.1,0.3l3.7-2.3l6.1,1.9l5.6-1.9l3.1-2.3l2.5,0.1l3.3,1.2l3.3,3.5l5.1,0.6      h2.3l4.5-1.7l1.2-1.5l2.1,0.5l1.9-1.7l0.5-2.3l-0.8-1.2c0,0,5.8-2.8,5.8-3.1s0.6-2.4,0.6-2.4l2.1-2.5l0.6,1.2l1.5-0.3L164,193      l1.8-3.1l3.7,1l4.5-3.9l2.5-0.4l0.7-7.4l1.7,0.9l1,3.2h1.8l3.3-8l2.4-1.9l1-6.7l-0.8-3.8l1.6-1.2l-0.2-7.6l3.5-8.1l0.2-4.3l-1.8-0.5      l-1-2.4l3.2-4l1.9-0.6l1-2.2L194.4,129.1z" x="125" y="129"></path><polygon id="서울" points="97.6,130.2 99.7,129.7 100.7,130.9 100.3,133.9 99.5,134.8      100.1,135.9 100,137.6 102.7,137.3 104.9,135.2 105.8,138.4 106.5,139.6 107.3,140.8 107.8,142.5 109.7,141.8 110.9,140.5      112,142.2 115.2,140.9 115.8,139.4 117.4,138.7 118.2,140.1 119.6,139.9 120.7,139.2 121.3,142.8 122.7,143.6 124.1,142.8      124.3,141.4 131.6,137.6 132.9,134.4 132.3,133.6 130.7,133.8 131,132.2 132.5,129.8 134.7,128.9 133.7,124.5 131.3,125.5      129.1,126.6 127.9,127.6 126.5,127.7 126.4,125.9 128.4,124.1 128.6,120.6 126.7,119.9 128,118.7 127.2,117.5 125.8,117.2      125.7,112.5 123.5,111.1 122.4,112.2 120.3,110.8 118.6,110.3 117.6,111.5 117.3,112.6 116.4,112.7 116.5,114.8 115.7,116      116.2,117.5 115.7,118.7 114.1,118.5 112.9,117.1 112,115.7 110.2,117.1 108.6,117.4 108.2,120.3 107.5,123.8 106,123.9      105.1,125.1 102.9,125.4 99.6,122.2 97.9,123 97.5,125.5 96,127.4 95.1,128.1 95.1,128.8 95.6,128.9 96.9,129.3 " x="117" y="129"></polygon><path id="전북" d="M179.3,305.8l0.3,0.9l0.5,1.4l4.1,0.1l1.7,2.4l0.2,2.5l2.3,0l0.7-2.7      l5.6-2c0,0,2.5,1.9,2.5,1.9l2.8-2.7l0.3,0.7l4.4,8.4c0,0.1-0.2,0.8-0.2,0.9l-1.1,4.2l0.1,0.5c0,0.1-0.4,0.2-0.5,0.3l-1.7,0.8      l-2.1,4.7l-3,1.7l-1.7-0.1l-1.6,1.3l-1.9-0.9l-0.9,1l-1.6,4l-5.3,4.6l-0.7,5.6l0.6,1.3l-1.4,0.9l-4.9,14.1l0.1,2l3.4,1.2l-0.4,3.3      l1.2,2.3l-0.4,3.3c0,0.8,0.2,1.7,0.4,1.9c0.1,0,1.9-0.2,2,0.4c0,0.4-0.7,4.5-0.7,4.6l-3.5,2.9l-1.6,3.3l0.9,2.9      c0,0.1-2.6,2.4-2.6,2.4l-6.2-4.3l-4.5-2.3l-2.2,0.2l-1.5,1l-3,3.9l-1.9,0.5l-3.2-0.4l-2.2,0.8h-6.3l-1.1-0.6l-1.5-1.3l-2.1,1.2      l-2.8-1.5l-1.7,0.6l-0.8,1.2l-3.2,1.1c0,0-2.3-0.6-2.4-0.7c-0.1-0.1-2.1-1.7-2.1-1.7l0.5-3.8l-1.1-2.8l-2.1-0.7      c0-0.1,1.2-2.3,1.2-2.3l-1-4.4l-1.2-0.9l-1.9-0.1l-1.3,1.7l-1,0.7c0,0-0.6,3-0.6,3.1l-1.3,0.7l-1.8-0.6c-0.1-0.1-3.5-5.6-3.5-5.6      l-4.3-2.9l-2.8-0.7c0,0-1.5,1.9-1.5,1.9l-2.7-0.7l-2.1,1l-0.8,2L97,379c0,0.1-1.6,1.7-1.6,1.7s0.3,0.7,0.3,0.8c0,0-0.9,2.9-0.9,3      l-2.3,1.2l-3,0.8l-0.8,0.6l-0.7,1.3c0,0-1.2,0.5-2.1,0.5c-0.4,0-0.9,0-1.2-0.1l-2.2-0.1c0,0-1.6,2.3-1.6,2.3c0,0-4.5,0-4.5,0      l0.2-2.4c0,0-1.3,0-1.9-0.1l-1.2-3.8l-1.5-1.9l-1.1-6l-2.2-1.8l-1.9-0.6l-2.4,0l-0.8-2.5c0-0.1,0-0.2,0-0.2l3-3.6l0.8-3      c0-0.1,0.1-0.1,0.1-0.2l4.7-2.6l4.7-1.4l2.2-0.1l1.4-2.8c0-0.1,0.1-0.1,0.2-0.1l3.5,0.1c0.1,0,0.1,0,0.2,0.1l0.8,0.9l0.5-1.4      l-1.3-1.9l-1.1-0.6l-2.4,1h-0.1h-0.1l-1.5-0.6l-4,1.1l-2.5,0.5c-0.9,0-1.8,0.1-1.9,0.1h-0.1c-0.3,0-1.1-0.3-1.3-0.4l-3.5-3.6      c-0.1-0.1-0.1-0.2,0-0.3l0.7-1l-0.1-2.3c0-0.1,0.1-0.2,0.2-0.3c0.8-0.2,2-0.4,2.1-0.5s0.9-0.8,1.5-1.4l2.8-3.6l0.1-0.1l1.6-0.4      l0.1-0.4l-1.3-0.9l-0.1-0.1l-0.3-0.2v-0.1l0.1-0.9c0-0.1,0.1-0.2,0.2-0.2s0.2,0.1,0.2,0.2l0.6,0.6l1.1,0.6c0,0,0.1,0,0.1,0.1      l0.7,1.5c0.8-0.6,1.9-1.5,2-1.6s2.2-2.8,3.5-4.5l0.3-0.3c-0.1,0-0.1-0.1-0.1-0.2c0-0.2-0.1-1.1-0.1-1.3c0-0.1-0.1-1.9-0.2-2.9v-0.1      l0.7-1.3c0-0.1,0.1-0.1,0.2-0.1c0,0,0,0,0.1,0h0.1l1.1,0.7l2.5-0.1l2.1-0.5c0,0,0,0,0.1,0c0,0,0,0,0.1,0l2,0.6l1.8,0.2h2.3l0.5-1      c0-0.1,0.1-0.1,0.2-0.1l1.7-0.3l-0.7-1c0,0.1-0.1,0.2-0.2,0.2l-1.8,0.7h-0.1c-0.1,0-0.1,0-0.2-0.1l-0.7-0.9l-0.7,0.2c0,0,0,0-0.1,0      h-0.1l-1.6-1.1c-0.1,0-0.1-0.1-0.1-0.2v-0.5l-1.9-0.2c-0.1,0-0.1,0-0.2-0.1l-0.6-1c-0.1-0.1-0.1-0.2,0-0.3l0.6-0.9      c0-0.1,0.1-0.1,0.2-0.1l2.1-0.4c0.1,0,0.1,0,0.2,0.1l1.5,1.3h2.6l1.8-2.6l1.4-2.8c0-0.1,0.1-0.1,0.2-0.1h0.1l1.4,0.5h1.6h0.8      l0.6-2.2l-0.6-1.1l-1,0.5l-1.6,1.2c0,0-0.1,0.1-0.2,0.1h-2.9l-1.5,1.5c0,0-0.1,0.1-0.2,0.1l-3-0.3c-0.1,0-0.1,0-0.2-0.1      c0-0.1-0.1-0.1,0-0.2l0.2-1c0-0.1,0.1-0.2,0.2-0.2h0.2h-0.5l-0.3,0.4l-0.8,0.5l0.3,0.9c0,0.1,0,0.2-0.1,0.3c0,0.1-0.1,0.1-0.2,0.1      c0,0,0,0-0.1,0l-1.2-0.4L87,321l-0.8,1.1c0,0.1-0.1,0.1-0.2,0.1c0,0-0.9,0.1-1,0.1s-0.1,0-0.2-0.1l-0.8-1l-0.7,0.7      c0,0.1-0.1,0.1-0.2,0.1l-2.9,0.1c-0.1,0-0.1,0-0.2-0.1c0,0-0.1-0.1-0.1-0.2v-5.5c0-0.1,0-0.1,0-0.1l0.3-0.4l-0.1-0.5l-1.8-0.6      l-0.2,1c0,0.1-0.1,0.1-0.1,0.2h-0.1h-0.1l-1.7-1.1l-2,0.2l-0.6,0.8l-0.7,1.3l0.1,1.3c0,0.1,0,0.1-0.1,0.2l-2.1,2.4l-0.1,0.1      l-2.3,0.3c-0.1,0-0.2,0-0.2-0.1l-0.8-1.3c0-0.1,0-0.1,0-0.2c0.3-1,0.5-1,0.6-1s0.9,0.2,2.3,0.6c0.7-0.9,1.7-2.2,1.8-2.4      c0-0.1,0.1,0.4,0.5-0.7l-0.3-0.7l-0.6-1.3l-0.3-2.9c0-0.1,0-0.1,0.1-0.2c0-0.1,0.1-0.1,0.2-0.1l14.5-1l-1-0.4      c-0.1,0-0.2-0.2-0.2-0.3c0-0.1,0.1-0.2,0.2-0.2l2.6,0.2c0,0,2.2-0.1,2.3-0.1s1,0.5,1,0.5l1.6-0.6l0.4-1.6l1.1-1.8l0.9-0.4      c1.3-0.1,3.3-0.3,3.5-0.3c0.1,0,0.9-0.4,1.7-0.7l1-1l3.1-1.6l1-1.7l0.1-3.3l0.3-0.9l0.1-2.3l5.7-2.6h0.1l4.2,0.7l4.2,2.7l0.4-0.2      l0.8,0.2l0.8,0.3l1.4,0.4l2.7,3.8c0,0,1.1,2.3,1.2,2.3s4.6-0.1,4.6-0.1c0,0,2.5-2.3,2.5-2.3h0.1c0.1,0,0.1,0,0.2,0.1l2.7,2.1      l4.8-0.4l-0.3-2.5l0.3-0.3l4.1,0.5l2.3-1.8h0.4l4.2,6.7l2.2,6.6l4.3-0.3l0.5,0l1,5.2l6-0.2l1.1-1.8l0.4-2.6l0.9,0.2l2-0.9      c1.6,1,2.4,1.4,3.5,2.1c0.1-0.1,1.2-1.1,2.6-2.4c0-0.1,0.3-2.7,0.3-2.7L179.3,305.8z" x="131" y="340"></path><path id="충남" d="M127.2,301.2l4.7-0.1l2.4-2.3h0.2l2.8,2.2l4.8-0.4l-0.3-2.5l0.3-0.3      l4.1,0.5l2.3-1.8l0.4,0l4.2,6.8l2.2,6.6l4.9-0.3l1,5.2l5.9-0.2l1.1-1.8l0.4-2.6l1,0.2l1.9-0.9c0,0,3.5,2.1,3.5,2.1      c0,0,2.7-2.4,2.7-2.4l0.3-2.6l0.5-0.2l-2.3-6.1l-2.5-1.9l-0.4-2.7l1.4-2.7l-0.3-3.2l-1.9-3l-2.7,0.1l-3.7-1.7l-3.3,2.1l-2.1,3      l-4.2-2.1l-2-3.5l-0.4-4.3l-1.6,0.1l-0.3,8.1l-0.6,2.4l-1.4-0.1l-1.2-3l-2.4-0.1l-1.5-2.6l-0.4-3.1l-2-2.3l-1-3.9l2.9-2.2l-0.9-8.8      l7.3-2.9l1-5.6l-0.5-0.9l-1.3,0.1l1.4-5.3l-1.2-1.2l1.2-3.3l-3.3-0.3l-0.6-1.5l0.2-2.6l-2.9-3.4l1.7-0.7l0.4-2.8l-1.4-2l5-7.9      l3.7,0.3l1.7-1.9l-1.2-3.8l-3.5-2.1l-2.7,0.1l-1-0.8l0.2-1.7l-0.8-0.7l-1.3-0.6l-0.2-2.8l-2.6-1.7c0,0-0.5-1.4-1-2.6l0,0l-5.1-0.7      l-3.3-3.5l-3.3-1.2l-2.5-0.1l-3.1,2.3l-5.6,1.9l-6.1-1.9l-3.7,2.3c0,0-0.5-0.1-1.1-0.3l-4,1.1l-1.5,4.1l-0.3,0.9l-1.6-0.7l-1.4-0.2      l0.4-1.1l1.2-0.5l-1.4-4.4l-2.4-0.8v-2.6l-2-1.4v-2.2v-1.4l1.2-1l-2.9-1.8l-1.4,0.8l-3.6-2.1l-3.4,1l-0.9,2l-3.4-3.2l-0.2-0.8      l-8.5-4.2l-0.5-1.8l-1.9,0.4l-2.7,3.5l-0.2,1.3l3.1,4.2l1.7,0.8l-2.5,0.3l0.1,2.3l0.5,2l-1.3,3L68,205l-0.9,0.2l0.6-3.7l1.2-2.7      l-1.4-5.4l-4.1-3.9l-6.3,1.2l-2.6,1.4l0.4,1.3l4.1,0.2l-0.8,2.4l-2.4-0.7l1.1,3.5l1.6-1.1l1.1,2.5l1-1.3l1.9,0.9l-0.9,2.4l1.9,1.1      L63,204l-2.1-0.3l-0.5,1.7l-2.8,0.6l-0.1,1.3l0.9,0.8l-1.6,1.2l0.8,1.7l-1.9-1.3l-0.1-2l-1.5,0.3l-0.8,1.8c0,0-0.3,0.8-0.2,0.8      s1.3,1.7,1.3,1.7l-3.7,2.5l-0.8-0.7l0.2-1.2l2.7-1.8l-0.5-0.8l-1.4-0.2l2.5-5.7l-1.8-3.4l1.2-1.3l-1-1.3l0.4-2.1l-1.9-1.2l0.6,3.6      l-0.3,1.9l-1,2l-0.4,1l-1.3-1.1l-0.3,0.4l0.8,1c0,0-1.8,0.4-1.9,0.4s0.4-2.4,0.4-2.4l-2.4,0.7l-1.8,0.7l-0.9,1l-0.5,1.2l0.1,4.4      l-1.3,1.2l0.8,1.2l-1.3,1.2v-3.6h-1l-0.1,2.9l-3.1,6.7l-0.2,1.5l-0.2,1.4l-2.3,1.2v1.8l1.9,0.2l2.9-3l-0.8-1.9l3-0.8l4.6,4.1      l-0.2,1.2l-2.3,0.9l-2.5-1.6l-1.5,1.5l0.2,2.6l4.3,1.2l0.5-1.7l0.6-0.5l2.3-0.2l0.3-2.2l2.7,0.1l-0.6,2.2c0,0,0.6,2.2,0.7,2.2      c0.1,0,1.2,0.4,1.2,0.4l1.3,1.8l-0.8,1.3l-0.8,0.8v1.6l0.2,0.1l0.6,0.6l-0.2,0.3l0.5,3.2h1l0.7-0.7l0.8,0.5l-0.3,2.1l1.8,1.9l-0.5,5      l1.1,0.7l-0.2,1.4l-0.6,1.4l-0.2,3l0.4,0.1l0.1,2.3l1,0.1l0.3-0.5l1,0.1l-0.3,1.4l0.8,0.9l0.9,0.8l0.5-1l1.2,0.3l2.9,1.2l1.2-0.9      l-0.1-4.5l-3.3-7.1h-1.8l-0.4-6l-1.3-1.1l1.3-0.5l-0.8-3.5l-2,0.1l-0.3,0.5l-0.8-0.1v-0.9l1-0.5l1.2-0.7L56,235v1.2l-0.3-0.6      l0.2-0.8l-0.4-0.6l-0.2-2.8l-0.4-2.4l0.2-3.8l-1.2-0.7l0.7-0.4l1.1,0.7l0.1,1.4l0.2,2.1l1.3-1l-1,2l0.4,1.2l-1.1,4.4L56,235v-0.3      l1-0.4v-1.5l2.7-0.3l0.7,1.7l-0.4,1.1l-0.5,1.1c0,0,1.8,0.4,1.9,0.4s1.8,1.2,1.8,1.2l1.5-3.1l0.1-2.5l-0.3-2.3l1-1.7l0.2-3.1      l-0.5-1.6l0.9,0.5l1.6-0.1l-1.4,1.9l-0.2,1.1l0.1,1.3l1.1,0.5l-0.4,1.6l2.4,1.7l0.3,1.9h-1.4L68,234l-0.2-0.2h-0.2l-0.6,0.8      c0,0,0.1,1,0.1,1.1s0.5,0.5,0.5,0.5l1.9-0.3l0.9,0.6l-0.3,0.3l-2.4-0.1l0.1,1l-1.7,1.5l1,4.2l0.6,0.3l-0.2,0.9c0,0-0.3,1-0.3,1.1      s1.4,1,1.4,1l0.3,1.2l1.5-1.7l0.9,0.7c0,0-2.5,2.5-2.5,2.4c0-0.2-0.3,4.8-0.3,4.8l0.5,2l1.3,2.2l1.6-1.1l4.2-4.2l0.1,0.7l-0.4,2      l-1.9,0.3l-1.8,1.6l-0.4,0.9l-1.6,0.5l-1.1,1.6l-0.3,2.9l2,0.4l4.5,3.2l-0.2,1.3l-0.7,0.9l-2.4,0.1l-0.5,1.1l-1.1,0.3l3.8,5.7      l0.1,1.2l-0.1,2.3l-1,0.6l0.5,5.1l-0.3,0.4l-0.9,1l0.5,0.8l0.6-1l0.6-0.6l1.3,0.2l1.1-0.4l0.3,0.7l-1.9,0.2l-0.9,0.1l-1.7,2.1      l-0.4,1.1c0,0-2.6-0.5-2.6-0.4s0,3,0.1,3s1.8-1.7,1.8-1.7l1.8,0.4l1.2-0.1l0.2,1l0.9,1.2l1-0.6l0.3-0.5l0.9,0.7l1,0.4l0.9,0.9l1,2.9      l0.2,0.4l1-0.1l1-0.6l0.6,0.7l0.4,0.5v0.4l-1.4,0.7l-0.2,1l0.5,2.1l1.4-0.1l2,2.9l-0.2,0.7l-0.6,1.6l7.5,1.5l0.4-1.6l1.1-1.8l1-0.5      l3.5-0.3l1.7-0.7l1-1l3.1-1.6l1.1-1.7l0-3.3l0.3-0.9l0.1-2.4l5.8-2.6l4.3,0.7l4.2,2.7l0.4-0.2l2.9,0.9l2.7,3.8L127.2,301.2z" x="109" y="208"></path><path id="인천" d="M58.9,97.2l0.6-2.1l2-0.1l1.8-1.5l3.2,3.5l4.5,2.5l1,1.6l0.6,1.4l0,0.6      v0.1l-0.1,1.6l-0.7,1.4l0.5,1.7l0.6,0.9l-0.4,3.2l1.2,1.2l-0.3,0.6l-0.4,1.3l-0.1,0.4l1.2,3c0,0-1.6,0.9-1.7,1.1s-0.8,4.1-0.8,4.1      l-2.8-2c0,0-7.9,0.3-8.1,0.2c-0.2-0.1-2.6-2.1-2.8-2s0-2.4,0-2.4l3-1.9l0.4-2.1l-2.1-4l-1.9-0.5l-0.8-9.8L58.9,97.2z M67.8,128.6      l-0.5,2.7l-4,0.2l-1.1-0.8l0.4-3.1l1.1,1.7l2.6-1.4L67.8,128.6z M59.4,129.6l-5.3,0.8l-0.1-2.1c0,0-0.9-1.4-1.2-1.6l2,0.4l0.6,1.3      L59.4,129.6z M55.3,109.9L57,110l1.4,0.9l-0.1,2.6c0,0-2.7,2.5-3,2.4s-1.4-0.9-1.4-0.9l0.2-1.4l-1.4-2.2l-2-0.9l-2.4-2.3l1.7-0.4      l0.1-3.5c0,0,2.6-1.3,2.8-1.3l1.3,0.6l-0.9,3.3L55.3,109.9z M32.2,177.9c-0.3,0-1-3.1-1-3.3s1.1-0.2,1.3-0.4l1.3,3.7      C33.8,177.9,32.5,177.9,32.2,177.9z M36.8,168l-0.1,3.9h-3c0,0-2.7-5.7-2.5-6c0.1-0.4,0.9-5.5,0.9-5.5l0.6-0.5h0.5l0.8,3l1.4-0.4      l2.4,2.5l0.3,1.6L36.8,168z M39.6,167.5c0,0-1.1-0.7-1.4-0.9c-0.3-0.1,1-0.9,1-0.9l1.7,1.9L39.6,167.5z M40.9,114.6l-0.8-1.4      c0,0-2.4-1-2.7-1.2l4.2-0.5l0.9,3.3L40.9,114.6z M43.7,97.6l0.4-0.8l1.2-1.2l2.9,0.3l1.2,1l2.8,0.1l1.2-1.2l0.6,2.9l-1.4,2.4      l-2.3,0.7c0,0-1.1-0.8-1.4-0.7c-0.3,0.1-2.7,0.3-2.7,0.3l-0.6,1.7l-1.2-0.3l-1.9-1.5l1.5-2L43.7,97.6z M44.7,105.4l1.7,1.7l-2.7-0.1      C43.7,107.1,44.5,105.6,44.7,105.4z M43.9,115.3l3.2,0.1l-0.9,2.2C46.2,117.6,44.2,115.3,43.9,115.3z M48,174v-1v-0.2      c-0.2,0-1.2-0.4-1.5-0.5c-0.4-0.1,1.3-1.3,1.5-1.4v1.1l0.3,0.9L48,174z M54.2,162.7l-1.4,0.5l-3.3-1.7l1.4-1.2      c0.3,0.1,3.6,1.6,3.6,1.6L54.2,162.7z M60.5,145.3c0,0,1.1-1.4,1.4-1.6l0.2,0.9l2.7,1.9l-0.9,2.7c0,0-2.2,0-2.2-0.2      C61.7,148.8,60.5,145.3,60.5,145.3z M68.4,161.9c0.1,0.3-2.1,3.4-2.1,3.4l-2.4-0.6l-0.1-4.6l1.9-0.1l1.9-1.7l1.9,0.1l0.4,3.2      C69.9,161.7,68.3,161.6,68.4,161.9z M71.9,136.9l-2.4,2.1c0,0-4.3,3.2-4.5,3.5c-0.2,0.2-3,0.1-3,0.1l0.3-1.7l-1.6-1.1l-3.5,0.4      l-0.4-1.8l-0.4-1l-0.1-0.8l1.6,0.5l2-0.7l1.8-0.5L62,138h5.8l1.6-3.5l0.4-4.2l1.6-1.1l2.3,1.2l0.9-0.4l1.2-1.7l1.4,0.8l-0.1,1.4      l-1.4,0.6l1.7,1.5L78,134l-1.4,1.7L71.9,136.9z M95.6,140.9c0,0-1.1,1.5-1.1,1.8s-1.2,2-1.2,2l-0.5,0.3l-0.1-0.6l-1.9,1.9l-1.4-0.4      l-4.1,5.4l-7.2-0.2l-0.4-1.5l3.9-0.1l1.9,0.9l0.9-1.2l-3.2-2l-0.7-1.7l-0.3-1.3l-1.1-1.4l1.3-1.2l0.1-0.6l-1.6-1.1l0.4-1.5l-0.5-0.8      l0.2-0.9l2.2,1.1l0.3-1.6l-1.7-1.9l3.3-1.2c0,0,0-1.2-0.3-1.2s-2.6,0.8-2.9,0.7s-0.2-2.1-0.2-2.1l-0.5-1.6l0.3-1.1l0.2-2      c0,0-0.4-0.9-0.7-1c-0.2-0.1-0.7-0.9-0.9-1.2c1-0.4,1.9-0.7,1.9-0.7l2-0.1l0.4-1.9l0.7-1.2l1.4,0.1l0.1-1.3l3.4,1.2l1.4,2.4l1.1,1.2      l2-0.1l1.4,1.6l1.2,3.3l0,0.7l-1.1,3.1l0.1,2c0,0,0.4,2.7,0.7,2.7s0.9,1.1,0.9,1.1l0.2,1.6L95.6,140.9z" x="88" y="135"></path><path id="경남" d="M207.8,428.2l0.8-1.3l1.2,2.3L207.8,428.2z M218.2,444.2l-4.3-1.5      l-1.9,0.9c0,0-3.2-0.7-3.5-0.7s-1-3.5-1-3.5l2.7-2.6l0.7-2.3c0,0,2.7-1,3.1-0.9l0.1,1.1l-2.3,3.1l-0.1,0.1l1.4-0.4l4.6,1.4l-0.8,3.5      l2.1,0.4L218.2,444.2z M230.3,460.2c0,0-3-1.1-3.5-1.1s1.3-0.8,2.3-1.2l1.5,0.7L230.3,460.2z M230,444.7l-2.4-1.5l-0.1-1.6l3.4-0.6      l1.9,1.4l-2.1,0.4L230,444.7z M231.3,444c0,0,2.4-0.5,3-0.6l2.2,2l-3,2.4l-1.9-1L231.3,444z M238.4,468.7l-3.9-0.4l-1.5-1.6      c0,0,1.2-1.8,1.6-2.1l5.6,1.7L238.4,468.7z M252.7,450.5l-1.7,1.6l-1.9-0.9l-1.5-2.3l-1.3-1.2c0,0,0.5-1.6,0.3-1.7s-3.5-1.4-3.7-1.4      s1.4-1.5,1.4-1.5l4.4,1.7l2.6-1.4l1.7,1.1l0.4,3.5l-1.7,0.4L252.7,450.5z M255.2,457.3c0,0-0.5,1.2-0.7,1.1s-0.2-2.1-0.2-2.1      l0.3-0.6l1.4,0.1L255.2,457.3z M256,454.7l1.2-1l1.1-0.4l1.3,1.2L256,454.7z M257.7,452.6l-1.7-0.4l-0.4-3.5l0.6-0.8      c0,0-0.5-1.9-0.5-2.2l1.9,1.3l0.4,2.7l1.7,0.6L257.7,452.6z M263.1,453.6l-3.2-1.4c0,0,0.9-0.4,1.2-0.4l0.6,0.3l2.2,0.1L263.1,453.6      z M281,442.6c-0.3,0-1.2,0.3-1.2,0.3l-1-1l-1.2,1.1l1,1.4l1.2-0.9l-0.4,2.7l2,3l-3.2-0.7l0.3-2.6l-2.1,1.2l-2-0.7l0.4,3.4l-2.3,0.6      l-0.9,1.3l1.2,2.1l0.1,0.9l-2.3,0.9c0,0,1.3,2.4,1.1,2.4s-1.9-0.2-1.9-0.2l-1,1.4l-1.1-0.7l-0.1,0.1l0.9,1.5h-1.1l-1-0.4l-0.4,0.4      l-0.1-0.6l0.5,0.2l1.1-1.1l-1.4-2.3l-0.6-3.8l2.4-0.5l-0.5-1.8l-2.5,0.2l-0.6,0.9l-0.7-1l1.2-1l-1.2-0.7l2.2-0.2l0.9-3.2l-0.6-3.3      l-1.7,2l-2.6-0.2l-1.1,1l-0.3,1.7l-2.2-2.6l-2.1-2.1l0.5-4.2l5.5-3.9l1.2,1v-2.5l1.3-1.3l3.5-1.6h2.1c0.3-0.8,0.6-1.6,0.6-1.6      l0.3-2.8l-0.2-0.7c0,0,1.4-0.3,1.6-0.4l-0.3,3.6l-0.3,2h0.2l0.6-3.8l1.8-1.6l0.8-3.5l3.5,1.8l-2.2,2.8l0.1,3.3l1.8,0.5l1.1,2.4      c0,0-1.3,2.8-1.1,2.8s0.2,2.5,0.2,2.5l-1.7,2.1c0,0,1.1,0.8,1.3,0.7c0.3-0.1,1.2-1.9,1.5-1.9s2-0.5,2-0.5l-1.9,3.8      C280.3,440.5,281.3,442.6,281,442.6z M261.4,432.7l-1.5-1.1l0.4-4l1.3-0.1l-0.7,3.3L261.4,432.7z M263.1,350.2l0.7,1.3l-0.5,3.1      l1.8,3.7l4.3,3.3l6.3-1.4l9.4,3.4l5.5-3.9l1,0.3l4.5-4c0.1,0,2.1,0.1,2.1,0.1l2.9,1l3.5,1.4l1-0.3l1.1,0.9l1.4,1.1l-0.4,1.9      l-3.5,2.5l0.6,5.8l2.5,2.3h5l8.9,7.9l3.3-1l1.1,1.4l-0.8,0.8l-2.1,2.3l-0.7,2l-4.3,0.8l-3.4,6.6l-2-0.4l-4.3,3.4l-4.2,6.5h-4.3      l-3.3,2h-2.4l-0.7,3.7l-6.8,2.6l-0.5,0.9v-1l-2.1,1.6c0,0,1.9,0.9,2.1,0.9c0.1,0-0.8,2.5-0.8,2.5l-2.5,1.4l-1.3,0.4h-3.6l-1.2-4      l1.1-4.2l-0.6-1.5l-1-0.4l-0.8,0.5l0.6,1.3L275,410l-1.4-1l-1.3-0.3l0.3-1.8h-1.5c0,0-1.3,1.5-1.4,1.4s-2-3.5-2-3.5l-0.6-3.7      l0.6-0.4l0.7-0.7l-0.9-0.1l-1.5,0.5l-0.8,1.7l0.6,1.4l1.3,2.1l1.3,2.5v3.9l2.4,2l0.1,0.5h-1.5l-0.7,0.3l1.2,1.2c0,0,1.7,0,1.9,0      c0.1,0-2.4,1.5-2.6,1.5c-0.1,0-3,0.3-3,0.3l0.4-1.2l-1.4-0.4l-0.2-1.7l1.6-0.5l0.4-0.7l-3.9-0.6l-0.4-2.8l-0.6,1.8l-1.4,0.7      c0,0-2.9,0.1-3.1,0.1s-3.4-0.5-3.4-0.5l-1.5,0.6l0,0l1.1-0.3l0.3,0.5l1.9,1.7l-0.3,1l-2.4,0.2l-0.4,1.2l-0.6,0.9l-1.2-0.9l-4,1.1      l0.9,1.6l-1.7,1.9l2.1,0.5c0,0-0.1-1.6-0.1-1.8c0-0.2,0.5-0.5,0.5-0.5l4.8-1.4l1.9-2l0.7-1.2l1,1.3l-0.2,1.9c0,0,2.1,4.1,2.3,4.2      c-0.2,0-1.7,0.1-1.7,0.1l-0.9,2.2l-6.3-0.1l0.1,1.2l3-0.2l0.1,2.3l-1.9,2.9l0.9,3l-1.8,1.7l-0.1,1.4l1.1,0.8l2.8-2.6l1.3,1.1      l0.2,2.4l-1.8,0.4l0.3,2.2c0,0-0.6,0.6-0.8,0.6c-0.1,0-2.7,0.6-2.7,0.6s-2.3,1.1-2.4,1.1c-0.1,0-2.1-2.5-2.1-2.5l1.6-1.2l2.8,0.3      v-0.9c0,0-2.8-0.3-2.9-0.3c-0.1,0-0.1-0.8-0.1-0.8h-0.8l-1.7,0.6l-0.3-1l-2.3-0.9l-1.2,1l-2-2.4l1.8-0.9l3.5,0.3l-1-4.9l-2.3-1.5      l-0.1,0.6l0.5,0.8l-0.3,0.8l-1.5,0.5l-0.4,0.5l0.8,0.8l-0.1,1.2l-2.1,1.4l-2.6-2.6l1.1-0.8l0.2-0.8l-1.8-0.4l-4,0.4l-0.2,1.4l-0.6,1      l-0.4,0.6l0.7,0.7l-0.1,1.8L227,436l-0.4-1.2l-0.5-0.1l-1.4,2.3l-0.6,0.3l-2.2-3.9l-5.2-0.9l-2.3-3.6l2.1-2.1l-1.6-2.6l1.2-0.8      l-0.3-0.9l-0.6-2.4v-2.7l2-2.7l-2.3,1.5l-0.4,1.3c0,0-0.3,1.6-0.2,1.7c0,0.1-0.4,1.6-0.4,1.6l-1,0.2l-0.5-1.4H211l0.6,1.5l0.2,2.4      l1.3,1.3l-0.6,4.1h-1.3l-1-0.6l-1.7-3.2l-1.7,2l-1.7-0.7l0.6-2.7l-1.4-0.6l-1.7,5.5l-2.6,2.6l1.2-0.1l2.2,0.5l1.2,2.7l-0.4,5.1      l-1.9,1.6l0.9,2l3,1.3l0.9,2.6l3-2.9l2.2,0.1l5.1,1.5l-1.6,4.3l0.4,1.1l0.4,3.1l-1.6,1.1l-0.2,1.4l1.8,1.5c0,0-2.4-0.1-2.7,0      s-0.4-1.3-0.4-1.3L212,458l-1.4-0.8l-0.1,1l-3.2,0.4l-0.8-0.6l-0.2-5.9l-1.9,2.9h-6.2v0.8v1c0,0,0-0.8-0.3-0.8s-0.4-1.8-0.4-1.8      s-1.3-0.8-1.6-0.8s1.6-2,1.6-2l-1.5-4.2l-1.7-2.4l-0.8-3.8l1.2-1.6l0.6-2.9l0.8-0.9l1.5,1l-0.4-1.2l1.4-0.5c-0.6,0-1.6,0-1.7,0      c-0.2,0-0.4-3.1-0.4-3.1l-2.1-0.7l-0.3,0.1c-0.5-1.7-1.3-4.6-1.3-4.6l-1.4-4.2l-1.8-0.1l-7.9-5.8l0-2.9l-5.3-6.6l0.6-9.3l-2.2-3.1      l0.7-2.4l2.6-2.4l-0.9-2.9l1.6-3.3l3.5-2.9l0.7-4.6c0.1-0.4-1.3-0.5-1.9-0.4c-0.4-0.1-0.4-2-0.4-2l0.4-3.2l-1.2-2.3l0.4-3.3      l-3.4-1.2l-0.1-1.9l4.9-14.1l1.4-0.9l-0.6-1.3l0.7-5.6l5.3-4.6l1.6-4l0.9-1l1.9,0.9l1.6-1.3l1.7,0.1l3-1.7l2.1-4.7l2.2-1.1l0.2,1.3      l1,1.3l2.3,0.5l0.6,0.5l0.4,2.5l0.8,0.4l3.9,0.6l1.7,1.7l7.1,0.6c0,0,1.4,0.8,1.5,0.9c0.1,0,1.8,1.4,1.8,1.4l0.8,2.9l1.1,0.8      l1.8,0.7l0.4,1.9l2.2,1.2l1.2,2l-2.1,6.3l-0.2,1.3l1.1,1.6c0,0,3.6,1.5,3.8,1.5s3.3-0.6,3.3-0.6l2.9-1.2l4.6,1.4l2.2,2.3l1.4,0.2      l2.4,1.3l0.5-0.4l3.5-2.5l1.4-0.4l2.3,1.1l1.2-0.8l0.4-3.5L263.1,350.2z" x="245" y="387"></path><path id="광주" d="M117.3,403.4l1.7,2.6l-1.1,0.5l-0.4,5.2l-1.6,1.3l-0.4,1.8l-2.1,1.7      l-1,2.7H111l-1.2-2.1l-0.2-1.7l-0.8-0.1l-1.9,1.3L105,417l-1.7-0.4l-1.4,1.6l-2.2,1.3c0,0-1.2,0-1.4-0.1c-0.2-0.1-0.8-1-0.8-1      l-1,1.1l-2.2-0.3l-0.7-0.9l1-0.7l0.1-0.9l-0.4-1.4l-1.2-0.6l-0.6-1.1l-0.9-0.4l-2.4-0.4l-1.9,0.6c0,0-1.3,0.3-1.6,0.4      c-0.3,0-0.1-1.2-0.1-1.2l-2.5-0.3l-1.5-0.9v-1.2l0.9-0.6l0.4-1.2l1.2-0.2l0-0.9l1-0.8l0.5-0.9c0,0-1.1-1.5-1.1-1.8      c0-0.2-0.1-0.8-0.1-0.8l2.6-0.1l0.1-1.4L88,401l0.6,0.6l1.2-0.5l0.3-2.1l1-0.5l0.5-1.6l1.3-1.2h1.7l-0.8,1.8l0.1,0.8l1.7,0.6      l2.4,1.2l1.5-0.9l1.4-0.1l3.2-2.2l1.5,0.1l2.4-1.4l2.7,1.2l-0.2,1.4c0,0,2.2,1.1,2.2,1.3s0.1,1.7,0.1,1.7l1.2,0.7l-0.9,0.8l0.1,1.2      l0.9,0.8l1.4-0.9L117.3,403.4z" x="99" y="408"></path><polygon id="울릉" points="489.3,186.1 488.3,186.5 487.5,187.5 487,187.3 485.8,188      485,189.9 484.4,189.3 482.6,188.7 481.7,188.9 480.2,187.8 478.6,187.4 478,186.4 478.2,184 477.2,182.8 477.2,181.7 478,182.2      482.1,180.1 483.5,180.2 484.9,179.3 486.5,179.5 487.3,178.6 488,178.6 488.2,179.4 489.1,179.7 488.4,180.1 488.1,181.2      489.1,183 488.4,185.6 " x="488" y="185"></polygon>

</svg>