<?xml version="1.0" standalone="no"?>
<!DOCTYPE svg PUBLIC "-//W3C//DTD SVG 1.1//EN" "http://www.w3.org/Graphics/SVG/1.1/DTD/svg11.dtd" >
<svg xmlns="http://www.w3.org/2000/svg">
<metadata>Generated by IcoMoon</metadata>
<defs>
<font id="icomoon" horiz-adv-x="512">
<font-face units-per-em="512" ascent="480" descent="-32" />
<missing-glyph horiz-adv-x="512" />
<glyph unicode="&#x20;" d="" horiz-adv-x="256" />
<glyph unicode="&#xe600;" d="M504.217 132.762h-62.567v62.567h-48.333v-62.567h-62.567v-48.333h62.567v-62.567h48.333v62.567h62.567v48.333zM284.672 21.76h-279.142v397.926h161.382l39.526-39.424c10.957-10.854 25.805-16.998 41.165-16.998h256.512v-121.447h-48.435v73.011h-207.975c-28.467 0-55.194 11.059-75.367 31.13l-25.395 25.293h-92.979v-300.954h230.707v-48.538z" />
<glyph unicode="&#xe601;" d="M457.625 86.272h-62.976v62.976h-48.64v-62.976h-62.976v-48.64h62.976v-62.976h48.64v62.976h62.976v48.64zM237.671-25.344h-188.416v501.76h285.594l122.88-122.675v-158.822h-48.743v128.307h-104.653v104.448h-206.336v-404.377h139.776l-0.102-48.64z" />
<glyph unicode="&#xe602;" d="M472.747 371.456h-433.322v42.069h433.322v-42.069zM472.747 203.178h-433.322v41.984h433.322v-41.984zM377.088 287.317h-241.834v41.984h241.92v-41.984zM377.088 119.040h-241.834v41.984h241.92v-41.984zM472.747 34.901h-433.322v41.984h433.322v-41.984z" />
<glyph unicode="&#xe603;" d="M473.344 371.115h-433.493v42.154h433.579v-42.154h-0.086zM281.942 286.976h-242.090v42.154h242.006v-42.154zM473.344 202.752h-433.493v42.154h433.579v-42.154h-0.086zM281.942 118.613h-242.090v42.154h242.006v-42.154zM473.344 34.389h-433.493v42.154h433.579v-42.154h-0.086z" />
<glyph unicode="&#xe604;" d="M39.731 412.519h432.128v-41.984h-432.128v41.984zM230.605 328.755h241.255v-41.984h-241.255v41.984zM39.731 244.889h432.128v-41.984h-432.128v41.984zM230.605 161.024h241.255v-41.984h-241.255v41.984zM39.731 77.056h432.128v-41.984h-432.128v41.984z" />
<glyph unicode="&#xe605;" d="M267.571 234.035c0 53.862-43.725 97.587-97.587 97.587s-97.587-43.725-97.587-97.587 43.725-97.587 97.587-97.587v97.587h97.587zM291.942 209.664h-97.587v-97.587c53.863 0 97.587 43.725 97.587 97.587zM317.645 277.555h106.496v-43.52h-106.496v43.52zM317.133 340.327h106.496v-42.291h-106.496v42.291zM317.645 213.248h106.496v-40.96h-106.496v40.96zM317.645 151.091h106.496v-40.96h-106.496v40.96zM506.675-1.894h-502.375v454.247h502.375v-454.247zM46.182 39.987h418.611v370.483h-418.611v-370.483z" />
<glyph unicode="&#xe606;" d="M449.127 362.855c3.789-1.024 7.783-1.536 11.878-1.536 26.317 0 47.616 21.299 47.616 47.616s-21.299 47.513-47.616 47.513c-22.323 0-41.063-15.462-46.183-36.249v37.683h-3.175v-74.752h-71.68v74.752h-3.277v-74.752h-71.68v74.752h-3.277v-74.752h-71.68v74.752h-3.277v-74.752h-71.68v74.752h-3.277v-74.752h-68.096v75.571h-38.809v-485.99h24.678l0.307-0.307 0.205 0.307h459.673v38.707h-74.957v66.663h73.113v3.277h-73.113v72.192h73.113v3.277h-73.113v72.192h73.113v3.277h-73.113v72.192h73.113v3.277h-73.113v3.379l34.304 51.712zM423.219 379.955l-8.397-12.697v12.697h8.397c0 0 0 0 0 0zM414.822 397.466c1.229-5.12 3.379-9.933 6.144-14.234h-6.144v14.234zM411.648 379.955v-17.613l-36.147-54.681h-35.533v72.295h71.68zM169.881 206.285c-26.317 0-47.616-21.299-47.616-47.616 0-0.615 0.103-1.229 0.103-1.945h-7.168v72.192h71.68v-25.907c-5.325 2.151-10.957 3.277-16.999 3.277zM122.573 153.549c0.819-7.475 3.277-14.336 7.168-20.377l-14.541-16.589v36.864h7.373zM153.907 113.92c5.018-1.741 10.343-2.765 15.872-2.765 6.042 0 11.673 1.127 16.999 3.175v-32.973h-61.44l28.57 32.563zM190.054 115.661c14.643 6.963 25.293 21.094 27.136 37.888h44.544v-72.192h-71.68v34.304zM217.395 156.825c0 0.615 0.102 1.229 0.102 1.945 0 0.205 0 0.512 0 0.717l44.339 20.275v-22.835h-44.441zM206.848 188.672c-4.506 5.529-10.24 10.035-16.691 13.107v27.341h71.68v-15.36l-54.989-25.088zM265.011 229.018h30.31l-30.31-13.824v13.824zM298.291 235.059c0-0.922 0.103-1.843 0.103-2.765h-33.382v72.192h71.68v-22.733c-21.913-4.301-38.4-23.552-38.4-46.695zM261.735 232.294h-71.68v72.192h71.68v-72.192zM186.88 232.294h-71.68v72.192h71.68v-72.192zM111.923 232.294h-68.198v72.192h68.301v-72.192zM111.923 229.018v-72.192h-68.198v72.192h68.198zM111.923 153.549v-40.55l-27.853-31.642h-40.346v72.192h68.198zM81.305 78.080l-37.683-42.906v42.906h37.683zM122.573 78.080h64.307v-66.662h-71.68v58.265l7.373 8.397zM190.054 78.080h71.68v-66.662h-71.68v66.663zM265.011 78.080h71.68v-66.662h-71.68v66.663zM265.011 81.357v72.192h71.68v-72.192h-71.68zM265.011 156.825v24.371l46.387 21.197c6.656-6.963 15.462-11.981 25.293-13.926v-31.539h-71.68zM357.786 281.139c-3.789 1.024-7.783 1.536-11.878 1.536-2.048 0-3.993-0.205-5.939-0.41v22.221h33.382l-15.565-23.347zM336.691 379.955v-72.192h-71.68v72.192h71.68zM261.735 379.955v-72.192h-71.68v72.192h71.68zM186.88 379.955v-72.192h-71.68v72.192h71.68zM111.923 379.955v-72.192h-68.198v72.192h68.198zM111.923 65.997v-54.579h-47.821l47.821 54.579zM411.648 11.418h-71.68v66.663h71.68v-66.663zM411.648 81.357h-71.68v72.192h71.68v-72.192zM411.648 156.825h-71.68v31.13c1.945-0.205 3.891-0.409 5.939-0.409 24.269 0 44.237 18.125 47.207 41.575h18.534v-72.294zM411.648 232.294h-18.227c0.103 0.922 0.103 1.843 0.103 2.765 0 10.855-3.687 20.889-9.83 28.877l26.829 40.55h1.127v-72.192z" />
<glyph unicode="&#xe607;" d="M255.693 128.666l-131.994 157.389h263.885l-131.891-157.389z" />
<glyph unicode="&#xe608;" d="M257.024 440.166l131.891-157.389h-263.783l131.891 157.389zM257.024 12.442l-131.891 157.389h263.885l-131.994-157.389z" />
<glyph unicode="&#xe609;" d="M257.741 307.558l131.891-157.389h-263.885l131.994 157.389z" />
<glyph unicode="&#xe60a;" d="M385.536 240.896c85.811 43.929 82.637 204.8-81.613 207.258h-246.375v-54.272c37.171 0 54.169-14.029 54.169-49.971v-240.025c0-31.437-8.602-48.64-54.169-48.64v-54.272h231.731c205.107-0.103 199.168 202.547 96.256 239.923zM200.909 384.563h69.017c43.93 0 76.8-19.251 76.8-62.361 0-37.888-27.034-57.959-65.433-57.959h-80.487v120.32zM281.293 64.461h-80.384v141.005h81.817c42.087-0.512 73.113-27.443 73.113-65.229 0.103-37.581-22.733-75.776-74.547-75.776z" />
<glyph unicode="&#xe60b;" d="M184.423 175.155h-71.987v71.987h71.987v-71.987zM293.171 247.143h-71.987v-71.987h71.987v71.987zM401.92 247.143h-71.987v-71.987h71.987v71.987zM184.423 142.080h-71.987v-71.987h71.987v71.987zM293.171 142.080h-71.987v-71.987h71.987v71.987zM401.92 142.080h-71.987v-71.987h71.987v71.987zM428.749 392.448c0-12.288-9.933-22.221-22.221-22.221s-22.221 9.933-22.221 22.221v55.911c0 12.288 9.933 22.221 22.221 22.221s22.221-9.933 22.221-22.221v-55.911zM128.819 448.461c0 12.288-9.933 22.221-22.221 22.221s-22.221-9.933-22.221-22.221v-55.911c0-12.288 9.933-22.221 22.221-22.221s22.221 9.933 22.221 22.221v55.911zM455.577 416v-22.733c0-27.034-22.016-49.050-49.050-49.050s-49.050 22.016-49.050 49.050v22.733h-201.831v-22.63c0-27.034-22.016-49.050-49.049-49.050s-49.050 22.016-49.050 49.050v22.63h-53.248v-438.682h503.399v438.682h-52.121zM458.854 26.265h-405.709v271.769h405.606v-271.769z" />
<glyph unicode="&#xe60c;" d="M236.851 253.389h39.219v-118.887h-39.219v118.887zM256.512 73.165c-11.673 0-21.197 9.421-21.197 21.197 0 11.673 9.421 21.197 21.197 21.197 11.673 0 21.197-9.421 21.197-21.197-0.103-11.673-9.523-21.197-21.197-21.197zM256.512 440.474l-251.392-435.405h502.784l-251.392 435.405zM256.512 342.887l166.81-288.973h-333.721l166.912 288.973z" />
<glyph unicode="&#xe60d;" d="M240.64 437.504l-231.833-401.613c-7.271-12.595 1.843-28.365 16.384-28.365h463.769c14.541 0 23.655 15.769 16.384 28.365l-232.038 401.613c-7.271 12.595-25.395 12.595-32.666 0zM231.731 295.168h50.586v-153.498h-50.585v153.498zM257.024 62.515c-15.053 0-27.341 12.185-27.341 27.341 0 15.053 12.185 27.341 27.341 27.341 15.053 0 27.341-12.185 27.341-27.341-0.103-15.155-12.288-27.341-27.341-27.341z" />
<glyph unicode="&#xe60e;" d="M60.109 74.189l114.995 169.063c6.144 9.113 18.432 11.367 27.546 5.325 2.15-1.536 3.994-3.379 5.427-5.53l21.095-31.129 77.21 113.562c6.144 9.113 18.432 11.469 27.546 5.325 2.151-1.536 3.993-3.379 5.427-5.529l23.245-34.099 89.395 131.482c6.041 9.113 18.432 11.469 27.443 5.325 5.632-3.789 8.704-10.035 8.704-16.487h0.103v-350.106c0-11.059-8.909-19.968-19.865-19.968h-392.807c-11.059 0-19.968 8.909-19.968 19.968 0 5.017 1.639 9.318 4.505 12.8v0zM19.354-27.085h477.696c6.553 0 11.981 5.325 11.981 11.981s-5.427 11.981-11.981 11.981h-466.022v465.92c0 6.656-5.427 11.981-11.981 11.981-6.656 0-11.981-5.325-11.981-11.981v-478.003c0-6.656 5.427-11.981 11.981-11.981h0.307v0.103z" />
<glyph unicode="&#xe60f;" d="M495.514-2.611h-465.203v465.203c0 6.553-5.325 11.878-11.879 11.878s-11.981-5.222-11.981-11.878v-477.184c0-6.553 5.325-11.878 11.879-11.878h477.184c6.553 0 11.878 5.325 11.878 11.878 0 6.656-5.223 11.981-11.878 11.981zM75.776 372.582h362.394c6.553 0 11.878 5.427 11.878 11.879v56.32c0 6.553-5.325 11.878-11.878 11.878h-362.394c-6.553 0-11.879-5.325-11.879-11.878v-56.32c0-6.451 5.325-11.879 11.879-11.879zM75.776 134.605h296.448c6.553 0 11.878 5.427 11.878 11.981v56.32c0 6.553-5.325 11.878-11.878 11.878h-296.448c-6.553 0-11.879-5.325-11.879-11.878v-56.32c0-6.656 5.325-11.981 11.879-11.981zM75.776 268.135h149.094c6.553 0 11.981 5.427 11.981 11.879v56.32c0 6.554-5.427 11.981-11.981 11.981h-149.095c-6.553 0-11.879-5.427-11.879-11.981v-56.32c0-6.554 5.325-11.879 11.879-11.879zM75.776 30.157h74.547c6.553 0 11.879 5.325 11.879 11.878v56.32c0 6.553-5.325 11.878-11.879 11.878h-74.547c-6.553 0-11.879-5.325-11.879-11.878v-56.32c0-6.553 5.325-11.878 11.879-11.878z" />
<glyph unicode="&#xe610;" d="M493.159-0.256h-460.39v459.878c0 6.553-5.325 11.776-11.776 11.776s-11.776-5.325-11.776-11.776v-471.654c0-6.553 5.837-11.776 12.288-11.776h471.757c6.553 0 11.776 5.223 11.776 11.776s-5.325 11.776-11.878 11.776zM373.863 164.608h19.353v-82.432c0-6.041 5.12-11.059 11.776-11.059s11.776 4.915 11.776 11.059v82.432h18.227c7.168 0 12.493 5.017 12.493 11.571v73.625c0 6.553-5.325 11.059-12.493 11.059h-18.227v82.944c0 6.042-5.12 11.059-11.776 11.059s-11.776-4.915-11.776-11.059v-82.944h-19.353c-7.065 0-13.414-4.506-13.414-11.059v-73.626c0-6.553 6.349-11.571 13.414-11.571zM88.781 130.816h19.763v-81.715c0-6.041 5.12-11.059 11.776-11.059s11.776 4.915 11.776 11.059v81.715h17.817c7.168 0 11.879 5.837 11.879 12.39v73.625c0 6.553-4.71 12.288-11.879 12.288h-17.817v81.715c0 6.041-5.12 11.059-11.776 11.059s-11.776-4.915-11.776-11.059v-81.715h-19.763c-7.066 0-13.005-5.837-13.005-12.288v-73.625c0-6.553 5.939-12.39 13.005-12.39zM231.321 182.016h18.535v-45.875c0-6.041 5.12-11.059 11.776-11.059s11.776 4.915 11.776 11.059v45.875h18.944c7.168 0 12.8 4.813 12.8 11.264v147.353c0 6.553-5.632 13.414-12.8 13.414h-18.944v43.725c0 6.041-5.12 11.059-11.776 11.059s-11.776-4.915-11.776-11.059v-43.725h-18.535c-7.168 0-13.209-6.861-13.209-13.414v-147.353c0-6.451 6.042-11.264 13.209-11.264z" />
<glyph unicode="&#xe611;" d="M496.947-3.021h-466.125v466.125c0 6.656-5.427 11.981-11.981 11.981-6.553-0.103-11.981-5.427-11.981-11.981v-478.106c0-6.656 5.427-11.981 11.981-11.981h478.208c6.656 0 11.981 5.325 11.981 11.981-0.103 6.656-5.427 11.981-12.083 11.981zM418.714 30.567h56.525c6.656 0 11.981 5.427 11.981 11.981v74.649c0 6.656-5.325 11.981-11.981 11.981h-56.525c-6.553 0-11.981-5.325-11.981-11.981v-74.649c0-6.656 5.427-11.981 11.981-11.981zM314.061 30.567h56.525c6.656 0 11.981 5.427 11.981 11.981v296.96c0 6.553-5.325 11.981-11.981 11.981h-56.525c-6.656 0-11.981-5.427-11.981-11.981v-296.96c0-6.656 5.325-11.981 11.981-11.981zM75.571 30.567h56.525c6.656 0 11.981 5.427 11.981 11.981v363.008c0 6.656-5.325 11.981-11.981 11.981h-56.525c-6.553 0-11.981-5.427-11.981-11.981v-363.008c0-6.656 5.427-11.981 11.981-11.981zM180.327 30.567h56.423c6.656 0 11.981 5.427 11.981 11.981v149.401c0 6.656-5.325 11.981-11.981 11.981h-56.423c-6.656 0-11.981-5.325-11.981-11.981v-149.401c0-6.656 5.325-11.981 11.981-11.981z" />
<glyph unicode="&#xe612;" d="M439.091 391.526l-45.568-41.779c31.539-34.406 48.947-78.848 48.947-125.133 0-102.298-83.251-185.549-185.549-185.549s-185.549 83.251-185.549 185.549 83.251 185.446 185.549 185.446v61.849c-136.397 0-247.399-110.899-247.399-247.398s111.001-247.296 247.399-247.296c136.397 0 247.399 111.001 247.399 247.399 0 61.747-23.142 121.037-65.229 166.912zM287.846 212.224l67.993 239.104-129.843-214.425 15.463-43.315z" />
<glyph unicode="&#xe613;" d="M106.906 293.325c17.203 0 32.359-11.776 36.761-28.16l45.159-13.107 43.008 70.041c5.734 9.421 17.817 12.288 27.238 6.553l0.921-0.512 73.523-50.381 58.675 103.424c-3.072 5.529-4.813 11.776-4.813 18.432 0 10.547 4.301 20.070 11.161 27.034 6.861 6.861 16.486 11.161 26.931 11.161 20.889 0 38.093-17.305 38.093-38.195 0-10.547-4.199-20.070-11.161-26.931-6.553-6.656-15.769-10.855-25.702-11.161l-68.915-121.549c-0.409-0.717-0.717-1.229-1.229-1.946-6.247-9.011-18.637-11.367-27.648-5.222l-74.24 50.791-26.419-43.008 26.010-7.475c2.355-0.717 4.301-1.741 6.246-3.072v0.102l84.685-62.157 45.159 6.861c5.837 13.926 19.763 23.347 35.123 23.347 10.547 0 20.070-4.301 26.931-11.161 6.963-6.963 11.161-16.384 11.161-27.034 0-20.889-17.203-38.093-38.093-38.093-10.547 0-20.070 4.301-26.931 11.161l-2.253 2.355-53.248-8.089c-5.017-0.717-10.342 0.409-14.745 3.584l-88.576 65.024-32.87 9.625-66.048-107.52c2.662-5.223 4.198-11.161 4.198-17.408 0-10.547-4.301-20.070-11.161-26.931s-16.384-11.161-26.931-11.161c-20.889 0-38.195 17.305-38.195 38.093 0 20.889 17.305 38.195 38.195 38.195h0.103l60.313 98.202-34.714 10.035c-6.758-6.246-15.872-10.035-25.703-10.035-20.889 0-38.195 17.305-38.195 38.195 0 20.787 17.203 38.093 38.195 38.093v0zM17.613-26.777h477.594c6.656 0 11.981 5.325 11.981 11.981s-5.427 11.981-11.981 11.981h-465.613v465.613c0 6.656-5.325 11.981-11.981 11.981-6.553 0-11.981-5.325-11.981-11.981v-477.594c0.103-6.656 5.427-11.981 11.981-11.981z" />
<glyph unicode="&#xe614;" d="M455.168 255.949l-0.205-0.614-0.103-0.41-0.205-0.41-75.981-201.421 32.256-44.442c3.789-5.223 2.56-12.697-2.56-16.486-5.325-3.891-12.697-2.663-16.486 2.56l-32.461 44.544h-209.101l-32.256-44.339c-3.891-5.325-11.264-6.451-16.487-2.56-5.325 3.789-6.451 11.264-2.56 16.486l32.256 44.442-0.102 0.307-74.65 201.319-0.102 0.41-41.984 13.721c-6.247 2.048-9.626 8.704-7.577 14.951 2.048 6.144 8.602 9.523 14.848 7.475l41.984-13.619 0.615 0.409 178.688 132.505v41.575c0 6.451 5.325 11.878 11.879 11.878s11.878-5.325 11.878-11.878v-41.472l0.205-0.103 180.941-132.301 40.141 13.005c6.247 2.048 12.902-1.331 14.95-7.475 2.048-6.247-1.433-12.903-7.68-14.951l-40.141-13.107zM242.995 219.597v142.233l-133.427-98.816 133.427-43.418zM266.649 362.137v-142.438l134.963 43.827-134.963 98.611zM407.142 240.384l-133.12-43.315 76.902-105.779 56.217 149.095zM330.752 78.797l-75.981 104.448-75.879-104.448h151.859zM159.027 91.495l76.8 105.575-131.686 42.803 54.886-148.377z" />
<glyph unicode="&#xe615;" d="M317.952 314.419c6.553 0 11.878 5.427 11.878 11.981s-5.325 11.879-11.878 11.879c-6.553 0-11.981-5.427-11.981-11.879 0-6.553 5.427-11.981 11.981-11.981zM332.902 208.231c-11.571 0-22.016-4.711-29.696-12.288-7.577-7.577-12.288-18.125-12.288-29.696s4.711-22.016 12.288-29.696c7.577-7.577 18.125-12.288 29.696-12.288s22.016 4.711 29.696 12.288c7.577 7.577 12.288 18.125 12.288 29.696s-4.711 22.016-12.288 29.696c-7.68 7.577-18.125 12.288-29.696 12.288zM148.685 79.923c11.571 0 22.119 4.711 29.696 12.288s12.288 18.125 12.288 29.696c0 11.571-4.71 22.118-12.288 29.696s-18.125 12.288-29.696 12.288c-11.469 0-22.016-4.813-29.696-12.288-7.578-7.577-12.288-18.125-12.288-29.696 0-11.469 4.71-22.016 12.288-29.696 7.578-7.577 18.125-12.288 29.696-12.288zM313.241 270.080c0-10.855 8.909-19.763 19.763-19.763 10.957 0 19.763 8.909 19.763 19.763 0 10.957-8.807 19.763-19.763 19.763-10.854 0.103-19.763-8.806-19.763-19.763zM365.875 214.579c6.553 0 11.878 5.325 11.878 11.879s-5.325 11.879-11.878 11.879c-6.553 0-11.878-5.325-11.878-11.879 0-6.656 5.325-11.879 11.878-11.879zM470.835 335.411c10.957 0 19.865 8.806 19.865 19.763s-8.909 19.763-19.865 19.763c-10.957 0-19.763-8.909-19.763-19.763 0-10.957 8.909-19.763 19.763-19.763zM408.064 207.207c-10.957 0-19.763-8.909-19.763-19.865s8.909-19.763 19.763-19.763c10.957 0 19.865 8.909 19.865 19.763 0 10.957-8.909 19.865-19.865 19.865zM493.159-2.611h-463.769v463.667c0 6.553-5.325 11.878-11.879 11.878s-11.879-5.325-11.879-11.878v-475.546c0-6.553 5.325-11.878 11.879-11.878h475.648c6.553 0 11.878 5.325 11.878 11.878 0 6.656-5.427 11.878-11.878 11.878zM166.605 168.807c6.554 0 11.879 5.325 11.879 11.878s-5.325 11.878-11.879 11.878c-6.554 0-11.879-5.325-11.879-11.878s5.325-11.878 11.879-11.878zM202.547 127.539c0-10.957 8.806-19.763 19.763-19.763 10.855 0 19.763 8.909 19.763 19.763 0 10.957-8.909 19.865-19.763 19.865-10.957 0-19.763-8.909-19.763-19.865zM102.4 41.523c6.451 0 11.879 5.427 11.879 11.878 0 6.553-5.427 11.981-11.879 11.981-6.553 0-11.879-5.427-11.879-11.981s5.325-11.878 11.879-11.878zM300.032 216.217c6.553 0 11.981 5.325 11.981 11.879s-5.427 11.879-11.981 11.879c-6.553 0-11.878-5.325-11.878-11.879 0-6.656 5.325-11.879 11.878-11.879zM257.843 126.618c0-6.553 5.325-11.878 11.878-11.878s11.878 5.325 11.878 11.878c0 6.553-5.325 11.878-11.878 11.878-6.656 0-11.878-5.325-11.878-11.878zM66.355 61.696c10.957 0 19.763 8.909 19.763 19.865s-8.909 19.763-19.763 19.763c-10.957 0-19.865-8.909-19.865-19.763 0-10.957 8.909-19.865 19.865-19.865zM235.827 161.127c11.469 0 22.016 4.711 29.594 12.288s12.288 18.125 12.288 29.696c0 11.469-4.711 22.016-12.288 29.594s-18.125 12.288-29.594 12.288c-11.571 0-22.119-4.71-29.696-12.288s-12.288-18.125-12.288-29.594c0-11.571 4.71-22.118 12.288-29.696s18.125-12.288 29.696-12.288zM424.858 225.946c11.571 0 22.118 4.608 29.696 12.288 7.577 7.577 12.288 18.125 12.288 29.696 0 11.469-4.711 22.016-12.288 29.594s-18.125 12.288-29.696 12.288c-11.469 0-22.016-4.711-29.594-12.288s-12.288-18.125-12.288-29.594c0-11.571 4.711-22.119 12.288-29.696 7.577-7.68 18.125-12.288 29.594-12.288z" />
<glyph unicode="&#xe616;" d="M276.685 362.035v32.666l54.17 54.169c7.987-2.663 15.872-5.735 23.45-9.216l-77.619-77.619zM414.72 399.821l-138.035-138.035v-16.077h16.589l137.728 137.83c-5.12 5.632-10.547 11.162-16.281 16.282zM276.685 428.595l27.443 27.443c-9.011 1.843-18.125 3.174-27.546 3.993v-31.437zM487.117 272.845l-27.136-27.136h31.027c-0.819 9.216-2.048 18.227-3.891 27.136zM480.051 299.571c-2.663 7.987-5.735 15.872-9.216 23.449l-77.312-77.312h32.666l53.863 53.863zM459.264 345.241c-3.993 6.759-8.294 13.312-13.005 19.661l-119.193-119.194h32.666l99.533 99.533zM396.083 415.079c-6.349 4.608-12.902 9.011-19.661 13.005l-99.84-99.84v-32.666l119.501 119.501zM236.647 205.773v254.259c-120.525-10.138-215.143-111.207-215.143-234.291 0-129.946 105.267-235.213 235.213-235.213 123.187 0 224.154 94.618 234.291 215.245h-254.362z" />
<glyph unicode="&#xe617;" d="M4.505 219.801l43.111 39.834c50.381-24.371 82.432-43.008 139.059-83.353 106.496 120.935 176.947 182.272 307.815 263.68l14.029-32.256c-107.93-94.208-186.982-199.066-300.749-403.149-70.144 82.637-117.043 135.373-203.264 215.245z" />
<glyph unicode="&#xe618;" d="M256 476.928c-139.673 0-252.928-113.255-252.928-252.928s113.254-252.928 252.928-252.928 252.928 113.255 252.928 252.928-113.255 252.928-252.928 252.928zM205.721 94.976l-104.96 105.063c-3.993 3.993-3.993 10.445 0 14.438l36.352 36.352c3.994 3.994 10.445 3.994 14.439 0l54.169-54.169c3.994-3.993 10.445-3.993 14.439 0l143.975 144.077c3.993 3.994 10.445 3.994 14.438 0l36.454-36.352c3.993-3.994 3.993-10.445 0-14.439l-194.765-194.969c-4.096-3.993-10.547-3.993-14.541 0z" />
<glyph unicode="&#xe619;" d="M394.957 37.939l-40.755-40.55c-6.451-6.451-16.896-6.349-23.347 0.103l-215.040 216.064c-6.349 6.451-6.349 16.793 0 23.245l215.143 216.167c6.451 6.451 16.896 6.451 23.347 0.102l40.653-40.653c6.451-6.451 6.451-16.896 0.103-23.347l-151.655-152.269c-6.349-6.451-6.349-16.793 0-23.245l151.655-152.371c6.349-6.349 6.349-16.793-0.103-23.245z" />
<glyph unicode="&#xe61a;" d="M117.965 411.392l40.755 40.55c6.451 6.451 16.896 6.349 23.347-0.103l215.143-216.166c6.349-6.451 6.349-16.793 0-23.245l-215.245-215.962c-6.451-6.451-16.896-6.451-23.347-0.103l-40.755 40.55c-6.451 6.451-6.451 16.896-0.103 23.347l151.654 152.371c6.349 6.451 6.349 16.793 0 23.245l-151.552 152.269c-6.349 6.451-6.349 16.896 0.103 23.245z" />
<glyph unicode="&#xe61b;" d="M391.987 34.151l-119.705 119.808c-8.909 8.909-23.45 8.909-32.358 0l-120.627-120.627c-8.909-8.909-23.45-8.909-32.359 0l-22.016 22.118c-8.909 8.909-8.909 23.45 0 32.358l120.525 120.627c8.909 8.909 8.909 23.45 0 32.358l-119.501 119.399c-8.909 8.909-8.909 23.45 0 32.358l22.118 22.118c8.909 8.909 23.45 8.909 32.359 0l119.501-119.501c8.909-8.909 23.449-8.909 32.359 0l120.525 120.525c8.909 8.909 23.45 8.909 32.358 0l22.118-22.016c8.909-8.909 8.909-23.45 0-32.358l-120.627-120.627c-8.909-8.909-8.909-23.45 0-32.358l119.808-119.705c8.909-8.909 8.909-23.45 0-32.358l-22.016-22.118c-9.011-8.909-23.45-8.909-32.461 0z" />
<glyph unicode="&#xe61c;" d="M256.205 477.031c-139.571 0-253.030-113.459-253.030-252.928 0-31.232 5.837-62.054 17.408-91.751 2.663-6.759 5.632-13.517 8.909-20.070 20.173-40.858 50.995-75.571 89.088-100.352 7.066-4.608 13.005-8.089 18.637-11.059 36.454-19.456 77.619-29.798 118.989-29.798s82.534 10.24 118.989 29.696c5.632 2.969 11.571 6.553 18.637 11.059 38.093 24.883 68.915 59.597 89.088 100.352 3.277 6.553 6.247 13.312 8.909 20.070 11.571 29.696 17.408 60.519 17.408 91.75-0.103 139.571-113.562 253.031-253.030 253.031zM414.413 146.893c9.625 0 18.944-2.253 27.75-6.656-16.998-37.581-45.466-69.529-80.896-90.829-6.759 10.342-10.24 22.016-10.24 34.099-0.103 34.918 28.365 63.385 63.385 63.385zM319.591 83.405c0-16.998 4.608-33.485 13.414-48.231-49.152-20.173-104.55-20.173-153.6 0 8.806 14.643 13.415 31.232 13.415 48.231 0 52.224-42.496 94.822-94.823 94.822-13.107 0-26.010-2.867-38.4-8.499-4.915 17.715-7.475 35.942-7.475 54.375 0 112.538 91.546 204.083 204.083 204.083s204.083-91.545 204.083-204.083c0-18.329-2.457-36.557-7.475-54.375-12.39 5.632-25.293 8.499-38.4 8.499-52.327 0-94.822-42.496-94.822-94.822zM97.997 146.893c34.919 0 63.385-28.467 63.385-63.385 0-12.083-3.584-23.757-10.24-34.099-35.43 21.401-63.898 53.351-80.896 90.829 8.806 4.301 18.227 6.656 27.751 6.656zM256.205 357.837c13.517 0 24.474 10.957 24.474 24.474s-10.957 24.474-24.474 24.474c-13.517 0-24.474-10.957-24.474-24.474s10.957-24.474 24.474-24.474zM347.443 382.31c-11.366 6.554-26.931 2.253-33.382-9.011-6.759-11.674-2.765-26.624 9.011-33.485 3.687-2.151 7.885-3.277 12.185-3.277 8.704 0 16.896 4.711 21.197 12.185 3.277 5.632 4.096 12.288 2.457 18.535-1.741 6.451-5.735 11.776-11.469 15.053zM405.401 281.958c5.632 3.277 9.728 8.499 11.366 14.848 1.741 6.349 0.819 12.902-2.457 18.534-6.451 11.264-22.016 15.565-33.382 9.011-5.632-3.277-9.728-8.601-11.366-14.848-1.741-6.349-0.819-12.903 2.457-18.535 4.403-7.577 12.493-12.288 21.197-12.288 4.199 0 8.499 1.127 12.185 3.277zM438.784 224.102c0 13.415-10.957 24.474-24.474 24.474s-24.474-11.059-24.474-24.474c0-13.517 10.957-24.473 24.474-24.473 6.553 0 12.697 2.56 17.305 7.168 4.711 4.608 7.271 10.752 7.168 17.305zM189.338 339.815c11.673 6.758 15.667 21.811 8.909 33.485-6.451 11.264-22.119 15.462-33.382 9.011-5.632-3.277-9.728-8.499-11.367-14.848s-0.819-12.902 2.458-18.637c4.403-7.577 12.493-12.186 21.197-12.186 4.198-0.102 8.397 1.024 12.185 3.175zM131.379 324.352c-11.264 6.554-26.931 2.253-33.382-9.011-3.277-5.632-4.096-12.288-2.457-18.637 1.741-6.349 5.734-11.571 11.367-14.848 3.686-2.15 7.987-3.277 12.288-3.277 8.704 0 16.793 4.71 21.197 12.185 3.277 5.632 4.096 12.288 2.458 18.534-1.741 6.554-5.734 11.776-11.469 15.053zM97.997 248.576c-13.517 0-24.474-10.957-24.474-24.474s10.957-24.473 24.474-24.473c13.517 0 24.474 10.957 24.474 24.474 0 13.415-10.957 24.371-24.474 24.474zM263.065 247.757c-28.774 33.587-69.222 65.127-70.963 66.457l-16.281 12.697 5.427-19.968c0.614-2.15 14.233-51.609 34.099-91.034-0.819-3.379-1.229-6.451-1.229-9.523 0-23.142 18.841-42.087 42.086-42.087 7.68 0 15.155 2.151 21.299 5.939l2.151 1.229c11.571 7.885 18.534 20.889 18.534 34.816 0 20.889-14.95 38.195-35.123 41.472z" />
<glyph unicode="&#xe61d;" d="M305.971 172.493h-102.912v103.014h102.912v-103.014zM203.059 440.064v-102.912h102.912v102.912h-102.912zM38.912 172.493h102.297v103.014h-102.297v-103.014zM367.616 337.255h103.424v102.81h-103.424v-102.81zM305.971 7.936v102.81h-102.912v-102.912l102.912 0.103zM141.209 110.745h-102.297v-102.912h102.297v102.912zM471.040 275.507h-103.424v-102.912h103.424v102.912zM367.616 110.745v-102.912h103.424v102.912h-103.424zM141.209 337.255v102.81h-102.297v-102.912l102.297 0.103z" />
<glyph unicode="&#xe61e;" d="M388.403 444.672c-35.84 14.131-83.046 21.811-132.915 21.811-49.971 0-97.177-7.68-132.915-21.811-40.96-16.179-63.59-39.629-63.59-66.253v-308.736c0-26.522 22.528-50.074 63.59-66.253 35.738-14.131 82.944-21.811 132.915-21.811s97.177 7.68 132.915 21.811c40.96 16.179 63.591 39.629 63.591 66.253v308.736c-0.103 26.624-22.63 50.074-63.591 66.253zM135.27 411.802c31.744 12.493 74.343 19.456 120.013 19.456s88.269-6.963 120.013-19.456c30.413-11.981 41.165-25.498 41.165-33.383s-10.854-21.401-41.165-33.382c-31.744-12.493-74.342-19.456-120.013-19.456s-88.269 6.963-120.013 19.456c-30.413 11.981-41.165 25.497-41.165 33.382s10.752 21.402 41.165 33.383zM416.563 69.786c0-7.885-10.854-21.401-41.165-33.382-31.744-12.493-74.343-19.456-120.013-19.456s-88.269 6.963-120.013 19.456c-30.413 11.981-41.165 25.498-41.165 33.382v46.285c8.192-5.12 17.613-9.831 28.365-14.131 35.737-14.131 82.944-21.811 132.915-21.811s97.178 7.68 132.915 21.811c10.752 4.301 20.173 9.011 28.365 14.131v-46.285h-0.205zM416.563 168.192c0-7.885-10.854-21.401-41.165-33.382-31.744-12.493-74.343-19.456-120.013-19.456s-88.269 6.963-120.013 19.456c-30.413 11.981-41.165 25.498-41.165 33.382v52.941c8.192-5.12 17.613-9.831 28.365-14.131 35.737-14.131 82.944-21.811 132.915-21.811s97.178 7.783 132.915 21.811c10.752 4.301 20.173 9.011 28.365 14.131v-52.941h-0.205zM375.399 239.769c-31.744-12.493-74.342-19.456-120.013-19.456s-88.269 6.963-120.013 19.456c-30.413 11.981-41.165 25.497-41.165 33.382v52.941c8.192-5.12 17.613-9.831 28.365-14.131 35.737-14.131 82.944-21.811 132.915-21.811s97.178 7.68 132.915 21.811c10.752 4.301 20.173 9.011 28.365 14.131v-52.941c-0.205-7.885-10.957-21.401-41.37-33.382z" />
<glyph unicode="&#xe61f;" d="M461.824 399.923c0 14.233-11.571 25.907-25.907 25.907h-356.352c-14.233 0-25.907-11.571-25.907-25.907v-250.88h408.166v250.88zM426.906 183.962h-338.329v206.848h338.329v-206.848zM463.155 129.587h-410.829l-38.707-67.993c-4.608-7.987-4.505-17.817 0.102-25.805s13.107-12.902 22.323-12.902h443.597c9.216 0 17.715 4.915 22.425 12.902s4.608 17.817 0 25.805l-38.912 67.993zM208.487 59.75l10.343 30.413h78.233l10.342-30.413h-98.918z" />
<glyph unicode="&#xe620;" d="M359.731 225.434l-42.599-46.592h-123.904l-41.472 46.592h-132.71l19.558-228.864h429.261l24.064 228.864h-132.199zM449.127 364.903h-386.969l-4.608 34.406h396.185l-4.608-34.406zM423.629 422.861h-332.8l-4.608 28.672h341.913l-4.505-28.672zM39.834 256.154l-7.373 83.763h447.693l-7.885-83.763h-49.971l3.789 37.888h-340.889l3.789-37.888h-49.152z" />
<glyph unicode="&#xe621;" d="M348.57 253.901h80.179l-174.285-174.695-174.387 174.695h80.179v219.443h188.416l-0.103-219.443zM398.745 114.022v-78.848h-288.666v78.848h-60.519v-139.367h409.702v139.366h-60.519z" />
<glyph unicode="&#xe622;" d="M300.749 405.658l-243.405-243.405-26.829-130.765 133.018 24.576 243.405 243.405-106.189 106.189zM84.787 135.014l216.064 216.064 13.414-13.414-216.064-216.064-13.415 13.414zM136.089 83.405l-13.415 13.414 216.064 216.064 13.414-13.414-216.064-216.064zM478.413 370.944l-47.719-47.719-106.189 106.189 47.719 47.719 106.189-106.189zM26.829 3.021h452.301v-26.829h-452.301v26.829z" />
<glyph unicode="&#xe623;" d="M160.051 223.385c0-26.637-21.594-48.231-48.231-48.231s-48.23 21.594-48.23 48.231c0 26.637 21.593 48.231 48.23 48.231s48.231-21.594 48.231-48.231zM304.845 223.385c0-26.637-21.594-48.231-48.231-48.231s-48.231 21.594-48.231 48.231c0 26.637 21.594 48.231 48.231 48.231s48.231-21.594 48.231-48.231zM449.639 223.385c0-26.637-21.594-48.231-48.231-48.231s-48.231 21.594-48.231 48.231c0 26.637 21.594 48.231 48.231 48.231s48.231-21.594 48.231-48.231z" />
<glyph unicode="&#xe624;" d="M100.3 122.4l85.7 85.7c8.9 8.9 8.9 23.3 0 32.2l-85.7 85.7c-8.9 8.9-8.9 23.3 0 32.2l22 21.9c8.9 8.9 23.3 8.9 32.2 0l85.7-85.7c8.9-8.9 23.3-8.9 32.2 0l85.6 85.8c8.9 8.9 23.3 8.9 32.2 0l21.9-22c8.9-8.9 8.9-23.3 0-32.2l-85.7-85.7c-8.9-8.9-8.9-23.3 0-32.2l85.7-85.7c8.9-8.9 8.9-23.3 0-32.2l-22-22c-8.9-8.9-23.3-8.9-32.2 0l-85.6 85.8c-8.9 8.9-23.3 8.9-32.2 0l-85.7-85.7c-8.9-8.9-23.3-8.9-32.2 0l-22 21.9c-8.8 8.9-8.8 23.4 0.1 32.2z" />
<glyph unicode="&#xe625;" d="M508.928 190.925v68.096l-36.762 13.107c-14.029 5.017-25.293 15.667-31.027 29.491 0 0 0 0 0 0-5.735 13.824-5.325 29.389 1.127 42.803l16.793 35.226-48.128 48.128-35.226-16.793c-13.517-6.451-29.082-6.758-42.906-1.127 0 0 0 0 0 0-13.926 5.939-24.678 17.203-29.696 31.232l-13.005 36.864h-68.096l-13.107-36.761c-5.018-14.029-15.667-25.293-29.491-31.027 0 0 0 0 0 0-13.824-5.734-29.389-5.325-42.906 1.127l-35.225 16.691-48.128-48.128 16.793-35.225c6.451-13.517 6.758-29.082 1.126-42.906 0 0 0 0 0 0-5.837-13.824-17.101-24.576-31.13-29.594l-36.864-13.005v-68.096l36.761-13.107c14.029-5.017 25.293-15.667 31.027-29.491 0 0 0 0 0 0 5.734-13.824 5.325-29.389-1.127-42.906l-16.794-35.226 48.128-48.128 35.225 16.793c13.517 6.451 29.082 6.759 42.906 1.127 0 0 0 0 0 0 13.721-5.735 24.474-16.998 29.491-31.027l13.107-36.864h68.096l13.005 36.557c5.017 14.131 15.872 25.6 29.696 31.334 0 0 0 0 0 0 13.619 5.632 29.082 5.325 42.496-1.024l35.533-16.896 48.128 48.128-16.793 35.328c-6.451 13.517-6.759 29.082-1.127 42.803 0 0 0 0 0 0 5.735 13.824 16.998 24.474 31.027 29.491l37.069 13.005zM256 132.25c-51.2 0-92.774 41.575-92.774 92.774s41.575 92.774 92.774 92.774c51.2 0 92.774-41.575 92.774-92.774s-41.575-92.774-92.774-92.774z" />
<glyph unicode="&#xe626;" d="M254.976 428.8c112.64 0 203.776-91.136 203.776-203.776s-91.136-203.776-203.776-203.776c-112.64 0-203.776 91.136-203.776 203.776s91.136 203.776 203.776 203.776zM254.976 477.952c-139.673 0-252.928-113.255-252.928-252.928s113.254-252.928 252.928-252.928 252.928 113.255 252.928 252.928-113.255 252.928-252.928 252.928v0zM257.433 73.37c-17.817 0-32.358 14.438-32.358 32.358 0 17.817 14.439 32.358 32.358 32.358 17.817 0 32.358-14.438 32.358-32.358 0-17.817-14.438-32.358-32.358-32.358zM282.931 169.011v-5.837c0 0-48.537 0-53.351 0v5.837c0 16.486 2.355 37.581 21.504 55.911s43.008 33.485 43.008 56.525c0 25.395-17.613 38.81-39.834 38.81-36.966 0-39.424-38.4-40.346-46.797h-51.815c1.331 40.038 18.329 95.949 92.467 95.949 64.307 0 93.184-43.008 93.184-83.456 0.103-64.307-64.819-75.571-64.819-116.941z" />
<glyph unicode="&#xe627;" d="M3.687 135.219v179.609h504.729v-179.507l-504.729-0.103zM459.161 184.371v81.203h-406.323v-81.203h406.323z" />
<glyph unicode="&#xe628;" d="M256 450.304l-252.928-252.723h52.224v-203.981h401.408v203.981h52.224l-252.928 252.723zM401.51 48.793h-90.522v106.189h-109.875v-106.189h-90.522v178.073l145.51 145.408 145.51-145.408v-178.073z" />
<glyph unicode="&#xe629;" d="M288.461 367.872h48.231l-109.466-288.256h-48.025l109.261 288.256zM506.88 203.827l-142.336-79.975v49.562l82.841 46.695-82.841 46.285v49.766l142.336-79.974v-32.358zM5.529 236.185l142.336 79.974v-49.766l-82.841-46.285 82.841-46.695v-49.562l-142.336 79.975v32.358z" />
<glyph unicode="&#xe62a;" d="M455.987 361.216v-279.040h-401.101v279.040h401.101zM504.217 409.549h-497.562v-375.603h497.664v375.603h-0.103zM224.256 120.269c-31.744 5.427-56.013 33.075-56.013 66.457v52.736l56.013-55.706v-63.488zM266.24 163.379v57.651c56.217 10.547 58.368 71.577 41.165 103.117l-28.16-30.925-24.269 30.925-22.631-30.925-28.877 30.925c-16.691-30.72-15.36-92.467 41.165-103.117v-101.683h30.515c37.274 0 67.379 30.208 67.379 67.379v52.736l-76.288-76.083z" />
<glyph unicode="&#xe62b;" d="M292.762 139.827h-60.723v129.024h60.723v-129.024zM262.349 297.421c-18.125 0-32.768 14.643-32.768 32.768s14.643 32.768 32.768 32.768c18.125 0 32.768-14.643 32.768-32.768s-14.643-32.768-32.768-32.768zM4.71-8.653c20.48 40.653 43.111 96.461 41.984 135.373-27.546 33.178-43.111 75.981-43.111 119.603 0 122.88 119.194 212.685 252.621 212.685 132.608 0 252.621-89.19 252.621-212.685 0-128.615-141.721-248.832-336.179-201.011-35.328-21.913-113.152-43.93-167.936-53.965zM256.205 409.754c-112.231 0-203.469-73.319-203.469-163.533 0-47.411 20.48-77.312 49.357-106.803-5.837-43.725-19.968-81.715-19.968-81.715s41.677 11.059 89.088 38.707c181.248-48.026 288.461 56.525 288.461 149.811 0 90.215-91.238 163.533-203.469 163.533z" />
<glyph unicode="&#xe62c;" d="M256.103 427.879c112.64 0 203.776-91.136 203.776-203.776s-91.136-203.776-203.776-203.776c-112.64 0-203.776 91.136-203.776 203.776s91.136 203.776 203.776 203.776zM256.103 477.031c-139.673 0-252.928-113.255-252.928-252.928s113.254-252.928 252.928-252.928 252.928 113.255 252.928 252.928-113.255 252.928-252.928 252.928v0zM290.406 85.965h-68.505v169.984h68.505v-169.984zM256.103 288.205c-20.377 0-36.966 16.589-36.966 36.966s16.589 36.966 36.966 36.966c20.377 0 36.966-16.589 36.966-36.966s-16.486-36.966-36.966-36.966z" />
<glyph unicode="&#xe62d;" d="M202.547 39.577c-7.577-15.36-1.434-24.576 13.721-24.576h29.798v-42.701h-181.248v42.701h18.841c28.467 0 35.123 19.251 45.261 37.171l176.743 352.768c8.397 17.92-3.175 28.058-17.92 28.058h-23.757v42.701h180.019v-42.701h-17.613c-24.474 0-33.485-13.517-43.213-31.846l-180.633-361.575z" />
<glyph unicode="&#xe62e;" d="M423.322-19.712c20.275 8.089 61.133 70.963 73.421 112.538 12.185 41.575 28.16 35.43-17.101 86.835-45.261 51.303-61.133 106.394-88.064 112.537s-80.691-5.427-75.776 38.605c0 0 12.083 15.257 14.745 27.238 4.915 22.323 2.457 32.051 6.041 38.81 3.687 6.759 3.072 12.185-1.229 28.774-4.301 16.487-23.859 68.505-78.233 44.032-54.477-24.474-27.546-89.293-19.559-99.635s21.401-23.859 22.631-32.973c1.229-9.216-3.687-25.088-28.16-40.96s-56.832-45.261-61.747-88.064c-4.915-42.803-6.758-49.562-28.672-26.317-22.016 23.245-34.816 47.719-42.189 56.832-7.373 9.216-55.603 12.8-68.505 16.487-12.8 3.686-31.744 9.831-28.16 3.686 3.687-6.144 29.389-10.445 41.575-22.016 12.185-11.673 27.546-9.831 37.273-13.415 9.728-3.687 28.672-23.859 31.744-39.731s6.144-31.13 3.686-37.274c-2.457-6.144 6.758-13.414 15.257-24.474 8.601-10.957 37.888-54.989 50.176-53.863 12.185 1.229 22.016 3.072 34.202 18.329s18.329-4.301 15.872-17.715c-0.922-5.017-7.782-25.805-15.667-56.115-4.608-17.613 8.601-34.816 26.829-34.816 0-0.205 161.383-4.711 179.609 2.663zM389.632 109.209c4.301 29.389 14.643 55.603 14.643 55.603s4.915 12.8 16.486 3.072c11.571-9.831 42.189-39.117 43.418-48.947s-7.987-70.349-15.872-81.92c-7.987-11.673-17.715-27.546-38.502-14.643s-24.371 57.549-20.173 86.835z" />
<glyph unicode="&#xe62f;" d="M283.238 426.137c54.681 0 87.347-23.859 87.347-77.312v-267.571l-75.878 67.072-75.879-67.072v252.313c0 39.322-3.584 74.035-14.131 92.57h78.541zM283.238 474.88c-38.298 0-169.575 0-190.566 0 51.917-17.613 77.517-57.856 77.517-132.711 0-66.355 0-369.049 0-369.049l124.518 110.183 124.621-110.183c0 0 0 336.691 0 375.705 0 73.728-46.797 126.055-136.089 126.055v0z" />
<glyph unicode="&#xe630;" d="M408.4 218.7l-301.1-175c-6.3-4-14.4 0.5-14.4 7.9v350.1c0 7.4 8.2 11.9 14.4 7.9l301.1-175c5.8-3.7 5.8-12.2 0-15.9z" />
<glyph unicode="&#xe631;" d="M144.589 285.235c8.294 8.294 17.613 15.257 27.443 20.685 54.784 30.208 125.133 14.131 160.358-39.322l-42.599-42.599c-12.185 27.853-42.599 43.725-72.806 36.966-11.367-2.56-22.221-8.192-31.027-16.999l-81.715-81.715c-24.781-24.781-24.781-65.229 0-90.010s65.229-24.781 90.010 0l25.191 25.19c22.938-9.113 47.514-12.697 71.783-10.957l-55.706-55.603c-47.719-47.719-124.928-47.719-172.647 0s-47.718 124.928 0 172.647l81.715 81.715zM274.432 415.079l-55.603-55.603c24.269 1.843 48.845-1.843 71.782-10.957l25.19 25.19c24.781 24.781 65.229 24.781 90.010 0s24.781-65.229 0-90.010l-81.715-81.715c-24.883-24.883-65.331-24.678-90.010 0-5.734 5.735-10.752 12.902-13.824 19.968l-42.599-42.599c4.506-6.759 9.113-12.697 15.155-18.637 15.463-15.462 35.021-26.931 57.651-32.358 29.287-7.065 60.621-3.175 87.552 11.673 9.83 5.427 19.046 12.288 27.443 20.685l81.715 81.715c47.719 47.719 47.719 124.928 0 172.647-47.821 47.616-125.133 47.616-172.749 0z" />
<glyph unicode="&#xe632;" d="M313.447 421.325c0-26.726-21.709-48.435-48.435-48.435s-48.435 21.709-48.435 48.435 21.709 48.435 48.435 48.435 48.435-21.709 48.435-48.435zM265.113 63.027c-23.347 0-42.394-18.944-42.394-42.394 0-23.347 18.944-42.394 42.394-42.394 23.347 0 42.394 18.944 42.394 42.394-0.103 23.45-19.046 42.394-42.394 42.394zM465.408 190.72c-16.691 0-30.208 13.517-30.208 30.208s13.517 30.208 30.208 30.208 30.208-13.415 30.208-30.208-13.517-30.208-30.208-30.208zM113.152 220.928c0 26.726-21.709 48.435-48.435 48.435s-48.333-21.607-48.333-48.435c0-26.726 21.709-48.435 48.435-48.435s48.333 21.709 48.333 48.435zM157.696 396.851c18.944-18.944 18.944-49.562 0-68.505s-49.561-18.944-68.505 0c-18.944 18.944-18.944 49.562 0 68.505 18.944 18.841 49.562 18.841 68.505 0zM381.031 105.011c-14.131-14.131-14.131-37.171 0-51.303s37.171-14.131 51.303 0c14.131 14.131 14.131 37.171 0 51.303s-37.069 14.131-51.303 0zM423.834 345.447c-9.421-9.421-24.781-9.421-34.202 0s-9.421 24.781 0 34.202c9.421 9.421 24.781 9.421 34.202 0s9.421-24.679 0-34.202zM157.696 113.613c-18.944 18.944-49.561 18.944-68.505 0s-18.944-49.562 0-68.505c18.944-18.944 49.562-18.944 68.505 0 18.841 18.944 18.841 49.562 0 68.505z" />
<glyph unicode="&#xe633;" d="M483.123 325.99h-454.247v71.68h454.247v-71.68zM483.123 259.84h-454.247v-71.68h454.247v71.68zM483.123 122.010h-454.247v-71.68h454.247v71.68z" />
<glyph unicode="&#xe634;" d="M4.096-8.755c20.48 40.755 43.315 96.768 42.087 135.783-27.648 33.28-43.213 76.288-43.213 119.911 0 123.29 119.603 213.401 253.44 213.401 133.018 0 253.44-89.498 253.44-213.401 0-129.024-142.233-249.651-337.305-201.728-35.43-21.811-113.561-44.032-168.448-53.965zM256.409 410.983c-112.537 0-204.083-73.626-204.083-164.045 0-47.616 20.582-77.517 49.561-107.111-5.939-43.93-20.070-82.022-20.070-82.022s41.882 11.059 89.395 38.81c181.863-48.231 289.382 56.73 289.382 150.323-0.103 90.522-91.648 164.045-204.185 164.045zM194.56 248.371c0-19.228-15.588-34.816-34.816-34.816s-34.816 15.588-34.816 34.816c0 19.229 15.588 34.816 34.816 34.816s34.816-15.587 34.816-34.816zM292.762 248.371c0-19.228-15.587-34.816-34.816-34.816s-34.816 15.588-34.816 34.816c0 19.229 15.588 34.816 34.816 34.816s34.816-15.587 34.816-34.816zM391.065 248.371c0-19.228-15.587-34.816-34.816-34.816s-34.816 15.588-34.816 34.816c0 19.229 15.587 34.816 34.816 34.816s34.816-15.587 34.816-34.816z" />
<glyph unicode="&#xe635;" d="M462.643 277.658h-414.31c-7.987 0-14.541-6.451-14.541-14.541v-75.264c0-7.987 6.451-14.541 14.541-14.541l414.413 0.103c7.987 0 14.541 6.451 14.541 14.541v75.264c-0.103 7.987-6.553 14.438-14.643 14.438z" />
<glyph unicode="&#xe636;" d="M341.709 319.744c-1.331 1.741-3.481 2.662-5.735 2.56-3.687-0.307-6.656-3.174-11.878-11.878l-53.145-87.962 7.475-2.355c3.993-1.229 7.885-2.765 11.469-4.403s7.168-3.687 10.752-5.939l6.553-4.199 33.28 97.28c3.175 9.83 3.584 13.926 1.229 16.896zM254.976 469.146c-133.222 0-241.664-108.442-241.664-241.664 0-12.595 0.921-24.883 2.867-36.967 11.776-76.697 59.801-141.517 125.849-176.64 33.69-17.92 72.192-28.058 112.947-28.058s79.155 10.137 112.947 28.058c66.048 35.123 114.073 99.942 125.85 176.64 1.843 12.083 2.867 24.371 2.867 36.966 0 133.222-108.442 241.664-241.664 241.664zM255.693 120.474c-16.281 0-29.389 13.209-29.389 29.389 0 16.281 13.209 29.491 29.389 29.491 16.282 0 29.389-13.209 29.389-29.491 0-16.179-13.107-29.389-29.389-29.389zM459.059 190.515h-143.36c-14.745 16.998-36.454 27.75-60.723 27.75s-45.977-10.752-60.723-27.75h-143.36c-2.151 11.981-3.277 24.371-3.277 36.966 0 114.381 92.979 207.462 207.36 207.462s207.462-93.082 207.462-207.462c0-12.595-1.127-24.986-3.379-36.966zM431.719 241.92c6.144 0 10.854 5.325 10.137 11.367-12.083 92.262-90.931 163.123-186.163 163.123-95.13 0-173.977-70.759-186.061-162.918-0.819-6.144 3.993-11.571 10.24-11.571v0c5.12 0 9.523 3.789 10.24 8.909 0.103 0.819 0.205 1.638 0.307 2.355 0.409 3.174 3.481 5.222 6.553 4.505 3.789-0.819 8.704-1.945 12.391-2.765 2.969-0.614 5.837 1.126 6.451 4.096v0.103c0.615 2.969-1.126 5.837-4.096 6.451l-12.595 2.867c-3.072 0.717-4.915 3.789-3.993 6.861 6.246 21.504 16.794 41.37 30.515 58.368 1.945 2.457 5.632 2.663 7.987 0.512l9.728-9.216c2.15-2.048 5.632-1.945 7.68 0.205l0.102 0.103c2.048 2.151 1.946 5.632-0.205 7.68l-9.933 9.318c-2.253 2.151-2.253 5.735 0 7.885 18.329 17.306 40.653 30.618 65.331 38.298 2.97 0.922 6.144-0.921 6.861-3.993l3.174-13.824c0.717-2.867 3.584-4.71 6.451-4.096h0.102c2.97 0.717 4.71 3.584 4.096 6.553l-3.174 13.927c-0.717 3.072 1.331 6.041 4.403 6.553 8.909 1.536 18.125 2.253 27.546 2.253 13.107 0 25.805-1.536 37.991-4.403 3.072-0.717 4.813-3.891 3.891-6.861l-4.301-13.927c-0.921-2.867 0.717-5.939 3.584-6.759h0.103c2.867-0.921 5.939 0.717 6.759 3.584l4.301 13.926c0.921 2.969 4.199 4.608 7.168 3.481 20.787-7.987 39.629-19.968 55.501-35.021 2.253-2.15 2.253-5.837-0.103-7.885l-10.649-9.83c-2.151-2.048-2.355-5.427-0.307-7.68l0.103-0.102c2.048-2.151 5.427-2.355 7.68-0.307l10.649 9.831c2.355 2.15 5.939 1.843 7.885-0.615 13.619-16.999 24.064-36.659 30.31-58.061 0.921-2.969-1.024-6.144-3.993-6.861l-13.926-3.174c-2.969-0.615-4.711-3.584-4.096-6.451v-0.102c0.615-2.97 3.584-4.71 6.451-4.096l13.721 3.072c3.072 0.717 6.144-1.433 6.553-4.506 0.103-0.819 0.205-1.741 0.307-2.56 0.615-5.018 4.915-8.806 10.035-8.806 0.205 0.205 0.307 0.205 0.307 0.205z" />
<glyph unicode="&#xe637;" d="M256.819 462.080c-130.56 0-236.339-105.779-236.339-236.339s105.779-236.237 236.339-236.237 236.237 105.779 236.237 236.237-105.779 236.339-236.237 236.339zM402.022 182.835h-102.298v-102.298h-78.951v102.298h-102.297v79.053h102.297v102.298h78.951v-102.298h102.298v-79.053z" />
<glyph unicode="&#xe638;" d="M118.272 457.779v-358.4h385.639v358.4h-385.639zM443.801 159.488h-265.421v181.555h265.318v-181.555zM443.801-9.575v60.109h-375.296v291.123h-60.211v-351.232h435.507z" />
<glyph unicode="&#xe639;" d="M145.101 396.135h357.99v-50.586h-357.99v50.586zM145.101 244.48h357.99v-50.585h-357.99v50.585zM145.101 92.825h357.99v-50.586h-357.99v50.586zM35.84 319.744h25.395v107.417h-21.401v-1.945c0-15.053-14.848-16.486-29.287-17.101v-18.125h25.293v-70.246zM81.613 194.611h-34.407c15.462 12.902 32.358 28.365 32.358 48.435 0 19.968-14.336 32.87-36.455 32.87-12.083 0-24.166-3.584-34.407-11.469l7.987-19.968c6.656 4.813 13.415 9.113 21.913 9.113 9.114 0 14.131-4.403 14.131-12.493-0.205-13.517-16.179-26.624-44.851-52.531v-16.691h73.728v22.733zM65.229 71.322c9.421 4.711 14.439 12.595 14.439 22.733 0 13.209-10.65 26.419-34.509 26.419-10.752 0-23.347-2.457-32.666-8.499l5.735-20.48c8.089 5.017 15.565 6.963 21.607 6.963 8.090 0 12.697-3.072 12.697-8.397 0-7.475-9.728-9.523-15.565-9.523h-10.752v-20.275h11.264c8.192 0 17.817-3.277 17.817-12.39 0-6.861-6.144-11.161-16.179-11.161-8.499 0-16.691 2.867-24.064 6.963l-5.735-21.197c9.421-5.735 20.89-7.885 31.437-7.885 25.293 0 42.189 12.8 42.189 31.949 0.103 11.469-6.861 20.889-17.715 24.781z" />
<glyph unicode="&#xe63a;" d="M203.571 13.056h-92.365c-8.397 0-15.258 6.861-15.258 15.257v391.373c0 8.397 6.861 15.257 15.257 15.257h92.365c8.397 0 15.257-6.861 15.257-15.257v-391.373c0-8.397-6.861-15.257-15.257-15.257zM404.889 434.944h-92.365c-8.397 0-15.257-6.861-15.257-15.257v-391.373c0-8.397 6.861-15.257 15.257-15.257h92.365c8.397 0 15.257 6.861 15.257 15.257v391.373c0.103 8.397-6.759 15.257-15.257 15.257z" />
<glyph unicode="&#xe63b;" d="M71.782 19.917v409.19c0 10.342 11.367 16.691 20.173 11.264l333.619-204.595c8.397-5.12 8.397-17.408 0-22.63l-333.619-204.493c-8.806-5.427-20.173 0.921-20.173 11.264z" />
<glyph unicode="&#xe63c;" d="M462.643 277.658h-140.493c-7.987 0-14.541 6.451-14.541 14.541v140.493c0 7.987-6.451 14.541-14.541 14.541h-75.264c-7.987 0-14.541-6.451-14.541-14.541v-140.493c0-7.987-6.451-14.541-14.541-14.541h-140.391c-7.987 0-14.541-6.451-14.541-14.541v-75.264c0-7.987 6.451-14.541 14.541-14.541h140.493c7.987 0 14.541-6.451 14.541-14.541v-140.493c0-7.987 6.451-14.541 14.541-14.541h75.264c7.987 0 14.541 6.451 14.541 14.541v140.595c0 7.987 6.451 14.541 14.541 14.541h140.493c7.987 0 14.541 6.451 14.541 14.541v75.264c-0.103 7.987-6.553 14.438-14.643 14.438z" />
<glyph unicode="&#xe63d;" d="M318.567 222.976c0-33.997-27.546-61.645-61.645-61.645s-61.645 27.546-61.645 61.645c0 33.997 27.546 61.645 61.645 61.645s61.645-27.545 61.645-61.645zM510.976 233.011c0 0-74.649-166.605-256.409-166.605-168.755 0-253.645 166.605-253.645 166.605s75.776 146.535 253.645 146.535c180.839 0 256.409-146.535 256.409-146.535zM366.49 222.976c0 60.519-49.050 109.568-109.568 109.568s-109.568-49.049-109.568-109.568c0-60.519 49.049-109.568 109.568-109.568s109.568 49.050 109.568 109.568z" />
<glyph unicode="&#xe63e;" d="M441.959 315.853v107.315h-371.917v-107.315h-65.331v-247.603h63.385l48.435 96.154h280.986l47.411-96.154h62.361v247.603h-65.331zM393.216 315.853h-274.432v58.573h274.432v-58.573zM458.854 253.901c-8.192 0-14.745 6.656-14.745 14.745 0 8.192 6.656 14.745 14.745 14.745 8.192 0 14.745-6.656 14.745-14.745 0-8.192-6.553-14.745-14.745-14.745zM366.695 118.016l47.411-100.966h-315.085l48.333 100.966h219.341z" />
<glyph unicode="&#xe63f;" d="M146.739 182.118l17.408 106.087 17.817-76.391c1.741-7.783 12.595-8.704 15.565-1.127l16.077 41.165c0 0 7.782-18.125 9.216-21.197s3.072-5.12 8.089-5.12h19.763v16.384h-14.439l-15.463 34.611c-2.867 6.758-12.493 6.553-15.155-0.205l-13.619-34.919-21.095 93.184c-1.946 8.807-14.643 8.294-16.077-0.512l-17.408-107.725-17.817 66.253c-1.945 7.885-13.21 8.397-15.667 0.512l-13.312-51.405h-15.155v-16.384h21.606c2.969 0 6.144 2.355 6.963 5.222l7.578 27.239 19.149-76.288c2.15-8.704 14.643-8.089 15.975 0.615zM438.579 105.728c9.421 14.848 14.848 32.461 14.848 51.303 0 52.941-43.111 96.051-96.051 96.051s-96.051-43.111-96.051-96.051c0-52.941 43.111-96.051 96.051-96.051 17.92 0 34.714 4.915 49.050 13.517l64.819-64.819 31.642 31.642-64.307 64.409zM357.478 96.819c-33.178 0-60.211 27.034-60.211 60.211s27.034 60.211 60.211 60.211c33.178 0 60.211-27.034 60.211-60.211s-27.034-60.211-60.211-60.211zM236.749 103.373h-229.888v311.399h402.944v-136.397c-12.8 5.529-26.624 9.113-41.165 10.342v84.889h-320.512v-229.171h177.869c1.229-14.438 5.018-28.365 10.752-41.063zM300.544 37.837h-190.464l41.165 41.165h99.635c12.902-17.51 29.901-31.744 49.664-41.165z" />
<glyph unicode="&#xe640;" d="M115.061 338.788c-4.561-2.615-8.879-5.595-13.075-8.697l-31.38 31.259c8.514 6.872 17.758 13.014 27.489 18.245l16.968-40.807zM259.436 381.601l-16.785-40.502c8.636-4.561 16.663-10.156 23.961-16.42l31.015 31.077c-11.555 10.217-24.387 18.913-38.192 25.846zM27.671 310.752l40.989-17.028c1.946 3.162 4.135 6.324 6.325 9.365l-31.259 31.38c-6.020-7.48-11.373-15.386-16.055-23.718zM166.024 399.663c-12.649-1.094-24.995-3.406-36.793-6.993l16.968-40.929c6.446 1.764 13.014 3.102 19.826 3.832v44.091zM236.387 391.271c-13.014 4.318-26.82 7.237-40.989 8.392v-44.030c8.332-0.912 16.359-2.615 24.204-4.926l16.785 40.564zM23.535 143.269l32.353-94.506c1.156-3.832 4.136-4.318 6.507-1.094l21.65 30.043 0.852-0.608c29.617-19.339 66.471-28.644 95.783-28.765v0c102.716 0 176.18 78.938 176.18 175.998 0 44.882-17.028 85.749-44.76 116.886l-31.077-31.137c19.704-23.109 31.685-52.969 31.685-85.749 0-72.917-58.747-132.090-132.090-132.090v0.122c-29.313 0.061-48.895 6.872-70.788 20.981l22.137 31.137c2.311 3.284 0.912 5.838-3.101 5.777h-100.223c-4.014 0.061-6.325-3.163-5.108-6.993zM11.373 276.149c-2.19-7.845-3.832-22.501-4.926-22.501h44.456c0.425 0 0.912 1.581 1.459 3.953l-40.989 18.548zM226.353 182.615l-33.691 33.813c-2.494 2.554-3.953 5.96-3.953 9.548v74.802c0 7.48-6.082 13.501-13.501 13.501h-0.669c-7.48 0-13.501-6.082-13.501-13.501v-82.83c0-6.203 2.919-11.555 7.176-15.447l38.982-38.983c5.291-5.291 13.805-5.291 19.096 0v0c5.291 5.23 5.351 13.805 0.061 19.096z" horiz-adv-x="362" />
<glyph unicode="&#xe641;" d="M411.341 372.173l-49.357-49.357c-26.829 26.829-63.795 43.315-104.653 43.315-81.715 0-147.968-66.253-147.968-148.070v0h39.936l-74.24-91.853-74.343 91.75h38.707c0 120.217 97.485 217.907 217.907 217.907 60.211 0.102 114.688-24.269 154.010-63.693zM511.385 225.741l-74.137 91.751-74.24-91.75h39.936c0-81.715-66.253-148.070-148.071-148.070-40.96 0-77.927 16.589-104.653 43.315l-49.357-49.357c39.424-39.424 93.901-63.795 154.010-63.795 120.218 0 217.907 97.587 217.907 217.907v0h38.605z" />
<glyph unicode="&#xe642;" d="M169.984 406.784c-63.181-39.219-99.328-105.267-102.809-174.183h-57.139l91.648-92.058 92.058 92.058h-56.627c3.379 45.671 27.75 88.883 69.734 114.893 69.529 43.111 160.87 21.709 203.981-47.821s21.709-160.87-47.821-203.981c-63.591-39.424-145.511-24.883-192 31.232l-49.152-50.176c69.12-78.029 186.368-97.28 277.913-40.55 102.298 63.488 133.837 197.837 70.349 300.135-63.385 102.4-197.837 133.939-300.135 70.451z" />
<glyph unicode="&#xe643;" d="M210.432 277.043c29.286 127.385 175.001 153.395 175.001 153.395v42.906l86.938-86.733-86.938-86.835v42.906c0 0-112.743 1.024-175.001-65.639zM387.687 250.726c0-47.514 0-93.389 0-108.237 0-68.813-84.992-41.267-84.992-41.267s26.010-82.944-38.195-82.944c-34.918 0-52.429 0-181.351 0v361.882h140.391c14.029 16.077 30.618 30.72 49.561 43.623h-233.472v-449.127h225.689c74.342 0 165.99 97.075 165.99 164.045v155.546c-20.070-20.070-8.192-8.089-43.623-43.52zM341.197 148.327h-211.456v32.666h211.456v-32.666zM341.197 219.597h-211.456v32.666h211.456v-32.666z" />
<glyph unicode="&#xe644;" d="M451.789 216.729c15.769 0 28.57-12.8 28.57-28.57v-177.869c0-10.547-8.499-19.046-19.046-19.046v0h-415.846c-10.547 0-19.047 8.499-19.047 19.046v415.846c0 10.547 8.499 19.046 19.047 19.046h177.767c15.769 0 28.57-12.8 28.57-28.57v0c0-15.769-12.8-28.569-28.57-28.569h-139.673v-339.661h339.661v139.776c0 15.769 12.8 28.57 28.57 28.57v0zM269.107 233.831c7.475-7.475 19.456-7.475 26.931 0l146.227 146.227v-66.867c0-10.547 8.601-19.046 19.046-19.046 10.547 0 19.046 8.499 19.046 19.046v112.845c0 10.547-8.499 19.047-19.046 19.047h-112.845c-10.547 0-19.046-8.499-19.046-19.047s8.499-19.046 19.046-19.046h66.867l-146.227-146.227c-7.475-7.373-7.475-19.456 0-26.931z" />
<glyph unicode="&#xe645;" d="M395.264 123.136h-194.765v36.352h194.765v-36.352zM395.264 193.792h-194.765v36.352h194.765v-36.352zM395.264 263.219h-194.765v36.25h194.765v-36.25zM152.576 23.193v320.717h289.485c0 0 0-161.485 0-199.885 0-61.645-84.787-40.96-84.787-40.96s20.070-79.872-38.707-79.872c-38.81 0-22.835 0-165.99 0zM490.496 145.869v246.375h-386.355v-417.485h215.143c82.432 0 171.213 96.768 171.213 171.111zM64.615 24.217v406.016h376.217v42.496h-418.509v-448.512h42.291z" />
<glyph unicode="&#xe646;" d="M141.1-0.1c-3.8 0-7.7 1.5-10.6 4.4-5.9 5.9-5.9 15.4 0 21.2l326 326c5.9 5.9 15.4 5.9 21.2 0 5.9-5.9 5.9-15.4 0-21.2l-326-326c-2.9-3-6.7-4.4-10.6-4.4zM308-0.1c-3.8 0-7.7 1.5-10.6 4.4-5.9 5.9-5.9 15.4 0 21.2l159.1 159.1c5.9 5.9 15.4 5.9 21.2 0 5.9-5.9 5.9-15.4 0-21.2l-159.1-159.1c-2.9-3-6.8-4.4-10.6-4.4z" />
<glyph unicode="&#xe647;" d="M9.319 353.229h413.491v-45.671h-413.491v45.671zM9.319 460.544h413.491v-45.67h-413.491v45.67zM9.319 245.811h253.542v-45.67h-253.542v45.671zM9.319 138.496h253.542v-45.671h-253.542v45.671zM9.319 31.079h253.542v-45.671h-253.542v45.671zM492.442 355.481c-6.349 0-11.469-5.12-11.469-11.469v-239.821h-63.488v47.309c0 7.577-8.499 11.981-14.745 7.783l-89.19-61.031c-5.427-3.687-5.427-11.776 0-15.565l89.19-61.031c6.247-4.301 14.745 0.205 14.745 7.783v51.815h74.855c6.349 0 11.469 5.12 11.469 11.469v251.29c0.103 6.349-5.017 11.469-11.366 11.469z" />
<glyph unicode="&#xe648;" d="M248.9 58l-175 301.1c-4 6.3 0.5 14.4 7.9 14.4h350.1c7.4 0 11.9-8.2 7.9-14.4l-175.1-301.1c-3.6-5.8-12.1-5.8-15.8 0z" />
<glyph unicode="&#xe649;" d="M505.447 224.102c0-137.216-111.207-248.525-248.525-248.525s-248.423 111.309-248.423 248.525 111.309 248.525 248.525 248.525 248.423-111.309 248.423-248.525zM457.216 224.102c0 110.695-89.6 200.294-200.192 200.294-110.695 0-200.192-89.6-200.192-200.192 0-110.695 89.6-200.192 200.192-200.192 110.695-0.103 200.192 89.498 200.192 200.089zM356.147 330.701l-139.981-140.083-60.621 60.723-44.953-44.954 105.677-105.677 185.037 185.037-45.159 44.954z" />
<glyph unicode="&#xe64a;" d="M409 472.2h-394v-496.5h482v408.6l-88 87.9zM344.5 401.9v-88.8h-49.4v88.8h49.4zM448.7 24h-385.4l-0.1 400h77.4v-139.8h236.8v139.8h11.7l59.7-59.7-0.1-340.3z" />
<glyph unicode="&#xe64b;" d="M504.832 22.17l-129.126 129.127c24.269 33.382 38.707 74.547 38.707 118.887-0.103 111.719-90.931 202.649-202.649 202.649s-202.649-90.931-202.649-202.649c0-111.719 90.931-202.649 202.649-202.649 42.394 0 81.715 13.107 114.279 35.328l129.843-129.741 48.947 49.050zM68.608 270.183c0 78.951 64.205 143.257 143.155 143.257s143.155-64.205 143.155-143.155c0-78.95-64.205-143.155-143.155-143.155-78.951-0.103-143.155 64.103-143.155 143.053z" />
<glyph unicode="&#xe64c;" d="M373.146-30.055h-218.726c-20.275 0-36.761 17.408-36.761 38.707v430.899c0 21.299 16.486 38.707 36.761 38.707h218.624c20.275 0 36.762-17.408 36.762-38.707v-430.797c0.103-21.401-16.384-38.81-36.659-38.81zM154.419 445.184c-1.741 0-3.789-2.457-3.789-5.632v-430.797c0-3.277 1.946-5.632 3.789-5.632h218.624c1.741 0 3.789 2.457 3.789 5.632v430.797c0 3.277-1.945 5.632-3.789 5.632h-218.624zM263.783 54.323c-21.197 0-38.502 17.305-38.502 38.502 0 21.299 17.305 38.502 38.502 38.502s38.502-17.305 38.502-38.502c0-21.197-17.305-38.502-38.502-38.502zM263.783 109.312c-9.113 0-16.487-7.373-16.487-16.486s7.373-16.486 16.487-16.486c9.113 0 16.486 7.373 16.486 16.486s-7.373 16.486-16.486 16.486zM190.874 399.719h145.92v-22.016h-145.92v22.016zM190.874 341.965h145.92v-22.016h-145.92v22.016z" />
<glyph unicode="&#xe64d;" d="M3.482 233.319c0 127.795 104.141 231.424 232.038 231.424 63.898 0 121.344-25.907 163.225-67.789l-164.352-163.635v-231.424c-124.519 0-230.912 103.629-230.912 231.424zM276.787 233.319l163.635 163.635c90.419-90.419 90.419-236.953 0-327.27l-163.635 163.635zM255.078 213.965v-231.424c62.259 0 118.477 22.63 163.635 67.789l-163.635 163.635z" />
<glyph unicode="&#xe64e;" d="M49.357 432.179h411.648v-411.648h-411.648v411.648z" />
<glyph unicode="&#xe64f;" d="M256.615 477.44c-139.673 0-252.928-113.255-252.928-252.928s113.254-252.928 252.928-252.928 252.928 113.255 252.928 252.928-113.255 252.928-252.928 252.928zM404.070 197.683c0-5.427-4.403-9.831-9.83-9.831h-275.251c-5.427 0-9.831 4.403-9.831 9.831v53.453c0 5.427 4.403 9.831 9.831 9.831h275.251c5.427 0 9.831-4.403 9.831-9.831v-53.453z" />
<glyph unicode="&#xe650;" d="M5.632 445.696v-443.085h500.122v443.085h-500.122zM457.216 213.76h-177.255v114.176h177.255v-114.176zM231.424 327.936v-114.176h-177.255v114.176h177.255zM54.169 165.223h177.255v-114.074h-177.255v114.073zM279.962 51.149v114.073h177.255v-114.073h-177.255z" />
<glyph unicode="&#xe651;" d="M458.137 458.394v0h-404.275v-111.719h42.599c0 23.757 19.251 43.008 43.008 43.008h67.584v-312.729c0-23.757-19.251-43.008-43.008-43.008h-14.848v-42.291h212.071v42.291h-12.697c-23.757 0-43.008 19.251-43.008 43.008v312.729h67.175c23.757 0 43.008-19.251 43.008-43.008h42.291l0.103 111.719z" />
<glyph unicode="&#xe652;" d="M377.549 251.648c-52.019-77.517-85.401-126.054-85.401-173.261s38.195-85.401 85.401-85.401 85.401 38.195 85.401 85.401c0.103 47.207-33.382 95.642-85.401 173.261zM383.488 140.544c-12.288-30.822-46.695-23.040-28.262 17.203 7.783 16.896 13.209 24.166 22.016 38.707 7.373-11.469 14.438-35.43 6.247-55.911zM204.391 77.875v311.705h-67.379c-23.552 0-42.803-19.149-42.803-42.803h-42.087v111.411h402.637v-111.411h-42.189c0 23.654-19.149 42.906-42.906 42.906h-66.969v-186.163c-29.082-46.695-46.695-84.582-46.695-125.031 0-33.28 13.517-63.591 35.328-85.504h-144.487v42.189h14.745c23.655-0.205 42.803 19.046 42.803 42.701z" />
<glyph unicode="&#xe653;" d="M501.658 400.947l-50.893-50.995-23.552-1.536-28.467 28.467 0.717 24.679 50.791 50.79c-32.563 9.523-74.854 6.963-100.454-18.739-22.733-22.733-34.509-55.296-30.72-85.299 0.717-5.939-0.615-11.878-3.993-16.793-8.089-11.469-21.709-30.413-39.117-52.838l8.601-8.807c20.173-20.071 17.715-37.888 7.577-58.573l10.752-10.752c29.286 25.702 57.344 48.231 78.541 63.59 4.096 2.97 9.318 3.994 14.336 3.072 29.901-5.427 60.109 8.090 84.275 32.256 25.702 25.702 31.13 68.915 21.606 101.478zM188.723 178.534c-0.512-0.512-1.024-1.127-1.638-1.639-48.64-48.64-104.448-101.171-134.246-128.717-14.336-13.312-15.565-35.533-2.765-50.279 14.234-16.384 39.526-16.691 54.169-0.717 32.256 35.43 91.648 99.635 134.656 143.257 6.349 6.451 12.903 12.902 19.558 19.353l-10.035 9.113c-27.238-13.005-38.912-10.649-59.699 9.625zM92.058 13.875c-5.837-5.632-15.769-4.711-22.016 1.843-6.246 6.656-6.553 16.486-0.717 22.118s15.77 4.711 22.016-1.843c6.246-6.656 6.553-16.589 0.717-22.118zM422.195 79.411c-1.639 2.663-4.199 4.813-7.168 6.041l-19.149 3.072c-1.843 0.717-3.379 1.843-4.813 3.175l-116.019 115.098c-1.536 1.536-1.536 3.993 0 5.427 13.005 12.8 13.107 33.792 0.307 46.695l-11.366 11.571c-1.741 1.741-4.096 2.458-6.553 2.048-3.379-0.614-6.861-0.614-10.547 0.103-11.367 2.151-20.48 11.264-22.835 22.631-0.717 3.481-0.717 6.861-0.307 10.035 0.512 3.277-0.819 6.451-3.072 8.807-18.637 18.944-95.539 96.665-133.837 135.373-12.083 12.186-31.744 12.288-44.032 0.205l-29.287-28.979c-12.185-12.083-12.288-31.744-0.205-44.032l133.939-135.373c2.253-2.355 5.632-3.584 8.806-2.97 4.506 0.819 9.523 0.614 14.541-1.126 8.499-2.867 15.36-9.728 18.125-18.329 1.638-5.12 1.843-10.035 0.922-14.643-0.614-2.969 0.205-6.041 2.253-8.294l9.728-9.933c12.8-13.005 33.792-13.107 46.695-0.307 1.638 1.639 4.198 1.639 5.837 0l115.917-114.995c1.741-1.741 3.072-3.789 3.993-5.939l1.536-18.534c1.024-2.457 2.765-4.505 4.915-5.837l70.963-56.218 24.883 24.269-54.17 70.963z" />
<glyph unicode="&#xe654;" d="M200.089 295.68c0 9.933-8.089 18.022-18.023 18.022s-18.023-8.089-18.023-18.022v-219.136c0-9.933 8.089-18.022 18.023-18.022s18.023 8.089 18.023 18.022v219.136zM272.998 295.68c0 9.933-8.089 18.022-18.023 18.022s-18.023-8.089-18.023-18.022v-219.136c0-9.933 8.089-18.022 18.023-18.022s18.023 8.089 18.023 18.022v219.136zM346.010 295.68c0 9.933-8.089 18.022-18.022 18.022s-18.022-8.089-18.022-18.022v-219.136c0-9.933 8.089-18.022 18.022-18.022s18.022 8.089 18.022 18.022v219.136zM393.728 18.279h-277.504v335.565h-42.087v-377.651h361.677v377.651h-42.087v-335.565zM343.552 438.118c-18.637 0-33.69 15.053-33.69 33.69h-109.773c0-18.637-15.053-33.69-33.69-33.69h-114.176v-48.128h405.504v48.128h-114.176z" />
<glyph unicode="&#xe655;" d="M438.784-24.627h-361.779v48.64h361.779v-48.64zM314.573 475.699v-42.496c34.918 0 44.749-19.968 44.749-32.256v-173.159c0-60.825-40.038-97.178-101.171-97.178s-101.171 36.352-101.171 97.178v173.159c0 12.288 9.831 32.256 44.749 32.256v42.496h-159.232v-42.496c35.737 0 44.237-12.39 44.237-32.256v-173.363c0-111.513 65.638-165.99 171.315-165.99 105.575 0 171.315 54.477 171.315 165.99v173.363c0 19.865 8.397 32.256 44.237 32.256v42.496h-159.027z" />
<glyph unicode="&#xe656;" d="M160.87 390.195h341.709v-48.231h-341.709v48.231zM160.87 245.504h341.709v-48.23h-341.709v48.231zM160.87 100.711h341.709v-48.231h-341.709v48.231zM53.862 414.361c-26.624 0-48.23-21.606-48.23-48.231s21.607-48.231 48.23-48.231c26.624 0 48.23 21.607 48.23 48.231s-21.606 48.231-48.23 48.231zM53.862 269.568c-26.624 0-48.23-21.606-48.23-48.23s21.607-48.231 48.23-48.231c26.624 0 48.23 21.606 48.23 48.231s-21.606 48.231-48.23 48.231zM53.862 124.877c-26.624 0-48.23-21.606-48.23-48.231s21.607-48.231 48.23-48.231c26.624 0 48.23 21.606 48.23 48.231s-21.606 48.231-48.23 48.231z" />
<glyph unicode="&#xe657;" d="M160.87 300.493h-80.999l176.128 176.435 176.128-176.435h-80.999v-221.696h-190.259v221.696zM401.817 113.92v-79.667h-291.635v79.667h-61.133v-140.8h413.901v140.8h-61.133z" />
<glyph unicode="&#xe658;" d="M432.231 96.819c-68.608 15.769-132.403 29.696-101.478 87.962 94.106 177.459 24.883 272.281-74.445 272.281-101.376 0-168.857-98.509-74.445-272.281 31.846-58.675-34.406-72.499-101.478-87.962-68.608-15.872-63.386-52.019-63.386-117.555h478.413c0.103 65.536 5.325 101.683-63.181 117.555z" />
<glyph unicode="&#xe659;" d="M494.592 150.989c0-26.931-21.913-48.845-48.845-48.845h-377.447c-26.931 0-48.845 21.913-48.845 48.845v250.471c0 26.931 21.913 48.845 48.845 48.845h377.447c26.931 0 48.845-21.913 48.845-48.845v-250.471zM450.56 401.357c0 3.891-3.175 6.963-6.963 6.963h-376.217c-3.891 0-6.963-3.175-6.963-6.963v-251.289c0-3.891 3.175-6.963 6.963-6.963h376.217c3.891 0 6.963 3.175 6.963 6.963v251.289zM346.726 25.344h-35.43v69.632h-104.448v-69.632h-34.611c-15.463 0-27.955-14.336-27.955-28.672h230.298c0 14.336-12.493 28.672-27.853 28.672z" />
<glyph unicode="&#xe65a;" d="M192.41 54.221c-21.095 0-38.195 17.101-38.195 38.195s17.101 38.195 38.195 38.195 38.195-17.101 38.195-38.195-17.101-38.195-38.195-38.195zM192.41 108.902c-9.011 0-16.384-7.373-16.384-16.384s7.373-16.384 16.384-16.384 16.384 7.373 16.384 16.384c0 9.011-7.373 16.384-16.384 16.384zM120.115 396.851h144.691v-21.811h-144.691v21.811zM120.115 339.507h144.691v-21.811h-144.691v21.811zM84.070 2.816c-1.741 0-4.198 2.969-4.198 6.247v427.213c0 3.175 2.355 7.885 4.198 7.885h216.781c1.741 0 2.253-4.71 2.253-7.885v-180.122c10.24 4.096 22.528 7.066 32.768 8.704v171.417c0 21.094-14.95 40.653-35.021 40.653h-216.781c-20.173 0-37.99-19.559-37.99-40.653v-427.213c0-21.197 17.817-39.014 37.99-39.014h216.781c10.752 0 20.377 4.915 27.034 12.697-17.51 3.687-33.792 8.807-48.333 20.070h-195.482zM480.461 122.419c0 68.198-55.296 121.549-121.549 121.549-65.741 0-121.549-52.736-121.549-121.549 0-69.222 56.115-121.549 121.549-121.549 65.843 0 121.549 52.941 121.549 121.549zM301.363 167.065c-2.355-11.161-3.789-23.040-4.199-35.328h-34.918c1.536 16.281 7.168 31.437 15.769 44.442 7.475-3.789 15.36-6.759 23.347-9.113zM297.165 113.101c0.512-12.39 2.048-24.371 4.505-35.533-8.089-2.355-15.974-5.325-23.45-9.113-8.704 13.005-14.336 28.262-15.974 44.647h34.918zM306.586 59.648c2.867-8.704 6.656-17.305 11.366-25.19-10.24 4.813-19.558 11.366-27.546 19.251 5.017 2.253 10.445 4.199 16.179 5.939zM368.231 85.146v27.955h33.997c-0.512-10.957-1.843-21.401-3.993-31.232-9.625 1.843-19.661 2.867-30.003 3.277zM393.216 63.846c-4.608-13.107-12.902-30.003-25.088-36.659v39.322c8.704-0.307 17.101-1.229 25.088-2.663zM368.231 131.738v27.648c10.445 0.409 20.685 1.536 30.413 3.379 1.945-9.728 3.277-20.173 3.687-30.925l-34.099-0.103zM368.231 178.022v40.858c12.493-6.861 20.992-24.576 25.6-38.093-8.192-1.433-16.793-2.355-25.6-2.765zM349.594 218.777v-40.755c-8.704 0.409-17.203 1.331-25.293 2.765 4.505 13.517 12.902 31.027 25.293 37.99zM349.594 159.385v-27.648h-33.792c0.409 10.752 1.639 21.197 3.687 30.925 9.625-1.741 19.661-2.867 30.106-3.277zM319.795 81.869c-2.151 9.831-3.481 20.377-3.993 31.232h33.69v-27.955c-10.24-0.409-20.173-1.536-29.696-3.277zM349.594 66.509v-39.117c-11.981 6.759-20.275 23.45-24.781 36.454 7.885 1.433 16.179 2.253 24.781 2.663zM411.443 59.648c5.632-1.639 10.957-3.687 15.974-5.837-7.885-7.885-17.101-14.336-27.238-19.149 4.813 7.783 8.397 16.384 11.264 24.986zM416.358 77.568c2.457 11.161 3.993 23.142 4.505 35.533h34.611c-1.536-16.384-7.168-31.539-15.872-44.544-7.577 3.789-15.257 6.656-23.245 9.011zM439.808 176.077c8.601-12.902 14.131-28.058 15.667-44.237h-34.611c-0.409 12.288-1.945 24.166-4.199 35.328 7.987 2.253 15.769 5.223 23.142 8.909zM427.623 190.925c-4.915-2.253-10.137-4.199-15.667-5.837-2.765 8.601-6.247 16.998-10.752 24.678 9.933-4.711 18.841-11.161 26.419-18.841zM316.928 209.971c-4.505-7.885-8.089-16.281-10.854-24.883-5.632 1.741-10.957 3.687-15.872 5.939 7.68 7.783 16.793 14.233 26.726 18.944z" />
</font>
</defs>
</svg>
